<?xml version="1.0" encoding="UTF-8" standalone="no"?>
<!DOCTYPE svg PUBLIC "-//W3C//DTD SVG 1.1//EN"
 "http://www.w3.org/Graphics/SVG/1.1/DTD/svg11.dtd">
<!-- Generated by graphviz version 12.2.0 (20241103.1931)
 -->
<!-- Title: imsfs Pages: 1 -->
<svg width="800pt" height="206pt"
 viewBox="0.00 0.00 800.25 206.00" xmlns="http://www.w3.org/2000/svg" xmlns:xlink="http://www.w3.org/1999/xlink">
<g id="graph0" class="graph" transform="scale(1 1) rotate(0) translate(4 202)">
<title>imsfs</title>
<polygon fill="white" stroke="none" points="-4,4 -4,-202 796.25,-202 796.25,4 -4,4"/>
<!-- 1776324247808 -->
<g id="node1" class="node">
<title>1776324247808</title>
<polygon fill="black" stroke="black" points="647.62,-63 593.62,-63 593.62,-27 647.62,-27 647.62,-63"/>
</g>
<!-- 1776324205664 -->
<g id="node12" class="node">
<title>1776324205664</title>
<ellipse fill="white" stroke="black" cx="761.25" cy="-45" rx="27" ry="27"/>
<ellipse fill="none" stroke="black" cx="761.25" cy="-45" rx="31" ry="31"/>
<text text-anchor="start" x="751.5" y="-32.98" font-family="Times New Roman,serif" font-size="32.00">■</text>
</g>
<!-- 1776324247808&#45;&gt;1776324205664 -->
<g id="edge7" class="edge">
<title>1776324247808&#45;&gt;1776324205664</title>
<path fill="none" stroke="black" d="M648.03,-45C667.96,-45 695.7,-45 718.62,-45"/>
<polygon fill="black" stroke="black" points="718.58,-48.5 728.58,-45 718.58,-41.5 718.58,-48.5"/>
</g>
<!-- 1776324247712 -->
<g id="node2" class="node">
<title>1776324247712</title>
<polygon fill="white" stroke="black" points="694.25,-171 547,-171 547,-135 694.25,-135 694.25,-171"/>
<text text-anchor="middle" x="620.62" y="-148.72" font-family="Times New Roman,serif" font-size="12.00">Update Order Confirmation</text>
</g>
<!-- 1776324209792 -->
<g id="node11" class="node">
<title>1776324209792</title>
<ellipse fill="white" stroke="black" cx="484" cy="-99" rx="27" ry="27"/>
</g>
<!-- 1776324247712&#45;&gt;1776324209792 -->
<g id="edge8" class="edge">
<title>1776324247712&#45;&gt;1776324209792</title>
<path fill="none" stroke="black" d="M546.67,-134.87C536.42,-130.73 525.34,-125.98 515.45,-121.2"/>
<polygon fill="black" stroke="black" points="517.11,-118.12 506.61,-116.7 513.94,-124.35 517.11,-118.12"/>
</g>
<!-- 1776324211472 -->
<g id="node3" class="node">
<title>1776324211472</title>
<polygon fill="white" stroke="black" points="681.88,-117 559.38,-117 559.38,-81 681.88,-81 681.88,-117"/>
<text text-anchor="middle" x="620.62" y="-94.72" font-family="Times New Roman,serif" font-size="12.00">Cancel Goods Receipt</text>
</g>
<!-- 1776324211472&#45;&gt;1776324209792 -->
<g id="edge1" class="edge">
<title>1776324211472&#45;&gt;1776324209792</title>
<path fill="none" stroke="black" d="M558.9,-105.72C546.3,-105.83 533.38,-105.62 521.95,-105.1"/>
<polygon fill="black" stroke="black" points="522.34,-101.62 512.15,-104.52 521.93,-108.6 522.34,-101.62"/>
</g>
<!-- 1776324204560 -->
<g id="node4" class="node">
<title>1776324204560</title>
<polygon fill="white" stroke="black" points="416.5,-198 274.5,-198 274.5,-162 416.5,-162 416.5,-198"/>
<text text-anchor="middle" x="345.5" y="-175.72" font-family="Times New Roman,serif" font-size="12.00">Change Delivery Indicator</text>
</g>
<!-- 1776324204560&#45;&gt;1776324209792 -->
<g id="edge2" class="edge">
<title>1776324204560&#45;&gt;1776324209792</title>
<path fill="none" stroke="black" d="M404.03,-161.61C409.9,-159.01 415.67,-156.14 421,-153 433.59,-145.59 446.02,-135.47 456.41,-126"/>
<polygon fill="black" stroke="black" points="458.64,-128.71 463.51,-119.3 453.84,-123.62 458.64,-128.71"/>
</g>
<!-- 1776324247856 -->
<g id="node5" class="node">
<title>1776324247856</title>
<polygon fill="white" stroke="black" points="394,-144 297,-144 297,-108 394,-108 394,-144"/>
<text text-anchor="middle" x="345.5" y="-121.72" font-family="Times New Roman,serif" font-size="12.00">Change Quantity</text>
</g>
<!-- 1776324247856&#45;&gt;1776324209792 -->
<g id="edge3" class="edge">
<title>1776324247856&#45;&gt;1776324209792</title>
<path fill="none" stroke="black" d="M394.24,-116.56C411.32,-113.18 430.28,-109.43 446.28,-106.26"/>
<polygon fill="black" stroke="black" points="446.72,-109.74 455.85,-104.37 445.36,-102.88 446.72,-109.74"/>
</g>
<!-- 1776324248048 -->
<g id="node6" class="node">
<title>1776324248048</title>
<polygon fill="white" stroke="black" points="407.5,-90 283.5,-90 283.5,-54 407.5,-54 407.5,-90"/>
<text text-anchor="middle" x="345.5" y="-67.72" font-family="Times New Roman,serif" font-size="12.00">Record Goods Receipt</text>
</g>
<!-- 1776324248048&#45;&gt;1776324209792 -->
<g id="edge5" class="edge">
<title>1776324248048&#45;&gt;1776324209792</title>
<path fill="none" stroke="black" d="M407.96,-84.16C420.91,-86.72 434.19,-89.35 445.91,-91.66"/>
<polygon fill="black" stroke="black" points="445.06,-95.06 455.55,-93.57 446.42,-88.2 445.06,-95.06"/>
</g>
<!-- 1776324248432 -->
<g id="node7" class="node">
<title>1776324248432</title>
<polygon fill="white" stroke="black" points="421,-36 270,-36 270,0 421,0 421,-36"/>
<text text-anchor="middle" x="345.5" y="-13.72" font-family="Times New Roman,serif" font-size="12.00">Receive Order Confirmation</text>
</g>
<!-- 1776324248432&#45;&gt;1776324209792 -->
<g id="edge4" class="edge">
<title>1776324248432&#45;&gt;1776324209792</title>
<path fill="none" stroke="black" d="M404.03,-36.39C409.9,-38.99 415.67,-41.86 421,-45 433.59,-52.41 446.02,-62.53 456.41,-72"/>
<polygon fill="black" stroke="black" points="453.84,-74.38 463.51,-78.7 458.64,-69.29 453.84,-74.38"/>
</g>
<!-- 1776324247952 -->
<g id="node8" class="node">
<title>1776324247952</title>
<polygon fill="black" stroke="black" points="144,-117 90,-117 90,-81 144,-81 144,-117"/>
</g>
<!-- 1776324212000 -->
<g id="node10" class="node">
<title>1776324212000</title>
<ellipse fill="white" stroke="black" cx="207" cy="-99" rx="27" ry="27"/>
</g>
<!-- 1776324247952&#45;&gt;1776324212000 -->
<g id="edge6" class="edge">
<title>1776324247952&#45;&gt;1776324212000</title>
<path fill="none" stroke="black" d="M144.4,-99C151.89,-99 160.18,-99 168.2,-99"/>
<polygon fill="black" stroke="black" points="168.1,-102.5 178.1,-99 168.1,-95.5 168.1,-102.5"/>
</g>
<!-- 1776324213488 -->
<g id="node9" class="node">
<title>1776324213488</title>
<ellipse fill="white" stroke="black" cx="27" cy="-99" rx="27" ry="27"/>
<text text-anchor="start" x="16.88" y="-85.83" font-family="Times New Roman,serif" font-size="34.00">●</text>
</g>
<!-- 1776324213488&#45;&gt;1776324247952 -->
<g id="edge9" class="edge">
<title>1776324213488&#45;&gt;1776324247952</title>
<path fill="none" stroke="black" d="M54.4,-99C61.89,-99 70.18,-99 78.2,-99"/>
<polygon fill="black" stroke="black" points="78.1,-102.5 88.1,-99 78.1,-95.5 78.1,-102.5"/>
</g>
<!-- 1776324212000&#45;&gt;1776324204560 -->
<g id="edge10" class="edge">
<title>1776324212000&#45;&gt;1776324204560</title>
<path fill="none" stroke="black" d="M226.38,-118.27C238.03,-129.59 253.89,-143.51 270,-153 272.17,-154.28 274.4,-155.51 276.69,-156.69"/>
<polygon fill="black" stroke="black" points="275.07,-159.8 285.6,-160.96 278.09,-153.48 275.07,-159.8"/>
</g>
<!-- 1776324212000&#45;&gt;1776324247856 -->
<g id="edge11" class="edge">
<title>1776324212000&#45;&gt;1776324247856</title>
<path fill="none" stroke="black" d="M234,-104.14C248.66,-107.04 267.63,-110.79 285.69,-114.37"/>
<polygon fill="black" stroke="black" points="284.8,-117.76 295.29,-116.27 286.16,-110.89 284.8,-117.76"/>
</g>
<!-- 1776324212000&#45;&gt;1776324248048 -->
<g id="edge13" class="edge">
<title>1776324212000&#45;&gt;1776324248048</title>
<path fill="none" stroke="black" d="M234,-93.86C245.04,-91.67 258.53,-89.01 272.23,-86.3"/>
<polygon fill="black" stroke="black" points="272.6,-89.79 281.73,-84.42 271.24,-82.92 272.6,-89.79"/>
</g>
<!-- 1776324212000&#45;&gt;1776324248432 -->
<g id="edge12" class="edge">
<title>1776324212000&#45;&gt;1776324248432</title>
<path fill="none" stroke="black" d="M226.38,-79.73C238.03,-68.41 253.89,-54.49 270,-45 272.17,-43.72 274.4,-42.49 276.69,-41.31"/>
<polygon fill="black" stroke="black" points="278.09,-44.52 285.6,-37.04 275.07,-38.2 278.09,-44.52"/>
</g>
<!-- 1776324209792&#45;&gt;1776324247808 -->
<g id="edge15" class="edge">
<title>1776324209792&#45;&gt;1776324247808</title>
<path fill="none" stroke="black" d="M509.01,-88.18C520.46,-83.11 534.37,-77.09 547,-72 558.53,-67.35 571.21,-62.54 582.7,-58.28"/>
<polygon fill="black" stroke="black" points="583.67,-61.66 591.85,-54.92 581.26,-55.08 583.67,-61.66"/>
</g>
<!-- 1776324209792&#45;&gt;1776324247712 -->
<g id="edge16" class="edge">
<title>1776324209792&#45;&gt;1776324247712</title>
<path fill="none" stroke="black" d="M511.11,-102.44C522.13,-106.61 535.13,-112.21 547,-117 557.76,-121.34 569.51,-125.82 580.37,-130.2"/>
<polygon fill="black" stroke="black" points="578.88,-133.37 589.46,-133.95 581.55,-126.9 578.88,-133.37"/>
</g>
<!-- 1776324209792&#45;&gt;1776324211472 -->
<g id="edge14" class="edge">
<title>1776324209792&#45;&gt;1776324211472</title>
<path fill="none" stroke="black" d="M510.64,-93.57C521.37,-92.78 534.42,-92.35 547.72,-92.26"/>
<polygon fill="black" stroke="black" points="547.38,-95.76 557.39,-92.28 547.39,-88.76 547.38,-95.76"/>
</g>
</g>
</svg>
