<?xml version="1.0" encoding="UTF-8" standalone="no"?>
<!DOCTYPE svg PUBLIC "-//W3C//DTD SVG 1.1//EN"
 "http://www.w3.org/Graphics/SVG/1.1/DTD/svg11.dtd">
<!-- Generated by graphviz version 12.2.0 (20241103.1931)
 -->
<!-- Title: imdf_net_1742393744.2695258 Pages: 1 -->
<svg width="3001pt" height="434pt"
 viewBox="0.00 0.00 3001.00 434.00" xmlns="http://www.w3.org/2000/svg" xmlns:xlink="http://www.w3.org/1999/xlink">
<g id="graph0" class="graph" transform="scale(1 1) rotate(0) translate(4 430)">
<title>imdf_net_1742393744.2695258</title>
<polygon fill="white" stroke="none" points="-4,4 -4,-430 2997,-430 2997,4 -4,4"/>
<!-- 1486464426112 -->
<g id="node1" class="node">
<title>1486464426112</title>
<polygon fill="white" stroke="black" points="818.25,-340 671,-340 671,-304 818.25,-304 818.25,-340"/>
<text text-anchor="middle" x="744.62" y="-317.73" font-family="Times New Roman,serif" font-size="12.00">Create Purchase Order Item</text>
</g>
<!-- 1486464423952 -->
<g id="node40" class="node">
<title>1486464423952</title>
<ellipse fill="white" stroke="black" cx="881.25" cy="-322" rx="27" ry="27"/>
</g>
<!-- 1486464426112&#45;&gt;1486464423952 -->
<g id="edge4" class="edge">
<title>1486464426112&#45;&gt;1486464423952</title>
<path fill="none" stroke="black" d="M818.45,-322C826.75,-322 834.93,-322 842.49,-322"/>
<polygon fill="black" stroke="black" points="842.27,-325.5 852.27,-322 842.27,-318.5 842.27,-325.5"/>
</g>
<!-- 1486464430336 -->
<g id="node2" class="node">
<title>1486464430336</title>
<polygon fill="white" stroke="black" points="2056,-290 1976.25,-290 1976.25,-254 2056,-254 2056,-290"/>
<text text-anchor="middle" x="2016.12" y="-267.73" font-family="Times New Roman,serif" font-size="12.00">Change Price</text>
</g>
<!-- 1486464429808 -->
<g id="node33" class="node">
<title>1486464429808</title>
<ellipse fill="white" stroke="black" cx="2598" cy="-237" rx="27" ry="27"/>
</g>
<!-- 1486464430336&#45;&gt;1486464429808 -->
<g id="edge9" class="edge">
<title>1486464430336&#45;&gt;1486464429808</title>
<path fill="none" stroke="black" d="M2056.28,-275.74C2143.35,-283.08 2359.22,-295.77 2535,-261 2544.16,-259.19 2553.71,-256.13 2562.5,-252.79"/>
<polygon fill="black" stroke="black" points="2563.79,-256.04 2571.74,-249.05 2561.16,-249.56 2563.79,-256.04"/>
</g>
<!-- 1486464430720 -->
<g id="node3" class="node">
<title>1486464430720</title>
<polygon fill="white" stroke="black" points="1940.25,-244 1793,-244 1793,-208 1940.25,-208 1940.25,-244"/>
<text text-anchor="middle" x="1866.62" y="-221.72" font-family="Times New Roman,serif" font-size="12.00">Delete Purchase Order Item</text>
</g>
<!-- 1486464430528 -->
<g id="node34" class="node">
<title>1486464430528</title>
<ellipse fill="white" stroke="black" cx="2306" cy="-225" rx="27" ry="27"/>
</g>
<!-- 1486464430720&#45;&gt;1486464430528 -->
<g id="edge3" class="edge">
<title>1486464430720&#45;&gt;1486464430528</title>
<path fill="none" stroke="black" d="M1940.34,-225.83C2034.45,-225.62 2194.94,-225.25 2267.46,-225.09"/>
<polygon fill="black" stroke="black" points="2267.22,-228.59 2277.21,-225.06 2267.2,-221.59 2267.22,-228.59"/>
</g>
<!-- 1485801143936 -->
<g id="node4" class="node">
<title>1485801143936</title>
<polygon fill="black" stroke="black" points="1893.62,-167 1839.62,-167 1839.62,-131 1893.62,-131 1893.62,-167"/>
</g>
<!-- 1486464419968 -->
<g id="node35" class="node">
<title>1486464419968</title>
<ellipse fill="white" stroke="black" cx="2016.12" cy="-126" rx="27" ry="27"/>
</g>
<!-- 1485801143936&#45;&gt;1486464419968 -->
<g id="edge45" class="edge">
<title>1485801143936&#45;&gt;1486464419968</title>
<path fill="none" stroke="black" d="M1894,-144.89C1917.28,-141.26 1951.48,-135.92 1977.61,-131.85"/>
<polygon fill="black" stroke="black" points="1978.15,-135.31 1987.49,-130.31 1977.07,-128.39 1978.15,-135.31"/>
</g>
<!-- 1486461975184 -->
<g id="node5" class="node">
<title>1486461975184</title>
<polygon fill="black" stroke="black" points="2479,-36 2425,-36 2425,0 2479,0 2479,-36"/>
</g>
<!-- 1486461975184&#45;&gt;1486464429808 -->
<g id="edge46" class="edge">
<title>1486461975184&#45;&gt;1486464429808</title>
<path fill="none" stroke="black" d="M2479.14,-20.44C2497.07,-23.44 2520.21,-30.12 2535,-45 2576.2,-86.44 2590.03,-155.4 2594.67,-198.42"/>
<polygon fill="black" stroke="black" points="2591.18,-198.69 2595.61,-208.31 2598.15,-198.03 2591.18,-198.69"/>
</g>
<!-- 1486464425488 -->
<g id="node6" class="node">
<title>1486464425488</title>
<polygon fill="black" stroke="black" points="2895,-308 2841,-308 2841,-272 2895,-272 2895,-308"/>
</g>
<!-- 1486464422176 -->
<g id="node44" class="node">
<title>1486464422176</title>
<ellipse fill="white" stroke="black" cx="2962" cy="-290" rx="27" ry="27"/>
<ellipse fill="none" stroke="black" cx="2962" cy="-290" rx="31" ry="31"/>
<text text-anchor="start" x="2952.25" y="-277.98" font-family="Times New Roman,serif" font-size="32.00">■</text>
</g>
<!-- 1486464425488&#45;&gt;1486464422176 -->
<g id="edge58" class="edge">
<title>1486464425488&#45;&gt;1486464422176</title>
<path fill="none" stroke="black" d="M2895.12,-290C2902.63,-290 2911.01,-290 2919.22,-290"/>
<polygon fill="black" stroke="black" points="2919.08,-293.5 2929.08,-290 2919.08,-286.5 2919.08,-293.5"/>
</g>
<!-- 1486464419344 -->
<g id="node7" class="node">
<title>1486464419344</title>
<polygon fill="white" stroke="black" points="2238.5,-198 2096.5,-198 2096.5,-162 2238.5,-162 2238.5,-198"/>
<text text-anchor="middle" x="2167.5" y="-175.72" font-family="Times New Roman,serif" font-size="12.00">Change Delivery Indicator</text>
</g>
<!-- 1486464419872 -->
<g id="node36" class="node">
<title>1486464419872</title>
<ellipse fill="white" stroke="black" cx="2306" cy="-72" rx="27" ry="27"/>
</g>
<!-- 1486464419344&#45;&gt;1486464419872 -->
<g id="edge11" class="edge">
<title>1486464419344&#45;&gt;1486464419872</title>
<path fill="none" stroke="black" d="M2229.01,-161.53C2233.94,-159 2238.67,-156.17 2243,-153 2260.43,-140.22 2275.33,-121.22 2286.16,-104.83"/>
<polygon fill="black" stroke="black" points="2288.83,-107.14 2291.23,-96.82 2282.92,-103.39 2288.83,-107.14"/>
</g>
<!-- 1486464428560 -->
<g id="node8" class="node">
<title>1486464428560</title>
<polygon fill="white" stroke="black" points="1044.25,-405 944.25,-405 944.25,-369 1044.25,-369 1044.25,-405"/>
<text text-anchor="middle" x="994.25" y="-382.73" font-family="Times New Roman,serif" font-size="12.00">Change Currency</text>
</g>
<!-- 1486464428368 -->
<g id="node31" class="node">
<title>1486464428368</title>
<ellipse fill="white" stroke="black" cx="1107.25" cy="-399" rx="27" ry="27"/>
</g>
<!-- 1486464428560&#45;&gt;1486464428368 -->
<g id="edge8" class="edge">
<title>1486464428560&#45;&gt;1486464428368</title>
<path fill="none" stroke="black" d="M1044.58,-392.33C1052.73,-393.21 1061.07,-394.12 1068.86,-394.96"/>
<polygon fill="black" stroke="black" points="1068.37,-398.42 1078.68,-396.02 1069.12,-391.47 1068.37,-398.42"/>
</g>
<!-- 1486464428848 -->
<g id="node9" class="node">
<title>1486464428848</title>
<polygon fill="white" stroke="black" points="1298.75,-422 1178.5,-422 1178.5,-386 1298.75,-386 1298.75,-422"/>
<text text-anchor="middle" x="1238.62" y="-399.73" font-family="Times New Roman,serif" font-size="12.00">Change payment term</text>
</g>
<!-- 1486464426304 -->
<g id="node41" class="node">
<title>1486464426304</title>
<ellipse fill="white" stroke="black" cx="1550" cy="-303" rx="27" ry="27"/>
</g>
<!-- 1486464428848&#45;&gt;1486464426304 -->
<g id="edge2" class="edge">
<title>1486464428848&#45;&gt;1486464426304</title>
<path fill="none" stroke="black" d="M1299.17,-412.19C1351.81,-416.54 1429.02,-415.6 1487,-384 1506.24,-373.51 1521.36,-354.24 1531.85,-337.13"/>
<polygon fill="black" stroke="black" points="1534.76,-339.11 1536.74,-328.7 1528.7,-335.6 1534.76,-339.11"/>
</g>
<!-- 1486464427312 -->
<g id="node10" class="node">
<title>1486464427312</title>
<polygon fill="white" stroke="black" points="1307,-325 1170.25,-325 1170.25,-289 1307,-289 1307,-325"/>
<text text-anchor="middle" x="1238.62" y="-302.73" font-family="Times New Roman,serif" font-size="12.00">Change Storage Location</text>
</g>
<!-- 1486464427120 -->
<g id="node43" class="node">
<title>1486464427120</title>
<ellipse fill="white" stroke="black" cx="1370" cy="-303" rx="27" ry="27"/>
</g>
<!-- 1486464427312&#45;&gt;1486464427120 -->
<g id="edge7" class="edge">
<title>1486464427312&#45;&gt;1486464427120</title>
<path fill="none" stroke="black" d="M1307.34,-304.91C1315.61,-304.65 1323.81,-304.4 1331.4,-304.16"/>
<polygon fill="black" stroke="black" points="1331.35,-307.67 1341.24,-303.86 1331.13,-300.67 1331.35,-307.67"/>
</g>
<!-- 1486464431536 -->
<g id="node11" class="node">
<title>1486464431536</title>
<polygon fill="black" stroke="black" points="2715,-323 2661,-323 2661,-287 2715,-287 2715,-323"/>
</g>
<!-- 1486464429328 -->
<g id="node32" class="node">
<title>1486464429328</title>
<ellipse fill="white" stroke="black" cx="1730" cy="-272" rx="27" ry="27"/>
</g>
<!-- 1486464431536&#45;&gt;1486464429328 -->
<g id="edge48" class="edge">
<title>1486464431536&#45;&gt;1486464429328</title>
<path fill="none" stroke="black" d="M2660.71,-307.41C2617.43,-311.17 2528.48,-318 2453,-318 2015.12,-318 2015.12,-318 2015.12,-318 1925.04,-318 1820.94,-295.19 1767.23,-281.69"/>
<polygon fill="black" stroke="black" points="1768.27,-278.35 1757.71,-279.26 1766.53,-285.13 1768.27,-278.35"/>
</g>
<!-- 1486464431920 -->
<g id="node12" class="node">
<title>1486464431920</title>
<polygon fill="black" stroke="black" points="2715,-258 2661,-258 2661,-222 2715,-222 2715,-258"/>
</g>
<!-- 1486464425824 -->
<g id="node37" class="node">
<title>1486464425824</title>
<ellipse fill="white" stroke="black" cx="2778" cy="-290" rx="27" ry="27"/>
</g>
<!-- 1486464431920&#45;&gt;1486464425824 -->
<g id="edge49" class="edge">
<title>1486464431920&#45;&gt;1486464425824</title>
<path fill="none" stroke="black" d="M2715.4,-255C2724.4,-260.11 2734.57,-265.89 2744.02,-271.26"/>
<polygon fill="black" stroke="black" points="2742.16,-274.23 2752.58,-276.13 2745.62,-268.14 2742.16,-274.23"/>
</g>
<!-- 1486464419632 -->
<g id="node13" class="node">
<title>1486464419632</title>
<polygon fill="white" stroke="black" points="2243,-144 2092,-144 2092,-108 2243,-108 2243,-144"/>
<text text-anchor="middle" x="2167.5" y="-121.72" font-family="Times New Roman,serif" font-size="12.00">Receive Order Confirmation</text>
</g>
<!-- 1486464419632&#45;&gt;1486464419872 -->
<g id="edge13" class="edge">
<title>1486464419632&#45;&gt;1486464419872</title>
<path fill="none" stroke="black" d="M2220.76,-107.53C2228.25,-104.75 2235.84,-101.85 2243,-99 2251.99,-95.42 2261.63,-91.34 2270.56,-87.46"/>
<polygon fill="black" stroke="black" points="2271.87,-90.7 2279.62,-83.48 2269.06,-84.29 2271.87,-90.7"/>
</g>
<!-- 1486464424000 -->
<g id="node14" class="node">
<title>1486464424000</title>
<polygon fill="black" stroke="black" points="353.5,-386 299.5,-386 299.5,-350 353.5,-350 353.5,-386"/>
</g>
<!-- 1486464423712 -->
<g id="node38" class="node">
<title>1486464423712</title>
<ellipse fill="white" stroke="black" cx="608" cy="-322" rx="27" ry="27"/>
</g>
<!-- 1486464424000&#45;&gt;1486464423712 -->
<g id="edge50" class="edge">
<title>1486464424000&#45;&gt;1486464423712</title>
<path fill="none" stroke="black" d="M353.73,-368.41C395.07,-368.47 477.59,-366.14 545,-349 554.38,-346.61 564.16,-342.96 573.09,-339.11"/>
<polygon fill="black" stroke="black" points="574.46,-342.33 582.12,-335.01 571.57,-335.96 574.46,-342.33"/>
</g>
<!-- 1486464419776 -->
<g id="node15" class="node">
<title>1486464419776</title>
<polygon fill="white" stroke="black" points="2513.25,-144 2390.75,-144 2390.75,-108 2513.25,-108 2513.25,-144"/>
<text text-anchor="middle" x="2452" y="-121.72" font-family="Times New Roman,serif" font-size="12.00">Cancel Goods Receipt</text>
</g>
<!-- 1486464419776&#45;&gt;1486464419872 -->
<g id="edge10" class="edge">
<title>1486464419776&#45;&gt;1486464419872</title>
<path fill="none" stroke="black" d="M2390.32,-115.66C2383.1,-113.22 2375.86,-110.62 2369,-108 2358.5,-103.99 2347.18,-99.21 2337.12,-94.31"/>
<polygon fill="black" stroke="black" points="2339.03,-91.36 2328.53,-89.9 2335.83,-97.58 2339.03,-91.36"/>
</g>
<!-- 1486464424912 -->
<g id="node16" class="node">
<title>1486464424912</title>
<polygon fill="black" stroke="black" points="494.25,-340 440.25,-340 440.25,-304 494.25,-304 494.25,-340"/>
</g>
<!-- 1486464424912&#45;&gt;1486464423712 -->
<g id="edge51" class="edge">
<title>1486464424912&#45;&gt;1486464423712</title>
<path fill="none" stroke="black" d="M494.67,-322C515.79,-322 545.67,-322 569.3,-322"/>
<polygon fill="black" stroke="black" points="569.16,-325.5 579.16,-322 569.16,-318.5 569.16,-325.5"/>
</g>
<!-- 1486464425296 -->
<g id="node17" class="node">
<title>1486464425296</title>
<polygon fill="white" stroke="black" points="545,-286 389.5,-286 389.5,-250 545,-250 545,-286"/>
<text text-anchor="middle" x="467.25" y="-263.73" font-family="Times New Roman,serif" font-size="12.00">Release Purchase Requisition</text>
</g>
<!-- 1486464425296&#45;&gt;1486464423712 -->
<g id="edge6" class="edge">
<title>1486464425296&#45;&gt;1486464423712</title>
<path fill="none" stroke="black" d="M522.11,-286.39C529.82,-289.19 537.64,-292.11 545,-295 554.01,-298.54 563.65,-302.6 572.58,-306.48"/>
<polygon fill="black" stroke="black" points="571.08,-309.65 581.64,-310.47 573.89,-303.24 571.08,-309.65"/>
</g>
<!-- 1486464424144 -->
<g id="node18" class="node">
<title>1486464424144</title>
<polygon fill="black" stroke="black" points="1021.25,-340 967.25,-340 967.25,-304 1021.25,-304 1021.25,-340"/>
</g>
<!-- 1486464426640 -->
<g id="node42" class="node">
<title>1486464426640</title>
<ellipse fill="white" stroke="black" cx="1107.25" cy="-322" rx="27" ry="27"/>
</g>
<!-- 1486464424144&#45;&gt;1486464426640 -->
<g id="edge17" class="edge">
<title>1486464424144&#45;&gt;1486464426640</title>
<path fill="none" stroke="black" d="M1021.56,-322C1035.66,-322 1053.27,-322 1068.78,-322"/>
<polygon fill="black" stroke="black" points="1068.62,-325.5 1078.62,-322 1068.62,-318.5 1068.62,-325.5"/>
</g>
<!-- 1486464427600 -->
<g id="node19" class="node">
<title>1486464427600</title>
<polygon fill="black" stroke="black" points="1487,-375 1433,-375 1433,-339 1487,-339 1487,-375"/>
</g>
<!-- 1486464427600&#45;&gt;1486464426640 -->
<g id="edge53" class="edge">
<title>1486464427600&#45;&gt;1486464426640</title>
<path fill="none" stroke="black" d="M1432.62,-355.89C1381.7,-353.52 1266.42,-347.1 1170.25,-334 1162.13,-332.89 1153.46,-331.41 1145.26,-329.86"/>
<polygon fill="black" stroke="black" points="1146.06,-326.45 1135.57,-327.96 1144.71,-333.32 1146.06,-326.45"/>
</g>
<!-- 1486464427984 -->
<g id="node20" class="node">
<title>1486464427984</title>
<polygon fill="black" stroke="black" points="1487,-321 1433,-321 1433,-285 1487,-285 1487,-321"/>
</g>
<!-- 1486464427984&#45;&gt;1486464426304 -->
<g id="edge54" class="edge">
<title>1486464427984&#45;&gt;1486464426304</title>
<path fill="none" stroke="black" d="M1487.4,-303C1494.89,-303 1503.18,-303 1511.2,-303"/>
<polygon fill="black" stroke="black" points="1511.1,-306.5 1521.1,-303 1511.1,-299.5 1511.1,-306.5"/>
</g>
<!-- 1486464419536 -->
<g id="node21" class="node">
<title>1486464419536</title>
<polygon fill="white" stroke="black" points="2216,-90 2119,-90 2119,-54 2216,-54 2216,-90"/>
<text text-anchor="middle" x="2167.5" y="-67.72" font-family="Times New Roman,serif" font-size="12.00">Change Quantity</text>
</g>
<!-- 1486464419536&#45;&gt;1486464419872 -->
<g id="edge12" class="edge">
<title>1486464419536&#45;&gt;1486464419872</title>
<path fill="none" stroke="black" d="M2216.24,-72C2232.9,-72 2251.37,-72 2267.12,-72"/>
<polygon fill="black" stroke="black" points="2267.05,-75.5 2277.05,-72 2267.05,-68.5 2267.05,-75.5"/>
</g>
<!-- 1486464424672 -->
<g id="node22" class="node">
<title>1486464424672</title>
<polygon fill="white" stroke="black" points="263.5,-331 90,-331 90,-295 263.5,-295 263.5,-331"/>
<text text-anchor="middle" x="176.75" y="-308.73" font-family="Times New Roman,serif" font-size="12.00">Create Purchase Requisition Item</text>
</g>
<!-- 1486464424480 -->
<g id="node39" class="node">
<title>1486464424480</title>
<ellipse fill="white" stroke="black" cx="326.5" cy="-305" rx="27" ry="27"/>
</g>
<!-- 1486464424672&#45;&gt;1486464424480 -->
<g id="edge5" class="edge">
<title>1486464424672&#45;&gt;1486464424480</title>
<path fill="none" stroke="black" d="M263.7,-308.35C272.01,-307.9 280.12,-307.46 287.58,-307.05"/>
<polygon fill="black" stroke="black" points="287.76,-310.55 297.56,-306.51 287.38,-303.56 287.76,-310.55"/>
</g>
<!-- 1486464426352 -->
<g id="node23" class="node">
<title>1486464426352</title>
<polygon fill="black" stroke="black" points="1397,-258 1343,-258 1343,-222 1397,-222 1397,-258"/>
</g>
<!-- 1486464426352&#45;&gt;1486464426304 -->
<g id="edge52" class="edge">
<title>1486464426352&#45;&gt;1486464426304</title>
<path fill="none" stroke="black" d="M1397.07,-247.2C1420.77,-253.96 1456.56,-264.69 1487,-276 1496.08,-279.37 1505.74,-283.37 1514.67,-287.25"/>
<polygon fill="black" stroke="black" points="1513.16,-290.41 1523.72,-291.25 1515.99,-284.01 1513.16,-290.41"/>
</g>
<!-- 1486464429040 -->
<g id="node24" class="node">
<title>1486464429040</title>
<polygon fill="black" stroke="black" points="1757,-363 1703,-363 1703,-327 1757,-327 1757,-363"/>
</g>
<!-- 1486464429040&#45;&gt;1486464425824 -->
<g id="edge55" class="edge">
<title>1486464429040&#45;&gt;1486464425824</title>
<path fill="none" stroke="black" d="M1757.23,-346.69C1807.33,-349.78 1920.1,-356 2015.12,-356 2015.12,-356 2015.12,-356 2599,-356 2651.65,-356 2666.5,-352.49 2715,-332 2726.14,-327.29 2737.37,-320.47 2747.15,-313.68"/>
<polygon fill="black" stroke="black" points="2749.12,-316.57 2755.17,-307.87 2745.01,-310.9 2749.12,-316.57"/>
</g>
<!-- 1486464429424 -->
<g id="node25" class="node">
<title>1486464429424</title>
<polygon fill="black" stroke="black" points="1667,-298 1613,-298 1613,-262 1667,-262 1667,-298"/>
</g>
<!-- 1486464429424&#45;&gt;1486464429328 -->
<g id="edge16" class="edge">
<title>1486464429424&#45;&gt;1486464429328</title>
<path fill="none" stroke="black" d="M1667.4,-277.6C1674.89,-276.92 1683.18,-276.17 1691.2,-275.44"/>
<polygon fill="black" stroke="black" points="1691.47,-278.93 1701.11,-274.54 1690.83,-271.96 1691.47,-278.93"/>
</g>
<!-- 1486464430960 -->
<g id="node26" class="node">
<title>1486464430960</title>
<polygon fill="black" stroke="black" points="2479,-252 2425,-252 2425,-216 2479,-216 2479,-252"/>
</g>
<!-- 1486464430960&#45;&gt;1486464429808 -->
<g id="edge47" class="edge">
<title>1486464430960&#45;&gt;1486464429808</title>
<path fill="none" stroke="black" d="M2479.41,-234.55C2501.84,-235.02 2534.3,-235.69 2559.43,-236.22"/>
<polygon fill="black" stroke="black" points="2559.17,-239.71 2569.24,-236.42 2559.32,-232.71 2559.17,-239.71"/>
</g>
<!-- 1486464431344 -->
<g id="node27" class="node">
<title>1486464431344</title>
<polygon fill="white" stroke="black" points="2535,-198 2369,-198 2369,-162 2535,-162 2535,-198"/>
<text text-anchor="middle" x="2452" y="-175.72" font-family="Times New Roman,serif" font-size="12.00">Reactivate Purchase Order Item</text>
</g>
<!-- 1486464431344&#45;&gt;1486464429808 -->
<g id="edge1" class="edge">
<title>1486464431344&#45;&gt;1486464429808</title>
<path fill="none" stroke="black" d="M2512.02,-198.39C2519.81,-201.12 2527.64,-204.02 2535,-207 2544.32,-210.77 2554.21,-215.3 2563.29,-219.69"/>
<polygon fill="black" stroke="black" points="2561.61,-222.76 2572.13,-224.04 2564.7,-216.48 2561.61,-222.76"/>
</g>
<!-- 1486464419440 -->
<g id="node28" class="node">
<title>1486464419440</title>
<polygon fill="white" stroke="black" points="2229.5,-36 2105.5,-36 2105.5,0 2229.5,0 2229.5,-36"/>
<text text-anchor="middle" x="2167.5" y="-13.72" font-family="Times New Roman,serif" font-size="12.00">Record Goods Receipt</text>
</g>
<!-- 1486464419440&#45;&gt;1486464419872 -->
<g id="edge14" class="edge">
<title>1486464419440&#45;&gt;1486464419872</title>
<path fill="none" stroke="black" d="M2220.76,-36.47C2228.25,-39.25 2235.84,-42.15 2243,-45 2251.99,-48.58 2261.63,-52.66 2270.56,-56.54"/>
<polygon fill="black" stroke="black" points="2269.06,-59.71 2279.62,-60.52 2271.87,-53.3 2269.06,-59.71"/>
</g>
<!-- 1486464419056 -->
<g id="node29" class="node">
<title>1486464419056</title>
<polygon fill="white" stroke="black" points="2525.62,-90 2378.38,-90 2378.38,-54 2525.62,-54 2525.62,-90"/>
<text text-anchor="middle" x="2452" y="-67.72" font-family="Times New Roman,serif" font-size="12.00">Update Order Confirmation</text>
</g>
<!-- 1486464419056&#45;&gt;1486464419872 -->
<g id="edge15" class="edge">
<title>1486464419056&#45;&gt;1486464419872</title>
<path fill="none" stroke="black" d="M2377.91,-78.75C2366.12,-78.73 2354.37,-78.48 2343.92,-77.98"/>
<polygon fill="black" stroke="black" points="2344.45,-74.51 2334.26,-77.41 2344.03,-81.49 2344.45,-74.51"/>
</g>
<!-- 1486464426784 -->
<g id="node30" class="node">
<title>1486464426784</title>
<ellipse fill="white" stroke="black" cx="27" cy="-336" rx="27" ry="27"/>
<text text-anchor="start" x="16.88" y="-322.82" font-family="Times New Roman,serif" font-size="34.00">●</text>
</g>
<!-- 1486464426784&#45;&gt;1486464424000 -->
<g id="edge57" class="edge">
<title>1486464426784&#45;&gt;1486464424000</title>
<path fill="none" stroke="black" d="M54.14,-338.81C106.91,-344.49 226.35,-357.34 287.65,-363.93"/>
<polygon fill="black" stroke="black" points="287.28,-367.41 297.59,-365 288.03,-360.45 287.28,-367.41"/>
</g>
<!-- 1486464426784&#45;&gt;1486464424672 -->
<g id="edge56" class="edge">
<title>1486464426784&#45;&gt;1486464424672</title>
<path fill="none" stroke="black" d="M54.07,-331.94C61.3,-330.82 69.59,-329.53 78.38,-328.16"/>
<polygon fill="black" stroke="black" points="78.89,-331.62 88.23,-326.62 77.81,-324.7 78.89,-331.62"/>
</g>
<!-- 1486464428368&#45;&gt;1486464428848 -->
<g id="edge18" class="edge">
<title>1486464428368&#45;&gt;1486464428848</title>
<path fill="none" stroke="black" d="M1134.43,-400.01C1144,-400.38 1155.33,-400.82 1166.93,-401.27"/>
<polygon fill="black" stroke="black" points="1166.44,-404.75 1176.56,-401.64 1166.71,-397.76 1166.44,-404.75"/>
</g>
<!-- 1486464429328&#45;&gt;1486464430336 -->
<g id="edge20" class="edge">
<title>1486464429328&#45;&gt;1486464430336</title>
<path fill="none" stroke="black" d="M1757.47,-272C1804.71,-272 1904.24,-272 1964.83,-272"/>
<polygon fill="black" stroke="black" points="1964.53,-275.5 1974.53,-272 1964.53,-268.5 1964.53,-275.5"/>
</g>
<!-- 1486464429328&#45;&gt;1486464430720 -->
<g id="edge19" class="edge">
<title>1486464429328&#45;&gt;1486464430720</title>
<path fill="none" stroke="black" d="M1756.01,-263.46C1768.86,-259.06 1785.16,-253.49 1801.25,-248"/>
<polygon fill="black" stroke="black" points="1801.98,-251.44 1810.32,-244.9 1799.72,-244.82 1801.98,-251.44"/>
</g>
<!-- 1486464429328&#45;&gt;1485801143936 -->
<g id="edge21" class="edge">
<title>1486464429328&#45;&gt;1485801143936</title>
<path fill="none" stroke="black" d="M1746.76,-250.56C1758.56,-235.27 1775.6,-214.72 1793,-199 1804.2,-188.88 1817.55,-179.13 1829.73,-170.98"/>
<polygon fill="black" stroke="black" points="1831.46,-174.03 1837.92,-165.63 1827.64,-168.17 1831.46,-174.03"/>
</g>
<!-- 1486464429808&#45;&gt;1486464431536 -->
<g id="edge22" class="edge">
<title>1486464429808&#45;&gt;1486464431536</title>
<path fill="none" stroke="black" d="M2619.85,-253.12C2630.12,-261.05 2642.74,-270.8 2654.25,-279.7"/>
<polygon fill="black" stroke="black" points="2651.94,-282.33 2661.99,-285.67 2656.22,-276.79 2651.94,-282.33"/>
</g>
<!-- 1486464429808&#45;&gt;1486464431920 -->
<g id="edge23" class="edge">
<title>1486464429808&#45;&gt;1486464431920</title>
<path fill="none" stroke="black" d="M2625.4,-237.9C2632.89,-238.16 2641.18,-238.44 2649.2,-238.71"/>
<polygon fill="black" stroke="black" points="2648.99,-242.21 2659.1,-239.05 2649.23,-235.21 2648.99,-242.21"/>
</g>
<!-- 1486464430528&#45;&gt;1486464430960 -->
<g id="edge25" class="edge">
<title>1486464430528&#45;&gt;1486464430960</title>
<path fill="none" stroke="black" d="M2333.41,-226.65C2355.84,-228.05 2388.3,-230.08 2413.43,-231.65"/>
<polygon fill="black" stroke="black" points="2413.05,-235.13 2423.25,-232.27 2413.48,-228.15 2413.05,-235.13"/>
</g>
<!-- 1486464430528&#45;&gt;1486464431344 -->
<g id="edge24" class="edge">
<title>1486464430528&#45;&gt;1486464431344</title>
<path fill="none" stroke="black" d="M2332.08,-217.16C2345.76,-212.89 2363.44,-207.36 2380.97,-201.88"/>
<polygon fill="black" stroke="black" points="2381.88,-205.27 2390.38,-198.94 2379.79,-198.59 2381.88,-205.27"/>
</g>
<!-- 1486464419968&#45;&gt;1486464419344 -->
<g id="edge26" class="edge">
<title>1486464419968&#45;&gt;1486464419344</title>
<path fill="none" stroke="black" d="M2041.79,-134.92C2058.95,-141.12 2082.64,-149.68 2104.76,-157.68"/>
<polygon fill="black" stroke="black" points="2103.44,-160.92 2114.03,-161.03 2105.82,-154.34 2103.44,-160.92"/>
</g>
<!-- 1486464419968&#45;&gt;1486464419632 -->
<g id="edge28" class="edge">
<title>1486464419968&#45;&gt;1486464419632</title>
<path fill="none" stroke="black" d="M2043.49,-126C2054.09,-126 2066.96,-126 2080.34,-126"/>
<polygon fill="black" stroke="black" points="2080.15,-129.5 2090.15,-126 2080.15,-122.5 2080.15,-129.5"/>
</g>
<!-- 1486464419968&#45;&gt;1486464419536 -->
<g id="edge27" class="edge">
<title>1486464419968&#45;&gt;1486464419536</title>
<path fill="none" stroke="black" d="M2041.79,-117.08C2059.75,-110.59 2084.84,-101.52 2107.81,-93.22"/>
<polygon fill="black" stroke="black" points="2108.9,-96.55 2117.11,-89.85 2106.52,-89.96 2108.9,-96.55"/>
</g>
<!-- 1486464419968&#45;&gt;1486464419440 -->
<g id="edge29" class="edge">
<title>1486464419968&#45;&gt;1486464419440</title>
<path fill="none" stroke="black" d="M2032.42,-104.37C2046.19,-86.3 2067.91,-61 2092,-45 2093.81,-43.8 2095.67,-42.65 2097.58,-41.54"/>
<polygon fill="black" stroke="black" points="2098.88,-44.81 2106.11,-37.06 2095.63,-38.61 2098.88,-44.81"/>
</g>
<!-- 1486464419872&#45;&gt;1486461975184 -->
<g id="edge32" class="edge">
<title>1486464419872&#45;&gt;1486461975184</title>
<path fill="none" stroke="black" d="M2330.93,-60.96C2342.35,-55.85 2356.28,-49.85 2369,-45 2383.48,-39.48 2399.63,-34.01 2413.75,-29.46"/>
<polygon fill="black" stroke="black" points="2414.65,-32.85 2423.12,-26.48 2412.53,-26.18 2414.65,-32.85"/>
</g>
<!-- 1486464419872&#45;&gt;1486464419776 -->
<g id="edge30" class="edge">
<title>1486464419872&#45;&gt;1486464419776</title>
<path fill="none" stroke="black" d="M2333.02,-75.67C2344.03,-79.87 2357.04,-85.44 2369,-90 2381.24,-94.67 2394.68,-99.3 2407.07,-103.73"/>
<polygon fill="black" stroke="black" points="2405.62,-106.92 2416.22,-107.05 2408.01,-100.34 2405.62,-106.92"/>
</g>
<!-- 1486464419872&#45;&gt;1486464419056 -->
<g id="edge31" class="edge">
<title>1486464419872&#45;&gt;1486464419056</title>
<path fill="none" stroke="black" d="M2332.74,-66.68C2342.53,-65.97 2354.29,-65.52 2366.55,-65.34"/>
<polygon fill="black" stroke="black" points="2366.42,-68.84 2376.4,-65.26 2366.37,-61.84 2366.42,-68.84"/>
</g>
<!-- 1486464425824&#45;&gt;1486464425488 -->
<g id="edge33" class="edge">
<title>1486464425824&#45;&gt;1486464425488</title>
<path fill="none" stroke="black" d="M2805.4,-290C2812.89,-290 2821.18,-290 2829.2,-290"/>
<polygon fill="black" stroke="black" points="2829.1,-293.5 2839.1,-290 2829.1,-286.5 2829.1,-293.5"/>
</g>
<!-- 1486464423712&#45;&gt;1486464426112 -->
<g id="edge34" class="edge">
<title>1486464423712&#45;&gt;1486464426112</title>
<path fill="none" stroke="black" d="M635.28,-322C642.46,-322 650.65,-322 659.24,-322"/>
<polygon fill="black" stroke="black" points="659.19,-325.5 669.19,-322 659.19,-318.5 659.19,-325.5"/>
</g>
<!-- 1486464424480&#45;&gt;1486464424912 -->
<g id="edge36" class="edge">
<title>1486464424480&#45;&gt;1486464424912</title>
<path fill="none" stroke="black" d="M353.6,-308.2C374.68,-310.78 404.65,-314.45 428.38,-317.36"/>
<polygon fill="black" stroke="black" points="427.94,-320.83 438.3,-318.57 428.8,-313.88 427.94,-320.83"/>
</g>
<!-- 1486464424480&#45;&gt;1486464425296 -->
<g id="edge35" class="edge">
<title>1486464424480&#45;&gt;1486464425296</title>
<path fill="none" stroke="black" d="M352.95,-298.21C362.53,-295.66 374.02,-292.6 385.94,-289.42"/>
<polygon fill="black" stroke="black" points="386.75,-292.82 395.51,-286.86 384.95,-286.06 386.75,-292.82"/>
</g>
<!-- 1486464423952&#45;&gt;1486464428560 -->
<g id="edge37" class="edge">
<title>1486464423952&#45;&gt;1486464428560</title>
<path fill="none" stroke="black" d="M904.98,-335.31C918.53,-343.25 936.14,-353.56 952.07,-362.88"/>
<polygon fill="black" stroke="black" points="950.01,-365.74 960.41,-367.77 953.55,-359.69 950.01,-365.74"/>
</g>
<!-- 1486464423952&#45;&gt;1486464424144 -->
<g id="edge38" class="edge">
<title>1486464423952&#45;&gt;1486464424144</title>
<path fill="none" stroke="black" d="M908.56,-322C922.66,-322 940.27,-322 955.78,-322"/>
<polygon fill="black" stroke="black" points="955.62,-325.5 965.62,-322 955.62,-318.5 955.62,-325.5"/>
</g>
<!-- 1486464423952&#45;&gt;1486464426352 -->
<g id="edge39" class="edge">
<title>1486464423952&#45;&gt;1486464426352</title>
<path fill="none" stroke="black" d="M905.82,-309.86C917.16,-304.51 931.12,-298.63 944.25,-295 1083.71,-256.44 1256.57,-244.72 1331.48,-241.32"/>
<polygon fill="black" stroke="black" points="1331.28,-244.83 1341.12,-240.91 1330.98,-237.84 1331.28,-244.83"/>
</g>
<!-- 1486464426304&#45;&gt;1486464429040 -->
<g id="edge41" class="edge">
<title>1486464426304&#45;&gt;1486464429040</title>
<path fill="none" stroke="black" d="M1576.5,-309.02C1606.65,-316.13 1657.06,-328.03 1691.62,-336.18"/>
<polygon fill="black" stroke="black" points="1690.66,-339.55 1701.2,-338.44 1692.27,-332.74 1690.66,-339.55"/>
</g>
<!-- 1486464426304&#45;&gt;1486464429424 -->
<g id="edge40" class="edge">
<title>1486464426304&#45;&gt;1486464429424</title>
<path fill="none" stroke="black" d="M1576.45,-296.35C1584.36,-294.28 1593.24,-291.96 1601.78,-289.73"/>
<polygon fill="black" stroke="black" points="1602.43,-293.18 1611.22,-287.26 1600.66,-286.4 1602.43,-293.18"/>
</g>
<!-- 1486464426640&#45;&gt;1486464427312 -->
<g id="edge42" class="edge">
<title>1486464426640&#45;&gt;1486464427312</title>
<path fill="none" stroke="black" d="M1134.43,-318.96C1141.75,-318.12 1150.11,-317.15 1158.82,-316.14"/>
<polygon fill="black" stroke="black" points="1158.96,-319.64 1168.49,-315.02 1158.16,-312.69 1158.96,-319.64"/>
</g>
<!-- 1486464427120&#45;&gt;1486464427600 -->
<g id="edge43" class="edge">
<title>1486464427120&#45;&gt;1486464427600</title>
<path fill="none" stroke="black" d="M1393.66,-316.91C1402.6,-322.39 1413.09,-328.83 1423.01,-334.92"/>
<polygon fill="black" stroke="black" points="1421.03,-337.8 1431.38,-340.05 1424.69,-331.84 1421.03,-337.8"/>
</g>
<!-- 1486464427120&#45;&gt;1486464427984 -->
<g id="edge44" class="edge">
<title>1486464427120&#45;&gt;1486464427984</title>
<path fill="none" stroke="black" d="M1397.4,-303C1404.89,-303 1413.18,-303 1421.2,-303"/>
<polygon fill="black" stroke="black" points="1421.1,-306.5 1431.1,-303 1421.1,-299.5 1421.1,-306.5"/>
</g>
</g>
</svg>
