<?xml version="1.0" encoding="UTF-8" standalone="no"?>
<!DOCTYPE svg PUBLIC "-//W3C//DTD SVG 1.1//EN"
 "http://www.w3.org/Graphics/SVG/1.1/DTD/svg11.dtd">
<!-- Generated by graphviz version 12.2.0 (20241103.1931)
 -->
<!-- Title: imdf_net_1742983743.7050097 Pages: 1 -->
<svg width="3808pt" height="558pt"
 viewBox="0.00 0.00 3808.00 558.00" xmlns="http://www.w3.org/2000/svg" xmlns:xlink="http://www.w3.org/1999/xlink">
<g id="graph0" class="graph" transform="scale(1 1) rotate(0) translate(4 554)">
<title>imdf_net_1742983743.7050097</title>
<polygon fill="white" stroke="none" points="-4,4 -4,-554 3804,-554 3804,4 -4,4"/>
<!-- 2291822988928 -->
<g id="node1" class="node">
<title>2291822988928</title>
<polygon fill="black" stroke="black" points="1397,-471 1343,-471 1343,-435 1397,-435 1397,-471"/>
</g>
<!-- 2291822988784 -->
<g id="node56" class="node">
<title>2291822988784</title>
<ellipse fill="white" stroke="black" cx="1550" cy="-352" rx="27" ry="27"/>
</g>
<!-- 2291822988928&#45;&gt;2291822988784 -->
<g id="edge67" class="edge">
<title>2291822988928&#45;&gt;2291822988784</title>
<path fill="none" stroke="black" d="M1397.31,-453.79C1422.14,-453.37 1459.55,-449.61 1487,-433 1505.75,-421.66 1520.85,-402.36 1531.46,-385.45"/>
<polygon fill="black" stroke="black" points="1534.3,-387.52 1536.41,-377.14 1528.28,-383.94 1534.3,-387.52"/>
</g>
<!-- 2291822989312 -->
<g id="node2" class="node">
<title>2291822989312</title>
<polygon fill="black" stroke="black" points="1021.25,-404 967.25,-404 967.25,-368 1021.25,-368 1021.25,-404"/>
</g>
<!-- 2291822989216 -->
<g id="node57" class="node">
<title>2291822989216</title>
<ellipse fill="white" stroke="black" cx="1107.25" cy="-386" rx="27" ry="27"/>
</g>
<!-- 2291822989312&#45;&gt;2291822989216 -->
<g id="edge19" class="edge">
<title>2291822989312&#45;&gt;2291822989216</title>
<path fill="none" stroke="black" d="M1021.56,-386C1035.66,-386 1053.27,-386 1068.78,-386"/>
<polygon fill="black" stroke="black" points="1068.62,-389.5 1078.62,-386 1068.62,-382.5 1068.62,-389.5"/>
</g>
<!-- 2291822991616 -->
<g id="node3" class="node">
<title>2291822991616</title>
<polygon fill="black" stroke="black" points="1757,-485 1703,-485 1703,-449 1757,-449 1757,-485"/>
</g>
<!-- 2291822986672 -->
<g id="node52" class="node">
<title>2291822986672</title>
<ellipse fill="white" stroke="black" cx="3585" cy="-254" rx="27" ry="27"/>
</g>
<!-- 2291822991616&#45;&gt;2291822986672 -->
<g id="edge70" class="edge">
<title>2291822991616&#45;&gt;2291822986672</title>
<path fill="none" stroke="black" d="M1757.13,-480.71C1804.59,-504.28 1908.68,-550 2002.25,-550 2002.25,-550 2002.25,-550 3406,-550 3525.02,-550 3566.48,-372.06 3579.11,-292.11"/>
<polygon fill="black" stroke="black" points="3582.52,-292.96 3580.54,-282.55 3575.6,-291.92 3582.52,-292.96"/>
</g>
<!-- 2291822992000 -->
<g id="node4" class="node">
<title>2291822992000</title>
<polygon fill="black" stroke="black" points="1667,-347 1613,-347 1613,-311 1667,-311 1667,-347"/>
</g>
<!-- 2291822991904 -->
<g id="node40" class="node">
<title>2291822991904</title>
<ellipse fill="white" stroke="black" cx="1730" cy="-321" rx="27" ry="27"/>
</g>
<!-- 2291822992000&#45;&gt;2291822991904 -->
<g id="edge16" class="edge">
<title>2291822992000&#45;&gt;2291822991904</title>
<path fill="none" stroke="black" d="M1667.4,-326.6C1674.89,-325.92 1683.18,-325.17 1691.2,-324.44"/>
<polygon fill="black" stroke="black" points="1691.47,-327.93 1701.11,-323.54 1690.83,-320.96 1691.47,-327.93"/>
</g>
<!-- 2291822998144 -->
<g id="node5" class="node">
<title>2291822998144</title>
<polygon fill="white" stroke="black" points="2217.25,-323 2066.25,-323 2066.25,-287 2217.25,-287 2217.25,-323"/>
<text text-anchor="middle" x="2141.75" y="-300.73" font-family="Times New Roman,serif" font-size="12.00">Receive Order Confirmation</text>
</g>
<!-- 2291822997616 -->
<g id="node49" class="node">
<title>2291822997616</title>
<ellipse fill="white" stroke="black" cx="2324.25" cy="-291" rx="27" ry="27"/>
</g>
<!-- 2291822998144&#45;&gt;2291822997616 -->
<g id="edge2" class="edge">
<title>2291822998144&#45;&gt;2291822997616</title>
<path fill="none" stroke="black" d="M2217.73,-299.18C2241.26,-297.36 2266.22,-295.42 2285.95,-293.89"/>
<polygon fill="black" stroke="black" points="2286,-297.4 2295.7,-293.14 2285.46,-290.42 2286,-297.4"/>
</g>
<!-- 2291822999296 -->
<g id="node6" class="node">
<title>2291822999296</title>
<polygon fill="white" stroke="black" points="2870,-262 2722.75,-262 2722.75,-226 2870,-226 2870,-262"/>
<text text-anchor="middle" x="2796.38" y="-239.72" font-family="Times New Roman,serif" font-size="12.00">Update Order Confirmation</text>
</g>
<!-- 2291822999104 -->
<g id="node51" class="node">
<title>2291822999104</title>
<ellipse fill="white" stroke="black" cx="2933" cy="-244" rx="27" ry="27"/>
</g>
<!-- 2291822999296&#45;&gt;2291822999104 -->
<g id="edge5" class="edge">
<title>2291822999296&#45;&gt;2291822999104</title>
<path fill="none" stroke="black" d="M2870.2,-244C2878.5,-244 2886.68,-244 2894.24,-244"/>
<polygon fill="black" stroke="black" points="2894.02,-247.5 2904.02,-244 2894.02,-240.5 2894.02,-247.5"/>
</g>
<!-- 2291822996992 -->
<g id="node7" class="node">
<title>2291822996992</title>
<polygon fill="black" stroke="black" points="3522,-440 3468,-440 3468,-404 3522,-404 3522,-440"/>
</g>
<!-- 2291822996992&#45;&gt;2291822991904 -->
<g id="edge64" class="edge">
<title>2291822996992&#45;&gt;2291822991904</title>
<path fill="none" stroke="black" d="M3467.54,-439.57C3425.47,-465.76 3339.87,-512 3260,-512 2002.25,-512 2002.25,-512 2002.25,-512 1892.27,-512 1795.44,-405.73 1753.34,-351.73"/>
<polygon fill="black" stroke="black" points="1756.36,-349.92 1747.51,-344.11 1750.81,-354.18 1756.36,-349.92"/>
</g>
<!-- 2291822986768 -->
<g id="node8" class="node">
<title>2291822986768</title>
<polygon fill="black" stroke="black" points="3702,-272 3648,-272 3648,-236 3702,-236 3702,-272"/>
</g>
<!-- 2291822986576 -->
<g id="node59" class="node">
<title>2291822986576</title>
<ellipse fill="white" stroke="black" cx="3769" cy="-254" rx="27" ry="27"/>
<ellipse fill="none" stroke="black" cx="3769" cy="-254" rx="31" ry="31"/>
<text text-anchor="start" x="3759.25" y="-241.97" font-family="Times New Roman,serif" font-size="32.00">■</text>
</g>
<!-- 2291822986768&#45;&gt;2291822986576 -->
<g id="edge76" class="edge">
<title>2291822986768&#45;&gt;2291822986576</title>
<path fill="none" stroke="black" d="M3702.12,-254C3709.63,-254 3718.01,-254 3726.22,-254"/>
<polygon fill="black" stroke="black" points="3726.08,-257.5 3736.08,-254 3726.08,-250.5 3726.08,-257.5"/>
</g>
<!-- 2291822988304 -->
<g id="node9" class="node">
<title>2291822988304</title>
<polygon fill="white" stroke="black" points="545,-458 389.5,-458 389.5,-422 545,-422 545,-458"/>
<text text-anchor="middle" x="467.25" y="-435.73" font-family="Times New Roman,serif" font-size="12.00">Release Purchase Requisition</text>
</g>
<!-- 2291822987056 -->
<g id="node53" class="node">
<title>2291822987056</title>
<ellipse fill="white" stroke="black" cx="608" cy="-386" rx="27" ry="27"/>
</g>
<!-- 2291822988304&#45;&gt;2291822987056 -->
<g id="edge10" class="edge">
<title>2291822988304&#45;&gt;2291822987056</title>
<path fill="none" stroke="black" d="M522.11,-421.61C529.82,-418.81 537.64,-415.89 545,-413 554.01,-409.46 563.65,-405.4 572.58,-401.52"/>
<polygon fill="black" stroke="black" points="573.89,-404.76 581.64,-397.53 571.08,-398.35 573.89,-404.76"/>
</g>
<!-- 2291822987920 -->
<g id="node10" class="node">
<title>2291822987920</title>
<polygon fill="black" stroke="black" points="494.25,-404 440.25,-404 440.25,-368 494.25,-368 494.25,-404"/>
</g>
<!-- 2291822987920&#45;&gt;2291822987056 -->
<g id="edge66" class="edge">
<title>2291822987920&#45;&gt;2291822987056</title>
<path fill="none" stroke="black" d="M494.67,-386C515.79,-386 545.67,-386 569.3,-386"/>
<polygon fill="black" stroke="black" points="569.16,-389.5 579.16,-386 569.16,-382.5 569.16,-389.5"/>
</g>
<!-- 2291822995600 -->
<g id="node11" class="node">
<title>2291822995600</title>
<polygon fill="white" stroke="black" points="2553.75,-404 2431.25,-404 2431.25,-368 2553.75,-368 2553.75,-404"/>
<text text-anchor="middle" x="2492.5" y="-381.73" font-family="Times New Roman,serif" font-size="12.00">Cancel Goods Receipt</text>
</g>
<!-- 2291822995408 -->
<g id="node46" class="node">
<title>2291822995408</title>
<ellipse fill="white" stroke="black" cx="2638.25" cy="-381" rx="27" ry="27"/>
</g>
<!-- 2291822995600&#45;&gt;2291822995408 -->
<g id="edge4" class="edge">
<title>2291822995600&#45;&gt;2291822995408</title>
<path fill="none" stroke="black" d="M2554.05,-383.89C2569.63,-383.35 2585.95,-382.78 2599.96,-382.3"/>
<polygon fill="black" stroke="black" points="2599.74,-385.81 2609.61,-381.96 2599.49,-378.81 2599.74,-385.81"/>
</g>
<!-- 2291822997136 -->
<g id="node12" class="node">
<title>2291822997136</title>
<polygon fill="white" stroke="black" points="2686.75,-219 2589.75,-219 2589.75,-183 2686.75,-183 2686.75,-219"/>
<text text-anchor="middle" x="2638.25" y="-196.72" font-family="Times New Roman,serif" font-size="12.00">Change Quantity</text>
</g>
<!-- 2291822996800 -->
<g id="node48" class="node">
<title>2291822996800</title>
<ellipse fill="white" stroke="black" cx="3113" cy="-216" rx="27" ry="27"/>
</g>
<!-- 2291822997136&#45;&gt;2291822996800 -->
<g id="edge12" class="edge">
<title>2291822997136&#45;&gt;2291822996800</title>
<path fill="none" stroke="black" d="M2687.03,-201.42C2763.66,-202.29 2918.76,-204.85 3050,-212 3057.89,-212.43 3066.34,-212.94 3074.38,-213.45"/>
<polygon fill="black" stroke="black" points="3074.04,-216.94 3084.25,-214.09 3074.5,-209.95 3074.04,-216.94"/>
</g>
<!-- 2291822987680 -->
<g id="node13" class="node">
<title>2291822987680</title>
<polygon fill="white" stroke="black" points="263.5,-416 90,-416 90,-380 263.5,-380 263.5,-416"/>
<text text-anchor="middle" x="176.75" y="-393.73" font-family="Times New Roman,serif" font-size="12.00">Create Purchase Requisition Item</text>
</g>
<!-- 2291822987488 -->
<g id="node54" class="node">
<title>2291822987488</title>
<ellipse fill="white" stroke="black" cx="326.5" cy="-403" rx="27" ry="27"/>
</g>
<!-- 2291822987680&#45;&gt;2291822987488 -->
<g id="edge15" class="edge">
<title>2291822987680&#45;&gt;2291822987488</title>
<path fill="none" stroke="black" d="M263.7,-400.91C272.01,-401.19 280.12,-401.46 287.58,-401.72"/>
<polygon fill="black" stroke="black" points="287.44,-405.21 297.56,-402.05 287.68,-398.22 287.44,-405.21"/>
</g>
<!-- 2291822991136 -->
<g id="node14" class="node">
<title>2291822991136</title>
<polygon fill="white" stroke="black" points="1044.25,-337 944.25,-337 944.25,-301 1044.25,-301 1044.25,-337"/>
<text text-anchor="middle" x="994.25" y="-314.73" font-family="Times New Roman,serif" font-size="12.00">Change Currency</text>
</g>
<!-- 2291822990944 -->
<g id="node39" class="node">
<title>2291822990944</title>
<ellipse fill="white" stroke="black" cx="1107.25" cy="-305" rx="27" ry="27"/>
</g>
<!-- 2291822991136&#45;&gt;2291822990944 -->
<g id="edge8" class="edge">
<title>2291822991136&#45;&gt;2291822990944</title>
<path fill="none" stroke="black" d="M1044.58,-312.78C1052.73,-311.75 1061.07,-310.7 1068.86,-309.72"/>
<polygon fill="black" stroke="black" points="1069.2,-313.2 1078.69,-308.48 1068.33,-306.26 1069.2,-313.2"/>
</g>
<!-- 2291822999584 -->
<g id="node15" class="node">
<title>2291822999584</title>
<polygon fill="black" stroke="black" points="3050,-314 2996,-314 2996,-278 3050,-278 3050,-314"/>
</g>
<!-- 2291822998624 -->
<g id="node50" class="node">
<title>2291822998624</title>
<ellipse fill="white" stroke="black" cx="2638.25" cy="-271" rx="27" ry="27"/>
</g>
<!-- 2291822999584&#45;&gt;2291822998624 -->
<g id="edge62" class="edge">
<title>2291822999584&#45;&gt;2291822998624</title>
<path fill="none" stroke="black" d="M2995.51,-294.27C2928.8,-289.91 2753.74,-278.48 2676.63,-273.44"/>
<polygon fill="black" stroke="black" points="2677.28,-269.98 2667.07,-272.82 2676.82,-276.96 2677.28,-269.98"/>
</g>
<!-- 2291822999968 -->
<g id="node16" class="node">
<title>2291822999968</title>
<polygon fill="black" stroke="black" points="3050,-257 2996,-257 2996,-221 3050,-221 3050,-257"/>
</g>
<!-- 2291822999968&#45;&gt;2291822996800 -->
<g id="edge63" class="edge">
<title>2291822999968&#45;&gt;2291822996800</title>
<path fill="none" stroke="black" d="M3050.4,-232.1C3058.27,-230.04 3067.03,-227.75 3075.43,-225.56"/>
<polygon fill="black" stroke="black" points="3076.27,-228.96 3085.06,-223.04 3074.5,-222.18 3076.27,-228.96"/>
</g>
<!-- 2291822988592 -->
<g id="node17" class="node">
<title>2291822988592</title>
<polygon fill="white" stroke="black" points="818.25,-404 671,-404 671,-368 818.25,-368 818.25,-404"/>
<text text-anchor="middle" x="744.62" y="-381.73" font-family="Times New Roman,serif" font-size="12.00">Create Purchase Order Item</text>
</g>
<!-- 2291822987152 -->
<g id="node55" class="node">
<title>2291822987152</title>
<ellipse fill="white" stroke="black" cx="881.25" cy="-386" rx="27" ry="27"/>
</g>
<!-- 2291822988592&#45;&gt;2291822987152 -->
<g id="edge11" class="edge">
<title>2291822988592&#45;&gt;2291822987152</title>
<path fill="none" stroke="black" d="M818.45,-386C826.75,-386 834.93,-386 842.49,-386"/>
<polygon fill="black" stroke="black" points="842.27,-389.5 852.27,-386 842.27,-382.5 842.27,-389.5"/>
</g>
<!-- 2291822993200 -->
<g id="node18" class="node">
<title>2291822993200</title>
<polygon fill="black" stroke="black" points="1893.62,-339 1839.62,-339 1839.62,-303 1893.62,-303 1893.62,-339"/>
</g>
<!-- 2291822994208 -->
<g id="node43" class="node">
<title>2291822994208</title>
<ellipse fill="white" stroke="black" cx="2003.25" cy="-390" rx="27" ry="27"/>
</g>
<!-- 2291822993200&#45;&gt;2291822994208 -->
<g id="edge74" class="edge">
<title>2291822993200&#45;&gt;2291822994208</title>
<path fill="none" stroke="black" d="M1893.9,-334.47C1915.27,-345.42 1945.56,-360.94 1968.68,-372.79"/>
<polygon fill="black" stroke="black" points="1966.9,-375.81 1977.39,-377.26 1970.09,-369.58 1966.9,-375.81"/>
</g>
<!-- 2291822994592 -->
<g id="node47" class="node">
<title>2291822994592</title>
<ellipse fill="white" stroke="black" cx="2003.25" cy="-251" rx="27" ry="27"/>
</g>
<!-- 2291822993200&#45;&gt;2291822994592 -->
<g id="edge75" class="edge">
<title>2291822993200&#45;&gt;2291822994592</title>
<path fill="none" stroke="black" d="M1893.9,-307.34C1915.27,-296.23 1945.56,-280.48 1968.68,-268.46"/>
<polygon fill="black" stroke="black" points="1970.14,-271.64 1977.4,-263.92 1966.91,-265.43 1970.14,-271.64"/>
</g>
<!-- 2291822993968 -->
<g id="node19" class="node">
<title>2291822993968</title>
<polygon fill="black" stroke="black" points="3286,-234 3232,-234 3232,-198 3286,-198 3286,-234"/>
</g>
<!-- 2291822992384 -->
<g id="node41" class="node">
<title>2291822992384</title>
<ellipse fill="white" stroke="black" cx="3405" cy="-159" rx="27" ry="27"/>
</g>
<!-- 2291822993968&#45;&gt;2291822992384 -->
<g id="edge73" class="edge">
<title>2291822993968&#45;&gt;2291822992384</title>
<path fill="none" stroke="black" d="M3286.41,-205.55C3309.61,-196.36 3343.54,-182.93 3368.99,-172.86"/>
<polygon fill="black" stroke="black" points="3370.26,-176.12 3378.27,-169.19 3367.68,-169.61 3370.26,-176.12"/>
</g>
<!-- 2291822995888 -->
<g id="node20" class="node">
<title>2291822995888</title>
<polygon fill="black" stroke="black" points="2823.38,-446 2769.38,-446 2769.38,-410 2823.38,-410 2823.38,-446"/>
</g>
<!-- 2291822994928 -->
<g id="node45" class="node">
<title>2291822994928</title>
<ellipse fill="white" stroke="black" cx="2324.25" cy="-390" rx="27" ry="27"/>
</g>
<!-- 2291822995888&#45;&gt;2291822994928 -->
<g id="edge58" class="edge">
<title>2291822995888&#45;&gt;2291822994928</title>
<path fill="none" stroke="black" d="M2769.2,-428.46C2709.16,-429.19 2557.08,-429.12 2431.25,-413 2407.88,-410.01 2382.03,-404.44 2361.7,-399.54"/>
<polygon fill="black" stroke="black" points="2362.76,-396.19 2352.21,-397.19 2361.07,-402.99 2362.76,-396.19"/>
</g>
<!-- 2291822996272 -->
<g id="node21" class="node">
<title>2291822996272</title>
<polygon fill="black" stroke="black" points="2823.38,-392 2769.38,-392 2769.38,-356 2823.38,-356 2823.38,-392"/>
</g>
<!-- 2291822994400 -->
<g id="node44" class="node">
<title>2291822994400</title>
<ellipse fill="white" stroke="black" cx="2933" cy="-408" rx="27" ry="27"/>
</g>
<!-- 2291822996272&#45;&gt;2291822994400 -->
<g id="edge59" class="edge">
<title>2291822996272&#45;&gt;2291822994400</title>
<path fill="none" stroke="black" d="M2823.65,-380.64C2844.21,-385.83 2873.02,-393.1 2895.76,-398.85"/>
<polygon fill="black" stroke="black" points="2894.68,-402.18 2905.23,-401.24 2896.4,-395.4 2894.68,-402.18"/>
</g>
<!-- 2291822997424 -->
<g id="node22" class="node">
<title>2291822997424</title>
<polygon fill="white" stroke="black" points="2395.25,-177 2253.25,-177 2253.25,-141 2395.25,-141 2395.25,-177"/>
<text text-anchor="middle" x="2324.25" y="-154.72" font-family="Times New Roman,serif" font-size="12.00">Change Delivery Indicator</text>
</g>
<!-- 2291822997424&#45;&gt;2291822996800 -->
<g id="edge14" class="edge">
<title>2291822997424&#45;&gt;2291822996800</title>
<path fill="none" stroke="black" d="M2395.56,-156.17C2458.78,-153.87 2554.21,-151 2637.25,-151 2637.25,-151 2637.25,-151 2934,-151 2987.75,-151 3045.39,-177.47 3080.06,-196.63"/>
<polygon fill="black" stroke="black" points="3077.89,-199.42 3088.32,-201.31 3081.35,-193.33 3077.89,-199.42"/>
</g>
<!-- 2291822987200 -->
<g id="node23" class="node">
<title>2291822987200</title>
<polygon fill="black" stroke="black" points="353.5,-358 299.5,-358 299.5,-322 353.5,-322 353.5,-358"/>
</g>
<!-- 2291822987200&#45;&gt;2291822987056 -->
<g id="edge60" class="edge">
<title>2291822987200&#45;&gt;2291822987056</title>
<path fill="none" stroke="black" d="M353.73,-339.59C395.07,-339.53 477.59,-341.86 545,-359 554.38,-361.39 564.16,-365.04 573.09,-368.89"/>
<polygon fill="black" stroke="black" points="571.57,-372.04 582.12,-372.99 574.46,-365.67 571.57,-372.04"/>
</g>
<!-- 2291822989888 -->
<g id="node24" class="node">
<title>2291822989888</title>
<polygon fill="white" stroke="black" points="1307,-377 1170.25,-377 1170.25,-341 1307,-341 1307,-377"/>
<text text-anchor="middle" x="1238.62" y="-354.73" font-family="Times New Roman,serif" font-size="12.00">Change Storage Location</text>
</g>
<!-- 2291822989696 -->
<g id="node58" class="node">
<title>2291822989696</title>
<ellipse fill="white" stroke="black" cx="1370" cy="-352" rx="27" ry="27"/>
</g>
<!-- 2291822989888&#45;&gt;2291822989696 -->
<g id="edge6" class="edge">
<title>2291822989888&#45;&gt;2291822989696</title>
<path fill="none" stroke="black" d="M1307.34,-355.34C1315.61,-354.89 1323.81,-354.45 1331.4,-354.03"/>
<polygon fill="black" stroke="black" points="1331.44,-357.54 1341.24,-353.5 1331.07,-350.55 1331.44,-357.54"/>
</g>
<!-- 2291822991424 -->
<g id="node25" class="node">
<title>2291822991424</title>
<polygon fill="white" stroke="black" points="1298.75,-318 1178.5,-318 1178.5,-282 1298.75,-282 1298.75,-318"/>
<text text-anchor="middle" x="1238.62" y="-295.73" font-family="Times New Roman,serif" font-size="12.00">Change payment term</text>
</g>
<!-- 2291822991424&#45;&gt;2291822988784 -->
<g id="edge3" class="edge">
<title>2291822991424&#45;&gt;2291822988784</title>
<path fill="none" stroke="black" d="M1299.01,-300.87C1349.7,-302.82 1424.15,-308.57 1487,-325 1496.37,-327.45 1506.13,-331.12 1515.07,-334.98"/>
<polygon fill="black" stroke="black" points="1513.54,-338.13 1524.1,-339.07 1516.44,-331.75 1513.54,-338.13"/>
</g>
<!-- 2291822998336 -->
<g id="node26" class="node">
<title>2291822998336</title>
<polygon fill="black" stroke="black" points="2960,-363 2906,-363 2906,-327 2960,-327 2960,-363"/>
</g>
<!-- 2291822998336&#45;&gt;2291822996800 -->
<g id="edge61" class="edge">
<title>2291822998336&#45;&gt;2291822996800</title>
<path fill="none" stroke="black" d="M2960.37,-346.03C2985.58,-345.72 3023.58,-341.73 3050,-323 3074.15,-305.88 3090.27,-276.16 3100.01,-252.38"/>
<polygon fill="black" stroke="black" points="3103.16,-253.94 3103.49,-243.36 3096.63,-251.42 3103.16,-253.94"/>
</g>
<!-- 2291822998720 -->
<g id="node27" class="node">
<title>2291822998720</title>
<polygon fill="black" stroke="black" points="2519.5,-294 2465.5,-294 2465.5,-258 2519.5,-258 2519.5,-294"/>
</g>
<!-- 2291822998720&#45;&gt;2291822998624 -->
<g id="edge18" class="edge">
<title>2291822998720&#45;&gt;2291822998624</title>
<path fill="none" stroke="black" d="M2519.87,-275.08C2542.26,-274.3 2574.66,-273.18 2599.75,-272.3"/>
<polygon fill="black" stroke="black" points="2599.67,-275.81 2609.54,-271.96 2599.42,-268.81 2599.67,-275.81"/>
</g>
<!-- 2291823000640 -->
<g id="node28" class="node">
<title>2291823000640</title>
<polygon fill="black" stroke="black" points="3522,-222 3468,-222 3468,-186 3522,-186 3522,-222"/>
</g>
<!-- 2291823000640&#45;&gt;2291822986672 -->
<g id="edge65" class="edge">
<title>2291823000640&#45;&gt;2291822986672</title>
<path fill="none" stroke="black" d="M3522.4,-219C3531.4,-224.11 3541.57,-229.89 3551.02,-235.26"/>
<polygon fill="black" stroke="black" points="3549.16,-238.23 3559.58,-240.13 3552.62,-232.14 3549.16,-238.23"/>
</g>
<!-- 2291822994640 -->
<g id="node29" class="node">
<title>2291822994640</title>
<polygon fill="black" stroke="black" points="2351.25,-476 2297.25,-476 2297.25,-440 2351.25,-440 2351.25,-476"/>
</g>
<!-- 2291822994640&#45;&gt;2291822994400 -->
<g id="edge57" class="edge">
<title>2291822994640&#45;&gt;2291822994400</title>
<path fill="none" stroke="black" d="M2351.74,-463.59C2432.32,-479.39 2680.58,-519.26 2870,-455 2882.63,-450.71 2894.75,-442.74 2904.86,-434.56"/>
<polygon fill="black" stroke="black" points="2907.1,-437.25 2912.4,-428.08 2902.53,-431.95 2907.1,-437.25"/>
</g>
<!-- 2291822995024 -->
<g id="node30" class="node">
<title>2291822995024</title>
<polygon fill="black" stroke="black" points="2168.75,-408 2114.75,-408 2114.75,-372 2168.75,-372 2168.75,-408"/>
</g>
<!-- 2291822995024&#45;&gt;2291822994928 -->
<g id="edge17" class="edge">
<title>2291822995024&#45;&gt;2291822994928</title>
<path fill="none" stroke="black" d="M2169,-390C2199.74,-390 2250.91,-390 2285.81,-390"/>
<polygon fill="black" stroke="black" points="2285.46,-393.5 2295.46,-390 2285.46,-386.5 2285.46,-393.5"/>
</g>
<!-- 2291822990176 -->
<g id="node31" class="node">
<title>2291822990176</title>
<polygon fill="black" stroke="black" points="1487,-424 1433,-424 1433,-388 1487,-388 1487,-424"/>
</g>
<!-- 2291822990176&#45;&gt;2291822989216 -->
<g id="edge68" class="edge">
<title>2291822990176&#45;&gt;2291822989216</title>
<path fill="none" stroke="black" d="M1432.81,-404.51C1371.26,-401 1217.21,-392.21 1145.75,-388.14"/>
<polygon fill="black" stroke="black" points="1146.31,-384.66 1136.12,-387.59 1145.91,-391.65 1146.31,-384.66"/>
</g>
<!-- 2291822990560 -->
<g id="node32" class="node">
<title>2291822990560</title>
<polygon fill="black" stroke="black" points="1487,-370 1433,-370 1433,-334 1487,-334 1487,-370"/>
</g>
<!-- 2291822990560&#45;&gt;2291822988784 -->
<g id="edge69" class="edge">
<title>2291822990560&#45;&gt;2291822988784</title>
<path fill="none" stroke="black" d="M1487.4,-352C1494.89,-352 1503.18,-352 1511.2,-352"/>
<polygon fill="black" stroke="black" points="1511.1,-355.5 1521.1,-352 1511.1,-348.5 1511.1,-355.5"/>
</g>
<!-- 2291822993248 -->
<g id="node33" class="node">
<title>2291822993248</title>
<polygon fill="black" stroke="black" points="3286,-90 3232,-90 3232,-54 3286,-54 3286,-90"/>
</g>
<!-- 2291822993248&#45;&gt;2291822992384 -->
<g id="edge56" class="edge">
<title>2291822993248&#45;&gt;2291822992384</title>
<path fill="none" stroke="black" d="M3286.22,-79.6C3302.88,-85.05 3324.53,-93.32 3342,-104 3354.66,-111.74 3367.18,-122.17 3377.62,-131.87"/>
<polygon fill="black" stroke="black" points="3375.12,-134.32 3384.77,-138.72 3379.97,-129.27 3375.12,-134.32"/>
</g>
<!-- 2291822993632 -->
<g id="node34" class="node">
<title>2291822993632</title>
<polygon fill="white" stroke="black" points="3342,-36 3176,-36 3176,0 3342,0 3342,-36"/>
<text text-anchor="middle" x="3259" y="-13.72" font-family="Times New Roman,serif" font-size="12.00">Reactivate Purchase Order Item</text>
</g>
<!-- 2291822993632&#45;&gt;2291822992384 -->
<g id="edge9" class="edge">
<title>2291822993632&#45;&gt;2291822992384</title>
<path fill="none" stroke="black" d="M3329.22,-36.33C3333.77,-38.86 3338.09,-41.74 3342,-45 3366.26,-65.24 3382.55,-97.52 3392.32,-122.57"/>
<polygon fill="black" stroke="black" points="3388.95,-123.57 3395.7,-131.74 3395.52,-121.14 3388.95,-123.57"/>
</g>
<!-- 2291822997856 -->
<g id="node35" class="node">
<title>2291822997856</title>
<polygon fill="white" stroke="black" points="2203.75,-269 2079.75,-269 2079.75,-233 2203.75,-233 2203.75,-269"/>
<text text-anchor="middle" x="2141.75" y="-246.72" font-family="Times New Roman,serif" font-size="12.00">Record Goods Receipt</text>
</g>
<!-- 2291822997856&#45;&gt;2291822997616 -->
<g id="edge7" class="edge">
<title>2291822997856&#45;&gt;2291822997616</title>
<path fill="none" stroke="black" d="M2204.11,-264.6C2231.51,-270.67 2262.89,-277.62 2286.56,-282.87"/>
<polygon fill="black" stroke="black" points="2285.51,-286.22 2296.03,-284.97 2287.03,-279.39 2285.51,-286.22"/>
</g>
<!-- 2291822992624 -->
<g id="node36" class="node">
<title>2291822992624</title>
<polygon fill="white" stroke="black" points="1906.5,-250 1826.75,-250 1826.75,-214 1906.5,-214 1906.5,-250"/>
<text text-anchor="middle" x="1866.62" y="-227.72" font-family="Times New Roman,serif" font-size="12.00">Change Price</text>
</g>
<!-- 2291822992624&#45;&gt;2291822992384 -->
<g id="edge1" class="edge">
<title>2291822992624&#45;&gt;2291822992384</title>
<path fill="none" stroke="black" d="M1891.32,-213.67C1936.92,-180.29 2041.18,-113 2140.75,-113 2140.75,-113 2140.75,-113 2934,-113 3095.82,-113 3287.49,-140.34 3366.8,-152.87"/>
<polygon fill="black" stroke="black" points="3366.18,-156.31 3376.61,-154.43 3367.28,-149.4 3366.18,-156.31"/>
</g>
<!-- 2291822993008 -->
<g id="node37" class="node">
<title>2291822993008</title>
<polygon fill="white" stroke="black" points="1940.25,-125 1793,-125 1793,-89 1940.25,-89 1940.25,-125"/>
<text text-anchor="middle" x="1866.62" y="-102.72" font-family="Times New Roman,serif" font-size="12.00">Delete Purchase Order Item</text>
</g>
<!-- 2291822992816 -->
<g id="node42" class="node">
<title>2291822992816</title>
<ellipse fill="white" stroke="black" cx="3113" cy="-63" rx="27" ry="27"/>
</g>
<!-- 2291822993008&#45;&gt;2291822992816 -->
<g id="edge13" class="edge">
<title>2291822993008&#45;&gt;2291822992816</title>
<path fill="none" stroke="black" d="M1940.6,-92.1C1995.42,-82.19 2072.48,-71 2140.75,-71 2140.75,-71 2140.75,-71 2934,-71 2982.5,-71 3038.35,-68 3074.36,-65.67"/>
<polygon fill="black" stroke="black" points="3074.52,-69.17 3084.27,-65.02 3074.06,-62.19 3074.52,-69.17"/>
</g>
<!-- 2291822752816 -->
<g id="node38" class="node">
<title>2291822752816</title>
<ellipse fill="white" stroke="black" cx="27" cy="-371" rx="27" ry="27"/>
<text text-anchor="start" x="16.88" y="-357.82" font-family="Times New Roman,serif" font-size="34.00">●</text>
</g>
<!-- 2291822752816&#45;&gt;2291822987680 -->
<g id="edge71" class="edge">
<title>2291822752816&#45;&gt;2291822987680</title>
<path fill="none" stroke="black" d="M54.07,-375.76C61.38,-377.1 69.77,-378.63 78.67,-380.26"/>
<polygon fill="black" stroke="black" points="77.77,-383.65 88.24,-382.01 79.03,-376.77 77.77,-383.65"/>
</g>
<!-- 2291822752816&#45;&gt;2291822987200 -->
<g id="edge72" class="edge">
<title>2291822752816&#45;&gt;2291822987200</title>
<path fill="none" stroke="black" d="M54.14,-368.28C106.91,-362.78 226.35,-350.33 287.65,-343.94"/>
<polygon fill="black" stroke="black" points="288.01,-347.43 297.59,-342.91 287.29,-340.46 288.01,-347.43"/>
</g>
<!-- 2291822990944&#45;&gt;2291822991424 -->
<g id="edge20" class="edge">
<title>2291822990944&#45;&gt;2291822991424</title>
<path fill="none" stroke="black" d="M1134.43,-303.99C1144,-303.62 1155.33,-303.18 1166.93,-302.73"/>
<polygon fill="black" stroke="black" points="1166.71,-306.24 1176.56,-302.36 1166.44,-299.25 1166.71,-306.24"/>
</g>
<!-- 2291822991904&#45;&gt;2291822993200 -->
<g id="edge23" class="edge">
<title>2291822991904&#45;&gt;2291822993200</title>
<path fill="none" stroke="black" d="M1757.28,-321C1777.48,-321 1805.65,-321 1828.2,-321"/>
<polygon fill="black" stroke="black" points="1827.9,-324.5 1837.9,-321 1827.9,-317.5 1827.9,-324.5"/>
</g>
<!-- 2291822991904&#45;&gt;2291822992624 -->
<g id="edge21" class="edge">
<title>2291822991904&#45;&gt;2291822992624</title>
<path fill="none" stroke="black" d="M1753.23,-306.3C1773.58,-292.85 1804.1,-272.67 1828.2,-256.74"/>
<polygon fill="black" stroke="black" points="1830.08,-259.69 1836.49,-251.26 1826.22,-253.85 1830.08,-259.69"/>
</g>
<!-- 2291822991904&#45;&gt;2291822993008 -->
<g id="edge22" class="edge">
<title>2291822991904&#45;&gt;2291822993008</title>
<path fill="none" stroke="black" d="M1742.59,-296.87C1754.37,-273 1773.58,-235.68 1793,-205 1808.77,-180.09 1828.86,-153.29 1843.92,-134.02"/>
<polygon fill="black" stroke="black" points="1846.48,-136.42 1849.93,-126.4 1840.99,-132.09 1846.48,-136.42"/>
</g>
<!-- 2291822992384&#45;&gt;2291822996992 -->
<g id="edge24" class="edge">
<title>2291822992384&#45;&gt;2291822996992</title>
<path fill="none" stroke="black" d="M3414.6,-184.7C3431.08,-233.96 3467.03,-341.4 3484.33,-393.09"/>
<polygon fill="black" stroke="black" points="3480.94,-394 3487.43,-402.37 3487.58,-391.78 3480.94,-394"/>
</g>
<!-- 2291822992384&#45;&gt;2291823000640 -->
<g id="edge25" class="edge">
<title>2291822992384&#45;&gt;2291823000640</title>
<path fill="none" stroke="black" d="M3429.58,-171.06C3438.18,-175.46 3448.12,-180.54 3457.57,-185.37"/>
<polygon fill="black" stroke="black" points="3455.71,-188.35 3466.21,-189.79 3458.9,-182.12 3455.71,-188.35"/>
</g>
<!-- 2291822992816&#45;&gt;2291822993248 -->
<g id="edge27" class="edge">
<title>2291822992816&#45;&gt;2291822993248</title>
<path fill="none" stroke="black" d="M3140.41,-64.65C3162.84,-66.05 3195.3,-68.08 3220.43,-69.65"/>
<polygon fill="black" stroke="black" points="3220.05,-73.13 3230.25,-70.27 3220.48,-66.15 3220.05,-73.13"/>
</g>
<!-- 2291822992816&#45;&gt;2291822993632 -->
<g id="edge26" class="edge">
<title>2291822992816&#45;&gt;2291822993632</title>
<path fill="none" stroke="black" d="M3139.08,-55.16C3152.76,-50.89 3170.44,-45.36 3187.97,-39.88"/>
<polygon fill="black" stroke="black" points="3188.88,-43.27 3197.38,-36.94 3186.79,-36.59 3188.88,-43.27"/>
</g>
<!-- 2291822994208&#45;&gt;2291822994640 -->
<g id="edge29" class="edge">
<title>2291822994208&#45;&gt;2291822994640</title>
<path fill="none" stroke="black" d="M2027.87,-401.96C2039.22,-407.28 2053.18,-413.18 2066.25,-417 2142.33,-439.24 2234.83,-450.26 2285.52,-454.98"/>
<polygon fill="black" stroke="black" points="2285.09,-458.46 2295.36,-455.87 2285.72,-451.49 2285.09,-458.46"/>
</g>
<!-- 2291822994208&#45;&gt;2291822995024 -->
<g id="edge28" class="edge">
<title>2291822994208&#45;&gt;2291822995024</title>
<path fill="none" stroke="black" d="M2030.57,-390C2051.15,-390 2080.04,-390 2103.08,-390"/>
<polygon fill="black" stroke="black" points="2103,-393.5 2113,-390 2103,-386.5 2103,-393.5"/>
</g>
<!-- 2291822994400&#45;&gt;2291822993968 -->
<g id="edge30" class="edge">
<title>2291822994400&#45;&gt;2291822993968</title>
<path fill="none" stroke="black" d="M2957.4,-396.37C2981.03,-384.47 3018.46,-365.19 3050,-347 3111.65,-311.45 3181.24,-266.63 3222.26,-239.7"/>
<polygon fill="black" stroke="black" points="3224.11,-242.67 3230.54,-234.25 3220.27,-236.83 3224.11,-242.67"/>
</g>
<!-- 2291822994928&#45;&gt;2291822995600 -->
<g id="edge31" class="edge">
<title>2291822994928&#45;&gt;2291822995600</title>
<path fill="none" stroke="black" d="M2351.59,-389.37C2369.93,-388.92 2395.33,-388.31 2419.46,-387.73"/>
<polygon fill="black" stroke="black" points="2419.37,-391.24 2429.28,-387.5 2419.2,-384.24 2419.37,-391.24"/>
</g>
<!-- 2291822995408&#45;&gt;2291822995888 -->
<g id="edge32" class="edge">
<title>2291822995408&#45;&gt;2291822995888</title>
<path fill="none" stroke="black" d="M2664.33,-388.55C2689.67,-396.18 2729.12,-408.05 2758.11,-416.78"/>
<polygon fill="black" stroke="black" points="2757.02,-420.11 2767.6,-419.64 2759.03,-413.4 2757.02,-420.11"/>
</g>
<!-- 2291822995408&#45;&gt;2291822996272 -->
<g id="edge33" class="edge">
<title>2291822995408&#45;&gt;2291822996272</title>
<path fill="none" stroke="black" d="M2665.38,-379.83C2690.64,-378.7 2729.16,-376.97 2757.72,-375.69"/>
<polygon fill="black" stroke="black" points="2757.55,-379.2 2767.38,-375.25 2757.24,-372.21 2757.55,-379.2"/>
</g>
<!-- 2291822994592&#45;&gt;2291822998144 -->
<g id="edge34" class="edge">
<title>2291822994592&#45;&gt;2291822998144</title>
<path fill="none" stroke="black" d="M2028.25,-261.87C2039.68,-266.94 2053.6,-272.96 2066.25,-278 2070.05,-279.52 2073.98,-281.04 2077.94,-282.56"/>
<polygon fill="black" stroke="black" points="2076.48,-285.75 2087.07,-286 2078.95,-279.2 2076.48,-285.75"/>
</g>
<!-- 2291822994592&#45;&gt;2291822997136 -->
<g id="edge36" class="edge">
<title>2291822994592&#45;&gt;2291822997136</title>
<path fill="none" stroke="black" d="M2027.39,-238.48C2038.76,-232.97 2052.86,-227.07 2066.25,-224 2249.17,-182.04 2473.52,-189.53 2578.21,-196.3"/>
<polygon fill="black" stroke="black" points="2577.75,-199.78 2587.96,-196.96 2578.22,-192.8 2577.75,-199.78"/>
</g>
<!-- 2291822994592&#45;&gt;2291822997424 -->
<g id="edge37" class="edge">
<title>2291822994592&#45;&gt;2291822997424</title>
<path fill="none" stroke="black" d="M2020.24,-229.61C2031.53,-216.18 2047.88,-199.8 2066.25,-191 2120.85,-164.87 2189.09,-157.37 2241.53,-156.13"/>
<polygon fill="black" stroke="black" points="2241.35,-159.64 2251.3,-155.98 2241.24,-152.64 2241.35,-159.64"/>
</g>
<!-- 2291822994592&#45;&gt;2291822997856 -->
<g id="edge35" class="edge">
<title>2291822994592&#45;&gt;2291822997856</title>
<path fill="none" stroke="black" d="M2030.57,-251C2041.46,-251 2054.68,-251 2068.13,-251"/>
<polygon fill="black" stroke="black" points="2067.92,-254.5 2077.92,-251 2067.92,-247.5 2067.92,-254.5"/>
</g>
<!-- 2291822996800&#45;&gt;2291822993968 -->
<g id="edge38" class="edge">
<title>2291822996800&#45;&gt;2291822993968</title>
<path fill="none" stroke="black" d="M3140.41,-216C3162.84,-216 3195.3,-216 3220.43,-216"/>
<polygon fill="black" stroke="black" points="3220.24,-219.5 3230.24,-216 3220.24,-212.5 3220.24,-219.5"/>
</g>
<!-- 2291822997616&#45;&gt;2291822998336 -->
<g id="edge40" class="edge">
<title>2291822997616&#45;&gt;2291822998336</title>
<path fill="none" stroke="black" d="M2351.36,-294.17C2372.81,-296.72 2403.97,-300.31 2431.25,-303 2603.99,-320.02 2810.7,-335.95 2894.23,-342.21"/>
<polygon fill="black" stroke="black" points="2893.9,-345.69 2904.13,-342.95 2894.42,-338.71 2893.9,-345.69"/>
</g>
<!-- 2291822997616&#45;&gt;2291822998720 -->
<g id="edge39" class="edge">
<title>2291822997616&#45;&gt;2291822998720</title>
<path fill="none" stroke="black" d="M2351.59,-288.62C2379.12,-286.14 2422.55,-282.22 2453.72,-279.41"/>
<polygon fill="black" stroke="black" points="2453.85,-282.91 2463.5,-278.53 2453.22,-275.94 2453.85,-282.91"/>
</g>
<!-- 2291822998624&#45;&gt;2291822999296 -->
<g id="edge41" class="edge">
<title>2291822998624&#45;&gt;2291822999296</title>
<path fill="none" stroke="black" d="M2665.03,-266.54C2677.96,-264.31 2694.43,-261.46 2711.28,-258.54"/>
<polygon fill="black" stroke="black" points="2711.63,-262.04 2720.89,-256.88 2710.43,-255.14 2711.63,-262.04"/>
</g>
<!-- 2291822999104&#45;&gt;2291822999584 -->
<g id="edge42" class="edge">
<title>2291822999104&#45;&gt;2291822999584</title>
<path fill="none" stroke="black" d="M2956.66,-257.39C2965.6,-262.67 2976.09,-268.87 2986.01,-274.73"/>
<polygon fill="black" stroke="black" points="2983.98,-277.6 2994.37,-279.67 2987.54,-271.57 2983.98,-277.6"/>
</g>
<!-- 2291822999104&#45;&gt;2291822999968 -->
<g id="edge43" class="edge">
<title>2291822999104&#45;&gt;2291822999968</title>
<path fill="none" stroke="black" d="M2960.4,-242.5C2967.89,-242.07 2976.18,-241.6 2984.2,-241.15"/>
<polygon fill="black" stroke="black" points="2984.32,-244.65 2994.1,-240.58 2983.92,-237.66 2984.32,-244.65"/>
</g>
<!-- 2291822986672&#45;&gt;2291822986768 -->
<g id="edge44" class="edge">
<title>2291822986672&#45;&gt;2291822986768</title>
<path fill="none" stroke="black" d="M3612.4,-254C3619.89,-254 3628.18,-254 3636.2,-254"/>
<polygon fill="black" stroke="black" points="3636.1,-257.5 3646.1,-254 3636.1,-250.5 3636.1,-257.5"/>
</g>
<!-- 2291822987056&#45;&gt;2291822988592 -->
<g id="edge45" class="edge">
<title>2291822987056&#45;&gt;2291822988592</title>
<path fill="none" stroke="black" d="M635.28,-386C642.46,-386 650.65,-386 659.24,-386"/>
<polygon fill="black" stroke="black" points="659.19,-389.5 669.19,-386 659.19,-382.5 659.19,-389.5"/>
</g>
<!-- 2291822987488&#45;&gt;2291822988304 -->
<g id="edge46" class="edge">
<title>2291822987488&#45;&gt;2291822988304</title>
<path fill="none" stroke="black" d="M352.95,-409.79C362.53,-412.34 374.02,-415.4 385.94,-418.58"/>
<polygon fill="black" stroke="black" points="384.95,-421.94 395.51,-421.14 386.75,-415.18 384.95,-421.94"/>
</g>
<!-- 2291822987488&#45;&gt;2291822987920 -->
<g id="edge47" class="edge">
<title>2291822987488&#45;&gt;2291822987920</title>
<path fill="none" stroke="black" d="M353.6,-399.8C374.68,-397.22 404.65,-393.55 428.38,-390.64"/>
<polygon fill="black" stroke="black" points="428.8,-394.12 438.3,-389.43 427.94,-387.17 428.8,-394.12"/>
</g>
<!-- 2291822987152&#45;&gt;2291822988928 -->
<g id="edge50" class="edge">
<title>2291822987152&#45;&gt;2291822988928</title>
<path fill="none" stroke="black" d="M905.76,-398.34C917.1,-403.74 931.06,-409.6 944.25,-413 1083.81,-448.98 1256.62,-453.37 1331.49,-453.41"/>
<polygon fill="black" stroke="black" points="1331.15,-456.91 1341.14,-453.39 1331.13,-449.91 1331.15,-456.91"/>
</g>
<!-- 2291822987152&#45;&gt;2291822989312 -->
<g id="edge49" class="edge">
<title>2291822987152&#45;&gt;2291822989312</title>
<path fill="none" stroke="black" d="M908.56,-386C922.66,-386 940.27,-386 955.78,-386"/>
<polygon fill="black" stroke="black" points="955.62,-389.5 965.62,-386 955.62,-382.5 955.62,-389.5"/>
</g>
<!-- 2291822987152&#45;&gt;2291822991136 -->
<g id="edge48" class="edge">
<title>2291822987152&#45;&gt;2291822991136</title>
<path fill="none" stroke="black" d="M904.98,-372.28C918.85,-363.91 936.97,-352.97 953.18,-343.19"/>
<polygon fill="black" stroke="black" points="954.92,-346.22 961.67,-338.06 951.3,-340.23 954.92,-346.22"/>
</g>
<!-- 2291822988784&#45;&gt;2291822991616 -->
<g id="edge52" class="edge">
<title>2291822988784&#45;&gt;2291822991616</title>
<path fill="none" stroke="black" d="M1573.18,-366.33C1603.25,-385.76 1657.31,-420.68 1693.17,-443.85"/>
<polygon fill="black" stroke="black" points="1691.2,-446.75 1701.5,-449.23 1695,-440.87 1691.2,-446.75"/>
</g>
<!-- 2291822988784&#45;&gt;2291822992000 -->
<g id="edge51" class="edge">
<title>2291822988784&#45;&gt;2291822992000</title>
<path fill="none" stroke="black" d="M1576.45,-345.35C1584.36,-343.28 1593.24,-340.96 1601.78,-338.73"/>
<polygon fill="black" stroke="black" points="1602.43,-342.18 1611.22,-336.26 1600.66,-335.4 1602.43,-342.18"/>
</g>
<!-- 2291822989216&#45;&gt;2291822989888 -->
<g id="edge53" class="edge">
<title>2291822989216&#45;&gt;2291822989888</title>
<path fill="none" stroke="black" d="M1134.12,-380.6C1141.56,-379.05 1150.1,-377.27 1159,-375.41"/>
<polygon fill="black" stroke="black" points="1159.44,-378.89 1168.51,-373.42 1158.01,-372.04 1159.44,-378.89"/>
</g>
<!-- 2291822989696&#45;&gt;2291822990176 -->
<g id="edge54" class="edge">
<title>2291822989696&#45;&gt;2291822990176</title>
<path fill="none" stroke="black" d="M1393.66,-365.91C1402.6,-371.39 1413.09,-377.83 1423.01,-383.92"/>
<polygon fill="black" stroke="black" points="1421.03,-386.8 1431.38,-389.05 1424.69,-380.84 1421.03,-386.8"/>
</g>
<!-- 2291822989696&#45;&gt;2291822990560 -->
<g id="edge55" class="edge">
<title>2291822989696&#45;&gt;2291822990560</title>
<path fill="none" stroke="black" d="M1397.4,-352C1404.89,-352 1413.18,-352 1421.2,-352"/>
<polygon fill="black" stroke="black" points="1421.1,-355.5 1431.1,-352 1421.1,-348.5 1421.1,-355.5"/>
</g>
</g>
</svg>
