<?xml version="1.0" encoding="UTF-8" standalone="no"?>
<!DOCTYPE svg PUBLIC "-//W3C//DTD SVG 1.1//EN"
 "http://www.w3.org/Graphics/SVG/1.1/DTD/svg11.dtd">
<!-- Generated by graphviz version 12.2.0 (20241103.1931)
 -->
<!-- Title: imdf_net_1742985838.3750858 Pages: 1 -->
<svg width="1540pt" height="378pt"
 viewBox="0.00 0.00 1539.75 378.00" xmlns="http://www.w3.org/2000/svg" xmlns:xlink="http://www.w3.org/1999/xlink">
<g id="graph0" class="graph" transform="scale(1 1) rotate(0) translate(4 374)">
<title>imdf_net_1742985838.3750858</title>
<polygon fill="white" stroke="none" points="-4,4 -4,-374 1535.75,-374 1535.75,4 -4,4"/>
<!-- 1276083811328 -->
<g id="node1" class="node">
<title>1276083811328</title>
<polygon fill="black" stroke="black" points="532.5,-145 478.5,-145 478.5,-109 532.5,-109 532.5,-145"/>
</g>
<!-- 1276083812288 -->
<g id="node24" class="node">
<title>1276083812288</title>
<ellipse fill="white" stroke="black" cx="1136.75" cy="-113" rx="27" ry="27"/>
</g>
<!-- 1276083811328&#45;&gt;1276083812288 -->
<g id="edge28" class="edge">
<title>1276083811328&#45;&gt;1276083812288</title>
<path fill="none" stroke="black" d="M532.74,-126.42C631.58,-124.22 981.76,-116.43 1097.96,-113.84"/>
<polygon fill="black" stroke="black" points="1097.97,-117.34 1107.89,-113.62 1097.81,-110.34 1097.97,-117.34"/>
</g>
<!-- 1276086527760 -->
<g id="node2" class="node">
<title>1276086527760</title>
<polygon fill="white" stroke="black" points="554,-370 457,-370 457,-334 554,-334 554,-370"/>
<text text-anchor="middle" x="505.5" y="-347.73" font-family="Times New Roman,serif" font-size="12.00">Change Quantity</text>
</g>
<!-- 1276086526080 -->
<g id="node19" class="node">
<title>1276086526080</title>
<ellipse fill="white" stroke="black" cx="1316.75" cy="-223" rx="27" ry="27"/>
</g>
<!-- 1276086527760&#45;&gt;1276086526080 -->
<g id="edge4" class="edge">
<title>1276086527760&#45;&gt;1276086526080</title>
<path fill="none" stroke="black" d="M554.29,-356.47C615.47,-361.8 724.77,-370 818.5,-370 818.5,-370 818.5,-370 1137.75,-370 1192.58,-370 1211.55,-363 1253.75,-328 1275.74,-309.77 1291.77,-281.59 1302.02,-259.01"/>
<polygon fill="black" stroke="black" points="1305.23,-260.4 1305.98,-249.83 1298.8,-257.62 1305.23,-260.4"/>
</g>
<!-- 1276086525456 -->
<g id="node3" class="node">
<title>1276086525456</title>
<polygon fill="black" stroke="black" points="1163.75,-342 1109.75,-342 1109.75,-306 1163.75,-306 1163.75,-342"/>
</g>
<!-- 1276086525456&#45;&gt;1276086526080 -->
<g id="edge25" class="edge">
<title>1276086525456&#45;&gt;1276086526080</title>
<path fill="none" stroke="black" d="M1164.07,-325.1C1188.9,-324.95 1226.32,-321.55 1253.75,-305 1272.66,-293.59 1287.77,-274.06 1298.34,-256.92"/>
<polygon fill="black" stroke="black" points="1301.24,-258.89 1303.27,-248.49 1295.2,-255.36 1301.24,-258.89"/>
</g>
<!-- 1276086520848 -->
<g id="node4" class="node">
<title>1276086520848</title>
<polygon fill="black" stroke="black" points="1253.75,-296 1199.75,-296 1199.75,-260 1253.75,-260 1253.75,-296"/>
</g>
<!-- 1276086521472 -->
<g id="node21" class="node">
<title>1276086521472</title>
<ellipse fill="white" stroke="black" cx="819.5" cy="-269" rx="27" ry="27"/>
</g>
<!-- 1276086520848&#45;&gt;1276086521472 -->
<g id="edge26" class="edge">
<title>1276086520848&#45;&gt;1276086521472</title>
<path fill="none" stroke="black" d="M1199.27,-277.41C1129.31,-275.86 939.4,-271.64 858.17,-269.84"/>
<polygon fill="black" stroke="black" points="858.37,-266.34 848.29,-269.62 858.21,-273.34 858.37,-266.34"/>
</g>
<!-- 1276086530592 -->
<g id="node5" class="node">
<title>1276086530592</title>
<polygon fill="black" stroke="black" points="1027.12,-45 973.12,-45 973.12,-9 1027.12,-9 1027.12,-45"/>
</g>
<!-- 1276086530592&#45;&gt;1276083812288 -->
<g id="edge30" class="edge">
<title>1276086530592&#45;&gt;1276083812288</title>
<path fill="none" stroke="black" d="M1027.51,-33.98C1041.84,-38.45 1059.49,-45.09 1073.75,-54 1087.08,-62.32 1099.97,-73.83 1110.52,-84.48"/>
<polygon fill="black" stroke="black" points="1107.95,-86.86 1117.39,-91.67 1113,-82.02 1107.95,-86.86"/>
</g>
<!-- 1276086529200 -->
<g id="node6" class="node">
<title>1276086529200</title>
<polygon fill="white" stroke="black" points="407.5,-291 283.5,-291 283.5,-255 407.5,-255 407.5,-291"/>
<text text-anchor="middle" x="345.5" y="-268.73" font-family="Times New Roman,serif" font-size="12.00">Record Goods Receipt</text>
</g>
<!-- 1276086519312 -->
<g id="node20" class="node">
<title>1276086519312</title>
<ellipse fill="white" stroke="black" cx="505.5" cy="-272" rx="27" ry="27"/>
</g>
<!-- 1276086529200&#45;&gt;1276086519312 -->
<g id="edge6" class="edge">
<title>1276086529200&#45;&gt;1276086519312</title>
<path fill="none" stroke="black" d="M407.59,-272.61C427.58,-272.49 449.19,-272.35 466.92,-272.24"/>
<polygon fill="black" stroke="black" points="466.73,-275.74 476.71,-272.18 466.69,-268.74 466.73,-275.74"/>
</g>
<!-- 1276086532416 -->
<g id="node7" class="node">
<title>1276086532416</title>
<polygon fill="white" stroke="black" points="1073.75,-246 926.5,-246 926.5,-210 1073.75,-210 1073.75,-246"/>
<text text-anchor="middle" x="1000.12" y="-223.72" font-family="Times New Roman,serif" font-size="12.00">Update Order Confirmation</text>
</g>
<!-- 1276086532368 -->
<g id="node22" class="node">
<title>1276086532368</title>
<ellipse fill="white" stroke="black" cx="1136.75" cy="-223" rx="27" ry="27"/>
</g>
<!-- 1276086532416&#45;&gt;1276086532368 -->
<g id="edge1" class="edge">
<title>1276086532416&#45;&gt;1276086532368</title>
<path fill="none" stroke="black" d="M1073.95,-225.3C1082.25,-224.99 1090.43,-224.68 1097.99,-224.4"/>
<polygon fill="black" stroke="black" points="1097.91,-227.91 1107.78,-224.04 1097.65,-220.91 1097.91,-227.91"/>
</g>
<!-- 1276086487504 -->
<g id="node8" class="node">
<title>1276086487504</title>
<polygon fill="black" stroke="black" points="144,-191 90,-191 90,-155 144,-155 144,-191"/>
</g>
<!-- 1276083813248 -->
<g id="node18" class="node">
<title>1276083813248</title>
<ellipse fill="white" stroke="black" cx="207" cy="-219" rx="27" ry="27"/>
</g>
<!-- 1276086487504&#45;&gt;1276083813248 -->
<g id="edge33" class="edge">
<title>1276086487504&#45;&gt;1276083813248</title>
<path fill="none" stroke="black" d="M144.4,-186.8C153.23,-191.42 163.19,-196.62 172.49,-201.48"/>
<polygon fill="black" stroke="black" points="170.78,-204.54 181.26,-206.07 174.02,-198.34 170.78,-204.54"/>
</g>
<!-- 1276083810320 -->
<g id="node23" class="node">
<title>1276083810320</title>
<ellipse fill="white" stroke="black" cx="207" cy="-127" rx="27" ry="27"/>
</g>
<!-- 1276086487504&#45;&gt;1276083810320 -->
<g id="edge34" class="edge">
<title>1276086487504&#45;&gt;1276083810320</title>
<path fill="none" stroke="black" d="M144.4,-159.2C153.23,-154.58 163.19,-149.38 172.49,-144.52"/>
<polygon fill="black" stroke="black" points="174.02,-147.66 181.26,-139.93 170.78,-141.46 174.02,-147.66"/>
</g>
<!-- 1276083812432 -->
<g id="node9" class="node">
<title>1276083812432</title>
<polygon fill="black" stroke="black" points="1433.75,-186 1379.75,-186 1379.75,-150 1433.75,-150 1433.75,-186"/>
</g>
<!-- 1276086486736 -->
<g id="node27" class="node">
<title>1276086486736</title>
<ellipse fill="white" stroke="black" cx="1500.75" cy="-168" rx="27" ry="27"/>
<ellipse fill="none" stroke="black" cx="1500.75" cy="-168" rx="31" ry="31"/>
<text text-anchor="start" x="1491" y="-155.97" font-family="Times New Roman,serif" font-size="32.00">■</text>
</g>
<!-- 1276083812432&#45;&gt;1276086486736 -->
<g id="edge32" class="edge">
<title>1276083812432&#45;&gt;1276086486736</title>
<path fill="none" stroke="black" d="M1433.87,-168C1441.38,-168 1449.76,-168 1457.97,-168"/>
<polygon fill="black" stroke="black" points="1457.83,-171.5 1467.83,-168 1457.83,-164.5 1457.83,-171.5"/>
</g>
<!-- 1276083811664 -->
<g id="node10" class="node">
<title>1276083811664</title>
<polygon fill="white" stroke="black" points="712.5,-50 590,-50 590,-14 712.5,-14 712.5,-50"/>
<text text-anchor="middle" x="651.25" y="-27.73" font-family="Times New Roman,serif" font-size="12.00">Cancel Goods Receipt</text>
</g>
<!-- 1276083811712 -->
<g id="node26" class="node">
<title>1276083811712</title>
<ellipse fill="white" stroke="black" cx="819.5" cy="-27" rx="27" ry="27"/>
</g>
<!-- 1276083811664&#45;&gt;1276083811712 -->
<g id="edge5" class="edge">
<title>1276083811664&#45;&gt;1276083811712</title>
<path fill="none" stroke="black" d="M712.74,-30.18C735.45,-29.5 760.6,-28.74 780.68,-28.14"/>
<polygon fill="black" stroke="black" points="780.75,-31.64 790.64,-27.84 780.54,-24.64 780.75,-31.64"/>
</g>
<!-- 1276086532560 -->
<g id="node11" class="node">
<title>1276086532560</title>
<polygon fill="black" stroke="black" points="678.25,-289 624.25,-289 624.25,-253 678.25,-253 678.25,-289"/>
</g>
<!-- 1276086532560&#45;&gt;1276086521472 -->
<g id="edge7" class="edge">
<title>1276086532560&#45;&gt;1276086521472</title>
<path fill="none" stroke="black" d="M678.59,-270.68C706.12,-270.35 749.55,-269.83 780.72,-269.45"/>
<polygon fill="black" stroke="black" points="780.54,-272.96 790.49,-269.34 780.45,-265.96 780.54,-272.96"/>
</g>
<!-- 1276083811424 -->
<g id="node12" class="node">
<title>1276083811424</title>
<polygon fill="black" stroke="black" points="372.5,-91 318.5,-91 318.5,-55 372.5,-55 372.5,-91"/>
</g>
<!-- 1276083811568 -->
<g id="node25" class="node">
<title>1276083811568</title>
<ellipse fill="white" stroke="black" cx="505.5" cy="-64" rx="27" ry="27"/>
</g>
<!-- 1276083811424&#45;&gt;1276083811568 -->
<g id="edge8" class="edge">
<title>1276083811424&#45;&gt;1276083811568</title>
<path fill="none" stroke="black" d="M372.95,-71.49C398.66,-70.03 437.96,-67.79 466.92,-66.14"/>
<polygon fill="black" stroke="black" points="466.94,-69.65 476.72,-65.58 466.54,-62.66 466.94,-69.65"/>
</g>
<!-- 1276086530400 -->
<g id="node13" class="node">
<title>1276086530400</title>
<polygon fill="white" stroke="black" points="890.5,-191 748.5,-191 748.5,-155 890.5,-155 890.5,-191"/>
<text text-anchor="middle" x="819.5" y="-168.72" font-family="Times New Roman,serif" font-size="12.00">Change Delivery Indicator</text>
</g>
<!-- 1276086530400&#45;&gt;1276086526080 -->
<g id="edge2" class="edge">
<title>1276086530400&#45;&gt;1276086526080</title>
<path fill="none" stroke="black" d="M890.85,-168.17C977.68,-164.15 1129.12,-163.49 1253.75,-196 1263.12,-198.44 1272.89,-202.12 1281.82,-205.97"/>
<polygon fill="black" stroke="black" points="1280.3,-209.12 1290.85,-210.07 1283.19,-202.75 1280.3,-209.12"/>
</g>
<!-- 1276086530928 -->
<g id="node14" class="node">
<title>1276086530928</title>
<polygon fill="black" stroke="black" points="1253.75,-241 1199.75,-241 1199.75,-205 1253.75,-205 1253.75,-241"/>
</g>
<!-- 1276086530928&#45;&gt;1276086526080 -->
<g id="edge27" class="edge">
<title>1276086530928&#45;&gt;1276086526080</title>
<path fill="none" stroke="black" d="M1254.15,-223C1261.64,-223 1269.93,-223 1277.95,-223"/>
<polygon fill="black" stroke="black" points="1277.85,-226.5 1287.85,-223 1277.85,-219.5 1277.85,-226.5"/>
</g>
<!-- 1276086518256 -->
<g id="node15" class="node">
<title>1276086518256</title>
<polygon fill="black" stroke="black" points="1027.12,-99 973.12,-99 973.12,-63 1027.12,-63 1027.12,-99"/>
</g>
<!-- 1276086518256&#45;&gt;1276083811568 -->
<g id="edge29" class="edge">
<title>1276086518256&#45;&gt;1276083811568</title>
<path fill="none" stroke="black" d="M972.75,-80.09C890.69,-77.26 639.65,-68.6 544.03,-65.3"/>
<polygon fill="black" stroke="black" points="544.27,-61.8 534.15,-64.95 544.02,-68.8 544.27,-61.8"/>
</g>
<!-- 1276086532080 -->
<g id="node16" class="node">
<title>1276086532080</title>
<polygon fill="white" stroke="black" points="421,-237 270,-237 270,-201 421,-201 421,-237"/>
<text text-anchor="middle" x="345.5" y="-214.72" font-family="Times New Roman,serif" font-size="12.00">Receive Order Confirmation</text>
</g>
<!-- 1276086532080&#45;&gt;1276086519312 -->
<g id="edge3" class="edge">
<title>1276086532080&#45;&gt;1276086519312</title>
<path fill="none" stroke="black" d="M401.32,-237.39C423.62,-244.87 448.78,-253.31 468.66,-259.98"/>
<polygon fill="black" stroke="black" points="467.38,-263.24 477.98,-263.1 469.61,-256.6 467.38,-263.24"/>
</g>
<!-- 1276086494128 -->
<g id="node17" class="node">
<title>1276086494128</title>
<ellipse fill="white" stroke="black" cx="27" cy="-173" rx="27" ry="27"/>
<text text-anchor="start" x="16.88" y="-159.82" font-family="Times New Roman,serif" font-size="34.00">●</text>
</g>
<!-- 1276086494128&#45;&gt;1276086487504 -->
<g id="edge31" class="edge">
<title>1276086494128&#45;&gt;1276086487504</title>
<path fill="none" stroke="black" d="M54.4,-173C61.89,-173 70.18,-173 78.2,-173"/>
<polygon fill="black" stroke="black" points="78.1,-176.5 88.1,-173 78.1,-169.5 78.1,-176.5"/>
</g>
<!-- 1276083813248&#45;&gt;1276086527760 -->
<g id="edge11" class="edge">
<title>1276083813248&#45;&gt;1276086527760</title>
<path fill="none" stroke="black" d="M220.21,-242.93C230.87,-261.37 248.05,-286 270,-300 323.16,-333.92 395.34,-345.91 445.52,-350.04"/>
<polygon fill="black" stroke="black" points="445.09,-353.52 455.32,-350.76 445.6,-346.54 445.09,-353.52"/>
</g>
<!-- 1276083813248&#45;&gt;1276086529200 -->
<g id="edge12" class="edge">
<title>1276083813248&#45;&gt;1276086529200</title>
<path fill="none" stroke="black" d="M232,-229.87C243.43,-234.94 257.35,-240.96 270,-246 273.8,-247.52 277.73,-249.04 281.69,-250.56"/>
<polygon fill="black" stroke="black" points="280.23,-253.75 290.82,-254 282.7,-247.2 280.23,-253.75"/>
</g>
<!-- 1276083813248&#45;&gt;1276086530400 -->
<g id="edge9" class="edge">
<title>1276083813248&#45;&gt;1276086530400</title>
<path fill="none" stroke="black" d="M231.14,-206.45C242.5,-200.93 256.6,-195.03 270,-192 432.29,-155.25 628.41,-159.8 736.68,-166.4"/>
<polygon fill="black" stroke="black" points="736.45,-169.89 746.65,-167.03 736.89,-162.91 736.45,-169.89"/>
</g>
<!-- 1276083813248&#45;&gt;1276086532080 -->
<g id="edge10" class="edge">
<title>1276083813248&#45;&gt;1276086532080</title>
<path fill="none" stroke="black" d="M234.32,-219C241.48,-219 249.65,-219 258.23,-219"/>
<polygon fill="black" stroke="black" points="258.18,-222.5 268.18,-219 258.18,-215.5 258.18,-222.5"/>
</g>
<!-- 1276086526080&#45;&gt;1276083812432 -->
<g id="edge13" class="edge">
<title>1276086526080&#45;&gt;1276083812432</title>
<path fill="none" stroke="black" d="M1339.96,-209.12C1349.06,-203.43 1359.83,-196.7 1370,-190.35"/>
<polygon fill="black" stroke="black" points="1371.57,-193.49 1378.2,-185.22 1367.86,-187.55 1371.57,-193.49"/>
</g>
<!-- 1276086519312&#45;&gt;1276086525456 -->
<g id="edge15" class="edge">
<title>1276086519312&#45;&gt;1276086525456</title>
<path fill="none" stroke="black" d="M530.94,-281.42C547.37,-287.3 569.67,-294.41 590,-298 778.44,-331.27 1008.78,-328.25 1097.97,-325.48"/>
<polygon fill="black" stroke="black" points="1097.97,-328.98 1107.85,-325.15 1097.74,-321.98 1097.97,-328.98"/>
</g>
<!-- 1276086519312&#45;&gt;1276086532560 -->
<g id="edge14" class="edge">
<title>1276086519312&#45;&gt;1276086532560</title>
<path fill="none" stroke="black" d="M532.87,-271.82C555.26,-271.66 587.66,-271.44 612.75,-271.26"/>
<polygon fill="black" stroke="black" points="612.56,-274.76 622.54,-271.19 612.51,-267.76 612.56,-274.76"/>
</g>
<!-- 1276086521472&#45;&gt;1276086532416 -->
<g id="edge16" class="edge">
<title>1276086521472&#45;&gt;1276086532416</title>
<path fill="none" stroke="black" d="M846.09,-263.13C864.33,-258.94 889.96,-253.06 915.04,-247.3"/>
<polygon fill="black" stroke="black" points="915.67,-250.75 924.63,-245.1 914.1,-243.92 915.67,-250.75"/>
</g>
<!-- 1276086532368&#45;&gt;1276086520848 -->
<g id="edge17" class="edge">
<title>1276086532368&#45;&gt;1276086520848</title>
<path fill="none" stroke="black" d="M1159.96,-236.88C1169.06,-242.57 1179.83,-249.3 1190,-255.65"/>
<polygon fill="black" stroke="black" points="1187.86,-258.45 1198.2,-260.78 1191.57,-252.51 1187.86,-258.45"/>
</g>
<!-- 1276086532368&#45;&gt;1276086530928 -->
<g id="edge18" class="edge">
<title>1276086532368&#45;&gt;1276086530928</title>
<path fill="none" stroke="black" d="M1164.15,-223C1171.64,-223 1179.93,-223 1187.95,-223"/>
<polygon fill="black" stroke="black" points="1187.85,-226.5 1197.85,-223 1187.85,-219.5 1187.85,-226.5"/>
</g>
<!-- 1276083810320&#45;&gt;1276083811328 -->
<g id="edge20" class="edge">
<title>1276083810320&#45;&gt;1276083811328</title>
<path fill="none" stroke="black" d="M234.31,-127C287.06,-127 405.9,-127 466.86,-127"/>
<polygon fill="black" stroke="black" points="466.73,-130.5 476.73,-127 466.73,-123.5 466.73,-130.5"/>
</g>
<!-- 1276083810320&#45;&gt;1276083811424 -->
<g id="edge19" class="edge">
<title>1276083810320&#45;&gt;1276083811424</title>
<path fill="none" stroke="black" d="M232.4,-117.35C253.42,-109.03 284.05,-96.92 307.98,-87.45"/>
<polygon fill="black" stroke="black" points="309.03,-90.8 317.04,-83.86 306.45,-84.29 309.03,-90.8"/>
</g>
<!-- 1276083812288&#45;&gt;1276083812432 -->
<g id="edge21" class="edge">
<title>1276083812288&#45;&gt;1276083812432</title>
<path fill="none" stroke="black" d="M1163.45,-118.27C1211.03,-128.04 1313.02,-148.97 1368.29,-160.31"/>
<polygon fill="black" stroke="black" points="1367.36,-163.69 1377.86,-162.28 1368.77,-156.84 1367.36,-163.69"/>
</g>
<!-- 1276083811568&#45;&gt;1276083811664 -->
<g id="edge22" class="edge">
<title>1276083811568&#45;&gt;1276083811664</title>
<path fill="none" stroke="black" d="M532.2,-58.28C545.32,-55.36 561.99,-51.65 578.65,-47.94"/>
<polygon fill="black" stroke="black" points="579.07,-51.43 588.07,-45.84 577.55,-44.6 579.07,-51.43"/>
</g>
<!-- 1276083811712&#45;&gt;1276086530592 -->
<g id="edge24" class="edge">
<title>1276083811712&#45;&gt;1276086530592</title>
<path fill="none" stroke="black" d="M846.86,-27C877.07,-27 926.83,-27 961.2,-27"/>
<polygon fill="black" stroke="black" points="961.15,-30.5 971.15,-27 961.15,-23.5 961.15,-30.5"/>
</g>
<!-- 1276083811712&#45;&gt;1276086518256 -->
<g id="edge23" class="edge">
<title>1276083811712&#45;&gt;1276086518256</title>
<path fill="none" stroke="black" d="M845.71,-34.62C876.09,-43.8 927.36,-59.3 962.19,-69.84"/>
<polygon fill="black" stroke="black" points="960.84,-73.08 971.43,-72.63 962.87,-66.38 960.84,-73.08"/>
</g>
</g>
</svg>
