<?xml version="1.0" encoding="UTF-8" standalone="no"?>
<!DOCTYPE svg PUBLIC "-//W3C//DTD SVG 1.1//EN"
 "http://www.w3.org/Graphics/SVG/1.1/DTD/svg11.dtd">
<!-- Generated by graphviz version 12.2.0 (20241103.1931)
 -->
<!-- Title: imsfs Pages: 1 -->
<svg width="1367pt" height="503pt"
 viewBox="0.00 0.00 1366.50 503.00" xmlns="http://www.w3.org/2000/svg" xmlns:xlink="http://www.w3.org/1999/xlink">
<g id="graph0" class="graph" transform="scale(1 1) rotate(0) translate(4 499)">
<title>imsfs</title>
<polygon fill="white" stroke="none" points="-4,4 -4,-499 1362.5,-499 1362.5,4 -4,4"/>
<!-- 1884345700736 -->
<g id="node1" class="node">
<title>1884345700736</title>
<polygon fill="white" stroke="black" points="164.5,-427 90,-427 90,-391 164.5,-391 164.5,-427"/>
<text text-anchor="middle" x="127.25" y="-404.73" font-family="Times New Roman,serif" font-size="12.00">Add penalty</text>
</g>
<!-- 1884355800240 -->
<g id="node18" class="node">
<title>1884355800240</title>
<ellipse fill="white" stroke="black" cx="227.5" cy="-332" rx="27" ry="27"/>
</g>
<!-- 1884345700736&#45;&gt;1884355800240 -->
<g id="edge1" class="edge">
<title>1884345700736&#45;&gt;1884355800240</title>
<path fill="none" stroke="black" d="M151.53,-390.75C165.16,-380.07 182.5,-366.48 197.07,-355.07"/>
<polygon fill="black" stroke="black" points="198.82,-358.14 204.53,-349.22 194.5,-352.63 198.82,-358.14"/>
</g>
<!-- 1884345699488 -->
<g id="node2" class="node">
<title>1884345699488</title>
<polygon fill="white" stroke="black" points="419.38,-350 362.12,-350 362.12,-314 419.38,-314 419.38,-350"/>
<text text-anchor="middle" x="390.75" y="-327.73" font-family="Times New Roman,serif" font-size="12.00">Payment</text>
</g>
<!-- 1884345699488&#45;&gt;1884355800240 -->
<g id="edge7" class="edge">
<title>1884345699488&#45;&gt;1884355800240</title>
<path fill="none" stroke="black" d="M361.74,-337.26C335.18,-339.05 295.09,-339.23 265.82,-337.8"/>
<polygon fill="black" stroke="black" points="266.11,-334.31 255.92,-337.21 265.69,-341.3 266.11,-334.31"/>
</g>
<!-- 1884345700832 -->
<g id="node3" class="node">
<title>1884345700832</title>
<polygon fill="white" stroke="black" points="461,-90 320.5,-90 320.5,-54 461,-54 461,-90"/>
<text text-anchor="middle" x="390.75" y="-67.72" font-family="Times New Roman,serif" font-size="12.00">Send for Credit Collection</text>
</g>
<!-- 1884355789344 -->
<g id="node14" class="node">
<title>1884355789344</title>
<ellipse fill="white" stroke="black" cx="227.5" cy="-95" rx="27" ry="27"/>
</g>
<!-- 1884345700832&#45;&gt;1884355789344 -->
<g id="edge11" class="edge">
<title>1884345700832&#45;&gt;1884355789344</title>
<path fill="none" stroke="black" d="M320,-88.64C301.39,-91.49 281.99,-93.96 265.87,-95.47"/>
<polygon fill="black" stroke="black" points="265.95,-91.95 256.27,-96.27 266.53,-98.93 265.95,-91.95"/>
</g>
<!-- 1884345698912 -->
<g id="node4" class="node">
<title>1884345698912</title>
<polygon fill="black" stroke="black" points="154.25,-228 100.25,-228 100.25,-192 154.25,-192 154.25,-228"/>
</g>
<!-- 1884345698912&#45;&gt;1884355789344 -->
<g id="edge12" class="edge">
<title>1884345698912&#45;&gt;1884355789344</title>
<path fill="none" stroke="black" d="M144.04,-191.52C159.6,-173.3 183.63,-145.18 201.74,-123.98"/>
<polygon fill="black" stroke="black" points="204.28,-126.4 208.11,-116.52 198.96,-121.85 204.28,-126.4"/>
</g>
<!-- 1884345698912&#45;&gt;1884355800240 -->
<g id="edge13" class="edge">
<title>1884345698912&#45;&gt;1884355800240</title>
<path fill="none" stroke="black" d="M142.96,-228.26C158.74,-247.86 184.05,-279.29 202.68,-302.43"/>
<polygon fill="black" stroke="black" points="199.76,-304.38 208.76,-309.98 205.22,-299.99 199.76,-304.38"/>
</g>
<!-- 1884355803120 -->
<g id="node19" class="node">
<title>1884355803120</title>
<ellipse fill="white" stroke="black" cx="854.25" cy="-304" rx="27" ry="27"/>
</g>
<!-- 1884345698912&#45;&gt;1884355803120 -->
<g id="edge14" class="edge">
<title>1884345698912&#45;&gt;1884355803120</title>
<path fill="none" stroke="black" d="M154.6,-210C201.77,-210 303.72,-210 389.75,-210 389.75,-210 389.75,-210 555,-210 655.27,-210 766.09,-258.92 820.05,-286.18"/>
<polygon fill="black" stroke="black" points="818.23,-289.18 828.72,-290.63 821.43,-282.95 818.23,-289.18"/>
</g>
<!-- 1884345701648 -->
<g id="node5" class="node">
<title>1884345701648</title>
<polygon fill="white" stroke="black" points="437.38,-36 344.12,-36 344.12,0 437.38,0 437.38,-36"/>
<text text-anchor="middle" x="390.75" y="-13.72" font-family="Times New Roman,serif" font-size="12.00">Appeal to Judge</text>
</g>
<!-- 1884345701648&#45;&gt;1884355789344 -->
<g id="edge2" class="edge">
<title>1884345701648&#45;&gt;1884355789344</title>
<path fill="none" stroke="black" d="M343.82,-34.72C326.52,-39.51 307.04,-45.55 290.5,-54 279.79,-59.47 269.19,-67 259.88,-74.2"/>
<polygon fill="black" stroke="black" points="257.88,-71.31 252.22,-80.26 262.23,-76.8 257.88,-71.31"/>
</g>
<!-- 1884345701456 -->
<g id="node6" class="node">
<title>1884345701456</title>
<polygon fill="white" stroke="black" points="453.5,-458 328,-458 328,-422 453.5,-422 453.5,-458"/>
<text text-anchor="middle" x="390.75" y="-435.73" font-family="Times New Roman,serif" font-size="12.00">Insert Fine Notification</text>
</g>
<!-- 1884355799520 -->
<g id="node17" class="node">
<title>1884355799520</title>
<ellipse fill="white" stroke="black" cx="554" cy="-468" rx="27" ry="27"/>
</g>
<!-- 1884345701456&#45;&gt;1884355799520 -->
<g id="edge4" class="edge">
<title>1884345701456&#45;&gt;1884355799520</title>
<path fill="none" stroke="black" d="M453.63,-450.75C474.71,-454.41 497.61,-458.38 516.1,-461.59"/>
<polygon fill="black" stroke="black" points="515.33,-465.01 525.78,-463.27 516.53,-458.11 515.33,-465.01"/>
</g>
<!-- 1884345701360 -->
<g id="node7" class="node">
<title>1884345701360</title>
<polygon fill="white" stroke="black" points="791.25,-322 617,-322 617,-286 791.25,-286 791.25,-322"/>
<text text-anchor="middle" x="704.12" y="-299.73" font-family="Times New Roman,serif" font-size="12.00">Notify Result Appeal to Offender</text>
</g>
<!-- 1884345701360&#45;&gt;1884355800240 -->
<g id="edge5" class="edge">
<title>1884345701360&#45;&gt;1884355800240</title>
<path fill="none" stroke="black" d="M616.72,-294.12C532.49,-286.85 401.28,-281.79 290.5,-305 280.94,-307 271.05,-310.55 262.05,-314.44"/>
<polygon fill="black" stroke="black" points="260.59,-311.26 252.97,-318.62 263.52,-317.61 260.59,-311.26"/>
</g>
<!-- 1884345701360&#45;&gt;1884355803120 -->
<g id="edge6" class="edge">
<title>1884345701360&#45;&gt;1884355803120</title>
<path fill="none" stroke="black" d="M791.72,-304C800.01,-304 808.09,-304 815.52,-304"/>
<polygon fill="black" stroke="black" points="815.45,-307.5 825.45,-304 815.45,-300.5 815.45,-307.5"/>
</g>
<!-- 1884345701552 -->
<g id="node8" class="node">
<title>1884345701552</title>
<polygon fill="white" stroke="black" points="1084.75,-372 917.25,-372 917.25,-336 1084.75,-336 1084.75,-372"/>
<text text-anchor="middle" x="1001" y="-349.73" font-family="Times New Roman,serif" font-size="12.00">Insert Date Appeal to Prefecture</text>
</g>
<!-- 1884355802448 -->
<g id="node16" class="node">
<title>1884355802448</title>
<ellipse fill="white" stroke="black" cx="1151.75" cy="-359" rx="27" ry="27"/>
</g>
<!-- 1884345701552&#45;&gt;1884355802448 -->
<g id="edge3" class="edge">
<title>1884345701552&#45;&gt;1884355802448</title>
<path fill="none" stroke="black" d="M1085.07,-356.79C1094.86,-357.12 1104.45,-357.44 1113.14,-357.74"/>
<polygon fill="black" stroke="black" points="1112.75,-361.22 1122.86,-358.06 1112.99,-354.23 1112.75,-361.22"/>
</g>
<!-- 1884345698192 -->
<g id="node9" class="node">
<title>1884345698192</title>
<polygon fill="white" stroke="black" points="491,-404 290.5,-404 290.5,-368 491,-368 491,-404"/>
<text text-anchor="middle" x="390.75" y="-381.73" font-family="Times New Roman,serif" font-size="12.00">Receive Result Appeal from Prefecture</text>
</g>
<!-- 1884355789152 -->
<g id="node15" class="node">
<title>1884355789152</title>
<ellipse fill="white" stroke="black" cx="554" cy="-341" rx="27" ry="27"/>
</g>
<!-- 1884345698192&#45;&gt;1884355789152 -->
<g id="edge8" class="edge">
<title>1884345698192&#45;&gt;1884355789152</title>
<path fill="none" stroke="black" d="M460.13,-367.56C470.48,-364.72 481.03,-361.8 491,-359 499.31,-356.66 508.23,-354.1 516.64,-351.67"/>
<polygon fill="black" stroke="black" points="517.61,-355.03 526.24,-348.88 515.66,-348.31 517.61,-355.03"/>
</g>
<!-- 1884345698096 -->
<g id="node10" class="node">
<title>1884345698096</title>
<polygon fill="white" stroke="black" points="1358.5,-349 1218.75,-349 1218.75,-313 1358.5,-313 1358.5,-349"/>
<text text-anchor="middle" x="1288.62" y="-326.73" font-family="Times New Roman,serif" font-size="12.00">Send Appeal to Prefecture</text>
</g>
<!-- 1884345698096&#45;&gt;1884355803120 -->
<g id="edge9" class="edge">
<title>1884345698096&#45;&gt;1884355803120</title>
<path fill="none" stroke="black" d="M1218.53,-325.55C1206.6,-324.66 1194.32,-323.78 1182.75,-323 1077.8,-315.95 953.83,-309.19 892.9,-305.96"/>
<polygon fill="black" stroke="black" points="893.26,-302.48 883.09,-305.44 892.89,-309.47 893.26,-302.48"/>
</g>
<!-- 1884345701072 -->
<g id="node11" class="node">
<title>1884345701072</title>
<polygon fill="white" stroke="black" points="422.75,-182 358.75,-182 358.75,-146 422.75,-146 422.75,-182"/>
<text text-anchor="middle" x="390.75" y="-159.72" font-family="Times New Roman,serif" font-size="12.00">Send Fine</text>
</g>
<!-- 1884345701072&#45;&gt;1884355789344 -->
<g id="edge10" class="edge">
<title>1884345701072&#45;&gt;1884355789344</title>
<path fill="none" stroke="black" d="M358.67,-163.65C338.76,-159.3 312.6,-151 290.5,-141 278.61,-135.62 266.13,-128.49 255.52,-121.33"/>
<polygon fill="black" stroke="black" points="257.76,-118.63 247.59,-115.67 253.69,-124.33 257.76,-118.63"/>
</g>
<!-- 1884345699824 -->
<g id="node12" class="node">
<title>1884345699824</title>
<polygon fill="black" stroke="black" points="1028,-265 974,-265 974,-229 1028,-229 1028,-265"/>
</g>
<!-- 1884355791984 -->
<g id="node20" class="node">
<title>1884355791984</title>
<ellipse fill="white" stroke="black" cx="1151.75" cy="-245" rx="27" ry="27"/>
<ellipse fill="none" stroke="black" cx="1151.75" cy="-245" rx="31" ry="31"/>
<text text-anchor="start" x="1142" y="-232.97" font-family="Times New Roman,serif" font-size="32.00">■</text>
</g>
<!-- 1884345699824&#45;&gt;1884355791984 -->
<g id="edge15" class="edge">
<title>1884345699824&#45;&gt;1884355791984</title>
<path fill="none" stroke="black" d="M1028.25,-246.65C1050.6,-246.35 1083.11,-245.91 1109.02,-245.56"/>
<polygon fill="black" stroke="black" points="1108.94,-249.06 1118.89,-245.43 1108.84,-242.06 1108.94,-249.06"/>
</g>
<!-- 1884355795632 -->
<g id="node13" class="node">
<title>1884355795632</title>
<ellipse fill="white" stroke="black" cx="27" cy="-210" rx="27" ry="27"/>
<text text-anchor="start" x="16.88" y="-196.82" font-family="Times New Roman,serif" font-size="34.00">●</text>
</g>
<!-- 1884355795632&#45;&gt;1884345698912 -->
<g id="edge22" class="edge">
<title>1884355795632&#45;&gt;1884345698912</title>
<path fill="none" stroke="black" d="M54.33,-210C64.79,-210 77.03,-210 88.41,-210"/>
<polygon fill="black" stroke="black" points="88.33,-213.5 98.33,-210 88.33,-206.5 88.33,-213.5"/>
</g>
<!-- 1884355789344&#45;&gt;1884345700832 -->
<g id="edge18" class="edge">
<title>1884355789344&#45;&gt;1884345700832</title>
<path fill="none" stroke="black" d="M253.34,-86.42C268.47,-83.12 288.75,-79.66 309.03,-76.76"/>
<polygon fill="black" stroke="black" points="309.33,-80.25 318.76,-75.42 308.38,-73.32 309.33,-80.25"/>
</g>
<!-- 1884355789344&#45;&gt;1884345701648 -->
<g id="edge16" class="edge">
<title>1884355789344&#45;&gt;1884345701648</title>
<path fill="none" stroke="black" d="M243.29,-72.73C255.12,-59.95 272.64,-45.12 290.5,-36 303.55,-29.34 318.43,-24.17 332.63,-20.52"/>
<polygon fill="black" stroke="black" points="333.4,-23.94 342.35,-18.27 331.82,-17.12 333.4,-23.94"/>
</g>
<!-- 1884355789344&#45;&gt;1884345701072 -->
<g id="edge17" class="edge">
<title>1884355789344&#45;&gt;1884345701072</title>
<path fill="none" stroke="black" d="M253.44,-103.38C264.48,-109.55 277.82,-117.26 290.5,-123 308.8,-131.28 329.89,-138.4 347.9,-144.53"/>
<polygon fill="black" stroke="black" points="346.64,-147.8 357.24,-147.74 348.92,-141.18 346.64,-147.8"/>
</g>
<!-- 1884355789344&#45;&gt;1884345699824 -->
<g id="edge19" class="edge">
<title>1884355789344&#45;&gt;1884345699824</title>
<path fill="none" stroke="black" d="M254.53,-98.1C309.55,-104.38 441.74,-118 553,-118 553,-118 553,-118 705.12,-118 807.7,-118 914.79,-184.33 967.18,-221.87"/>
<polygon fill="black" stroke="black" points="964.94,-224.57 975.09,-227.63 969.07,-218.91 964.94,-224.57"/>
</g>
<!-- 1884355789152&#45;&gt;1884345701360 -->
<g id="edge20" class="edge">
<title>1884355789152&#45;&gt;1884345701360</title>
<path fill="none" stroke="black" d="M580.46,-334.64C591.23,-331.95 604.46,-328.65 618.19,-325.22"/>
<polygon fill="black" stroke="black" points="618.95,-328.63 627.81,-322.81 617.26,-321.84 618.95,-328.63"/>
</g>
<!-- 1884355802448&#45;&gt;1884345698096 -->
<g id="edge21" class="edge">
<title>1884355802448&#45;&gt;1884345698096</title>
<path fill="none" stroke="black" d="M1178.44,-353.67C1186.86,-351.92 1196.71,-349.87 1206.98,-347.74"/>
<polygon fill="black" stroke="black" points="1207.69,-351.17 1216.77,-345.71 1206.27,-344.31 1207.69,-351.17"/>
</g>
<!-- 1884355799520&#45;&gt;1884345700736 -->
<g id="edge23" class="edge">
<title>1884355799520&#45;&gt;1884345700736</title>
<path fill="none" stroke="black" d="M526.66,-470.82C479.07,-475.26 375.79,-481.95 290.5,-467 250.39,-459.97 207.07,-444.02 175.29,-430.62"/>
<polygon fill="black" stroke="black" points="176.93,-427.52 166.36,-426.79 174.17,-433.95 176.93,-427.52"/>
</g>
<!-- 1884355800240&#45;&gt;1884345699488 -->
<g id="edge25" class="edge">
<title>1884355800240&#45;&gt;1884345699488</title>
<path fill="none" stroke="black" d="M254.41,-326.89C280.34,-325 320.58,-324.75 350.45,-326.11"/>
<polygon fill="black" stroke="black" points="350.05,-329.59 360.23,-326.65 350.44,-322.6 350.05,-329.59"/>
</g>
<!-- 1884355800240&#45;&gt;1884345701456 -->
<g id="edge24" class="edge">
<title>1884355800240&#45;&gt;1884345701456</title>
<path fill="none" stroke="black" d="M240.9,-355.65C251.66,-373.93 268.89,-398.48 290.5,-413 298.58,-418.43 307.71,-422.77 317.09,-426.24"/>
<polygon fill="black" stroke="black" points="315.71,-429.46 326.3,-429.31 317.93,-422.82 315.71,-429.46"/>
</g>
<!-- 1884355800240&#45;&gt;1884345698192 -->
<g id="edge26" class="edge">
<title>1884355800240&#45;&gt;1884345698192</title>
<path fill="none" stroke="black" d="M252.32,-343.34C263.72,-348.51 277.65,-354.48 290.5,-359 295.55,-360.78 300.78,-362.51 306.08,-364.18"/>
<polygon fill="black" stroke="black" points="304.97,-367.5 315.56,-367.08 307.02,-360.81 304.97,-367.5"/>
</g>
<!-- 1884355800240&#45;&gt;1884345699824 -->
<g id="edge27" class="edge">
<title>1884355800240&#45;&gt;1884345699824</title>
<path fill="none" stroke="black" d="M247.18,-313.3C258.69,-302.93 274.31,-290.8 290.5,-284 399.07,-238.41 435.24,-248 553,-248 553,-248 553,-248 705.12,-248 797.41,-248 905.95,-247.5 962.08,-247.21"/>
<polygon fill="black" stroke="black" points="962.07,-250.71 972.05,-247.16 962.04,-243.71 962.07,-250.71"/>
</g>
<!-- 1884355803120&#45;&gt;1884345701552 -->
<g id="edge28" class="edge">
<title>1884355803120&#45;&gt;1884345701552</title>
<path fill="none" stroke="black" d="M880.13,-312.6C895.55,-317.92 916.11,-325.02 935.84,-331.84"/>
<polygon fill="black" stroke="black" points="934.65,-335.13 945.25,-335.09 936.94,-328.51 934.65,-335.13"/>
</g>
<!-- 1884355803120&#45;&gt;1884345698192 -->
<g id="edge29" class="edge">
<title>1884355803120&#45;&gt;1884345698192</title>
<path fill="none" stroke="black" d="M829.53,-315.63C818.15,-320.87 804.21,-326.81 791.25,-331 700.24,-360.46 675.83,-364.46 581,-377 555.72,-380.34 528.39,-382.49 502.58,-383.85"/>
<polygon fill="black" stroke="black" points="502.56,-380.35 492.74,-384.33 502.9,-387.34 502.56,-380.35"/>
</g>
<!-- 1884355803120&#45;&gt;1884345699824 -->
<g id="edge30" class="edge">
<title>1884355803120&#45;&gt;1884345699824</title>
<path fill="none" stroke="black" d="M879.8,-294.33C902.67,-285.33 937.07,-271.78 963.21,-261.49"/>
<polygon fill="black" stroke="black" points="964.42,-264.77 972.45,-257.85 961.86,-258.26 964.42,-264.77"/>
</g>
</g>
</svg>
