<?xml version="1.0" encoding="UTF-8" standalone="no"?>
<!DOCTYPE svg PUBLIC "-//W3C//DTD SVG 1.1//EN"
 "http://www.w3.org/Graphics/SVG/1.1/DTD/svg11.dtd">
<!-- Generated by graphviz version 12.2.0 (20241103.1931)
 -->
<!-- Title: imdf_net_1747858377.7257154 Pages: 1 -->
<svg width="1563pt" height="503pt"
 viewBox="0.00 0.00 1563.25 503.00" xmlns="http://www.w3.org/2000/svg" xmlns:xlink="http://www.w3.org/1999/xlink">
<g id="graph0" class="graph" transform="scale(1 1) rotate(0) translate(4 499)">
<title>imdf_net_1747858377.7257154</title>
<polygon fill="white" stroke="none" points="-4,4 -4,-499 1559.25,-499 1559.25,4 -4,4"/>
<!-- 2567364344320 -->
<g id="node1" class="node">
<title>2567364344320</title>
<polygon fill="white" stroke="black" points="361.25,-427 286.75,-427 286.75,-391 361.25,-391 361.25,-427"/>
<text text-anchor="middle" x="324" y="-404.73" font-family="Times New Roman,serif" font-size="12.00">Add penalty</text>
</g>
<!-- 2567364344032 -->
<g id="node20" class="node">
<title>2567364344032</title>
<ellipse fill="white" stroke="black" cx="424.25" cy="-332" rx="27" ry="27"/>
</g>
<!-- 2567364344320&#45;&gt;2567364344032 -->
<g id="edge1" class="edge">
<title>2567364344320&#45;&gt;2567364344032</title>
<path fill="none" stroke="black" d="M348.28,-390.75C361.91,-380.07 379.25,-366.48 393.82,-355.07"/>
<polygon fill="black" stroke="black" points="395.57,-358.14 401.28,-349.22 391.25,-352.63 395.57,-358.14"/>
</g>
<!-- 2567369539248 -->
<g id="node2" class="node">
<title>2567369539248</title>
<polygon fill="white" stroke="black" points="160.75,-228 90,-228 90,-192 160.75,-192 160.75,-228"/>
<text text-anchor="middle" x="125.38" y="-205.72" font-family="Times New Roman,serif" font-size="12.00">Create Fine</text>
</g>
<!-- 2567369538768 -->
<g id="node18" class="node">
<title>2567369538768</title>
<ellipse fill="white" stroke="black" cx="223.75" cy="-210" rx="27" ry="27"/>
</g>
<!-- 2567369539248&#45;&gt;2567369538768 -->
<g id="edge16" class="edge">
<title>2567369539248&#45;&gt;2567369538768</title>
<path fill="none" stroke="black" d="M161.17,-210C168.9,-210 177.14,-210 184.98,-210"/>
<polygon fill="black" stroke="black" points="184.97,-213.5 194.97,-210 184.97,-206.5 184.97,-213.5"/>
</g>
<!-- 2567364345328 -->
<g id="node3" class="node">
<title>2567364345328</title>
<polygon fill="white" stroke="black" points="619.5,-182 555.5,-182 555.5,-146 619.5,-146 619.5,-182"/>
<text text-anchor="middle" x="587.5" y="-159.72" font-family="Times New Roman,serif" font-size="12.00">Send Fine</text>
</g>
<!-- 2567364344224 -->
<g id="node15" class="node">
<title>2567364344224</title>
<ellipse fill="white" stroke="black" cx="424.25" cy="-95" rx="27" ry="27"/>
</g>
<!-- 2567364345328&#45;&gt;2567364344224 -->
<g id="edge10" class="edge">
<title>2567364345328&#45;&gt;2567364344224</title>
<path fill="none" stroke="black" d="M555.42,-163.65C535.51,-159.3 509.35,-151 487.25,-141 475.36,-135.62 462.88,-128.49 452.27,-121.33"/>
<polygon fill="black" stroke="black" points="454.51,-118.63 444.34,-115.67 450.44,-124.33 454.51,-118.63"/>
</g>
<!-- 2567364344368 -->
<g id="node4" class="node">
<title>2567364344368</title>
<polygon fill="white" stroke="black" points="650.25,-458 524.75,-458 524.75,-422 650.25,-422 650.25,-458"/>
<text text-anchor="middle" x="587.5" y="-435.73" font-family="Times New Roman,serif" font-size="12.00">Insert Fine Notification</text>
</g>
<!-- 2567364343936 -->
<g id="node19" class="node">
<title>2567364343936</title>
<ellipse fill="white" stroke="black" cx="750.75" cy="-468" rx="27" ry="27"/>
</g>
<!-- 2567364344368&#45;&gt;2567364343936 -->
<g id="edge4" class="edge">
<title>2567364344368&#45;&gt;2567364343936</title>
<path fill="none" stroke="black" d="M650.38,-450.75C671.46,-454.41 694.36,-458.38 712.85,-461.59"/>
<polygon fill="black" stroke="black" points="712.08,-465.01 722.53,-463.27 713.28,-458.11 712.08,-465.01"/>
</g>
<!-- 2567364344656 -->
<g id="node5" class="node">
<title>2567364344656</title>
<polygon fill="white" stroke="black" points="634.12,-90 540.88,-90 540.88,-54 634.12,-54 634.12,-90"/>
<text text-anchor="middle" x="587.5" y="-67.72" font-family="Times New Roman,serif" font-size="12.00">Appeal to Judge</text>
</g>
<!-- 2567364344656&#45;&gt;2567364344224 -->
<g id="edge2" class="edge">
<title>2567364344656&#45;&gt;2567364344224</title>
<path fill="none" stroke="black" d="M540.69,-84.69C516.12,-89.09 486.2,-93.24 462.98,-95.43"/>
<polygon fill="black" stroke="black" points="462.7,-91.95 453.02,-96.27 463.28,-98.92 462.7,-91.95"/>
</g>
<!-- 2567364344464 -->
<g id="node6" class="node">
<title>2567364344464</title>
<polygon fill="white" stroke="black" points="988,-322 813.75,-322 813.75,-286 988,-286 988,-322"/>
<text text-anchor="middle" x="900.88" y="-299.73" font-family="Times New Roman,serif" font-size="12.00">Notify Result Appeal to Offender</text>
</g>
<!-- 2567364344464&#45;&gt;2567364344032 -->
<g id="edge5" class="edge">
<title>2567364344464&#45;&gt;2567364344032</title>
<path fill="none" stroke="black" d="M813.47,-294.12C729.24,-286.85 598.03,-281.79 487.25,-305 477.69,-307 467.8,-310.55 458.8,-314.44"/>
<polygon fill="black" stroke="black" points="457.34,-311.26 449.72,-318.62 460.27,-317.61 457.34,-311.26"/>
</g>
<!-- 2567364343648 -->
<g id="node21" class="node">
<title>2567364343648</title>
<ellipse fill="white" stroke="black" cx="1051" cy="-304" rx="27" ry="27"/>
</g>
<!-- 2567364344464&#45;&gt;2567364343648 -->
<g id="edge6" class="edge">
<title>2567364344464&#45;&gt;2567364343648</title>
<path fill="none" stroke="black" d="M988.47,-304C996.76,-304 1004.84,-304 1012.27,-304"/>
<polygon fill="black" stroke="black" points="1012.2,-307.5 1022.2,-304 1012.2,-300.5 1012.2,-307.5"/>
</g>
<!-- 2567364344560 -->
<g id="node7" class="node">
<title>2567364344560</title>
<polygon fill="white" stroke="black" points="1281.5,-372 1114,-372 1114,-336 1281.5,-336 1281.5,-372"/>
<text text-anchor="middle" x="1197.75" y="-349.73" font-family="Times New Roman,serif" font-size="12.00">Insert Date Appeal to Prefecture</text>
</g>
<!-- 2567364344128 -->
<g id="node17" class="node">
<title>2567364344128</title>
<ellipse fill="white" stroke="black" cx="1348.5" cy="-359" rx="27" ry="27"/>
</g>
<!-- 2567364344560&#45;&gt;2567364344128 -->
<g id="edge3" class="edge">
<title>2567364344560&#45;&gt;2567364344128</title>
<path fill="none" stroke="black" d="M1281.82,-356.79C1291.61,-357.12 1301.2,-357.44 1309.89,-357.74"/>
<polygon fill="black" stroke="black" points="1309.5,-361.22 1319.61,-358.06 1309.74,-354.23 1309.5,-361.22"/>
</g>
<!-- 2567364344752 -->
<g id="node8" class="node">
<title>2567364344752</title>
<polygon fill="white" stroke="black" points="1555.25,-349 1415.5,-349 1415.5,-313 1555.25,-313 1555.25,-349"/>
<text text-anchor="middle" x="1485.38" y="-326.73" font-family="Times New Roman,serif" font-size="12.00">Send Appeal to Prefecture</text>
</g>
<!-- 2567364344752&#45;&gt;2567364343648 -->
<g id="edge9" class="edge">
<title>2567364344752&#45;&gt;2567364343648</title>
<path fill="none" stroke="black" d="M1415.28,-325.55C1403.35,-324.66 1391.07,-323.78 1379.5,-323 1274.55,-315.95 1150.58,-309.19 1089.65,-305.96"/>
<polygon fill="black" stroke="black" points="1090.01,-302.48 1079.84,-305.44 1089.64,-309.47 1090.01,-302.48"/>
</g>
<!-- 2567364344848 -->
<g id="node9" class="node">
<title>2567364344848</title>
<polygon fill="white" stroke="black" points="657.75,-36 517.25,-36 517.25,0 657.75,0 657.75,-36"/>
<text text-anchor="middle" x="587.5" y="-13.72" font-family="Times New Roman,serif" font-size="12.00">Send for Credit Collection</text>
</g>
<!-- 2567364344848&#45;&gt;2567364344224 -->
<g id="edge11" class="edge">
<title>2567364344848&#45;&gt;2567364344224</title>
<path fill="none" stroke="black" d="M534.51,-36.43C518.81,-40.94 501.88,-46.53 487.25,-54 476.54,-59.47 465.94,-67 456.63,-74.2"/>
<polygon fill="black" stroke="black" points="454.63,-71.31 448.97,-80.26 458.98,-76.8 454.63,-71.31"/>
</g>
<!-- 2567364344944 -->
<g id="node10" class="node">
<title>2567364344944</title>
<polygon fill="black" stroke="black" points="351,-228 297,-228 297,-192 351,-192 351,-228"/>
</g>
<!-- 2567364344944&#45;&gt;2567364344224 -->
<g id="edge12" class="edge">
<title>2567364344944&#45;&gt;2567364344224</title>
<path fill="none" stroke="black" d="M340.79,-191.52C356.35,-173.3 380.38,-145.18 398.49,-123.98"/>
<polygon fill="black" stroke="black" points="401.03,-126.4 404.86,-116.52 395.71,-121.85 401.03,-126.4"/>
</g>
<!-- 2567364344944&#45;&gt;2567364344032 -->
<g id="edge13" class="edge">
<title>2567364344944&#45;&gt;2567364344032</title>
<path fill="none" stroke="black" d="M339.71,-228.26C355.49,-247.86 380.8,-279.29 399.43,-302.43"/>
<polygon fill="black" stroke="black" points="396.51,-304.38 405.51,-309.98 401.97,-299.99 396.51,-304.38"/>
</g>
<!-- 2567364344944&#45;&gt;2567364343648 -->
<g id="edge14" class="edge">
<title>2567364344944&#45;&gt;2567364343648</title>
<path fill="none" stroke="black" d="M351.35,-210C398.52,-210 500.47,-210 586.5,-210 586.5,-210 586.5,-210 751.75,-210 852.02,-210 962.84,-258.92 1016.8,-286.18"/>
<polygon fill="black" stroke="black" points="1014.98,-289.18 1025.47,-290.63 1018.18,-282.95 1014.98,-289.18"/>
</g>
<!-- 2567364345040 -->
<g id="node11" class="node">
<title>2567364345040</title>
<polygon fill="black" stroke="black" points="1224.75,-265 1170.75,-265 1170.75,-229 1224.75,-229 1224.75,-265"/>
</g>
<!-- 2567369538672 -->
<g id="node22" class="node">
<title>2567369538672</title>
<ellipse fill="white" stroke="black" cx="1348.5" cy="-245" rx="27" ry="27"/>
<ellipse fill="none" stroke="black" cx="1348.5" cy="-245" rx="31" ry="31"/>
<text text-anchor="start" x="1338.75" y="-232.97" font-family="Times New Roman,serif" font-size="32.00">■</text>
</g>
<!-- 2567364345040&#45;&gt;2567369538672 -->
<g id="edge15" class="edge">
<title>2567364345040&#45;&gt;2567369538672</title>
<path fill="none" stroke="black" d="M1225,-246.65C1247.35,-246.35 1279.86,-245.91 1305.77,-245.56"/>
<polygon fill="black" stroke="black" points="1305.69,-249.06 1315.64,-245.43 1305.59,-242.06 1305.69,-249.06"/>
</g>
<!-- 2567364345136 -->
<g id="node12" class="node">
<title>2567364345136</title>
<polygon fill="white" stroke="black" points="616.12,-350 558.88,-350 558.88,-314 616.12,-314 616.12,-350"/>
<text text-anchor="middle" x="587.5" y="-327.73" font-family="Times New Roman,serif" font-size="12.00">Payment</text>
</g>
<!-- 2567364345136&#45;&gt;2567364344032 -->
<g id="edge7" class="edge">
<title>2567364345136&#45;&gt;2567364344032</title>
<path fill="none" stroke="black" d="M558.49,-337.26C531.93,-339.05 491.84,-339.23 462.57,-337.8"/>
<polygon fill="black" stroke="black" points="462.86,-334.31 452.67,-337.21 462.44,-341.3 462.86,-334.31"/>
</g>
<!-- 2567364345232 -->
<g id="node13" class="node">
<title>2567364345232</title>
<polygon fill="white" stroke="black" points="687.75,-404 487.25,-404 487.25,-368 687.75,-368 687.75,-404"/>
<text text-anchor="middle" x="587.5" y="-381.73" font-family="Times New Roman,serif" font-size="12.00">Receive Result Appeal from Prefecture</text>
</g>
<!-- 2567364343552 -->
<g id="node16" class="node">
<title>2567364343552</title>
<ellipse fill="white" stroke="black" cx="750.75" cy="-341" rx="27" ry="27"/>
</g>
<!-- 2567364345232&#45;&gt;2567364343552 -->
<g id="edge8" class="edge">
<title>2567364345232&#45;&gt;2567364343552</title>
<path fill="none" stroke="black" d="M656.88,-367.56C667.23,-364.72 677.78,-361.8 687.75,-359 696.06,-356.66 704.98,-354.1 713.39,-351.67"/>
<polygon fill="black" stroke="black" points="714.36,-355.03 722.99,-348.88 712.41,-348.31 714.36,-355.03"/>
</g>
<!-- 2567369523456 -->
<g id="node14" class="node">
<title>2567369523456</title>
<ellipse fill="white" stroke="black" cx="27" cy="-210" rx="27" ry="27"/>
<text text-anchor="start" x="16.88" y="-196.82" font-family="Times New Roman,serif" font-size="34.00">●</text>
</g>
<!-- 2567369523456&#45;&gt;2567369539248 -->
<g id="edge32" class="edge">
<title>2567369523456&#45;&gt;2567369539248</title>
<path fill="none" stroke="black" d="M54.33,-210C61.76,-210 70.06,-210 78.28,-210"/>
<polygon fill="black" stroke="black" points="78.24,-213.5 88.24,-210 78.24,-206.5 78.24,-213.5"/>
</g>
<!-- 2567364344224&#45;&gt;2567364345328 -->
<g id="edge18" class="edge">
<title>2567364344224&#45;&gt;2567364345328</title>
<path fill="none" stroke="black" d="M450.19,-103.38C461.23,-109.55 474.57,-117.26 487.25,-123 505.55,-131.28 526.64,-138.4 544.65,-144.53"/>
<polygon fill="black" stroke="black" points="543.39,-147.8 553.99,-147.74 545.67,-141.18 543.39,-147.8"/>
</g>
<!-- 2567364344224&#45;&gt;2567364344656 -->
<g id="edge17" class="edge">
<title>2567364344224&#45;&gt;2567364344656</title>
<path fill="none" stroke="black" d="M450.09,-86.42C471.12,-81.84 502.07,-76.94 529.18,-73.68"/>
<polygon fill="black" stroke="black" points="529.48,-77.17 539.02,-72.57 528.69,-70.22 529.48,-77.17"/>
</g>
<!-- 2567364344224&#45;&gt;2567364344848 -->
<g id="edge19" class="edge">
<title>2567364344224&#45;&gt;2567364344848</title>
<path fill="none" stroke="black" d="M440.04,-72.73C451.87,-59.95 469.39,-45.12 487.25,-36 493.3,-32.91 499.75,-30.14 506.34,-27.7"/>
<polygon fill="black" stroke="black" points="507.02,-31.16 515.35,-24.61 504.75,-24.54 507.02,-31.16"/>
</g>
<!-- 2567364344224&#45;&gt;2567364345040 -->
<g id="edge20" class="edge">
<title>2567364344224&#45;&gt;2567364345040</title>
<path fill="none" stroke="black" d="M451.28,-98.1C506.3,-104.38 638.49,-118 749.75,-118 749.75,-118 749.75,-118 901.88,-118 1004.45,-118 1111.54,-184.33 1163.93,-221.87"/>
<polygon fill="black" stroke="black" points="1161.69,-224.57 1171.84,-227.63 1165.82,-218.91 1161.69,-224.57"/>
</g>
<!-- 2567364343552&#45;&gt;2567364344464 -->
<g id="edge21" class="edge">
<title>2567364343552&#45;&gt;2567364344464</title>
<path fill="none" stroke="black" d="M777.21,-334.64C787.98,-331.95 801.21,-328.65 814.94,-325.22"/>
<polygon fill="black" stroke="black" points="815.7,-328.63 824.56,-322.81 814.01,-321.84 815.7,-328.63"/>
</g>
<!-- 2567364344128&#45;&gt;2567364344752 -->
<g id="edge22" class="edge">
<title>2567364344128&#45;&gt;2567364344752</title>
<path fill="none" stroke="black" d="M1375.19,-353.67C1383.61,-351.92 1393.46,-349.87 1403.73,-347.74"/>
<polygon fill="black" stroke="black" points="1404.44,-351.17 1413.52,-345.71 1403.02,-344.31 1404.44,-351.17"/>
</g>
<!-- 2567369538768&#45;&gt;2567364344944 -->
<g id="edge23" class="edge">
<title>2567369538768&#45;&gt;2567364344944</title>
<path fill="none" stroke="black" d="M251.08,-210C261.54,-210 273.78,-210 285.16,-210"/>
<polygon fill="black" stroke="black" points="285.08,-213.5 295.08,-210 285.08,-206.5 285.08,-213.5"/>
</g>
<!-- 2567364343936&#45;&gt;2567364344320 -->
<g id="edge24" class="edge">
<title>2567364343936&#45;&gt;2567364344320</title>
<path fill="none" stroke="black" d="M723.41,-470.82C675.82,-475.26 572.54,-481.95 487.25,-467 447.14,-459.97 403.82,-444.02 372.04,-430.62"/>
<polygon fill="black" stroke="black" points="373.68,-427.52 363.11,-426.79 370.92,-433.95 373.68,-427.52"/>
</g>
<!-- 2567364344032&#45;&gt;2567364344368 -->
<g id="edge25" class="edge">
<title>2567364344032&#45;&gt;2567364344368</title>
<path fill="none" stroke="black" d="M437.65,-355.65C448.41,-373.93 465.64,-398.48 487.25,-413 495.33,-418.43 504.46,-422.77 513.84,-426.24"/>
<polygon fill="black" stroke="black" points="512.46,-429.46 523.05,-429.31 514.68,-422.82 512.46,-429.46"/>
</g>
<!-- 2567364344032&#45;&gt;2567364345040 -->
<g id="edge28" class="edge">
<title>2567364344032&#45;&gt;2567364345040</title>
<path fill="none" stroke="black" d="M443.93,-313.3C455.44,-302.93 471.06,-290.8 487.25,-284 595.82,-238.41 631.99,-248 749.75,-248 749.75,-248 749.75,-248 901.88,-248 994.16,-248 1102.7,-247.5 1158.83,-247.21"/>
<polygon fill="black" stroke="black" points="1158.82,-250.71 1168.8,-247.16 1158.79,-243.71 1158.82,-250.71"/>
</g>
<!-- 2567364344032&#45;&gt;2567364345136 -->
<g id="edge26" class="edge">
<title>2567364344032&#45;&gt;2567364345136</title>
<path fill="none" stroke="black" d="M451.16,-326.89C477.09,-325 517.33,-324.75 547.2,-326.11"/>
<polygon fill="black" stroke="black" points="546.8,-329.59 556.98,-326.65 547.19,-322.6 546.8,-329.59"/>
</g>
<!-- 2567364344032&#45;&gt;2567364345232 -->
<g id="edge27" class="edge">
<title>2567364344032&#45;&gt;2567364345232</title>
<path fill="none" stroke="black" d="M449.07,-343.34C460.47,-348.51 474.4,-354.48 487.25,-359 492.3,-360.78 497.53,-362.51 502.83,-364.18"/>
<polygon fill="black" stroke="black" points="501.72,-367.5 512.31,-367.08 503.77,-360.81 501.72,-367.5"/>
</g>
<!-- 2567364343648&#45;&gt;2567364344560 -->
<g id="edge29" class="edge">
<title>2567364343648&#45;&gt;2567364344560</title>
<path fill="none" stroke="black" d="M1076.88,-312.6C1092.3,-317.92 1112.86,-325.02 1132.59,-331.84"/>
<polygon fill="black" stroke="black" points="1131.4,-335.13 1142,-335.09 1133.69,-328.51 1131.4,-335.13"/>
</g>
<!-- 2567364343648&#45;&gt;2567364345040 -->
<g id="edge31" class="edge">
<title>2567364343648&#45;&gt;2567364345040</title>
<path fill="none" stroke="black" d="M1076.55,-294.33C1099.42,-285.33 1133.82,-271.78 1159.96,-261.49"/>
<polygon fill="black" stroke="black" points="1161.17,-264.77 1169.2,-257.85 1158.61,-258.26 1161.17,-264.77"/>
</g>
<!-- 2567364343648&#45;&gt;2567364345232 -->
<g id="edge30" class="edge">
<title>2567364343648&#45;&gt;2567364345232</title>
<path fill="none" stroke="black" d="M1026.28,-315.63C1014.9,-320.87 1000.96,-326.81 988,-331 896.99,-360.46 872.58,-364.46 777.75,-377 752.47,-380.34 725.14,-382.49 699.33,-383.85"/>
<polygon fill="black" stroke="black" points="699.31,-380.35 689.49,-384.33 699.65,-387.34 699.31,-380.35"/>
</g>
</g>
</svg>
