<?xml version="1.0" encoding="UTF-8" standalone="no"?>
<!DOCTYPE svg PUBLIC "-//W3C//DTD SVG 1.1//EN"
 "http://www.w3.org/Graphics/SVG/1.1/DTD/svg11.dtd">
<!-- Generated by graphviz version 12.2.0 (20241103.1931)
 -->
<!-- Title: imdf_net_1744297866.9291794 Pages: 1 -->
<svg width="1770pt" height="422pt"
 viewBox="0.00 0.00 1769.75 422.00" xmlns="http://www.w3.org/2000/svg" xmlns:xlink="http://www.w3.org/1999/xlink">
<g id="graph0" class="graph" transform="scale(1 1) rotate(0) translate(4 418)">
<title>imdf_net_1744297866.9291794</title>
<polygon fill="white" stroke="none" points="-4,4 -4,-418 1765.75,-418 1765.75,4 -4,4"/>
<!-- 2057615763072 -->
<g id="node1" class="node">
<title>2057615763072</title>
<polygon fill="black" stroke="black" points="54,-359 0,-359 0,-323 54,-323 54,-359"/>
</g>
<!-- 2057615759520 -->
<g id="node25" class="node">
<title>2057615759520</title>
<ellipse fill="white" stroke="black" cx="117" cy="-369" rx="27" ry="27"/>
</g>
<!-- 2057615763072&#45;&gt;2057615759520 -->
<g id="edge29" class="edge">
<title>2057615763072&#45;&gt;2057615759520</title>
<path fill="none" stroke="black" d="M54.4,-349.4C62.43,-351.95 71.39,-354.81 79.94,-357.53"/>
<polygon fill="black" stroke="black" points="78.79,-360.83 89.38,-360.53 80.91,-354.16 78.79,-360.83"/>
</g>
<!-- 2057615762304 -->
<g id="node2" class="node">
<title>2057615762304</title>
<polygon fill="black" stroke="black" points="464.5,-350 410.5,-350 410.5,-314 464.5,-314 464.5,-350"/>
</g>
<!-- 2057615756976 -->
<g id="node24" class="node">
<title>2057615756976</title>
<ellipse fill="white" stroke="black" cx="527.5" cy="-332" rx="27" ry="27"/>
</g>
<!-- 2057615762304&#45;&gt;2057615756976 -->
<g id="edge30" class="edge">
<title>2057615762304&#45;&gt;2057615756976</title>
<path fill="none" stroke="black" d="M464.9,-332C472.39,-332 480.68,-332 488.7,-332"/>
<polygon fill="black" stroke="black" points="488.6,-335.5 498.6,-332 488.6,-328.5 488.6,-335.5"/>
</g>
<!-- 2057701815296 -->
<g id="node3" class="node">
<title>2057701815296</title>
<polygon fill="black" stroke="black" points="1004.5,-205 950.5,-205 950.5,-169 1004.5,-169 1004.5,-205"/>
</g>
<!-- 2057701827120 -->
<g id="node29" class="node">
<title>2057701827120</title>
<ellipse fill="white" stroke="black" cx="1071.5" cy="-211" rx="27" ry="27"/>
</g>
<!-- 2057701815296&#45;&gt;2057701827120 -->
<g id="edge32" class="edge">
<title>2057701815296&#45;&gt;2057701827120</title>
<path fill="none" stroke="black" d="M1004.62,-193.81C1013.7,-196.18 1024.07,-198.89 1033.85,-201.44"/>
<polygon fill="black" stroke="black" points="1032.93,-204.82 1043.49,-203.95 1034.7,-198.04 1032.93,-204.82"/>
</g>
<!-- 2057701830672 -->
<g id="node4" class="node">
<title>2057701830672</title>
<polygon fill="black" stroke="black" points="1427.25,-340 1373.25,-340 1373.25,-304 1427.25,-304 1427.25,-340"/>
</g>
<!-- 2057701830432 -->
<g id="node22" class="node">
<title>2057701830432</title>
<ellipse fill="white" stroke="black" cx="707.5" cy="-209" rx="27" ry="27"/>
</g>
<!-- 2057701830672&#45;&gt;2057701830432 -->
<g id="edge34" class="edge">
<title>2057701830672&#45;&gt;2057701830432</title>
<path fill="none" stroke="black" d="M1372.97,-323.62C1332.69,-325.96 1253.26,-330 1185.75,-330 886.5,-330 886.5,-330 886.5,-330 821.74,-330 763.08,-274.54 731.95,-238.72"/>
<polygon fill="black" stroke="black" points="734.74,-236.61 725.61,-231.23 729.4,-241.13 734.74,-236.61"/>
</g>
<!-- 2057701812368 -->
<g id="node5" class="node">
<title>2057701812368</title>
<polygon fill="black" stroke="black" points="1004.5,-151 950.5,-151 950.5,-115 1004.5,-115 1004.5,-151"/>
</g>
<!-- 2057701828560 -->
<g id="node33" class="node">
<title>2057701828560</title>
<ellipse fill="white" stroke="black" cx="1071.5" cy="-135" rx="27" ry="27"/>
<ellipse fill="none" stroke="black" cx="1071.5" cy="-135" rx="31" ry="31"/>
<text text-anchor="start" x="1061.75" y="-122.97" font-family="Times New Roman,serif" font-size="32.00">■</text>
</g>
<!-- 2057701812368&#45;&gt;2057701828560 -->
<g id="edge33" class="edge">
<title>2057701812368&#45;&gt;2057701828560</title>
<path fill="none" stroke="black" d="M1004.62,-133.57C1012.13,-133.73 1020.51,-133.91 1028.72,-134.09"/>
<polygon fill="black" stroke="black" points="1028.5,-137.59 1038.58,-134.31 1028.65,-130.59 1028.5,-137.59"/>
</g>
<!-- 2057701830048 -->
<g id="node6" class="node">
<title>2057701830048</title>
<polygon fill="white" stroke="black" points="1431.12,-145 1369.38,-145 1369.38,-109 1431.12,-109 1431.12,-145"/>
<text text-anchor="middle" x="1400.25" y="-122.72" font-family="Times New Roman,serif" font-size="12.00">O_SENT</text>
</g>
<!-- 2057701829184 -->
<g id="node20" class="node">
<title>2057701829184</title>
<ellipse fill="white" stroke="black" cx="1506.5" cy="-61" rx="27" ry="27"/>
</g>
<!-- 2057701830048&#45;&gt;2057701829184 -->
<g id="edge1" class="edge">
<title>2057701830048&#45;&gt;2057701829184</title>
<path fill="none" stroke="black" d="M1430.29,-108.62C1443.77,-100.08 1459.82,-89.92 1473.64,-81.17"/>
<polygon fill="black" stroke="black" points="1475.37,-84.22 1481.95,-75.91 1471.63,-78.3 1475.37,-84.22"/>
</g>
<!-- 2057615761440 -->
<g id="node7" class="node">
<title>2057615761440</title>
<polygon fill="white" stroke="black" points="284.5,-378 180,-378 180,-342 284.5,-342 284.5,-378"/>
<text text-anchor="middle" x="232.25" y="-355.73" font-family="Times New Roman,serif" font-size="12.00">O_CANCELLED</text>
</g>
<!-- 2057615761968 -->
<g id="node26" class="node">
<title>2057615761968</title>
<ellipse fill="white" stroke="black" cx="347.5" cy="-332" rx="27" ry="27"/>
</g>
<!-- 2057615761440&#45;&gt;2057615761968 -->
<g id="edge2" class="edge">
<title>2057615761440&#45;&gt;2057615761968</title>
<path fill="none" stroke="black" d="M284.9,-347.23C293.29,-345.16 301.83,-343.05 309.76,-341.08"/>
<polygon fill="black" stroke="black" points="310.54,-344.5 319.41,-338.7 308.86,-337.7 310.54,-344.5"/>
</g>
<!-- 2057701826352 -->
<g id="node8" class="node">
<title>2057701826352</title>
<polygon fill="white" stroke="black" points="1231,-225 1138.5,-225 1138.5,-189 1231,-189 1231,-225"/>
<text text-anchor="middle" x="1184.75" y="-202.72" font-family="Times New Roman,serif" font-size="12.00">O_SELECTED</text>
</g>
<!-- 2057701824432 -->
<g id="node19" class="node">
<title>2057701824432</title>
<ellipse fill="white" stroke="black" cx="1294" cy="-131" rx="27" ry="27"/>
</g>
<!-- 2057701826352&#45;&gt;2057701824432 -->
<g id="edge5" class="edge">
<title>2057701826352&#45;&gt;2057701824432</title>
<path fill="none" stroke="black" d="M1211.71,-188.6C1226.95,-177.81 1246.29,-164.1 1262.28,-152.77"/>
<polygon fill="black" stroke="black" points="1263.88,-155.92 1270.02,-147.29 1259.83,-150.21 1263.88,-155.92"/>
</g>
<!-- 2057701830240 -->
<g id="node21" class="node">
<title>2057701830240</title>
<ellipse fill="white" stroke="black" cx="1294" cy="-275" rx="27" ry="27"/>
</g>
<!-- 2057701826352&#45;&gt;2057701830240 -->
<g id="edge6" class="edge">
<title>2057701826352&#45;&gt;2057701830240</title>
<path fill="none" stroke="black" d="M1214.77,-225.4C1229.09,-234.48 1246.39,-245.45 1261.08,-254.76"/>
<polygon fill="black" stroke="black" points="1259.16,-257.69 1269.48,-260.09 1262.91,-251.78 1259.16,-257.69"/>
</g>
<!-- 2057701825824 -->
<g id="node31" class="node">
<title>2057701825824</title>
<ellipse fill="white" stroke="black" cx="1294" cy="-203" rx="27" ry="27"/>
</g>
<!-- 2057701826352&#45;&gt;2057701825824 -->
<g id="edge7" class="edge">
<title>2057701826352&#45;&gt;2057701825824</title>
<path fill="none" stroke="black" d="M1231.23,-205.3C1239.27,-205 1247.56,-204.69 1255.35,-204.4"/>
<polygon fill="black" stroke="black" points="1255.32,-207.91 1265.19,-204.04 1255.06,-200.91 1255.32,-207.91"/>
</g>
<!-- 2057701825968 -->
<g id="node9" class="node">
<title>2057701825968</title>
<polygon fill="black" stroke="black" points="824.5,-123 770.5,-123 770.5,-87 824.5,-87 824.5,-123"/>
</g>
<!-- 2057701826640 -->
<g id="node30" class="node">
<title>2057701826640</title>
<ellipse fill="white" stroke="black" cx="887.5" cy="-133" rx="27" ry="27"/>
</g>
<!-- 2057701825968&#45;&gt;2057701826640 -->
<g id="edge37" class="edge">
<title>2057701825968&#45;&gt;2057701826640</title>
<path fill="none" stroke="black" d="M824.9,-113.4C832.93,-115.95 841.89,-118.81 850.44,-121.53"/>
<polygon fill="black" stroke="black" points="849.29,-124.83 859.88,-124.53 851.41,-118.16 849.29,-124.83"/>
</g>
<!-- 2057701830960 -->
<g id="node10" class="node">
<title>2057701830960</title>
<polygon fill="black" stroke="black" points="1427.25,-286 1373.25,-286 1373.25,-250 1427.25,-250 1427.25,-286"/>
</g>
<!-- 2057701831392 -->
<g id="node23" class="node">
<title>2057701831392</title>
<ellipse fill="white" stroke="black" cx="1506.5" cy="-313" rx="27" ry="27"/>
</g>
<!-- 2057701830960&#45;&gt;2057701831392 -->
<g id="edge38" class="edge">
<title>2057701830960&#45;&gt;2057701831392</title>
<path fill="none" stroke="black" d="M1427.56,-279.36C1440.73,-285.04 1456.84,-292 1470.99,-298.1"/>
<polygon fill="black" stroke="black" points="1469.39,-301.22 1479.96,-301.97 1472.16,-294.8 1469.39,-301.22"/>
</g>
<!-- 2057615759472 -->
<g id="node27" class="node">
<title>2057615759472</title>
<ellipse fill="white" stroke="black" cx="1506.5" cy="-236" rx="27" ry="27"/>
</g>
<!-- 2057701830960&#45;&gt;2057615759472 -->
<g id="edge39" class="edge">
<title>2057701830960&#45;&gt;2057615759472</title>
<path fill="none" stroke="black" d="M1427.56,-259.93C1440.31,-256.01 1455.83,-251.25 1469.65,-247.01"/>
<polygon fill="black" stroke="black" points="1470.3,-250.47 1478.83,-244.19 1468.25,-243.77 1470.3,-250.47"/>
</g>
<!-- 2057615760048 -->
<g id="node11" class="node">
<title>2057615760048</title>
<polygon fill="black" stroke="black" points="1647.62,-350 1593.62,-350 1593.62,-314 1647.62,-314 1647.62,-350"/>
</g>
<!-- 2057615760048&#45;&gt;2057615756976 -->
<g id="edge28" class="edge">
<title>2057615760048&#45;&gt;2057615756976</title>
<path fill="none" stroke="black" d="M1593.3,-339.2C1552.5,-349.7 1471.37,-368 1401.25,-368 706.5,-368 706.5,-368 706.5,-368 656.43,-368 599.98,-354.15 564.33,-343.63"/>
<polygon fill="black" stroke="black" points="565.56,-340.34 554.98,-340.79 563.53,-347.04 565.56,-340.34"/>
</g>
<!-- 2057701825344 -->
<g id="node12" class="node">
<title>2057701825344</title>
<polygon fill="white" stroke="black" points="1443.5,-210 1357,-210 1357,-174 1443.5,-174 1443.5,-210"/>
<text text-anchor="middle" x="1400.25" y="-187.72" font-family="Times New Roman,serif" font-size="12.00">O_CREATED</text>
</g>
<!-- 2057701825632 -->
<g id="node32" class="node">
<title>2057701825632</title>
<ellipse fill="white" stroke="black" cx="1506.5" cy="-154" rx="27" ry="27"/>
</g>
<!-- 2057701825344&#45;&gt;2057701825632 -->
<g id="edge4" class="edge">
<title>2057701825344&#45;&gt;2057701825632</title>
<path fill="none" stroke="black" d="M1443.95,-176.43C1452.63,-173.27 1461.67,-169.98 1470.07,-166.92"/>
<polygon fill="black" stroke="black" points="1471.03,-170.29 1479.22,-163.58 1468.63,-163.71 1471.03,-170.29"/>
</g>
<!-- 2057615762496 -->
<g id="node13" class="node">
<title>2057615762496</title>
<polygon fill="black" stroke="black" points="1647.62,-254 1593.62,-254 1593.62,-218 1647.62,-218 1647.62,-254"/>
</g>
<!-- 2057615756592 -->
<g id="node28" class="node">
<title>2057615756592</title>
<ellipse fill="white" stroke="black" cx="1734.75" cy="-182" rx="27" ry="27"/>
</g>
<!-- 2057615762496&#45;&gt;2057615756592 -->
<g id="edge31" class="edge">
<title>2057615762496&#45;&gt;2057615756592</title>
<path fill="none" stroke="black" d="M1647.91,-223.34C1663.46,-215.85 1683.31,-206.29 1700,-198.25"/>
<polygon fill="black" stroke="black" points="1701.06,-201.63 1708.56,-194.13 1698.03,-195.32 1701.06,-201.63"/>
</g>
<!-- 2057701814480 -->
<g id="node14" class="node">
<title>2057701814480</title>
<polygon fill="white" stroke="black" points="1671.75,-200 1569.5,-200 1569.5,-164 1671.75,-164 1671.75,-200"/>
<text text-anchor="middle" x="1620.62" y="-177.72" font-family="Times New Roman,serif" font-size="12.00">O_SENT_BACK</text>
</g>
<!-- 2057701814480&#45;&gt;2057615756592 -->
<g id="edge3" class="edge">
<title>2057701814480&#45;&gt;2057615756592</title>
<path fill="none" stroke="black" d="M1672.11,-182C1680.22,-182 1688.48,-182 1696.21,-182"/>
<polygon fill="black" stroke="black" points="1695.94,-185.5 1705.94,-182 1695.94,-178.5 1695.94,-185.5"/>
</g>
<!-- 2057701828320 -->
<g id="node15" class="node">
<title>2057701828320</title>
<polygon fill="black" stroke="black" points="1004.5,-259 950.5,-259 950.5,-223 1004.5,-223 1004.5,-259"/>
</g>
<!-- 2057701828320&#45;&gt;2057701827120 -->
<g id="edge40" class="edge">
<title>2057701828320&#45;&gt;2057701827120</title>
<path fill="none" stroke="black" d="M1004.62,-232.48C1013.88,-229.46 1024.48,-226.01 1034.42,-222.76"/>
<polygon fill="black" stroke="black" points="1035.41,-226.12 1043.83,-219.7 1033.24,-219.47 1035.41,-226.12"/>
</g>
<!-- 2057615762160 -->
<g id="node16" class="node">
<title>2057615762160</title>
<polygon fill="black" stroke="black" points="1647.62,-414 1593.62,-414 1593.62,-378 1647.62,-378 1647.62,-414"/>
</g>
<!-- 2057615762160&#45;&gt;2057615759520 -->
<g id="edge8" class="edge">
<title>2057615762160&#45;&gt;2057615759520</title>
<path fill="none" stroke="black" d="M1593.42,-397.98C1552.45,-400.89 1470.7,-406 1401.25,-406 346.5,-406 346.5,-406 346.5,-406 272.02,-406 253.02,-401.66 180,-387 171.54,-385.3 162.56,-383 154.14,-380.6"/>
<polygon fill="black" stroke="black" points="155.13,-377.25 144.55,-377.76 153.14,-383.96 155.13,-377.25"/>
</g>
<!-- 2057701831152 -->
<g id="node17" class="node">
<title>2057701831152</title>
<polygon fill="black" stroke="black" points="644.5,-227 590.5,-227 590.5,-191 644.5,-191 644.5,-227"/>
</g>
<!-- 2057701831152&#45;&gt;2057701830432 -->
<g id="edge36" class="edge">
<title>2057701831152&#45;&gt;2057701830432</title>
<path fill="none" stroke="black" d="M644.9,-209C652.39,-209 660.68,-209 668.7,-209"/>
<polygon fill="black" stroke="black" points="668.6,-212.5 678.6,-209 668.6,-205.5 668.6,-212.5"/>
</g>
<!-- 2057701828656 -->
<g id="node18" class="node">
<title>2057701828656</title>
<ellipse fill="white" stroke="black" cx="887.5" cy="-241" rx="27" ry="27"/>
<text text-anchor="start" x="877.38" y="-227.82" font-family="Times New Roman,serif" font-size="34.00">●</text>
</g>
<!-- 2057701828656&#45;&gt;2057701828320 -->
<g id="edge35" class="edge">
<title>2057701828656&#45;&gt;2057701828320</title>
<path fill="none" stroke="black" d="M914.9,-241C922.39,-241 930.68,-241 938.7,-241"/>
<polygon fill="black" stroke="black" points="938.6,-244.5 948.6,-241 938.6,-237.5 938.6,-244.5"/>
</g>
<!-- 2057701824432&#45;&gt;2057701830048 -->
<g id="edge9" class="edge">
<title>2057701824432&#45;&gt;2057701830048</title>
<path fill="none" stroke="black" d="M1321.31,-129.99C1332.28,-129.57 1345.29,-129.07 1357.51,-128.6"/>
<polygon fill="black" stroke="black" points="1357.52,-132.1 1367.37,-128.22 1357.25,-125.11 1357.52,-132.1"/>
</g>
<!-- 2057701829184&#45;&gt;2057701825968 -->
<g id="edge10" class="edge">
<title>2057701829184&#45;&gt;2057701825968</title>
<path fill="none" stroke="black" d="M1479.67,-56.35C1440.07,-49.62 1361.91,-38 1295,-38 976.5,-38 976.5,-38 976.5,-38 923.85,-38 908.88,-41.25 860.5,-62 849.76,-66.61 838.97,-73.23 829.47,-79.9"/>
<polygon fill="black" stroke="black" points="827.67,-76.88 821.68,-85.62 831.81,-82.53 827.67,-76.88"/>
</g>
<!-- 2057701830240&#45;&gt;2057701830672 -->
<g id="edge11" class="edge">
<title>2057701830240&#45;&gt;2057701830672</title>
<path fill="none" stroke="black" d="M1319.18,-285.9C1332.15,-291.75 1348.4,-299.08 1362.87,-305.6"/>
<polygon fill="black" stroke="black" points="1361.08,-308.63 1371.63,-309.55 1363.95,-302.25 1361.08,-308.63"/>
</g>
<!-- 2057701830240&#45;&gt;2057701830960 -->
<g id="edge12" class="edge">
<title>2057701830240&#45;&gt;2057701830960</title>
<path fill="none" stroke="black" d="M1321.31,-273.23C1333.53,-272.41 1348.29,-271.42 1361.66,-270.52"/>
<polygon fill="black" stroke="black" points="1361.7,-274.03 1371.44,-269.87 1361.23,-267.05 1361.7,-274.03"/>
</g>
<!-- 2057701830432&#45;&gt;2057701825968 -->
<g id="edge13" class="edge">
<title>2057701830432&#45;&gt;2057701825968</title>
<path fill="none" stroke="black" d="M725.47,-188.95C739.16,-172.76 758.56,-149.84 773.63,-132.03"/>
<polygon fill="black" stroke="black" points="776.29,-134.3 780.08,-124.4 770.95,-129.78 776.29,-134.3"/>
</g>
<!-- 2057701831392&#45;&gt;2057615760048 -->
<g id="edge15" class="edge">
<title>2057701831392&#45;&gt;2057615760048</title>
<path fill="none" stroke="black" d="M1533.51,-317.41C1547.98,-319.86 1566.24,-322.95 1582.23,-325.66"/>
<polygon fill="black" stroke="black" points="1581.44,-329.08 1591.88,-327.3 1582.61,-322.18 1581.44,-329.08"/>
</g>
<!-- 2057701831392&#45;&gt;2057615762160 -->
<g id="edge14" class="edge">
<title>2057701831392&#45;&gt;2057615762160</title>
<path fill="none" stroke="black" d="M1528.72,-328.77C1540.69,-337.65 1555.93,-348.95 1569.5,-359 1574.74,-362.87 1580.28,-366.97 1585.7,-370.98"/>
<polygon fill="black" stroke="black" points="1583.29,-373.55 1593.41,-376.67 1587.45,-367.91 1583.29,-373.55"/>
</g>
<!-- 2057615756976&#45;&gt;2057701831152 -->
<g id="edge16" class="edge">
<title>2057615756976&#45;&gt;2057701831152</title>
<path fill="none" stroke="black" d="M544.03,-310.29C558.73,-289.75 580.86,-258.82 596.79,-236.54"/>
<polygon fill="black" stroke="black" points="599.57,-238.68 602.54,-228.52 593.87,-234.61 599.57,-238.68"/>
</g>
<!-- 2057615759520&#45;&gt;2057615761440 -->
<g id="edge17" class="edge">
<title>2057615759520&#45;&gt;2057615761440</title>
<path fill="none" stroke="black" d="M144.27,-366.91C151.63,-366.33 159.96,-365.67 168.48,-364.99"/>
<polygon fill="black" stroke="black" points="168.52,-368.5 178.21,-364.22 167.97,-361.52 168.52,-368.5"/>
</g>
<!-- 2057615761968&#45;&gt;2057615763072 -->
<g id="edge18" class="edge">
<title>2057615761968&#45;&gt;2057615763072</title>
<path fill="none" stroke="black" d="M320.25,-331.03C273.77,-329.54 173.98,-327.44 90,-333 82.14,-333.52 73.76,-334.39 65.78,-335.37"/>
<polygon fill="black" stroke="black" points="65.44,-331.88 55.98,-336.65 66.35,-338.82 65.44,-331.88"/>
</g>
<!-- 2057615761968&#45;&gt;2057615762304 -->
<g id="edge19" class="edge">
<title>2057615761968&#45;&gt;2057615762304</title>
<path fill="none" stroke="black" d="M374.9,-332C382.39,-332 390.68,-332 398.7,-332"/>
<polygon fill="black" stroke="black" points="398.6,-335.5 408.6,-332 398.6,-328.5 398.6,-335.5"/>
</g>
<!-- 2057615759472&#45;&gt;2057615762496 -->
<g id="edge21" class="edge">
<title>2057615759472&#45;&gt;2057615762496</title>
<path fill="none" stroke="black" d="M1533.79,-236C1548.27,-236 1566.48,-236 1582.4,-236"/>
<polygon fill="black" stroke="black" points="1581.99,-239.5 1591.99,-236 1581.99,-232.5 1581.99,-239.5"/>
</g>
<!-- 2057615759472&#45;&gt;2057701814480 -->
<g id="edge20" class="edge">
<title>2057615759472&#45;&gt;2057701814480</title>
<path fill="none" stroke="black" d="M1531.28,-224.55C1542.86,-218.97 1557.22,-212.05 1570.98,-205.43"/>
<polygon fill="black" stroke="black" points="1572.47,-208.6 1579.96,-201.1 1569.43,-202.29 1572.47,-208.6"/>
</g>
<!-- 2057615756592&#45;&gt;2057701831152 -->
<g id="edge22" class="edge">
<title>2057615756592&#45;&gt;2057701831152</title>
<path fill="none" stroke="black" d="M1720.02,-158.95C1688.89,-109.98 1607.82,0 1507.5,0 796.5,0 796.5,0 796.5,0 703.09,0 648.37,-122.51 627.86,-179.94"/>
<polygon fill="black" stroke="black" points="624.55,-178.79 624.6,-189.39 631.17,-181.08 624.55,-178.79"/>
</g>
<!-- 2057701827120&#45;&gt;2057701826352 -->
<g id="edge23" class="edge">
<title>2057701827120&#45;&gt;2057701826352</title>
<path fill="none" stroke="black" d="M1098.86,-210.05C1107.36,-209.75 1117.13,-209.4 1126.95,-209.04"/>
<polygon fill="black" stroke="black" points="1127.05,-212.54 1136.92,-208.68 1126.8,-205.55 1127.05,-212.54"/>
</g>
<!-- 2057701826640&#45;&gt;2057701815296 -->
<g id="edge24" class="edge">
<title>2057701826640&#45;&gt;2057701815296</title>
<path fill="none" stroke="black" d="M911.16,-146.91C920.1,-152.39 930.59,-158.83 940.51,-164.92"/>
<polygon fill="black" stroke="black" points="938.53,-167.8 948.88,-170.05 942.19,-161.84 938.53,-167.8"/>
</g>
<!-- 2057701826640&#45;&gt;2057701812368 -->
<g id="edge25" class="edge">
<title>2057701826640&#45;&gt;2057701812368</title>
<path fill="none" stroke="black" d="M914.9,-133C922.39,-133 930.68,-133 938.7,-133"/>
<polygon fill="black" stroke="black" points="938.6,-136.5 948.6,-133 938.6,-129.5 938.6,-136.5"/>
</g>
<!-- 2057701825824&#45;&gt;2057701825344 -->
<g id="edge26" class="edge">
<title>2057701825824&#45;&gt;2057701825344</title>
<path fill="none" stroke="black" d="M1321.31,-200.22C1328.69,-199.45 1336.99,-198.57 1345.36,-197.69"/>
<polygon fill="black" stroke="black" points="1345.64,-201.18 1355.22,-196.65 1344.91,-194.21 1345.64,-201.18"/>
</g>
<!-- 2057701825632&#45;&gt;2057701825968 -->
<g id="edge27" class="edge">
<title>2057701825632&#45;&gt;2057701825968</title>
<path fill="none" stroke="black" d="M1487.96,-133.89C1476.51,-122.1 1460.56,-108 1443.5,-100 1382.97,-71.62 1361.86,-76 1295,-76 976.5,-76 976.5,-76 976.5,-76 927.34,-76 871.53,-86.91 835.71,-95.34"/>
<polygon fill="black" stroke="black" points="835.19,-91.87 826.29,-97.62 836.83,-98.67 835.19,-91.87"/>
</g>
</g>
</svg>
