<?xml version="1.0" encoding="UTF-8" standalone="no"?>
<!DOCTYPE svg PUBLIC "-//W3C//DTD SVG 1.1//EN"
 "http://www.w3.org/Graphics/SVG/1.1/DTD/svg11.dtd">
<!-- Generated by graphviz version 12.2.0 (20241103.1931)
 -->
<!-- Title: imported_1744372133.743394 Pages: 1 -->
<svg width="839pt" height="210pt"
 viewBox="0.00 0.00 839.00 210.00" xmlns="http://www.w3.org/2000/svg" xmlns:xlink="http://www.w3.org/1999/xlink">
<g id="graph0" class="graph" transform="scale(1 1) rotate(0) translate(4 206)">
<title>imported_1744372133.743394</title>
<polygon fill="white" stroke="none" points="-4,4 -4,-206 835,-206 835,4 -4,4"/>
<!-- 2164964364384 -->
<g id="node1" class="node">
<title>2164964364384</title>
<polygon fill="white" stroke="black" points="192.25,-193 90,-193 90,-157 192.25,-157 192.25,-193"/>
<text text-anchor="middle" x="141.12" y="-170.72" font-family="Times New Roman,serif" font-size="12.00">O_SENT_BACK</text>
</g>
<!-- 2164964364480 -->
<g id="node9" class="node">
<title>2164964364480</title>
<ellipse fill="white" stroke="black" cx="255.25" cy="-175" rx="27" ry="27"/>
</g>
<!-- 2164964364384&#45;&gt;2164964364480 -->
<g id="edge5" class="edge">
<title>2164964364384&#45;&gt;2164964364480</title>
<path fill="none" stroke="black" d="M192.61,-168.28C200.87,-168.19 209.3,-168.3 217.15,-168.61"/>
<polygon fill="black" stroke="black" points="216.87,-172.1 227.04,-169.14 217.25,-165.11 216.87,-172.1"/>
</g>
<!-- 2164964364288 -->
<g id="node2" class="node">
<title>2164964364288</title>
<polygon fill="white" stroke="black" points="416.75,-50 324.25,-50 324.25,-14 416.75,-14 416.75,-50"/>
<text text-anchor="middle" x="370.5" y="-27.73" font-family="Times New Roman,serif" font-size="12.00">O_SELECTED</text>
</g>
<!-- 2164964364768 -->
<g id="node12" class="node">
<title>2164964364768</title>
<ellipse fill="white" stroke="black" cx="489.75" cy="-27" rx="27" ry="27"/>
</g>
<!-- 2164964364288&#45;&gt;2164964364768 -->
<g id="edge3" class="edge">
<title>2164964364288&#45;&gt;2164964364768</title>
<path fill="none" stroke="black" d="M417.17,-30.05C428.41,-29.57 440.31,-29.07 451.12,-28.6"/>
<polygon fill="black" stroke="black" points="450.98,-32.11 460.83,-28.19 450.69,-25.12 450.98,-32.11"/>
</g>
<!-- 2164964364096 -->
<g id="node3" class="node">
<title>2164964364096</title>
<polygon fill="black" stroke="black" points="168.12,-127 114.12,-127 114.12,-91 168.12,-91 168.12,-127"/>
</g>
<!-- 2164964364096&#45;&gt;2164964364480 -->
<g id="edge14" class="edge">
<title>2164964364096&#45;&gt;2164964364480</title>
<path fill="none" stroke="black" d="M168.41,-124.47C184.43,-133.9 205.01,-146.02 222.01,-156.02"/>
<polygon fill="black" stroke="black" points="219.84,-158.81 230.23,-160.86 223.39,-152.77 219.84,-158.81"/>
</g>
<!-- 2164964364960 -->
<g id="node11" class="node">
<title>2164964364960</title>
<ellipse fill="white" stroke="black" cx="255.25" cy="-96" rx="27" ry="27"/>
</g>
<!-- 2164964364096&#45;&gt;2164964364960 -->
<g id="edge15" class="edge">
<title>2164964364096&#45;&gt;2164964364960</title>
<path fill="none" stroke="black" d="M168.41,-105.95C182.89,-104.27 201.11,-102.16 217.03,-100.32"/>
<polygon fill="black" stroke="black" points="217.09,-103.83 226.62,-99.2 216.29,-96.88 217.09,-103.83"/>
</g>
<!-- 2164964364000 -->
<g id="node4" class="node">
<title>2164964364000</title>
<polygon fill="white" stroke="black" points="422.75,-200 318.25,-200 318.25,-164 422.75,-164 422.75,-200"/>
<text text-anchor="middle" x="370.5" y="-177.72" font-family="Times New Roman,serif" font-size="12.00">O_CANCELLED</text>
</g>
<!-- 2164964364000&#45;&gt;2164964364480 -->
<g id="edge1" class="edge">
<title>2164964364000&#45;&gt;2164964364480</title>
<path fill="none" stroke="black" d="M317.75,-185.53C309.43,-185.09 300.96,-184.45 293.08,-183.65"/>
<polygon fill="black" stroke="black" points="293.51,-180.17 283.17,-182.49 292.69,-187.12 293.51,-180.17"/>
</g>
<!-- 2164964364192 -->
<g id="node5" class="node">
<title>2164964364192</title>
<polygon fill="white" stroke="black" points="831,-72 769.25,-72 769.25,-36 831,-36 831,-72"/>
<text text-anchor="middle" x="800.12" y="-49.73" font-family="Times New Roman,serif" font-size="12.00">O_SENT</text>
</g>
<!-- 2164964364192&#45;&gt;2164964364960 -->
<g id="edge4" class="edge">
<title>2164964364192&#45;&gt;2164964364960</title>
<path fill="none" stroke="black" d="M768.77,-60.99C730.05,-69.29 660.92,-82 601,-82 488.75,-82 488.75,-82 488.75,-82 419.89,-82 339.77,-88.19 293.83,-92.34"/>
<polygon fill="black" stroke="black" points="293.51,-88.86 283.88,-93.26 294.16,-95.83 293.51,-88.86"/>
</g>
<!-- 2164964363904 -->
<g id="node6" class="node">
<title>2164964363904</title>
<polygon fill="white" stroke="black" points="643.25,-45 556.75,-45 556.75,-9 643.25,-9 643.25,-45"/>
<text text-anchor="middle" x="600" y="-22.73" font-family="Times New Roman,serif" font-size="12.00">O_CREATED</text>
</g>
<!-- 2164964364864 -->
<g id="node10" class="node">
<title>2164964364864</title>
<ellipse fill="white" stroke="black" cx="706.25" cy="-27" rx="27" ry="27"/>
</g>
<!-- 2164964363904&#45;&gt;2164964364864 -->
<g id="edge2" class="edge">
<title>2164964363904&#45;&gt;2164964364864</title>
<path fill="none" stroke="black" d="M643.7,-27C651.62,-27 659.84,-27 667.59,-27"/>
<polygon fill="black" stroke="black" points="667.39,-30.5 677.39,-27 667.39,-23.5 667.39,-30.5"/>
</g>
<!-- 2164964363808 -->
<g id="node7" class="node">
<title>2164964363808</title>
<polygon fill="black" stroke="black" points="397.5,-146 343.5,-146 343.5,-110 397.5,-110 397.5,-146"/>
</g>
<!-- 2164964364576 -->
<g id="node13" class="node">
<title>2164964364576</title>
<ellipse fill="white" stroke="black" cx="489.75" cy="-141" rx="27" ry="27"/>
<ellipse fill="none" stroke="black" cx="489.75" cy="-141" rx="31" ry="31"/>
<text text-anchor="start" x="480" y="-128.97" font-family="Times New Roman,serif" font-size="32.00">■</text>
</g>
<!-- 2164964363808&#45;&gt;2164964364576 -->
<g id="edge16" class="edge">
<title>2164964363808&#45;&gt;2164964364576</title>
<path fill="none" stroke="black" d="M397.81,-130.92C412.52,-132.55 431.16,-134.61 447.73,-136.45"/>
<polygon fill="black" stroke="black" points="446.98,-139.89 457.3,-137.51 447.75,-132.93 446.98,-139.89"/>
</g>
<!-- 2164964364672 -->
<g id="node8" class="node">
<title>2164964364672</title>
<ellipse fill="white" stroke="black" cx="27" cy="-109" rx="27" ry="27"/>
<text text-anchor="start" x="16.88" y="-95.83" font-family="Times New Roman,serif" font-size="34.00">●</text>
</g>
<!-- 2164964364672&#45;&gt;2164964364096 -->
<g id="edge9" class="edge">
<title>2164964364672&#45;&gt;2164964364096</title>
<path fill="none" stroke="black" d="M54.29,-109C68.77,-109 86.98,-109 102.9,-109"/>
<polygon fill="black" stroke="black" points="102.49,-112.5 112.49,-109 102.49,-105.5 102.49,-112.5"/>
</g>
<!-- 2164964364480&#45;&gt;2164964364384 -->
<g id="edge7" class="edge">
<title>2164964364480&#45;&gt;2164964364384</title>
<path fill="none" stroke="black" d="M228.56,-180.78C221.12,-181.31 212.66,-181.62 204.01,-181.72"/>
<polygon fill="black" stroke="black" points="204.12,-178.22 194.12,-181.72 204.13,-185.22 204.12,-178.22"/>
</g>
<!-- 2164964364480&#45;&gt;2164964364000 -->
<g id="edge6" class="edge">
<title>2164964364480&#45;&gt;2164964364000</title>
<path fill="none" stroke="black" d="M282.23,-170.83C289.68,-170.76 298.14,-170.97 306.79,-171.41"/>
<polygon fill="black" stroke="black" points="306.49,-174.9 316.69,-172.01 306.92,-167.91 306.49,-174.9"/>
</g>
<!-- 2164964364480&#45;&gt;2164964363808 -->
<g id="edge8" class="edge">
<title>2164964364480&#45;&gt;2164964363808</title>
<path fill="none" stroke="black" d="M280.54,-164.92C295.83,-158.57 315.84,-150.27 333.01,-143.14"/>
<polygon fill="black" stroke="black" points="333.98,-146.53 341.87,-139.47 331.3,-140.07 333.98,-146.53"/>
</g>
<!-- 2164964364864&#45;&gt;2164964364192 -->
<g id="edge10" class="edge">
<title>2164964364864&#45;&gt;2164964364192</title>
<path fill="none" stroke="black" d="M732.36,-34.38C740.27,-36.71 749.24,-39.34 757.98,-41.91"/>
<polygon fill="black" stroke="black" points="756.79,-45.21 767.37,-44.67 758.76,-38.49 756.79,-45.21"/>
</g>
<!-- 2164964364960&#45;&gt;2164964364288 -->
<g id="edge11" class="edge">
<title>2164964364960&#45;&gt;2164964364288</title>
<path fill="none" stroke="black" d="M279.17,-83.05C292.98,-75.24 310.99,-65.06 327.3,-55.85"/>
<polygon fill="black" stroke="black" points="328.87,-58.98 335.86,-51.01 325.43,-52.89 328.87,-58.98"/>
</g>
<!-- 2164964364960&#45;&gt;2164964363808 -->
<g id="edge12" class="edge">
<title>2164964364960&#45;&gt;2164964363808</title>
<path fill="none" stroke="black" d="M281.67,-103.18C296.61,-107.4 315.77,-112.82 332.38,-117.51"/>
<polygon fill="black" stroke="black" points="331.35,-120.86 341.93,-120.21 333.26,-114.12 331.35,-120.86"/>
</g>
<!-- 2164964364768&#45;&gt;2164964363904 -->
<g id="edge13" class="edge">
<title>2164964364768&#45;&gt;2164964363904</title>
<path fill="none" stroke="black" d="M517.23,-27C525.69,-27 535.38,-27 545.06,-27"/>
<polygon fill="black" stroke="black" points="544.83,-30.5 554.83,-27 544.83,-23.5 544.83,-30.5"/>
</g>
</g>
</svg>
