<?xml version="1.0" encoding="UTF-8" standalone="no"?>
<!DOCTYPE svg PUBLIC "-//W3C//DTD SVG 1.1//EN"
 "http://www.w3.org/Graphics/SVG/1.1/DTD/svg11.dtd">
<!-- Generated by graphviz version 12.2.0 (20241103.1931)
 -->
<!-- Title: imdf_net_1739899972.904426 Pages: 1 -->
<svg width="1780pt" height="397pt"
 viewBox="0.00 0.00 1779.75 397.00" xmlns="http://www.w3.org/2000/svg" xmlns:xlink="http://www.w3.org/1999/xlink">
<g id="graph0" class="graph" transform="scale(1 1) rotate(0) translate(4 393)">
<title>imdf_net_1739899972.904426</title>
<polygon fill="white" stroke="none" points="-4,4 -4,-393 1775.75,-393 1775.75,4 -4,4"/>
<!-- 2467803798144 -->
<g id="node1" class="node">
<title>2467803798144</title>
<polygon fill="white" stroke="black" points="61.75,-239 0,-239 0,-203 61.75,-203 61.75,-239"/>
<text text-anchor="middle" x="30.88" y="-216.72" font-family="Times New Roman,serif" font-size="12.00">O_SENT</text>
</g>
<!-- 2467803799536 -->
<g id="node36" class="node">
<title>2467803799536</title>
<ellipse fill="white" stroke="black" cx="124.75" cy="-194" rx="27" ry="27"/>
</g>
<!-- 2467803798144&#45;&gt;2467803799536 -->
<g id="edge4" class="edge">
<title>2467803798144&#45;&gt;2467803799536</title>
<path fill="none" stroke="black" d="M62.21,-212.08C70.26,-209.72 79.04,-207.14 87.37,-204.69"/>
<polygon fill="black" stroke="black" points="88.3,-208.07 96.9,-201.89 86.32,-201.35 88.3,-208.07"/>
</g>
<!-- 2466726755968 -->
<g id="node2" class="node">
<title>2466726755968</title>
<polygon fill="black" stroke="black" points="1501.75,-247 1447.75,-247 1447.75,-211 1501.75,-211 1501.75,-247"/>
</g>
<!-- 2467803802752 -->
<g id="node29" class="node">
<title>2467803802752</title>
<ellipse fill="white" stroke="black" cx="1564.75" cy="-229" rx="27" ry="27"/>
</g>
<!-- 2466726755968&#45;&gt;2467803802752 -->
<g id="edge35" class="edge">
<title>2466726755968&#45;&gt;2467803802752</title>
<path fill="none" stroke="black" d="M1502.15,-229C1509.64,-229 1517.93,-229 1525.95,-229"/>
<polygon fill="black" stroke="black" points="1525.85,-232.5 1535.85,-229 1525.85,-225.5 1525.85,-232.5"/>
</g>
<!-- 2467803443456 -->
<g id="node3" class="node">
<title>2467803443456</title>
<polygon fill="black" stroke="black" points="622.12,-254 568.12,-254 568.12,-218 622.12,-218 622.12,-254"/>
</g>
<!-- 2467803794736 -->
<g id="node37" class="node">
<title>2467803794736</title>
<ellipse fill="white" stroke="black" cx="709.5" cy="-142" rx="27" ry="27"/>
<ellipse fill="none" stroke="black" cx="709.5" cy="-142" rx="31" ry="31"/>
<text text-anchor="start" x="699.75" y="-129.97" font-family="Times New Roman,serif" font-size="32.00">■</text>
</g>
<!-- 2467803443456&#45;&gt;2467803794736 -->
<g id="edge38" class="edge">
<title>2467803443456&#45;&gt;2467803794736</title>
<path fill="none" stroke="black" d="M622.43,-222.31C629.2,-218.36 636.32,-213.8 642.5,-209 655.99,-198.53 669.48,-185.43 680.71,-173.59"/>
<polygon fill="black" stroke="black" points="683.18,-176.07 687.43,-166.36 678.06,-171.31 683.18,-176.07"/>
</g>
<!-- 2467803796512 -->
<g id="node4" class="node">
<title>2467803796512</title>
<polygon fill="white" stroke="black" points="641.38,-308 548.88,-308 548.88,-272 641.38,-272 641.38,-308"/>
<text text-anchor="middle" x="595.12" y="-285.73" font-family="Times New Roman,serif" font-size="12.00">O_SELECTED</text>
</g>
<!-- 2467803797808 -->
<g id="node22" class="node">
<title>2467803797808</title>
<ellipse fill="white" stroke="black" cx="709.5" cy="-218" rx="27" ry="27"/>
</g>
<!-- 2467803796512&#45;&gt;2467803797808 -->
<g id="edge1" class="edge">
<title>2467803796512&#45;&gt;2467803797808</title>
<path fill="none" stroke="black" d="M628.24,-271.7C633.05,-268.85 637.93,-265.88 642.5,-263 654.11,-255.67 666.61,-247.28 677.58,-239.75"/>
<polygon fill="black" stroke="black" points="679.28,-242.83 685.52,-234.26 675.3,-237.07 679.28,-242.83"/>
</g>
<!-- 2467803795984 -->
<g id="node24" class="node">
<title>2467803795984</title>
<ellipse fill="white" stroke="black" cx="709.5" cy="-290" rx="27" ry="27"/>
</g>
<!-- 2467803796512&#45;&gt;2467803795984 -->
<g id="edge2" class="edge">
<title>2467803796512&#45;&gt;2467803795984</title>
<path fill="none" stroke="black" d="M641.83,-290C651.49,-290 661.57,-290 670.89,-290"/>
<polygon fill="black" stroke="black" points="670.68,-293.5 680.67,-290 670.67,-286.5 670.68,-293.5"/>
</g>
<!-- 2467803800304 -->
<g id="node35" class="node">
<title>2467803800304</title>
<ellipse fill="white" stroke="black" cx="709.5" cy="-362" rx="27" ry="27"/>
</g>
<!-- 2467803796512&#45;&gt;2467803800304 -->
<g id="edge3" class="edge">
<title>2467803796512&#45;&gt;2467803800304</title>
<path fill="none" stroke="black" d="M624.77,-308.35C640.6,-318.5 660.31,-331.13 676.63,-341.58"/>
<polygon fill="black" stroke="black" points="674.7,-344.5 685.01,-346.95 678.48,-338.61 674.7,-344.5"/>
</g>
<!-- 2467803795360 -->
<g id="node5" class="node">
<title>2467803795360</title>
<polygon fill="black" stroke="black" points="1296.5,-350 1242.5,-350 1242.5,-314 1296.5,-314 1296.5,-350"/>
</g>
<!-- 2467803795120 -->
<g id="node25" class="node">
<title>2467803795120</title>
<ellipse fill="white" stroke="black" cx="1744.75" cy="-252" rx="27" ry="27"/>
</g>
<!-- 2467803795360&#45;&gt;2467803795120 -->
<g id="edge39" class="edge">
<title>2467803795360&#45;&gt;2467803795120</title>
<path fill="none" stroke="black" d="M1296.8,-330.73C1335.54,-328.97 1410.21,-326 1473.75,-326 1473.75,-326 1473.75,-326 1565.75,-326 1620.73,-326 1678.45,-295.53 1712.75,-273.69"/>
<polygon fill="black" stroke="black" points="1714.48,-276.74 1720.93,-268.34 1710.65,-270.88 1714.48,-276.74"/>
</g>
<!-- 2467803794352 -->
<g id="node6" class="node">
<title>2467803794352</title>
<polygon fill="black" stroke="black" points="846.75,-297 792.75,-297 792.75,-261 846.75,-261 846.75,-297"/>
</g>
<!-- 2467803801648 -->
<g id="node26" class="node">
<title>2467803801648</title>
<ellipse fill="white" stroke="black" cx="926" cy="-279" rx="27" ry="27"/>
</g>
<!-- 2467803794352&#45;&gt;2467803801648 -->
<g id="edge44" class="edge">
<title>2467803794352&#45;&gt;2467803801648</title>
<path fill="none" stroke="black" d="M847.06,-279C859.28,-279 874.04,-279 887.41,-279"/>
<polygon fill="black" stroke="black" points="887.19,-282.5 897.19,-279 887.19,-275.5 887.19,-282.5"/>
</g>
<!-- 2467803801984 -->
<g id="node28" class="node">
<title>2467803801984</title>
<ellipse fill="white" stroke="black" cx="926" cy="-181" rx="27" ry="27"/>
</g>
<!-- 2467803794352&#45;&gt;2467803801984 -->
<g id="edge45" class="edge">
<title>2467803794352&#45;&gt;2467803801984</title>
<path fill="none" stroke="black" d="M840.36,-260.57C856.48,-245.41 879.5,-223.77 897.47,-206.88"/>
<polygon fill="black" stroke="black" points="899.84,-209.46 904.73,-200.06 895.05,-204.36 899.84,-209.46"/>
</g>
<!-- 2467803802032 -->
<g id="node7" class="node">
<title>2467803802032</title>
<polygon fill="black" stroke="black" points="1067.12,-307 1013.12,-307 1013.12,-271 1067.12,-271 1067.12,-307"/>
</g>
<!-- 2467803801792 -->
<g id="node27" class="node">
<title>2467803801792</title>
<ellipse fill="white" stroke="black" cx="1154.25" cy="-280" rx="27" ry="27"/>
</g>
<!-- 2467803802032&#45;&gt;2467803801792 -->
<g id="edge40" class="edge">
<title>2467803802032&#45;&gt;2467803801792</title>
<path fill="none" stroke="black" d="M1067.41,-286.89C1081.89,-285.73 1100.11,-284.27 1116.03,-282.99"/>
<polygon fill="black" stroke="black" points="1115.93,-286.51 1125.62,-282.22 1115.37,-279.53 1115.93,-286.51"/>
</g>
<!-- 2467803802416 -->
<g id="node8" class="node">
<title>2467803802416</title>
<polygon fill="white" stroke="black" points="1091.25,-253 989,-253 989,-217 1091.25,-217 1091.25,-253"/>
<text text-anchor="middle" x="1040.12" y="-230.72" font-family="Times New Roman,serif" font-size="12.00">O_SENT_BACK</text>
</g>
<!-- 2467803802416&#45;&gt;2467803801792 -->
<g id="edge5" class="edge">
<title>2467803802416&#45;&gt;2467803801792</title>
<path fill="none" stroke="black" d="M1087.05,-253.43C1097.42,-257.59 1108.27,-261.95 1118.12,-265.9"/>
<polygon fill="black" stroke="black" points="1116.74,-269.12 1127.32,-269.59 1119.34,-262.62 1116.74,-269.12"/>
</g>
<!-- 2467803803952 -->
<g id="node9" class="node">
<title>2467803803952</title>
<polygon fill="white" stroke="black" points="1321.75,-243 1217.25,-243 1217.25,-207 1321.75,-207 1321.75,-243"/>
<text text-anchor="middle" x="1269.5" y="-220.72" font-family="Times New Roman,serif" font-size="12.00">O_CANCELLED</text>
</g>
<!-- 2467803803760 -->
<g id="node31" class="node">
<title>2467803803760</title>
<ellipse fill="white" stroke="black" cx="1384.75" cy="-229" rx="27" ry="27"/>
</g>
<!-- 2467803803952&#45;&gt;2467803803760 -->
<g id="edge8" class="edge">
<title>2467803803952&#45;&gt;2467803803760</title>
<path fill="none" stroke="black" d="M1322.15,-226.82C1330.19,-227.11 1338.37,-227.4 1346.02,-227.67"/>
<polygon fill="black" stroke="black" points="1345.9,-231.17 1356.01,-228.02 1346.14,-224.17 1345.9,-231.17"/>
</g>
<!-- 2467803800256 -->
<g id="node10" class="node">
<title>2467803800256</title>
<polygon fill="black" stroke="black" points="241.75,-150 187.75,-150 187.75,-114 241.75,-114 241.75,-150"/>
</g>
<!-- 2467803796128 -->
<g id="node34" class="node">
<title>2467803796128</title>
<ellipse fill="white" stroke="black" cx="304.75" cy="-182" rx="27" ry="27"/>
</g>
<!-- 2467803800256&#45;&gt;2467803796128 -->
<g id="edge42" class="edge">
<title>2467803800256&#45;&gt;2467803796128</title>
<path fill="none" stroke="black" d="M242.15,-147C251.15,-152.11 261.32,-157.89 270.77,-163.26"/>
<polygon fill="black" stroke="black" points="268.91,-166.23 279.33,-168.13 272.37,-160.14 268.91,-166.23"/>
</g>
<!-- 2467803444416 -->
<g id="node11" class="node">
<title>2467803444416</title>
<polygon fill="black" stroke="black" points="421.75,-200 367.75,-200 367.75,-164 421.75,-164 421.75,-200"/>
</g>
<!-- 2467803792432 -->
<g id="node32" class="node">
<title>2467803792432</title>
<ellipse fill="white" stroke="black" cx="484.75" cy="-182" rx="27" ry="27"/>
</g>
<!-- 2467803444416&#45;&gt;2467803792432 -->
<g id="edge37" class="edge">
<title>2467803444416&#45;&gt;2467803792432</title>
<path fill="none" stroke="black" d="M422.15,-182C429.64,-182 437.93,-182 445.95,-182"/>
<polygon fill="black" stroke="black" points="445.85,-185.5 455.85,-182 445.85,-178.5 445.85,-185.5"/>
</g>
<!-- 2467803445952 -->
<g id="node12" class="node">
<title>2467803445952</title>
<polygon fill="white" stroke="black" points="641.38,-200 548.88,-200 548.88,-164 641.38,-164 641.38,-200"/>
<text text-anchor="middle" x="595.12" y="-177.72" font-family="Times New Roman,serif" font-size="12.00">O_DECLINED</text>
</g>
<!-- 2467803445952&#45;&gt;2467803794736 -->
<g id="edge6" class="edge">
<title>2467803445952&#45;&gt;2467803794736</title>
<path fill="none" stroke="black" d="M641.83,-165.73C650.89,-162.51 660.32,-159.15 669.15,-156.01"/>
<polygon fill="black" stroke="black" points="670.25,-159.33 678.5,-152.68 667.9,-152.73 670.25,-159.33"/>
</g>
<!-- 2467803792336 -->
<g id="node13" class="node">
<title>2467803792336</title>
<polygon fill="black" stroke="black" points="421.75,-308 367.75,-308 367.75,-272 421.75,-272 421.75,-308"/>
</g>
<!-- 2467803792816 -->
<g id="node33" class="node">
<title>2467803792816</title>
<ellipse fill="white" stroke="black" cx="484.75" cy="-290" rx="27" ry="27"/>
</g>
<!-- 2467803792336&#45;&gt;2467803792816 -->
<g id="edge46" class="edge">
<title>2467803792336&#45;&gt;2467803792816</title>
<path fill="none" stroke="black" d="M422.15,-290C429.64,-290 437.93,-290 445.95,-290"/>
<polygon fill="black" stroke="black" points="445.85,-293.5 455.85,-290 445.85,-286.5 445.85,-293.5"/>
</g>
<!-- 2467803791568 -->
<g id="node14" class="node">
<title>2467803791568</title>
<polygon fill="black" stroke="black" points="1681.75,-270 1627.75,-270 1627.75,-234 1681.75,-234 1681.75,-270"/>
</g>
<!-- 2467803791568&#45;&gt;2467803795120 -->
<g id="edge43" class="edge">
<title>2467803791568&#45;&gt;2467803795120</title>
<path fill="none" stroke="black" d="M1682.15,-252C1689.64,-252 1697.93,-252 1705.95,-252"/>
<polygon fill="black" stroke="black" points="1705.85,-255.5 1715.85,-252 1705.85,-248.5 1705.85,-255.5"/>
</g>
<!-- 2467803804240 -->
<g id="node15" class="node">
<title>2467803804240</title>
<polygon fill="black" stroke="black" points="1501.75,-193 1447.75,-193 1447.75,-157 1501.75,-157 1501.75,-193"/>
</g>
<!-- 2467803803280 -->
<g id="node30" class="node">
<title>2467803803280</title>
<ellipse fill="white" stroke="black" cx="1154.25" cy="-183" rx="27" ry="27"/>
</g>
<!-- 2467803804240&#45;&gt;2467803803280 -->
<g id="edge34" class="edge">
<title>2467803804240&#45;&gt;2467803803280</title>
<path fill="none" stroke="black" d="M1447.38,-175.66C1390.95,-177.08 1258.31,-180.41 1192.97,-182.05"/>
<polygon fill="black" stroke="black" points="1193.01,-178.55 1183.1,-182.3 1193.18,-185.55 1193.01,-178.55"/>
</g>
<!-- 2467803794016 -->
<g id="node16" class="node">
<title>2467803794016</title>
<polygon fill="white" stroke="black" points="863,-191 776.5,-191 776.5,-155 863,-155 863,-191"/>
<text text-anchor="middle" x="819.75" y="-168.72" font-family="Times New Roman,serif" font-size="12.00">O_CREATED</text>
</g>
<!-- 2467803798864 -->
<g id="node23" class="node">
<title>2467803798864</title>
<ellipse fill="white" stroke="black" cx="926" cy="-27" rx="27" ry="27"/>
</g>
<!-- 2467803794016&#45;&gt;2467803798864 -->
<g id="edge7" class="edge">
<title>2467803794016&#45;&gt;2467803798864</title>
<path fill="none" stroke="black" d="M833.95,-154.51C851.28,-130.24 881.94,-87.31 902.85,-58.02"/>
<polygon fill="black" stroke="black" points="905.69,-60.06 908.65,-49.89 899.99,-56 905.69,-60.06"/>
</g>
<!-- 2467803446240 -->
<g id="node17" class="node">
<title>2467803446240</title>
<polygon fill="white" stroke="black" points="642.5,-146 547.75,-146 547.75,-110 642.5,-110 642.5,-146"/>
<text text-anchor="middle" x="595.12" y="-123.72" font-family="Times New Roman,serif" font-size="12.00">O_ACCEPTED</text>
</g>
<!-- 2467803446240&#45;&gt;2467803794736 -->
<g id="edge9" class="edge">
<title>2467803446240&#45;&gt;2467803794736</title>
<path fill="none" stroke="black" d="M642.81,-133.82C650.91,-134.83 659.28,-135.87 667.23,-136.86"/>
<polygon fill="black" stroke="black" points="666.62,-140.31 676.98,-138.07 667.49,-133.36 666.62,-140.31"/>
</g>
<!-- 2467803802992 -->
<g id="node18" class="node">
<title>2467803802992</title>
<polygon fill="black" stroke="black" points="1411.75,-146 1357.75,-146 1357.75,-110 1411.75,-110 1411.75,-146"/>
</g>
<!-- 2467803802992&#45;&gt;2467803802752 -->
<g id="edge33" class="edge">
<title>2467803802992&#45;&gt;2467803802752</title>
<path fill="none" stroke="black" d="M1412.06,-127.21C1436.89,-127.63 1474.3,-131.39 1501.75,-148 1520.5,-159.34 1535.6,-178.64 1546.21,-195.55"/>
<polygon fill="black" stroke="black" points="1543.03,-197.06 1551.16,-203.86 1549.05,-193.48 1543.03,-197.06"/>
</g>
<!-- 2467803803376 -->
<g id="node19" class="node">
<title>2467803803376</title>
<polygon fill="black" stroke="black" points="1067.12,-199 1013.12,-199 1013.12,-163 1067.12,-163 1067.12,-199"/>
</g>
<!-- 2467803803376&#45;&gt;2467803803280 -->
<g id="edge10" class="edge">
<title>2467803803376&#45;&gt;2467803803280</title>
<path fill="none" stroke="black" d="M1067.41,-181.47C1081.89,-181.73 1100.11,-182.05 1116.03,-182.34"/>
<polygon fill="black" stroke="black" points="1115.55,-185.83 1125.61,-182.51 1115.68,-178.83 1115.55,-185.83"/>
</g>
<!-- 2467803446384 -->
<g id="node20" class="node">
<title>2467803446384</title>
<polygon fill="black" stroke="black" points="421.75,-254 367.75,-254 367.75,-218 421.75,-218 421.75,-254"/>
</g>
<!-- 2467803446384&#45;&gt;2467803792816 -->
<g id="edge36" class="edge">
<title>2467803446384&#45;&gt;2467803792816</title>
<path fill="none" stroke="black" d="M422.15,-252.2C431.4,-257.87 441.88,-264.31 451.54,-270.24"/>
<polygon fill="black" stroke="black" points="449.59,-273.14 459.94,-275.39 453.25,-267.18 449.59,-273.14"/>
</g>
<!-- 2467803794688 -->
<g id="node21" class="node">
<title>2467803794688</title>
<ellipse fill="white" stroke="black" cx="304.75" cy="-290" rx="27" ry="27"/>
<text text-anchor="start" x="294.62" y="-276.82" font-family="Times New Roman,serif" font-size="34.00">●</text>
</g>
<!-- 2467803794688&#45;&gt;2467803792336 -->
<g id="edge41" class="edge">
<title>2467803794688&#45;&gt;2467803792336</title>
<path fill="none" stroke="black" d="M332.15,-290C339.64,-290 347.93,-290 355.95,-290"/>
<polygon fill="black" stroke="black" points="355.85,-293.5 365.85,-290 355.85,-286.5 355.85,-293.5"/>
</g>
<!-- 2467803797808&#45;&gt;2467803794016 -->
<g id="edge11" class="edge">
<title>2467803797808&#45;&gt;2467803794016</title>
<path fill="none" stroke="black" d="M734.79,-207.9C744.05,-204.05 755,-199.5 765.89,-194.97"/>
<polygon fill="black" stroke="black" points="766.96,-198.32 774.85,-191.25 764.27,-191.86 766.96,-198.32"/>
</g>
<!-- 2467803798864&#45;&gt;2467803800256 -->
<g id="edge12" class="edge">
<title>2467803798864&#45;&gt;2467803800256</title>
<path fill="none" stroke="black" d="M898.6,-28.82C858.13,-31.45 778.34,-36 710.5,-36 393.75,-36 393.75,-36 393.75,-36 340.27,-36 323.75,-40.72 277.75,-68 261.75,-77.49 247.1,-92.18 236.06,-105.1"/>
<polygon fill="black" stroke="black" points="233.63,-102.55 229.99,-112.5 239.04,-106.99 233.63,-102.55"/>
</g>
<!-- 2467803795984&#45;&gt;2467803795360 -->
<g id="edge13" class="edge">
<title>2467803795984&#45;&gt;2467803795360</title>
<path fill="none" stroke="black" d="M735.24,-298.68C774.81,-311.75 854.99,-335 925,-335 925,-335 925,-335 1041.12,-335 1107.99,-335 1185.9,-333.69 1230.98,-332.8"/>
<polygon fill="black" stroke="black" points="1230.8,-336.3 1240.73,-332.6 1230.66,-329.3 1230.8,-336.3"/>
</g>
<!-- 2467803795984&#45;&gt;2467803794352 -->
<g id="edge14" class="edge">
<title>2467803795984&#45;&gt;2467803794352</title>
<path fill="none" stroke="black" d="M736.7,-287.34C750.04,-285.98 766.48,-284.31 781.13,-282.82"/>
<polygon fill="black" stroke="black" points="781.31,-286.32 790.91,-281.83 780.6,-279.36 781.31,-286.32"/>
</g>
<!-- 2467803795120&#45;&gt;2467803800256 -->
<g id="edge15" class="edge">
<title>2467803795120&#45;&gt;2467803800256</title>
<path fill="none" stroke="black" d="M1732.44,-227.64C1708.74,-180.64 1649.08,-82 1565.75,-82 393.75,-82 393.75,-82 393.75,-82 343.43,-82 287.98,-100.75 252.56,-115.29"/>
<polygon fill="black" stroke="black" points="251.49,-111.94 243.63,-119.05 254.21,-118.39 251.49,-111.94"/>
</g>
<!-- 2467803801648&#45;&gt;2467803802032 -->
<g id="edge17" class="edge">
<title>2467803801648&#45;&gt;2467803802032</title>
<path fill="none" stroke="black" d="M953.29,-281.34C967.77,-282.64 985.98,-284.26 1001.9,-285.68"/>
<polygon fill="black" stroke="black" points="1001.22,-289.13 1011.49,-286.54 1001.84,-282.16 1001.22,-289.13"/>
</g>
<!-- 2467803801648&#45;&gt;2467803802416 -->
<g id="edge16" class="edge">
<title>2467803801648&#45;&gt;2467803802416</title>
<path fill="none" stroke="black" d="M951.61,-269.34C960.5,-265.85 970.96,-261.75 981.49,-257.62"/>
<polygon fill="black" stroke="black" points="982.56,-260.96 990.59,-254.05 980,-254.44 982.56,-260.96"/>
</g>
<!-- 2467803801792&#45;&gt;2467803791568 -->
<g id="edge18" class="edge">
<title>2467803801792&#45;&gt;2467803791568</title>
<path fill="none" stroke="black" d="M1181.64,-280.76C1224.17,-281.92 1310.55,-284 1383.75,-284 1383.75,-284 1383.75,-284 1475.75,-284 1525.05,-284 1580.83,-271.96 1616.6,-262.65"/>
<polygon fill="black" stroke="black" points="1617.26,-266.1 1626.01,-260.14 1615.45,-259.34 1617.26,-266.1"/>
</g>
<!-- 2467803801984&#45;&gt;2467803802992 -->
<g id="edge20" class="edge">
<title>2467803801984&#45;&gt;2467803802992</title>
<path fill="none" stroke="black" d="M950.47,-168.49C961.8,-163.06 975.77,-157.21 989,-154 1117.08,-122.9 1274.95,-123.81 1345.98,-126.22"/>
<polygon fill="black" stroke="black" points="1345.78,-129.72 1355.91,-126.59 1346.04,-122.72 1345.78,-129.72"/>
</g>
<!-- 2467803801984&#45;&gt;2467803803376 -->
<g id="edge19" class="edge">
<title>2467803801984&#45;&gt;2467803803376</title>
<path fill="none" stroke="black" d="M953.29,-181C967.77,-181 985.98,-181 1001.9,-181"/>
<polygon fill="black" stroke="black" points="1001.49,-184.5 1011.49,-181 1001.49,-177.5 1001.49,-184.5"/>
</g>
<!-- 2467803802752&#45;&gt;2467803791568 -->
<g id="edge21" class="edge">
<title>2467803802752&#45;&gt;2467803791568</title>
<path fill="none" stroke="black" d="M1591.2,-235.65C1599.11,-237.72 1607.99,-240.04 1616.53,-242.27"/>
<polygon fill="black" stroke="black" points="1615.41,-245.6 1625.97,-244.74 1617.18,-238.82 1615.41,-245.6"/>
</g>
<!-- 2467803803280&#45;&gt;2467803803952 -->
<g id="edge22" class="edge">
<title>2467803803280&#45;&gt;2467803803952</title>
<path fill="none" stroke="black" d="M1180.1,-192.22C1188.61,-195.37 1198.53,-199.05 1208.59,-202.78"/>
<polygon fill="black" stroke="black" points="1207.05,-205.94 1217.64,-206.14 1209.49,-199.38 1207.05,-205.94"/>
</g>
<!-- 2467803803760&#45;&gt;2466726755968 -->
<g id="edge24" class="edge">
<title>2467803803760&#45;&gt;2466726755968</title>
<path fill="none" stroke="black" d="M1412.15,-229C1419.64,-229 1427.93,-229 1435.95,-229"/>
<polygon fill="black" stroke="black" points="1435.85,-232.5 1445.85,-229 1435.85,-225.5 1435.85,-232.5"/>
</g>
<!-- 2467803803760&#45;&gt;2467803804240 -->
<g id="edge23" class="edge">
<title>2467803803760&#45;&gt;2467803804240</title>
<path fill="none" stroke="black" d="M1408.41,-215.09C1417.35,-209.61 1427.84,-203.17 1437.76,-197.08"/>
<polygon fill="black" stroke="black" points="1439.44,-200.16 1446.13,-191.95 1435.78,-194.2 1439.44,-200.16"/>
</g>
<!-- 2467803792432&#45;&gt;2467803443456 -->
<g id="edge27" class="edge">
<title>2467803792432&#45;&gt;2467803443456</title>
<path fill="none" stroke="black" d="M509.53,-193.85C523.64,-200.88 541.81,-209.93 557.7,-217.85"/>
<polygon fill="black" stroke="black" points="555.87,-220.85 566.38,-222.18 558.99,-214.58 555.87,-220.85"/>
</g>
<!-- 2467803792432&#45;&gt;2467803445952 -->
<g id="edge25" class="edge">
<title>2467803792432&#45;&gt;2467803445952</title>
<path fill="none" stroke="black" d="M511.98,-182C519.74,-182 528.54,-182 537.43,-182"/>
<polygon fill="black" stroke="black" points="537.16,-185.5 547.16,-182 537.16,-178.5 537.16,-185.5"/>
</g>
<!-- 2467803792432&#45;&gt;2467803446240 -->
<g id="edge26" class="edge">
<title>2467803792432&#45;&gt;2467803446240</title>
<path fill="none" stroke="black" d="M509.53,-170.15C520.55,-164.66 534.04,-157.94 546.98,-151.49"/>
<polygon fill="black" stroke="black" points="548.44,-154.67 555.83,-147.08 545.32,-148.41 548.44,-154.67"/>
</g>
<!-- 2467803792816&#45;&gt;2467803796512 -->
<g id="edge28" class="edge">
<title>2467803792816&#45;&gt;2467803796512</title>
<path fill="none" stroke="black" d="M511.98,-290C519.74,-290 528.54,-290 537.43,-290"/>
<polygon fill="black" stroke="black" points="537.16,-293.5 547.16,-290 537.16,-286.5 537.16,-293.5"/>
</g>
<!-- 2467803796128&#45;&gt;2467803444416 -->
<g id="edge30" class="edge">
<title>2467803796128&#45;&gt;2467803444416</title>
<path fill="none" stroke="black" d="M332.15,-182C339.64,-182 347.93,-182 355.95,-182"/>
<polygon fill="black" stroke="black" points="355.85,-185.5 365.85,-182 355.85,-178.5 355.85,-185.5"/>
</g>
<!-- 2467803796128&#45;&gt;2467803446384 -->
<g id="edge29" class="edge">
<title>2467803796128&#45;&gt;2467803446384</title>
<path fill="none" stroke="black" d="M328.41,-195.91C337.35,-201.39 347.84,-207.83 357.76,-213.92"/>
<polygon fill="black" stroke="black" points="355.78,-216.8 366.13,-219.05 359.44,-210.84 355.78,-216.8"/>
</g>
<!-- 2467803800304&#45;&gt;2467803798144 -->
<g id="edge31" class="edge">
<title>2467803800304&#45;&gt;2467803798144</title>
<path fill="none" stroke="black" d="M682.11,-360.24C640.43,-357.62 556.77,-353 485.75,-353 213.75,-353 213.75,-353 213.75,-353 142.96,-353 81.15,-286.68 51.15,-248.06"/>
<polygon fill="black" stroke="black" points="54.3,-246.42 45.48,-240.56 48.72,-250.65 54.3,-246.42"/>
</g>
<!-- 2467803799536&#45;&gt;2467803800256 -->
<g id="edge32" class="edge">
<title>2467803799536&#45;&gt;2467803800256</title>
<path fill="none" stroke="black" d="M147.5,-178.67C156.78,-172.14 167.84,-164.34 178.25,-157.01"/>
<polygon fill="black" stroke="black" points="180.15,-159.95 186.31,-151.33 176.12,-154.23 180.15,-159.95"/>
</g>
</g>
</svg>
