<?xml version="1.0" encoding="UTF-8" standalone="no"?>
<!DOCTYPE svg PUBLIC "-//W3C//DTD SVG 1.1//EN"
 "http://www.w3.org/Graphics/SVG/1.1/DTD/svg11.dtd">
<!-- Generated by graphviz version 12.2.0 (20241103.1931)
 -->
<!-- Title: imdf_net_1742988682.506324 Pages: 1 -->
<svg width="799pt" height="262pt"
 viewBox="0.00 0.00 799.00 262.00" xmlns="http://www.w3.org/2000/svg" xmlns:xlink="http://www.w3.org/1999/xlink">
<g id="graph0" class="graph" transform="scale(1 1) rotate(0) translate(4 258)">
<title>imdf_net_1742988682.506324</title>
<polygon fill="white" stroke="none" points="-4,4 -4,-258 795,-258 795,4 -4,4"/>
<!-- 2128514714400 -->
<g id="node1" class="node">
<title>2128514714400</title>
<polygon fill="white" stroke="black" points="595.25,-254 500.5,-254 500.5,-218 595.25,-218 595.25,-254"/>
<text text-anchor="middle" x="547.88" y="-231.72" font-family="Times New Roman,serif" font-size="12.00">O_ACCEPTED</text>
</g>
<!-- 2128514722176 -->
<g id="node17" class="node">
<title>2128514722176</title>
<ellipse fill="white" stroke="black" cx="662.25" cy="-182" rx="27" ry="27"/>
<ellipse fill="none" stroke="black" cx="662.25" cy="-182" rx="31" ry="31"/>
<text text-anchor="start" x="652.5" y="-169.97" font-family="Times New Roman,serif" font-size="32.00">■</text>
</g>
<!-- 2128514714400&#45;&gt;2128514722176 -->
<g id="edge2" class="edge">
<title>2128514714400&#45;&gt;2128514722176</title>
<path fill="none" stroke="black" d="M587.23,-217.57C598.92,-211.95 611.75,-205.79 623.4,-200.19"/>
<polygon fill="black" stroke="black" points="624.84,-203.38 632.33,-195.9 621.8,-197.07 624.84,-203.38"/>
</g>
<!-- 2128514722080 -->
<g id="node2" class="node">
<title>2128514722080</title>
<polygon fill="white" stroke="black" points="594.12,-200 501.62,-200 501.62,-164 594.12,-164 594.12,-200"/>
<text text-anchor="middle" x="547.88" y="-177.72" font-family="Times New Roman,serif" font-size="12.00">O_DECLINED</text>
</g>
<!-- 2128514722080&#45;&gt;2128514722176 -->
<g id="edge1" class="edge">
<title>2128514722080&#45;&gt;2128514722176</title>
<path fill="none" stroke="black" d="M594.58,-182C602.83,-182 611.39,-182 619.51,-182"/>
<polygon fill="black" stroke="black" points="619.51,-185.5 629.51,-182 619.51,-178.5 619.51,-185.5"/>
</g>
<!-- 2128514718336 -->
<g id="node3" class="node">
<title>2128514718336</title>
<polygon fill="white" stroke="black" points="374.5,-254 270,-254 270,-218 374.5,-218 374.5,-254"/>
<text text-anchor="middle" x="322.25" y="-231.72" font-family="Times New Roman,serif" font-size="12.00">O_CANCELLED</text>
</g>
<!-- 2128514725776 -->
<g id="node12" class="node">
<title>2128514725776</title>
<ellipse fill="white" stroke="black" cx="207" cy="-182" rx="27" ry="27"/>
</g>
<!-- 2128514718336&#45;&gt;2128514725776 -->
<g id="edge3" class="edge">
<title>2128514718336&#45;&gt;2128514725776</title>
<path fill="none" stroke="black" d="M269.95,-218.26C259.43,-213.35 248.66,-208.01 239.11,-202.93"/>
<polygon fill="black" stroke="black" points="241.08,-200.02 230.63,-198.29 237.72,-206.16 241.08,-200.02"/>
</g>
<!-- 2128514724096 -->
<g id="node4" class="node">
<title>2128514724096</title>
<polygon fill="white" stroke="black" points="373.38,-200 271.12,-200 271.12,-164 373.38,-164 373.38,-200"/>
<text text-anchor="middle" x="322.25" y="-177.72" font-family="Times New Roman,serif" font-size="12.00">O_SENT_BACK</text>
</g>
<!-- 2128514724096&#45;&gt;2128514725776 -->
<g id="edge7" class="edge">
<title>2128514724096&#45;&gt;2128514725776</title>
<path fill="none" stroke="black" d="M270.64,-188.72C262.05,-188.81 253.28,-188.7 245.12,-188.38"/>
<polygon fill="black" stroke="black" points="245.38,-184.89 235.21,-187.84 245.01,-191.88 245.38,-184.89"/>
</g>
<!-- 2128514719680 -->
<g id="node5" class="node">
<title>2128514719680</title>
<polygon fill="white" stroke="black" points="791,-72 729.25,-72 729.25,-36 791,-36 791,-72"/>
<text text-anchor="middle" x="760.12" y="-49.73" font-family="Times New Roman,serif" font-size="12.00">O_SENT</text>
</g>
<!-- 2128514726400 -->
<g id="node14" class="node">
<title>2128514726400</title>
<ellipse fill="white" stroke="black" cx="207" cy="-96" rx="27" ry="27"/>
</g>
<!-- 2128514719680&#45;&gt;2128514726400 -->
<g id="edge6" class="edge">
<title>2128514719680&#45;&gt;2128514726400</title>
<path fill="none" stroke="black" d="M729,-60.56C688.33,-68.84 613.5,-82 548.88,-82 436.5,-82 436.5,-82 436.5,-82 369.19,-82 290.93,-88.13 245.67,-92.28"/>
<polygon fill="black" stroke="black" points="245.49,-88.78 235.86,-93.19 246.15,-95.75 245.49,-88.78"/>
</g>
<!-- 2128514721024 -->
<g id="node6" class="node">
<title>2128514721024</title>
<polygon fill="black" stroke="black" points="349.25,-146 295.25,-146 295.25,-110 349.25,-110 349.25,-146"/>
</g>
<!-- 2128514721600 -->
<g id="node15" class="node">
<title>2128514721600</title>
<ellipse fill="white" stroke="black" cx="437.5" cy="-159" rx="27" ry="27"/>
</g>
<!-- 2128514721024&#45;&gt;2128514721600 -->
<g id="edge20" class="edge">
<title>2128514721024&#45;&gt;2128514721600</title>
<path fill="none" stroke="black" d="M349.52,-135.19C364.59,-139.32 383.75,-144.56 400.24,-149.08"/>
<polygon fill="black" stroke="black" points="399.13,-152.4 409.7,-151.66 400.97,-145.65 399.13,-152.4"/>
</g>
<!-- 2128514726544 -->
<g id="node7" class="node">
<title>2128514726544</title>
<polygon fill="black" stroke="black" points="574.88,-146 520.88,-146 520.88,-110 574.88,-110 574.88,-146"/>
</g>
<!-- 2128514726544&#45;&gt;2128514722176 -->
<g id="edge21" class="edge">
<title>2128514726544&#45;&gt;2128514722176</title>
<path fill="none" stroke="black" d="M575.22,-140.66C589.7,-147.62 607.89,-156.36 623.82,-164.01"/>
<polygon fill="black" stroke="black" points="622,-167.02 632.53,-168.2 625.03,-160.71 622,-167.02"/>
</g>
<!-- 2128514724144 -->
<g id="node8" class="node">
<title>2128514724144</title>
<polygon fill="white" stroke="black" points="591.12,-45 504.62,-45 504.62,-9 591.12,-9 591.12,-45"/>
<text text-anchor="middle" x="547.88" y="-22.73" font-family="Times New Roman,serif" font-size="12.00">O_CREATED</text>
</g>
<!-- 2128478449632 -->
<g id="node13" class="node">
<title>2128478449632</title>
<ellipse fill="white" stroke="black" cx="662.25" cy="-27" rx="27" ry="27"/>
</g>
<!-- 2128514724144&#45;&gt;2128478449632 -->
<g id="edge4" class="edge">
<title>2128514724144&#45;&gt;2128478449632</title>
<path fill="none" stroke="black" d="M591.36,-27C602.02,-27 613.37,-27 623.77,-27"/>
<polygon fill="black" stroke="black" points="623.49,-30.5 633.49,-27 623.49,-23.5 623.49,-30.5"/>
</g>
<!-- 2128514719728 -->
<g id="node9" class="node">
<title>2128514719728</title>
<polygon fill="white" stroke="black" points="368.5,-50 276,-50 276,-14 368.5,-14 368.5,-50"/>
<text text-anchor="middle" x="322.25" y="-27.73" font-family="Times New Roman,serif" font-size="12.00">O_SELECTED</text>
</g>
<!-- 2128514714880 -->
<g id="node16" class="node">
<title>2128514714880</title>
<ellipse fill="white" stroke="black" cx="437.5" cy="-27" rx="27" ry="27"/>
</g>
<!-- 2128514719728&#45;&gt;2128514714880 -->
<g id="edge5" class="edge">
<title>2128514719728&#45;&gt;2128514714880</title>
<path fill="none" stroke="black" d="M368.99,-29.98C378.94,-29.54 389.35,-29.08 398.94,-28.66"/>
<polygon fill="black" stroke="black" points="398.8,-32.17 408.63,-28.23 398.49,-25.17 398.8,-32.17"/>
</g>
<!-- 2128514716848 -->
<g id="node10" class="node">
<title>2128514716848</title>
<polygon fill="black" stroke="black" points="144,-150 90,-150 90,-114 144,-114 144,-150"/>
</g>
<!-- 2128514716848&#45;&gt;2128514725776 -->
<g id="edge18" class="edge">
<title>2128514716848&#45;&gt;2128514725776</title>
<path fill="none" stroke="black" d="M144.4,-147C153.4,-152.11 163.57,-157.89 173.02,-163.26"/>
<polygon fill="black" stroke="black" points="171.16,-166.23 181.58,-168.13 174.62,-160.14 171.16,-166.23"/>
</g>
<!-- 2128514716848&#45;&gt;2128514726400 -->
<g id="edge19" class="edge">
<title>2128514716848&#45;&gt;2128514726400</title>
<path fill="none" stroke="black" d="M144.4,-121.2C152.75,-117.78 162.12,-113.95 170.97,-110.33"/>
<polygon fill="black" stroke="black" points="172.09,-113.65 180.02,-106.63 169.44,-107.17 172.09,-113.65"/>
</g>
<!-- 2128514721984 -->
<g id="node11" class="node">
<title>2128514721984</title>
<ellipse fill="white" stroke="black" cx="27" cy="-132" rx="27" ry="27"/>
<text text-anchor="start" x="16.88" y="-118.83" font-family="Times New Roman,serif" font-size="34.00">●</text>
</g>
<!-- 2128514721984&#45;&gt;2128514716848 -->
<g id="edge22" class="edge">
<title>2128514721984&#45;&gt;2128514716848</title>
<path fill="none" stroke="black" d="M54.4,-132C61.89,-132 70.18,-132 78.2,-132"/>
<polygon fill="black" stroke="black" points="78.1,-135.5 88.1,-132 78.1,-128.5 78.1,-135.5"/>
</g>
<!-- 2128514725776&#45;&gt;2128514718336 -->
<g id="edge8" class="edge">
<title>2128514725776&#45;&gt;2128514718336</title>
<path fill="none" stroke="black" d="M233.7,-188.49C248.83,-194.63 268.21,-203.68 284.89,-212.31"/>
<polygon fill="black" stroke="black" points="283.06,-215.3 293.53,-216.9 286.34,-209.12 283.06,-215.3"/>
</g>
<!-- 2128514725776&#45;&gt;2128514724096 -->
<g id="edge9" class="edge">
<title>2128514725776&#45;&gt;2128514724096</title>
<path fill="none" stroke="black" d="M233.7,-176.24C241.41,-175.69 250.22,-175.37 259.22,-175.28"/>
<polygon fill="black" stroke="black" points="259.12,-178.78 269.13,-175.28 259.13,-171.78 259.12,-178.78"/>
</g>
<!-- 2128514725776&#45;&gt;2128514721024 -->
<g id="edge10" class="edge">
<title>2128514725776&#45;&gt;2128514721024</title>
<path fill="none" stroke="black" d="M231.74,-170.68C247,-163.41 267.12,-153.81 284.43,-145.56"/>
<polygon fill="black" stroke="black" points="285.88,-148.74 293.4,-141.28 282.87,-142.42 285.88,-148.74"/>
</g>
<!-- 2128478449632&#45;&gt;2128514719680 -->
<g id="edge11" class="edge">
<title>2128478449632&#45;&gt;2128514719680</title>
<path fill="none" stroke="black" d="M688.69,-34.16C697.64,-36.68 707.94,-39.59 717.85,-42.38"/>
<polygon fill="black" stroke="black" points="716.76,-45.7 727.33,-45.05 718.65,-38.97 716.76,-45.7"/>
</g>
<!-- 2128514726400&#45;&gt;2128514721024 -->
<g id="edge13" class="edge">
<title>2128514726400&#45;&gt;2128514721024</title>
<path fill="none" stroke="black" d="M233.42,-103.18C248.36,-107.4 267.52,-112.82 284.13,-117.51"/>
<polygon fill="black" stroke="black" points="283.1,-120.86 293.68,-120.21 285.01,-114.12 283.1,-120.86"/>
</g>
<!-- 2128514726400&#45;&gt;2128514719728 -->
<g id="edge12" class="edge">
<title>2128514726400&#45;&gt;2128514719728</title>
<path fill="none" stroke="black" d="M230.92,-83.05C244.73,-75.24 262.74,-65.06 279.05,-55.85"/>
<polygon fill="black" stroke="black" points="280.62,-58.98 287.61,-51.01 277.18,-52.89 280.62,-58.98"/>
</g>
<!-- 2128514721600&#45;&gt;2128514714400 -->
<g id="edge15" class="edge">
<title>2128514721600&#45;&gt;2128514714400</title>
<path fill="none" stroke="black" d="M458.57,-176.47C470.42,-186.46 485.92,-198.96 500.5,-209 501.84,-209.92 503.22,-210.85 504.62,-211.77"/>
<polygon fill="black" stroke="black" points="502.45,-214.54 512.78,-216.92 506.19,-208.62 502.45,-214.54"/>
</g>
<!-- 2128514721600&#45;&gt;2128514722080 -->
<g id="edge14" class="edge">
<title>2128514721600&#45;&gt;2128514722080</title>
<path fill="none" stroke="black" d="M464.18,-164.45C472.1,-166.13 481.16,-168.05 490.31,-170"/>
<polygon fill="black" stroke="black" points="489.45,-173.39 499.96,-172.04 490.91,-166.54 489.45,-173.39"/>
</g>
<!-- 2128514721600&#45;&gt;2128514726544 -->
<g id="edge16" class="edge">
<title>2128514721600&#45;&gt;2128514726544</title>
<path fill="none" stroke="black" d="M463.91,-151.73C477.47,-147.85 494.42,-143.01 509.45,-138.7"/>
<polygon fill="black" stroke="black" points="510.39,-142.08 519.04,-135.96 508.46,-135.35 510.39,-142.08"/>
</g>
<!-- 2128514714880&#45;&gt;2128514724144 -->
<g id="edge17" class="edge">
<title>2128514714880&#45;&gt;2128514724144</title>
<path fill="none" stroke="black" d="M464.73,-27C473.29,-27 483.12,-27 492.95,-27"/>
<polygon fill="black" stroke="black" points="492.88,-30.5 502.88,-27 492.88,-23.5 492.88,-30.5"/>
</g>
</g>
</svg>
