<?xml version="1.0" encoding="UTF-8" standalone="no"?>
<!DOCTYPE svg PUBLIC "-//W3C//DTD SVG 1.1//EN"
 "http://www.w3.org/Graphics/SVG/1.1/DTD/svg11.dtd">
<!-- Generated by graphviz version 12.2.0 (20241103.1931)
 -->
<!-- Title: imdf_net_1748607006.9939485 Pages: 1 -->
<svg width="2903pt" height="474pt"
 viewBox="0.00 0.00 2903.25 474.00" xmlns="http://www.w3.org/2000/svg" xmlns:xlink="http://www.w3.org/1999/xlink">
<g id="graph0" class="graph" transform="scale(1 1) rotate(0) translate(4 470)">
<title>imdf_net_1748607006.9939485</title>
<polygon fill="white" stroke="none" points="-4,4 -4,-470 2899.25,-470 2899.25,4 -4,4"/>
<!-- 2212703000256 -->
<g id="node1" class="node">
<title>2212703000256</title>
<polygon fill="black" stroke="black" points="144,-162 90,-162 90,-126 144,-126 144,-162"/>
</g>
<!-- 2212703002080 -->
<g id="node29" class="node">
<title>2212703002080</title>
<ellipse fill="white" stroke="black" cx="207" cy="-180" rx="27" ry="27"/>
</g>
<!-- 2212703000256&#45;&gt;2212703002080 -->
<g id="edge3" class="edge">
<title>2212703000256&#45;&gt;2212703002080</title>
<path fill="none" stroke="black" d="M144.4,-154.8C152.75,-158.22 162.12,-162.05 170.97,-165.67"/>
<polygon fill="black" stroke="black" points="169.44,-168.83 180.02,-169.37 172.09,-162.35 169.44,-168.83"/>
</g>
<!-- 2212703001456 -->
<g id="node30" class="node">
<title>2212703001456</title>
<ellipse fill="white" stroke="black" cx="207" cy="-108" rx="27" ry="27"/>
</g>
<!-- 2212703000256&#45;&gt;2212703001456 -->
<g id="edge2" class="edge">
<title>2212703000256&#45;&gt;2212703001456</title>
<path fill="none" stroke="black" d="M144.4,-133.2C152.75,-129.78 162.12,-125.95 170.97,-122.33"/>
<polygon fill="black" stroke="black" points="172.09,-125.65 180.02,-118.63 169.44,-119.17 172.09,-125.65"/>
</g>
<!-- 2212703005056 -->
<g id="node2" class="node">
<title>2212703005056</title>
<polygon fill="white" stroke="black" points="334,-302 270,-302 270,-266 334,-266 334,-302"/>
<text text-anchor="middle" x="302" y="-279.73" font-family="Times New Roman,serif" font-size="12.00">Send Fine</text>
</g>
<!-- 2212703004864 -->
<g id="node33" class="node">
<title>2212703004864</title>
<ellipse fill="white" stroke="black" cx="397" cy="-317" rx="27" ry="27"/>
</g>
<!-- 2212703005056&#45;&gt;2212703004864 -->
<g id="edge11" class="edge">
<title>2212703005056&#45;&gt;2212703004864</title>
<path fill="none" stroke="black" d="M334.49,-295.17C342.77,-298.11 351.76,-301.3 360.25,-304.31"/>
<polygon fill="black" stroke="black" points="358.99,-307.58 369.58,-307.63 361.33,-300.98 358.99,-307.58"/>
</g>
<!-- 2212703004576 -->
<g id="node3" class="node">
<title>2212703004576</title>
<polygon fill="black" stroke="black" points="1281.88,-183 1227.88,-183 1227.88,-147 1281.88,-147 1281.88,-183"/>
</g>
<!-- 2212703004336 -->
<g id="node31" class="node">
<title>2212703004336</title>
<ellipse fill="white" stroke="black" cx="2413.75" cy="-211" rx="27" ry="27"/>
</g>
<!-- 2212703004576&#45;&gt;2212703004336 -->
<g id="edge10" class="edge">
<title>2212703004576&#45;&gt;2212703004336</title>
<path fill="none" stroke="black" d="M1282.23,-163.8C1333.7,-161.57 1451.16,-157 1550,-157 1550,-157 1550,-157 2234.75,-157 2286.84,-157 2343.96,-178.44 2379.09,-194.3"/>
<polygon fill="black" stroke="black" points="2377.34,-197.35 2387.88,-198.38 2380.28,-191 2377.34,-197.35"/>
</g>
<!-- 2212703002176 -->
<g id="node4" class="node">
<title>2212703002176</title>
<polygon fill="black" stroke="black" points="424,-141 370,-141 370,-105 424,-105 424,-141"/>
</g>
<!-- 2212703001552 -->
<g id="node34" class="node">
<title>2212703001552</title>
<ellipse fill="white" stroke="black" cx="828.5" cy="-118" rx="27" ry="27"/>
</g>
<!-- 2212703002176&#45;&gt;2212703001552 -->
<g id="edge9" class="edge">
<title>2212703002176&#45;&gt;2212703001552</title>
<path fill="none" stroke="black" d="M424.22,-122.69C497.38,-121.84 703.96,-119.44 789.59,-118.44"/>
<polygon fill="black" stroke="black" points="789.6,-121.94 799.56,-118.33 789.52,-114.94 789.6,-121.94"/>
</g>
<!-- 2212703002464 -->
<g id="node5" class="node">
<title>2212703002464</title>
<polygon fill="black" stroke="black" points="329,-83 275,-83 275,-47 329,-47 329,-83"/>
</g>
<!-- 2212703001792 -->
<g id="node32" class="node">
<title>2212703001792</title>
<ellipse fill="white" stroke="black" cx="397" cy="-60" rx="27" ry="27"/>
</g>
<!-- 2212703002464&#45;&gt;2212703001792 -->
<g id="edge8" class="edge">
<title>2212703002464&#45;&gt;2212703001792</title>
<path fill="none" stroke="black" d="M329.4,-63.58C338.41,-63.1 348.67,-62.54 358.39,-62.02"/>
<polygon fill="black" stroke="black" points="358.55,-65.52 368.34,-61.49 358.17,-58.53 358.55,-65.52"/>
</g>
<!-- 2212703003136 -->
<g id="node6" class="node">
<title>2212703003136</title>
<polygon fill="white" stroke="black" points="551.38,-82 494.12,-82 494.12,-46 551.38,-46 551.38,-82"/>
<text text-anchor="middle" x="522.75" y="-59.73" font-family="Times New Roman,serif" font-size="12.00">Payment</text>
</g>
<!-- 2212703002944 -->
<g id="node37" class="node">
<title>2212703002944</title>
<ellipse fill="white" stroke="black" cx="648.5" cy="-68" rx="27" ry="27"/>
</g>
<!-- 2212703003136&#45;&gt;2212703002944 -->
<g id="edge21" class="edge">
<title>2212703003136&#45;&gt;2212703002944</title>
<path fill="none" stroke="black" d="M551.83,-64.91C568.99,-65.46 591.16,-66.18 609.83,-66.78"/>
<polygon fill="black" stroke="black" points="609.6,-70.28 619.71,-67.1 609.83,-63.28 609.6,-70.28"/>
</g>
<!-- 2212703001120 -->
<g id="node7" class="node">
<title>2212703001120</title>
<polygon fill="black" stroke="black" points="2530.75,-163 2476.75,-163 2476.75,-127 2530.75,-127 2530.75,-163"/>
</g>
<!-- 2212703000592 -->
<g id="node35" class="node">
<title>2212703000592</title>
<ellipse fill="white" stroke="black" cx="2593.75" cy="-145" rx="27" ry="27"/>
</g>
<!-- 2212703001120&#45;&gt;2212703000592 -->
<g id="edge20" class="edge">
<title>2212703001120&#45;&gt;2212703000592</title>
<path fill="none" stroke="black" d="M2531.15,-145C2538.64,-145 2546.93,-145 2554.95,-145"/>
<polygon fill="black" stroke="black" points="2554.85,-148.5 2564.85,-145 2554.85,-141.5 2554.85,-148.5"/>
</g>
<!-- 2212703005728 -->
<g id="node8" class="node">
<title>2212703005728</title>
<polygon fill="black" stroke="black" points="549.75,-362 495.75,-362 495.75,-326 549.75,-326 549.75,-362"/>
</g>
<!-- 2212703005584 -->
<g id="node36" class="node">
<title>2212703005584</title>
<ellipse fill="white" stroke="black" cx="648.5" cy="-317" rx="27" ry="27"/>
</g>
<!-- 2212703005728&#45;&gt;2212703005584 -->
<g id="edge22" class="edge">
<title>2212703005728&#45;&gt;2212703005584</title>
<path fill="none" stroke="black" d="M549.99,-338.27C567.59,-334.44 591.01,-329.33 610.48,-325.08"/>
<polygon fill="black" stroke="black" points="611.22,-328.5 620.24,-322.95 609.72,-321.66 611.22,-328.5"/>
</g>
<!-- 2212703006112 -->
<g id="node9" class="node">
<title>2212703006112</title>
<polygon fill="white" stroke="black" points="585.5,-308 460,-308 460,-272 585.5,-272 585.5,-308"/>
<text text-anchor="middle" x="522.75" y="-285.73" font-family="Times New Roman,serif" font-size="12.00">Insert Fine Notification</text>
</g>
<!-- 2212703006112&#45;&gt;2212703005584 -->
<g id="edge19" class="edge">
<title>2212703006112&#45;&gt;2212703005584</title>
<path fill="none" stroke="black" d="M585.99,-303.58C594.38,-305.41 602.77,-307.24 610.52,-308.93"/>
<polygon fill="black" stroke="black" points="609.74,-312.34 620.26,-311.06 611.23,-305.5 609.74,-312.34"/>
</g>
<!-- 2212703005296 -->
<g id="node10" class="node">
<title>2212703005296</title>
<polygon fill="black" stroke="black" points="1414.75,-466 1360.75,-466 1360.75,-430 1414.75,-430 1414.75,-466"/>
</g>
<!-- 2212703005296&#45;&gt;2212703004336 -->
<g id="edge18" class="edge">
<title>2212703005296&#45;&gt;2212703004336</title>
<path fill="none" stroke="black" d="M1415.25,-447.32C1470.6,-445.95 1602.54,-443 1713.25,-443 1713.25,-443 1713.25,-443 2234.75,-443 2331.93,-443 2383.3,-313.28 2403.04,-247.84"/>
<polygon fill="black" stroke="black" points="2406.29,-249.2 2405.72,-238.62 2399.57,-247.24 2406.29,-249.2"/>
</g>
<!-- 2212703003424 -->
<g id="node11" class="node">
<title>2212703003424</title>
<polygon fill="black" stroke="black" points="765.5,-36 711.5,-36 711.5,0 765.5,0 765.5,-36"/>
</g>
<!-- 2212703003424&#45;&gt;2212703001792 -->
<g id="edge28" class="edge">
<title>2212703003424&#45;&gt;2212703001792</title>
<path fill="none" stroke="black" d="M711.14,-17.31C661.42,-16.57 550.64,-17.51 460,-37 451,-38.93 441.56,-41.91 432.84,-45.09"/>
<polygon fill="black" stroke="black" points="431.74,-41.76 423.67,-48.62 434.26,-48.29 431.74,-41.76"/>
</g>
<!-- 2212703003808 -->
<g id="node12" class="node">
<title>2212703003808</title>
<polygon fill="black" stroke="black" points="765.5,-90 711.5,-90 711.5,-54 765.5,-54 765.5,-90"/>
</g>
<!-- 2212703003808&#45;&gt;2212703001552 -->
<g id="edge29" class="edge">
<title>2212703003808&#45;&gt;2212703001552</title>
<path fill="none" stroke="black" d="M765.9,-85.8C774.73,-90.42 784.69,-95.62 793.99,-100.48"/>
<polygon fill="black" stroke="black" points="792.28,-103.54 802.76,-105.07 795.52,-97.34 792.28,-103.54"/>
</g>
<!-- 2212703005680 -->
<g id="node13" class="node">
<title>2212703005680</title>
<polygon fill="black" stroke="black" points="765.5,-335 711.5,-335 711.5,-299 765.5,-299 765.5,-335"/>
</g>
<!-- 2212703006688 -->
<g id="node38" class="node">
<title>2212703006688</title>
<ellipse fill="white" stroke="black" cx="828.5" cy="-349" rx="27" ry="27"/>
</g>
<!-- 2212703005680&#45;&gt;2212703006688 -->
<g id="edge31" class="edge">
<title>2212703005680&#45;&gt;2212703006688</title>
<path fill="none" stroke="black" d="M765.9,-326.6C774.09,-329.58 783.25,-332.91 791.95,-336.07"/>
<polygon fill="black" stroke="black" points="790.61,-339.31 801.2,-339.44 793,-332.73 790.61,-339.31"/>
</g>
<!-- 2212703007072 -->
<g id="node39" class="node">
<title>2212703007072</title>
<ellipse fill="white" stroke="black" cx="828.5" cy="-263" rx="27" ry="27"/>
</g>
<!-- 2212703005680&#45;&gt;2212703007072 -->
<g id="edge30" class="edge">
<title>2212703005680&#45;&gt;2212703007072</title>
<path fill="none" stroke="black" d="M765.9,-300.8C775.15,-295.13 785.63,-288.69 795.29,-282.76"/>
<polygon fill="black" stroke="black" points="797,-285.82 803.69,-277.61 793.34,-279.86 797,-285.82"/>
</g>
<!-- 2212703004528 -->
<g id="node14" class="node">
<title>2212703004528</title>
<polygon fill="black" stroke="black" points="2754,-190 2700,-190 2700,-154 2754,-154 2754,-190"/>
</g>
<!-- 2212702996848 -->
<g id="node40" class="node">
<title>2212702996848</title>
<ellipse fill="white" stroke="black" cx="2864.25" cy="-145" rx="27" ry="27"/>
<ellipse fill="none" stroke="black" cx="2864.25" cy="-145" rx="31" ry="31"/>
<text text-anchor="start" x="2854.5" y="-132.97" font-family="Times New Roman,serif" font-size="32.00">■</text>
</g>
<!-- 2212703004528&#45;&gt;2212702996848 -->
<g id="edge32" class="edge">
<title>2212703004528&#45;&gt;2212702996848</title>
<path fill="none" stroke="black" d="M2754.4,-166.73C2773.78,-162.86 2800.46,-157.54 2822.55,-153.12"/>
<polygon fill="black" stroke="black" points="2823.02,-156.6 2832.14,-151.21 2821.65,-149.74 2823.02,-156.6"/>
</g>
<!-- 2212703126000 -->
<g id="node15" class="node">
<title>2212703126000</title>
<polygon fill="white" stroke="black" points="2797.25,-136 2656.75,-136 2656.75,-100 2797.25,-100 2797.25,-136"/>
<text text-anchor="middle" x="2727" y="-113.72" font-family="Times New Roman,serif" font-size="12.00">Send for Credit Collection</text>
</g>
<!-- 2212703126000&#45;&gt;2212702996848 -->
<g id="edge33" class="edge">
<title>2212703126000&#45;&gt;2212702996848</title>
<path fill="none" stroke="black" d="M2797.61,-131.9C2806.13,-133.6 2814.61,-135.29 2822.51,-136.87"/>
<polygon fill="black" stroke="black" points="2821.62,-140.26 2832.11,-138.78 2822.99,-133.39 2821.62,-140.26"/>
</g>
<!-- 2212703008512 -->
<g id="node16" class="node">
<title>2212703008512</title>
<polygon fill="black" stroke="black" points="1891.38,-268 1837.38,-268 1837.38,-232 1891.38,-232 1891.38,-268"/>
</g>
<!-- 2212703008368 -->
<g id="node44" class="node">
<title>2212703008368</title>
<ellipse fill="white" stroke="black" cx="2014.5" cy="-304" rx="27" ry="27"/>
</g>
<!-- 2212703008512&#45;&gt;2212703008368 -->
<g id="edge40" class="edge">
<title>2212703008512&#45;&gt;2212703008368</title>
<path fill="none" stroke="black" d="M1891.63,-257.44C1908.81,-262.5 1931.68,-269.6 1951.5,-277 1960.57,-280.39 1970.23,-284.39 1979.16,-288.27"/>
<polygon fill="black" stroke="black" points="1977.65,-291.43 1988.22,-292.27 1980.48,-285.03 1977.65,-291.43"/>
</g>
<!-- 2212703007120 -->
<g id="node17" class="node">
<title>2212703007120</title>
<polygon fill="black" stroke="black" points="1002.25,-367 948.25,-367 948.25,-331 1002.25,-331 1002.25,-367"/>
</g>
<!-- 2212703006880 -->
<g id="node41" class="node">
<title>2212703006880</title>
<ellipse fill="white" stroke="black" cx="1122" cy="-394" rx="27" ry="27"/>
</g>
<!-- 2212703007120&#45;&gt;2212703006880 -->
<g id="edge42" class="edge">
<title>2212703007120&#45;&gt;2212703006880</title>
<path fill="none" stroke="black" d="M1002.46,-357.15C1025.6,-364.34 1059.54,-374.89 1085.17,-382.86"/>
<polygon fill="black" stroke="black" points="1083.92,-386.14 1094.51,-385.76 1085.99,-379.45 1083.92,-386.14"/>
</g>
<!-- 2212703007504 -->
<g id="node18" class="node">
<title>2212703007504</title>
<polygon fill="white" stroke="black" points="1012.5,-421 938,-421 938,-385 1012.5,-385 1012.5,-421"/>
<text text-anchor="middle" x="975.25" y="-398.73" font-family="Times New Roman,serif" font-size="12.00">Add penalty</text>
</g>
<!-- 2212703007504&#45;&gt;2212703006880 -->
<g id="edge43" class="edge">
<title>2212703007504&#45;&gt;2212703006880</title>
<path fill="none" stroke="black" d="M1012.78,-400.73C1034.4,-399.38 1061.74,-397.68 1083.52,-396.33"/>
<polygon fill="black" stroke="black" points="1083.71,-399.83 1093.48,-395.71 1083.28,-392.84 1083.71,-399.83"/>
</g>
<!-- 2212703008080 -->
<g id="node19" class="node">
<title>2212703008080</title>
<polygon fill="black" stroke="black" points="1741.25,-221 1687.25,-221 1687.25,-185 1741.25,-185 1741.25,-221"/>
</g>
<!-- 2212703007840 -->
<g id="node43" class="node">
<title>2212703007840</title>
<ellipse fill="white" stroke="black" cx="2233.75" cy="-250" rx="27" ry="27"/>
</g>
<!-- 2212703008080&#45;&gt;2212703007840 -->
<g id="edge39" class="edge">
<title>2212703008080&#45;&gt;2212703007840</title>
<path fill="none" stroke="black" d="M1741.64,-200.84C1812.3,-195.77 2011.3,-186.12 2170.75,-223 2180.26,-225.2 2190.14,-228.82 2199.14,-232.71"/>
<polygon fill="black" stroke="black" points="2197.68,-235.89 2208.22,-236.87 2200.59,-229.52 2197.68,-235.89"/>
</g>
<!-- 2212703008992 -->
<g id="node20" class="node">
<title>2212703008992</title>
<polygon fill="white" stroke="black" points="1059,-313 891.5,-313 891.5,-277 1059,-277 1059,-313"/>
<text text-anchor="middle" x="975.25" y="-290.73" font-family="Times New Roman,serif" font-size="12.00">Insert Date Appeal to Prefecture</text>
</g>
<!-- 2212703008800 -->
<g id="node42" class="node">
<title>2212703008800</title>
<ellipse fill="white" stroke="black" cx="1122" cy="-304" rx="27" ry="27"/>
</g>
<!-- 2212703008992&#45;&gt;2212703008800 -->
<g id="edge41" class="edge">
<title>2212703008992&#45;&gt;2212703008800</title>
<path fill="none" stroke="black" d="M1059.19,-300.16C1067.65,-300.68 1075.91,-301.2 1083.5,-301.67"/>
<polygon fill="black" stroke="black" points="1083.09,-305.15 1093.29,-302.28 1083.53,-298.16 1083.09,-305.15"/>
</g>
<!-- 2212703009568 -->
<g id="node21" class="node">
<title>2212703009568</title>
<polygon fill="black" stroke="black" points="2151.12,-322 2097.12,-322 2097.12,-286 2151.12,-286 2151.12,-322"/>
</g>
<!-- 2212703009568&#45;&gt;2212703007840 -->
<g id="edge51" class="edge">
<title>2212703009568&#45;&gt;2212703007840</title>
<path fill="none" stroke="black" d="M2151.45,-290.79C2165.81,-283.59 2183.74,-274.59 2199.11,-266.88"/>
<polygon fill="black" stroke="black" points="2200.54,-270.08 2207.91,-262.47 2197.4,-263.82 2200.54,-270.08"/>
</g>
<!-- 2212703125664 -->
<g id="node22" class="node">
<title>2212703125664</title>
<polygon fill="white" stroke="black" points="2170.75,-268 2077.5,-268 2077.5,-232 2170.75,-232 2170.75,-268"/>
<text text-anchor="middle" x="2124.12" y="-245.72" font-family="Times New Roman,serif" font-size="12.00">Appeal to Judge</text>
</g>
<!-- 2212703125664&#45;&gt;2212703007840 -->
<g id="edge50" class="edge">
<title>2212703125664&#45;&gt;2212703007840</title>
<path fill="none" stroke="black" d="M2171.08,-250C2179.12,-250 2187.41,-250 2195.19,-250"/>
<polygon fill="black" stroke="black" points="2195.01,-253.5 2205.01,-250 2195.01,-246.5 2195.01,-253.5"/>
</g>
<!-- 2212703009376 -->
<g id="node23" class="node">
<title>2212703009376</title>
<polygon fill="white" stroke="black" points="1324.75,-322 1185,-322 1185,-286 1324.75,-286 1324.75,-322"/>
<text text-anchor="middle" x="1254.88" y="-299.73" font-family="Times New Roman,serif" font-size="12.00">Send Appeal to Prefecture</text>
</g>
<!-- 2212703009184 -->
<g id="node45" class="node">
<title>2212703009184</title>
<ellipse fill="white" stroke="black" cx="1387.75" cy="-304" rx="27" ry="27"/>
</g>
<!-- 2212703009376&#45;&gt;2212703009184 -->
<g id="edge52" class="edge">
<title>2212703009376&#45;&gt;2212703009184</title>
<path fill="none" stroke="black" d="M1325.14,-304C1333.35,-304 1341.48,-304 1349.01,-304"/>
<polygon fill="black" stroke="black" points="1348.76,-307.5 1358.76,-304 1348.76,-300.5 1348.76,-307.5"/>
</g>
<!-- 2212703006448 -->
<g id="node24" class="node">
<title>2212703006448</title>
<polygon fill="black" stroke="black" points="2350.75,-268 2296.75,-268 2296.75,-232 2350.75,-232 2350.75,-268"/>
</g>
<!-- 2212703006448&#45;&gt;2212703004336 -->
<g id="edge49" class="edge">
<title>2212703006448&#45;&gt;2212703004336</title>
<path fill="none" stroke="black" d="M2351.15,-238.3C2359.58,-234.57 2369.03,-230.38 2377.95,-226.42"/>
<polygon fill="black" stroke="black" points="2379.36,-229.63 2387.09,-222.37 2376.52,-223.23 2379.36,-229.63"/>
</g>
<!-- 2212703010096 -->
<g id="node25" class="node">
<title>2212703010096</title>
<polygon fill="white" stroke="black" points="1651.25,-318 1450.75,-318 1450.75,-282 1651.25,-282 1651.25,-318"/>
<text text-anchor="middle" x="1551" y="-295.73" font-family="Times New Roman,serif" font-size="12.00">Receive Result Appeal from Prefecture</text>
</g>
<!-- 2212703009904 -->
<g id="node46" class="node">
<title>2212703009904</title>
<ellipse fill="white" stroke="black" cx="1714.25" cy="-304" rx="27" ry="27"/>
</g>
<!-- 2212703010096&#45;&gt;2212703009904 -->
<g id="edge56" class="edge">
<title>2212703010096&#45;&gt;2212703009904</title>
<path fill="none" stroke="black" d="M1651.37,-302.46C1659.77,-302.67 1667.89,-302.87 1675.33,-303.06"/>
<polygon fill="black" stroke="black" points="1675.16,-306.56 1685.25,-303.31 1675.34,-299.56 1675.16,-306.56"/>
</g>
<!-- 2212703009616 -->
<g id="node26" class="node">
<title>2212703009616</title>
<polygon fill="black" stroke="black" points="1578,-372 1524,-372 1524,-336 1578,-336 1578,-372"/>
</g>
<!-- 2212703009616&#45;&gt;2212703008368 -->
<g id="edge55" class="edge">
<title>2212703009616&#45;&gt;2212703008368</title>
<path fill="none" stroke="black" d="M1578.16,-355.63C1642.65,-358.99 1813.98,-363.8 1951.5,-331 1960.92,-328.75 1970.7,-325.15 1979.64,-321.3"/>
<polygon fill="black" stroke="black" points="1981.02,-324.52 1988.66,-317.19 1978.11,-318.15 1981.02,-324.52"/>
</g>
<!-- 2212703010384 -->
<g id="node27" class="node">
<title>2212703010384</title>
<polygon fill="white" stroke="black" points="1951.5,-322 1777.25,-322 1777.25,-286 1951.5,-286 1951.5,-322"/>
<text text-anchor="middle" x="1864.38" y="-299.73" font-family="Times New Roman,serif" font-size="12.00">Notify Result Appeal to Offender</text>
</g>
<!-- 2212703010384&#45;&gt;2212703008368 -->
<g id="edge58" class="edge">
<title>2212703010384&#45;&gt;2212703008368</title>
<path fill="none" stroke="black" d="M1951.97,-304C1960.26,-304 1968.34,-304 1975.77,-304"/>
<polygon fill="black" stroke="black" points="1975.7,-307.5 1985.7,-304 1975.7,-300.5 1975.7,-307.5"/>
</g>
<!-- 2212254185120 -->
<g id="node28" class="node">
<title>2212254185120</title>
<ellipse fill="white" stroke="black" cx="27" cy="-144" rx="27" ry="27"/>
<text text-anchor="start" x="16.88" y="-130.82" font-family="Times New Roman,serif" font-size="34.00">●</text>
</g>
<!-- 2212254185120&#45;&gt;2212703000256 -->
<g id="edge1" class="edge">
<title>2212254185120&#45;&gt;2212703000256</title>
<path fill="none" stroke="black" d="M54.4,-144C61.89,-144 70.18,-144 78.2,-144"/>
<polygon fill="black" stroke="black" points="78.1,-147.5 88.1,-144 78.1,-140.5 78.1,-147.5"/>
</g>
<!-- 2212703002080&#45;&gt;2212703005056 -->
<g id="edge6" class="edge">
<title>2212703002080&#45;&gt;2212703005056</title>
<path fill="none" stroke="black" d="M225.49,-199.56C240.05,-215.84 260.93,-239.19 277.04,-257.21"/>
<polygon fill="black" stroke="black" points="274.24,-259.32 283.51,-264.45 279.46,-254.66 274.24,-259.32"/>
</g>
<!-- 2212703002080&#45;&gt;2212703004576 -->
<g id="edge5" class="edge">
<title>2212703002080&#45;&gt;2212703004576</title>
<path fill="none" stroke="black" d="M234.45,-178.39C270.83,-176.33 338.35,-173 396,-173 396,-173 396,-173 976.25,-173 1062.1,-173 1162.81,-169.13 1216.2,-166.77"/>
<polygon fill="black" stroke="black" points="1216.12,-170.28 1225.96,-166.34 1215.81,-163.29 1216.12,-170.28"/>
</g>
<!-- 2212703001456&#45;&gt;2212703002176 -->
<g id="edge7" class="edge">
<title>2212703001456&#45;&gt;2212703002176</title>
<path fill="none" stroke="black" d="M234.14,-110.09C266.46,-112.66 321.7,-117.07 358.52,-120.01"/>
<polygon fill="black" stroke="black" points="358.02,-123.48 368.27,-120.79 358.58,-116.5 358.02,-123.48"/>
</g>
<!-- 2212703001456&#45;&gt;2212703002464 -->
<g id="edge4" class="edge">
<title>2212703001456&#45;&gt;2212703002464</title>
<path fill="none" stroke="black" d="M231.95,-96.93C241.82,-92.36 253.48,-86.97 264.38,-81.93"/>
<polygon fill="black" stroke="black" points="265.53,-85.26 273.14,-77.88 262.59,-78.9 265.53,-85.26"/>
</g>
<!-- 2212703004336&#45;&gt;2212703001120 -->
<g id="edge13" class="edge">
<title>2212703004336&#45;&gt;2212703001120</title>
<path fill="none" stroke="black" d="M2436.05,-195.02C2445.99,-187.57 2458.05,-178.53 2469.17,-170.19"/>
<polygon fill="black" stroke="black" points="2471.11,-173.11 2477.01,-164.31 2466.91,-167.51 2471.11,-173.11"/>
</g>
<!-- 2212703001792&#45;&gt;2212703003136 -->
<g id="edge14" class="edge">
<title>2212703001792&#45;&gt;2212703003136</title>
<path fill="none" stroke="black" d="M424.24,-60.85C441.17,-61.4 463.48,-62.12 482.49,-62.73"/>
<polygon fill="black" stroke="black" points="482.2,-66.22 492.31,-63.05 482.43,-59.23 482.2,-66.22"/>
</g>
<!-- 2212703004864&#45;&gt;2212703005728 -->
<g id="edge12" class="edge">
<title>2212703004864&#45;&gt;2212703005728</title>
<path fill="none" stroke="black" d="M423.64,-322.59C441.16,-326.42 464.66,-331.54 484.27,-335.82"/>
<polygon fill="black" stroke="black" points="483.29,-339.19 493.81,-337.9 484.79,-332.35 483.29,-339.19"/>
</g>
<!-- 2212703004864&#45;&gt;2212703006112 -->
<g id="edge15" class="edge">
<title>2212703004864&#45;&gt;2212703006112</title>
<path fill="none" stroke="black" d="M423.64,-311.41C431.14,-309.77 439.74,-307.89 448.65,-305.95"/>
<polygon fill="black" stroke="black" points="449.14,-309.43 458.16,-303.87 447.64,-302.59 449.14,-309.43"/>
</g>
<!-- 2212703004864&#45;&gt;2212703005296 -->
<g id="edge16" class="edge">
<title>2212703004864&#45;&gt;2212703005296</title>
<path fill="none" stroke="black" d="M417.17,-335.63C456.71,-372.02 551.7,-449 647.5,-449 647.5,-449 647.5,-449 1123,-449 1203.54,-449 1297.92,-448.53 1349.1,-448.23"/>
<polygon fill="black" stroke="black" points="1349.05,-451.73 1359.03,-448.17 1349.01,-444.73 1349.05,-451.73"/>
</g>
<!-- 2212703001552&#45;&gt;2212703001120 -->
<g id="edge17" class="edge">
<title>2212703001552&#45;&gt;2212703001120</title>
<path fill="none" stroke="black" d="M855.63,-118C906.64,-118 1023.07,-118 1121,-118 1121,-118 1121,-118 2324.75,-118 2373.82,-118 2429.66,-128.16 2465.5,-136.01"/>
<polygon fill="black" stroke="black" points="2464.4,-139.35 2474.92,-138.13 2465.94,-132.52 2464.4,-139.35"/>
</g>
<!-- 2212703000592&#45;&gt;2212703004528 -->
<g id="edge27" class="edge">
<title>2212703000592&#45;&gt;2212703004528</title>
<path fill="none" stroke="black" d="M2620.68,-150.33C2640.06,-154.32 2666.83,-159.83 2688.54,-164.29"/>
<polygon fill="black" stroke="black" points="2687.69,-167.69 2698.19,-166.28 2689.1,-160.84 2687.69,-167.69"/>
</g>
<!-- 2212703000592&#45;&gt;2212703126000 -->
<g id="edge26" class="edge">
<title>2212703000592&#45;&gt;2212703126000</title>
<path fill="none" stroke="black" d="M2620.68,-139.67C2627.98,-138.16 2636.33,-136.45 2645.07,-134.65"/>
<polygon fill="black" stroke="black" points="2645.72,-138.09 2654.8,-132.65 2644.3,-131.23 2645.72,-138.09"/>
</g>
<!-- 2212703005584&#45;&gt;2212703005680 -->
<g id="edge25" class="edge">
<title>2212703005584&#45;&gt;2212703005680</title>
<path fill="none" stroke="black" d="M675.9,-317C683.39,-317 691.68,-317 699.7,-317"/>
<polygon fill="black" stroke="black" points="699.6,-320.5 709.6,-317 699.6,-313.5 699.6,-320.5"/>
</g>
<!-- 2212703002944&#45;&gt;2212703003424 -->
<g id="edge23" class="edge">
<title>2212703002944&#45;&gt;2212703003424</title>
<path fill="none" stroke="black" d="M672.62,-54.86C681.39,-49.88 691.6,-44.08 701.29,-38.58"/>
<polygon fill="black" stroke="black" points="702.83,-41.72 709.8,-33.74 699.37,-35.64 702.83,-41.72"/>
</g>
<!-- 2212703002944&#45;&gt;2212703003808 -->
<g id="edge24" class="edge">
<title>2212703002944&#45;&gt;2212703003808</title>
<path fill="none" stroke="black" d="M675.9,-69.2C683.39,-69.54 691.68,-69.92 699.7,-70.28"/>
<polygon fill="black" stroke="black" points="699.46,-73.77 709.6,-70.73 699.77,-66.78 699.46,-73.77"/>
</g>
<!-- 2212703006688&#45;&gt;2212703007120 -->
<g id="edge38" class="edge">
<title>2212703006688&#45;&gt;2212703007120</title>
<path fill="none" stroke="black" d="M855.71,-349C878.36,-349 911.36,-349 936.79,-349"/>
<polygon fill="black" stroke="black" points="936.72,-352.5 946.72,-349 936.72,-345.5 936.72,-352.5"/>
</g>
<!-- 2212703006688&#45;&gt;2212703007504 -->
<g id="edge34" class="edge">
<title>2212703006688&#45;&gt;2212703007504</title>
<path fill="none" stroke="black" d="M853.42,-360.05C864.85,-365.17 878.77,-371.16 891.5,-376 902.85,-380.31 915.22,-384.57 926.86,-388.4"/>
<polygon fill="black" stroke="black" points="925.7,-391.7 936.3,-391.45 927.86,-385.04 925.7,-391.7"/>
</g>
<!-- 2212703007072&#45;&gt;2212703008512 -->
<g id="edge37" class="edge">
<title>2212703007072&#45;&gt;2212703008512</title>
<path fill="none" stroke="black" d="M855.61,-260.9C906.59,-257 1022.96,-249 1121,-249 1121,-249 1121,-249 1552,-249 1650.87,-249 1767.4,-249.51 1825.89,-249.8"/>
<polygon fill="black" stroke="black" points="1825.6,-253.3 1835.62,-249.85 1825.64,-246.3 1825.6,-253.3"/>
</g>
<!-- 2212703007072&#45;&gt;2212703008080 -->
<g id="edge35" class="edge">
<title>2212703007072&#45;&gt;2212703008080</title>
<path fill="none" stroke="black" d="M852.69,-250.39C864.06,-244.77 878.16,-238.61 891.5,-235 990.5,-208.22 1018.44,-211 1121,-211 1121,-211 1121,-211 1388.75,-211 1492.56,-211 1615,-206.86 1675.51,-204.53"/>
<polygon fill="black" stroke="black" points="1675.39,-208.04 1685.24,-204.15 1675.11,-201.05 1675.39,-208.04"/>
</g>
<!-- 2212703007072&#45;&gt;2212703008992 -->
<g id="edge36" class="edge">
<title>2212703007072&#45;&gt;2212703008992</title>
<path fill="none" stroke="black" d="M855.38,-268.72C862.72,-270.34 871.17,-272.21 880.11,-274.19"/>
<polygon fill="black" stroke="black" points="879.21,-277.57 889.73,-276.32 880.72,-270.74 879.21,-277.57"/>
</g>
<!-- 2212703006880&#45;&gt;2212703006448 -->
<g id="edge44" class="edge">
<title>2212703006880&#45;&gt;2212703006448</title>
<path fill="none" stroke="black" d="M1149.2,-394.99C1196.59,-396.69 1299.73,-400 1386.75,-400 1386.75,-400 1386.75,-400 2125.12,-400 2205.22,-400 2273.22,-320.87 2304.44,-277.56"/>
<polygon fill="black" stroke="black" points="2307.13,-279.82 2310.01,-269.63 2301.4,-275.8 2307.13,-279.82"/>
</g>
<!-- 2212703008800&#45;&gt;2212703009376 -->
<g id="edge48" class="edge">
<title>2212703008800&#45;&gt;2212703009376</title>
<path fill="none" stroke="black" d="M1149.48,-304C1156.65,-304 1164.8,-304 1173.31,-304"/>
<polygon fill="black" stroke="black" points="1173.13,-307.5 1183.13,-304 1173.13,-300.5 1173.13,-307.5"/>
</g>
<!-- 2212703007840&#45;&gt;2212703006448 -->
<g id="edge45" class="edge">
<title>2212703007840&#45;&gt;2212703006448</title>
<path fill="none" stroke="black" d="M2261.15,-250C2268.64,-250 2276.93,-250 2284.95,-250"/>
<polygon fill="black" stroke="black" points="2284.85,-253.5 2294.85,-250 2284.85,-246.5 2284.85,-253.5"/>
</g>
<!-- 2212703008368&#45;&gt;2212703009568 -->
<g id="edge46" class="edge">
<title>2212703008368&#45;&gt;2212703009568</title>
<path fill="none" stroke="black" d="M2041.83,-304C2054.99,-304 2071.15,-304 2085.58,-304"/>
<polygon fill="black" stroke="black" points="2085.18,-307.5 2095.18,-304 2085.18,-300.5 2085.18,-307.5"/>
</g>
<!-- 2212703008368&#45;&gt;2212703125664 -->
<g id="edge47" class="edge">
<title>2212703008368&#45;&gt;2212703125664</title>
<path fill="none" stroke="black" d="M2039.12,-292.15C2050.06,-286.66 2063.45,-279.94 2076.31,-273.49"/>
<polygon fill="black" stroke="black" points="2077.72,-276.7 2085.09,-269.08 2074.58,-270.44 2077.72,-276.7"/>
</g>
<!-- 2212703009184&#45;&gt;2212703010096 -->
<g id="edge54" class="edge">
<title>2212703009184&#45;&gt;2212703010096</title>
<path fill="none" stroke="black" d="M1415.02,-303.35C1422.17,-303.17 1430.39,-302.97 1439.17,-302.75"/>
<polygon fill="black" stroke="black" points="1439.13,-306.25 1449.04,-302.5 1438.96,-299.25 1439.13,-306.25"/>
</g>
<!-- 2212703009184&#45;&gt;2212703009616 -->
<g id="edge53" class="edge">
<title>2212703009184&#45;&gt;2212703009616</title>
<path fill="none" stroke="black" d="M1413.31,-313.69C1424.63,-318 1438.29,-323 1450.75,-327 1471.03,-333.5 1493.95,-339.81 1512.65,-344.69"/>
<polygon fill="black" stroke="black" points="1511.67,-348.05 1522.23,-347.15 1513.41,-341.27 1511.67,-348.05"/>
</g>
<!-- 2212703009904&#45;&gt;2212703010384 -->
<g id="edge57" class="edge">
<title>2212703009904&#45;&gt;2212703010384</title>
<path fill="none" stroke="black" d="M1741.73,-304C1748.79,-304 1756.85,-304 1765.38,-304"/>
<polygon fill="black" stroke="black" points="1765.32,-307.5 1775.32,-304 1765.32,-300.5 1765.32,-307.5"/>
</g>
</g>
</svg>
