<?xml version="1.0" encoding="UTF-8" standalone="no"?>
<!DOCTYPE svg PUBLIC "-//W3C//DTD SVG 1.1//EN"
 "http://www.w3.org/Graphics/SVG/1.1/DTD/svg11.dtd">
<!-- Generated by graphviz version 12.2.0 (20241103.1931)
 -->
<!-- Title: imported_1747829944.7528098 Pages: 1 -->
<svg width="1346pt" height="568pt"
 viewBox="0.00 0.00 1346.00 568.00" xmlns="http://www.w3.org/2000/svg" xmlns:xlink="http://www.w3.org/1999/xlink">
<g id="graph0" class="graph" transform="scale(1 1) rotate(0) translate(4 564)">
<title>imported_1747829944.7528098</title>
<polygon fill="white" stroke="none" points="-4,4 -4,-564 1342,-564 1342,4 -4,4"/>
<!-- 2199753430576 -->
<g id="node1" class="node">
<title>2199753430576</title>
<polygon fill="black" stroke="black" points="1007.5,-314 953.5,-314 953.5,-278 1007.5,-278 1007.5,-314"/>
</g>
<!-- 2199320400256 -->
<g id="node20" class="node">
<title>2199320400256</title>
<ellipse fill="white" stroke="black" cx="1131.25" cy="-296" rx="27" ry="27"/>
<ellipse fill="none" stroke="black" cx="1131.25" cy="-296" rx="31" ry="31"/>
<text text-anchor="start" x="1121.5" y="-283.98" font-family="Times New Roman,serif" font-size="32.00">■</text>
</g>
<!-- 2199753430576&#45;&gt;2199320400256 -->
<g id="edge15" class="edge">
<title>2199753430576&#45;&gt;2199320400256</title>
<path fill="none" stroke="black" d="M1007.75,-296C1030.1,-296 1062.61,-296 1088.52,-296"/>
<polygon fill="black" stroke="black" points="1088.39,-299.5 1098.39,-296 1088.39,-292.5 1088.39,-299.5"/>
</g>
<!-- 2199753429520 -->
<g id="node2" class="node">
<title>2199753429520</title>
<polygon fill="white" stroke="black" points="770.75,-111 596.5,-111 596.5,-75 770.75,-75 770.75,-111"/>
<text text-anchor="middle" x="683.62" y="-88.72" font-family="Times New Roman,serif" font-size="12.00">Notify Result Appeal to Offender</text>
</g>
<!-- 2199753429328 -->
<g id="node18" class="node">
<title>2199753429328</title>
<ellipse fill="white" stroke="black" cx="207" cy="-203" rx="27" ry="27"/>
</g>
<!-- 2199753429520&#45;&gt;2199753429328 -->
<g id="edge5" class="edge">
<title>2199753429520&#45;&gt;2199753429328</title>
<path fill="none" stroke="black" d="M625.55,-111.45C605.17,-117.6 581.95,-124.12 560.5,-129 432.96,-157.99 395.49,-139.16 270,-176 260.71,-178.73 250.97,-182.5 242.04,-186.36"/>
<polygon fill="black" stroke="black" points="240.68,-183.13 233,-190.43 243.56,-189.51 240.68,-183.13"/>
</g>
<!-- 2199753429424 -->
<g id="node19" class="node">
<title>2199753429424</title>
<ellipse fill="white" stroke="black" cx="833.75" cy="-65" rx="27" ry="27"/>
</g>
<!-- 2199753429520&#45;&gt;2199753429424 -->
<g id="edge6" class="edge">
<title>2199753429520&#45;&gt;2199753429424</title>
<path fill="none" stroke="black" d="M771.22,-76.63C779.69,-75.03 787.94,-73.47 795.51,-72.04"/>
<polygon fill="black" stroke="black" points="796.1,-75.49 805.27,-70.19 794.8,-68.61 796.1,-75.49"/>
</g>
<!-- 2199753429808 -->
<g id="node3" class="node">
<title>2199753429808</title>
<polygon fill="white" stroke="black" points="398.88,-560 341.62,-560 341.62,-524 398.88,-524 398.88,-560"/>
<text text-anchor="middle" x="370.25" y="-537.73" font-family="Times New Roman,serif" font-size="12.00">Payment</text>
</g>
<!-- 2199753428800 -->
<g id="node14" class="node">
<title>2199753428800</title>
<ellipse fill="white" stroke="black" cx="207" cy="-434" rx="27" ry="27"/>
</g>
<!-- 2199753429808&#45;&gt;2199753428800 -->
<g id="edge7" class="edge">
<title>2199753429808&#45;&gt;2199753428800</title>
<path fill="none" stroke="black" d="M341.14,-546.65C320.08,-545.09 291.34,-538.34 270,-524 249.94,-510.52 233.65,-488.4 222.81,-469.31"/>
<polygon fill="black" stroke="black" points="226.01,-467.88 218.21,-460.71 219.84,-471.18 226.01,-467.88"/>
</g>
<!-- 2199753429616 -->
<g id="node4" class="node">
<title>2199753429616</title>
<polygon fill="white" stroke="black" points="416.88,-506 323.62,-506 323.62,-470 416.88,-470 416.88,-506"/>
<text text-anchor="middle" x="370.25" y="-483.73" font-family="Times New Roman,serif" font-size="12.00">Appeal to Judge</text>
</g>
<!-- 2199753429616&#45;&gt;2199753428800 -->
<g id="edge2" class="edge">
<title>2199753429616&#45;&gt;2199753428800</title>
<path fill="none" stroke="black" d="M323.37,-485.43C306.43,-481.56 287.18,-476.04 270,-470 259.4,-466.27 248.05,-461.55 238,-456.64"/>
<polygon fill="black" stroke="black" points="239.92,-453.69 229.43,-452.18 236.69,-459.9 239.92,-453.69"/>
</g>
<!-- 2199753429904 -->
<g id="node5" class="node">
<title>2199753429904</title>
<polygon fill="white" stroke="black" points="470.5,-111 270,-111 270,-75 470.5,-75 470.5,-111"/>
<text text-anchor="middle" x="370.25" y="-88.72" font-family="Times New Roman,serif" font-size="12.00">Receive Result Appeal from Prefecture</text>
</g>
<!-- 2199753429136 -->
<g id="node15" class="node">
<title>2199753429136</title>
<ellipse fill="white" stroke="black" cx="533.5" cy="-93" rx="27" ry="27"/>
</g>
<!-- 2199753429904&#45;&gt;2199753429136 -->
<g id="edge8" class="edge">
<title>2199753429904&#45;&gt;2199753429136</title>
<path fill="none" stroke="black" d="M470.62,-93C479.02,-93 487.14,-93 494.58,-93"/>
<polygon fill="black" stroke="black" points="494.49,-96.5 504.49,-93 494.49,-89.5 494.49,-96.5"/>
</g>
<!-- 2199753429712 -->
<g id="node6" class="node">
<title>2199753429712</title>
<polygon fill="white" stroke="black" points="433,-221 307.5,-221 307.5,-185 433,-185 433,-221"/>
<text text-anchor="middle" x="370.25" y="-198.72" font-family="Times New Roman,serif" font-size="12.00">Insert Fine Notification</text>
</g>
<!-- 2199320399536 -->
<g id="node17" class="node">
<title>2199320399536</title>
<ellipse fill="white" stroke="black" cx="533.5" cy="-203" rx="27" ry="27"/>
</g>
<!-- 2199753429712&#45;&gt;2199320399536 -->
<g id="edge4" class="edge">
<title>2199753429712&#45;&gt;2199320399536</title>
<path fill="none" stroke="black" d="M433.13,-203C453.97,-203 476.57,-203 494.95,-203"/>
<polygon fill="black" stroke="black" points="494.84,-206.5 504.84,-203 494.84,-199.5 494.84,-206.5"/>
</g>
<!-- 2199753430000 -->
<g id="node7" class="node">
<title>2199753430000</title>
<polygon fill="white" stroke="black" points="1338,-79 1198.25,-79 1198.25,-43 1338,-43 1338,-79"/>
<text text-anchor="middle" x="1268.12" y="-56.73" font-family="Times New Roman,serif" font-size="12.00">Send Appeal to Prefecture</text>
</g>
<!-- 2199753430000&#45;&gt;2199753429424 -->
<g id="edge9" class="edge">
<title>2199753430000&#45;&gt;2199753429424</title>
<path fill="none" stroke="black" d="M1197.79,-67.79C1185.94,-68.71 1173.75,-69.51 1162.25,-70 1057.33,-74.49 933.34,-69.9 872.41,-66.99"/>
<polygon fill="black" stroke="black" points="872.76,-63.51 862.6,-66.51 872.41,-70.5 872.76,-63.51"/>
</g>
<!-- 2199753430096 -->
<g id="node8" class="node">
<title>2199753430096</title>
<polygon fill="white" stroke="black" points="440.5,-452 300,-452 300,-416 440.5,-416 440.5,-452"/>
<text text-anchor="middle" x="370.25" y="-429.73" font-family="Times New Roman,serif" font-size="12.00">Send for Credit Collection</text>
</g>
<!-- 2199753430096&#45;&gt;2199753428800 -->
<g id="edge11" class="edge">
<title>2199753430096&#45;&gt;2199753428800</title>
<path fill="none" stroke="black" d="M299.56,-440.69C280.81,-440.89 261.25,-440.58 245.05,-439.78"/>
<polygon fill="black" stroke="black" points="245.61,-436.31 235.42,-439.21 245.19,-443.3 245.61,-436.31"/>
</g>
<!-- 2199753430192 -->
<g id="node9" class="node">
<title>2199753430192</title>
<polygon fill="black" stroke="black" points="144,-221 90,-221 90,-185 144,-185 144,-221"/>
</g>
<!-- 2199753430192&#45;&gt;2199753428800 -->
<g id="edge12" class="edge">
<title>2199753430192&#45;&gt;2199753428800</title>
<path fill="none" stroke="black" d="M124.91,-221.13C139.41,-259.2 173.27,-348.07 192.33,-398.11"/>
<polygon fill="black" stroke="black" points="189.02,-399.25 195.85,-407.35 195.56,-396.76 189.02,-399.25"/>
</g>
<!-- 2199753430192&#45;&gt;2199753429328 -->
<g id="edge13" class="edge">
<title>2199753430192&#45;&gt;2199753429328</title>
<path fill="none" stroke="black" d="M144.4,-203C151.89,-203 160.18,-203 168.2,-203"/>
<polygon fill="black" stroke="black" points="168.1,-206.5 178.1,-203 168.1,-199.5 168.1,-206.5"/>
</g>
<!-- 2199753430192&#45;&gt;2199753429424 -->
<g id="edge14" class="edge">
<title>2199753430192&#45;&gt;2199753429424</title>
<path fill="none" stroke="black" d="M128.66,-184.63C159.2,-134.66 252.33,0 369.25,0 369.25,0 369.25,0 534.5,0 631.43,0 742.09,-33.18 797.39,-52.13"/>
<polygon fill="black" stroke="black" points="795.99,-55.34 806.58,-55.33 798.29,-48.73 795.99,-55.34"/>
</g>
<!-- 2199753430288 -->
<g id="node10" class="node">
<title>2199753430288</title>
<polygon fill="white" stroke="black" points="720.88,-245 646.38,-245 646.38,-209 720.88,-209 720.88,-245"/>
<text text-anchor="middle" x="683.62" y="-222.72" font-family="Times New Roman,serif" font-size="12.00">Add penalty</text>
</g>
<!-- 2199753430288&#45;&gt;2199753429328 -->
<g id="edge1" class="edge">
<title>2199753430288&#45;&gt;2199753429328</title>
<path fill="none" stroke="black" d="M646.09,-231.53C621.86,-234.31 589.33,-237.59 560.5,-239 431.48,-245.32 395.94,-258.74 270,-230 260.48,-227.83 250.6,-224.22 241.6,-220.33"/>
<polygon fill="black" stroke="black" points="243.07,-217.15 232.52,-216.16 240.15,-223.51 243.07,-217.15"/>
</g>
<!-- 2199753430384 -->
<g id="node11" class="node">
<title>2199753430384</title>
<polygon fill="white" stroke="black" points="1064.25,-56 896.75,-56 896.75,-20 1064.25,-20 1064.25,-56"/>
<text text-anchor="middle" x="980.5" y="-33.73" font-family="Times New Roman,serif" font-size="12.00">Insert Date Appeal to Prefecture</text>
</g>
<!-- 2199753429232 -->
<g id="node16" class="node">
<title>2199753429232</title>
<ellipse fill="white" stroke="black" cx="1131.25" cy="-34" rx="27" ry="27"/>
</g>
<!-- 2199753430384&#45;&gt;2199753429232 -->
<g id="edge3" class="edge">
<title>2199753430384&#45;&gt;2199753429232</title>
<path fill="none" stroke="black" d="M1064.57,-35.77C1074.36,-35.5 1083.95,-35.25 1092.64,-35.01"/>
<polygon fill="black" stroke="black" points="1092.46,-38.52 1102.36,-34.75 1092.27,-31.52 1092.46,-38.52"/>
</g>
<!-- 2199753430480 -->
<g id="node12" class="node">
<title>2199753430480</title>
<polygon fill="white" stroke="black" points="402.25,-398 338.25,-398 338.25,-362 402.25,-362 402.25,-398"/>
<text text-anchor="middle" x="370.25" y="-375.73" font-family="Times New Roman,serif" font-size="12.00">Send Fine</text>
</g>
<!-- 2199753430480&#45;&gt;2199753428800 -->
<g id="edge10" class="edge">
<title>2199753430480&#45;&gt;2199753428800</title>
<path fill="none" stroke="black" d="M338.05,-394.99C318.32,-401.14 292.4,-408.12 270,-416 261.61,-418.95 252.75,-422.52 244.44,-425.85"/>
<polygon fill="black" stroke="black" points="243.33,-422.53 235.32,-429.46 245.9,-429.04 243.33,-422.53"/>
</g>
<!-- 2199753429088 -->
<g id="node13" class="node">
<title>2199753429088</title>
<ellipse fill="white" stroke="black" cx="27" cy="-203" rx="27" ry="27"/>
<text text-anchor="start" x="16.88" y="-189.82" font-family="Times New Roman,serif" font-size="34.00">●</text>
</g>
<!-- 2199753429088&#45;&gt;2199753430192 -->
<g id="edge23" class="edge">
<title>2199753429088&#45;&gt;2199753430192</title>
<path fill="none" stroke="black" d="M54.4,-203C61.89,-203 70.18,-203 78.2,-203"/>
<polygon fill="black" stroke="black" points="78.1,-206.5 88.1,-203 78.1,-199.5 78.1,-206.5"/>
</g>
<!-- 2199753428800&#45;&gt;2199753430576 -->
<g id="edge20" class="edge">
<title>2199753428800&#45;&gt;2199753430576</title>
<path fill="none" stroke="black" d="M219.48,-409.56C229.82,-390.58 246.93,-365.45 270,-353 372.94,-297.45 415.53,-334 532.5,-334 532.5,-334 532.5,-334 684.62,-334 777.87,-334 886.35,-315.08 942.14,-303.94"/>
<polygon fill="black" stroke="black" points="942.63,-307.41 951.73,-301.99 941.23,-300.55 942.63,-307.41"/>
</g>
<!-- 2199753428800&#45;&gt;2199753429808 -->
<g id="edge17" class="edge">
<title>2199753428800&#45;&gt;2199753429808</title>
<path fill="none" stroke="black" d="M223.89,-455.66C234.72,-471.84 250.6,-492.96 270,-506 287.76,-517.93 310.64,-524.61 329.95,-529.26"/>
<polygon fill="black" stroke="black" points="329.13,-532.66 339.66,-531.51 330.71,-525.84 329.13,-532.66"/>
</g>
<!-- 2199753428800&#45;&gt;2199753429616 -->
<g id="edge16" class="edge">
<title>2199753428800&#45;&gt;2199753429616</title>
<path fill="none" stroke="black" d="M233.91,-437.98C244.9,-442.23 257.93,-447.75 270,-452 284.78,-457.2 301.08,-462 316.12,-466.44"/>
<polygon fill="black" stroke="black" points="314.79,-469.69 325.37,-469.17 316.77,-462.98 314.79,-469.69"/>
</g>
<!-- 2199753428800&#45;&gt;2199753430096 -->
<g id="edge19" class="edge">
<title>2199753428800&#45;&gt;2199753430096</title>
<path fill="none" stroke="black" d="M233.91,-428.89C248.86,-427.8 268.57,-427.26 288.3,-427.25"/>
<polygon fill="black" stroke="black" points="288.03,-430.75 298.05,-427.3 288.07,-423.75 288.03,-430.75"/>
</g>
<!-- 2199753428800&#45;&gt;2199753430480 -->
<g id="edge18" class="edge">
<title>2199753428800&#45;&gt;2199753430480</title>
<path fill="none" stroke="black" d="M228.09,-416.52C240.08,-409.84 255.71,-403.02 270,-398 288.38,-391.54 309.12,-385.68 326.87,-381.78"/>
<polygon fill="black" stroke="black" points="327.46,-385.23 336.56,-379.82 326.07,-378.37 327.46,-385.23"/>
</g>
<!-- 2199753429136&#45;&gt;2199753429520 -->
<g id="edge21" class="edge">
<title>2199753429136&#45;&gt;2199753429520</title>
<path fill="none" stroke="black" d="M560.98,-93C568.04,-93 576.1,-93 584.63,-93"/>
<polygon fill="black" stroke="black" points="584.57,-96.5 594.57,-93 584.57,-89.5 584.57,-96.5"/>
</g>
<!-- 2199753429232&#45;&gt;2199753430000 -->
<g id="edge22" class="edge">
<title>2199753429232&#45;&gt;2199753430000</title>
<path fill="none" stroke="black" d="M1157.94,-39.14C1166.36,-40.83 1176.21,-42.8 1186.48,-44.86"/>
<polygon fill="black" stroke="black" points="1185.78,-48.28 1196.27,-46.82 1187.15,-41.42 1185.78,-48.28"/>
</g>
<!-- 2199320399536&#45;&gt;2199753430288 -->
<g id="edge24" class="edge">
<title>2199320399536&#45;&gt;2199753430288</title>
<path fill="none" stroke="black" d="M560.64,-207.24C581.08,-210.55 610.04,-215.24 634.62,-219.22"/>
<polygon fill="black" stroke="black" points="633.99,-222.66 644.42,-220.81 635.11,-215.75 633.99,-222.66"/>
</g>
<!-- 2199753429328&#45;&gt;2199753430576 -->
<g id="edge27" class="edge">
<title>2199753429328&#45;&gt;2199753430576</title>
<path fill="none" stroke="black" d="M226.35,-222.08C237.86,-232.88 253.59,-245.66 270,-253 377.92,-301.26 414.28,-296 532.5,-296 532.5,-296 532.5,-296 684.62,-296 776.91,-296 885.45,-296 941.58,-296"/>
<polygon fill="black" stroke="black" points="941.55,-299.5 951.55,-296 941.55,-292.5 941.55,-299.5"/>
</g>
<!-- 2199753429328&#45;&gt;2199753429904 -->
<g id="edge26" class="edge">
<title>2199753429328&#45;&gt;2199753429904</title>
<path fill="none" stroke="black" d="M223.31,-181.35C234.77,-166.43 251.59,-147.01 270,-134 279.79,-127.08 290.93,-121.05 302.11,-115.9"/>
<polygon fill="black" stroke="black" points="303.22,-119.23 310.98,-112.02 300.41,-112.82 303.22,-119.23"/>
</g>
<!-- 2199753429328&#45;&gt;2199753429712 -->
<g id="edge25" class="edge">
<title>2199753429328&#45;&gt;2199753429712</title>
<path fill="none" stroke="black" d="M234.27,-203C251.06,-203 273.75,-203 295.72,-203"/>
<polygon fill="black" stroke="black" points="295.6,-206.5 305.6,-203 295.6,-199.5 295.6,-206.5"/>
</g>
<!-- 2199753429424&#45;&gt;2199753430576 -->
<g id="edge30" class="edge">
<title>2199753429424&#45;&gt;2199753430576</title>
<path fill="none" stroke="black" d="M848.89,-87.57C875.48,-130 932.84,-221.54 961.89,-267.89"/>
<polygon fill="black" stroke="black" points="958.89,-269.69 967.16,-276.31 964.82,-265.98 958.89,-269.69"/>
</g>
<!-- 2199753429424&#45;&gt;2199753429904 -->
<g id="edge29" class="edge">
<title>2199753429424&#45;&gt;2199753429904</title>
<path fill="none" stroke="black" d="M806.81,-61.66C751.39,-55.13 617.45,-42.49 506.5,-57 484.03,-59.94 459.99,-65.51 438.5,-71.41"/>
<polygon fill="black" stroke="black" points="437.64,-68.02 428.97,-74.1 439.55,-74.75 437.64,-68.02"/>
</g>
<!-- 2199753429424&#45;&gt;2199753430384 -->
<g id="edge28" class="edge">
<title>2199753429424&#45;&gt;2199753430384</title>
<path fill="none" stroke="black" d="M860.63,-60.17C867.97,-58.8 876.42,-57.23 885.36,-55.56"/>
<polygon fill="black" stroke="black" points="885.78,-59.04 894.97,-53.77 884.5,-52.16 885.78,-59.04"/>
</g>
</g>
</svg>
