<?xml version="1.0" encoding="UTF-8" standalone="no"?>
<!DOCTYPE svg PUBLIC "-//W3C//DTD SVG 1.1//EN"
 "http://www.w3.org/Graphics/SVG/1.1/DTD/svg11.dtd">
<!-- Generated by graphviz version 12.2.0 (20241103.1931)
 -->
<!-- Title: imdf_net_1745564653.403089 Pages: 1 -->
<svg width="1633pt" height="598pt"
 viewBox="0.00 0.00 1632.75 597.96" xmlns="http://www.w3.org/2000/svg" xmlns:xlink="http://www.w3.org/1999/xlink">
<g id="graph0" class="graph" transform="scale(1 1) rotate(0) translate(4 593.96)">
<title>imdf_net_1745564653.403089</title>
<polygon fill="white" stroke="none" points="-4,4 -4,-593.96 1628.75,-593.96 1628.75,4 -4,4"/>
<!-- 2711177202176 -->
<g id="node1" class="node">
<title>2711177202176</title>
<polygon fill="white" stroke="black" points="160.75,-415.96 90,-415.96 90,-379.96 160.75,-379.96 160.75,-415.96"/>
<text text-anchor="middle" x="125.38" y="-393.68" font-family="Times New Roman,serif" font-size="12.00">Create Fine</text>
</g>
<!-- 2711177204960 -->
<g id="node22" class="node">
<title>2711177204960</title>
<ellipse fill="white" stroke="black" cx="223.75" cy="-397.96" rx="27" ry="27"/>
</g>
<!-- 2711177202176&#45;&gt;2711177204960 -->
<g id="edge1" class="edge">
<title>2711177202176&#45;&gt;2711177204960</title>
<path fill="none" stroke="black" d="M161.17,-397.96C168.9,-397.96 177.14,-397.96 184.98,-397.96"/>
<polygon fill="black" stroke="black" points="184.97,-401.46 194.97,-397.96 184.97,-394.46 184.97,-401.46"/>
</g>
<!-- 2711177207936 -->
<g id="node2" class="node">
<title>2711177207936</title>
<polygon fill="white" stroke="black" points="667.25,-222.96 466.75,-222.96 466.75,-186.96 667.25,-186.96 667.25,-222.96"/>
<text text-anchor="middle" x="567" y="-200.68" font-family="Times New Roman,serif" font-size="12.00">Receive Result Appeal from Prefecture</text>
</g>
<!-- 2711177204912 -->
<g id="node18" class="node">
<title>2711177204912</title>
<ellipse fill="white" stroke="black" cx="730.25" cy="-204.96" rx="27" ry="27"/>
</g>
<!-- 2711177207936&#45;&gt;2711177204912 -->
<g id="edge9" class="edge">
<title>2711177207936&#45;&gt;2711177204912</title>
<path fill="none" stroke="black" d="M667.37,-204.96C675.77,-204.96 683.89,-204.96 691.33,-204.96"/>
<polygon fill="black" stroke="black" points="691.24,-208.46 701.24,-204.96 691.24,-201.46 691.24,-208.46"/>
</g>
<!-- 2711177207744 -->
<g id="node3" class="node">
<title>2711177207744</title>
<polygon fill="white" stroke="black" points="629.75,-79.96 504.25,-79.96 504.25,-43.96 629.75,-43.96 629.75,-79.96"/>
<text text-anchor="middle" x="567" y="-57.68" font-family="Times New Roman,serif" font-size="12.00">Insert Fine Notification</text>
</g>
<!-- 2711177207408 -->
<g id="node20" class="node">
<title>2711177207408</title>
<ellipse fill="white" stroke="black" cx="730.25" cy="-56.96" rx="27" ry="27"/>
</g>
<!-- 2711177207744&#45;&gt;2711177207408 -->
<g id="edge5" class="edge">
<title>2711177207744&#45;&gt;2711177207408</title>
<path fill="none" stroke="black" d="M629.88,-60.04C650.72,-59.39 673.32,-58.69 691.7,-58.12"/>
<polygon fill="black" stroke="black" points="691.71,-61.62 701.59,-57.81 691.49,-54.62 691.71,-61.62"/>
</g>
<!-- 2711177208128 -->
<g id="node4" class="node">
<title>2711177208128</title>
<polygon fill="white" stroke="black" points="637.25,-523.96 496.75,-523.96 496.75,-487.96 637.25,-487.96 637.25,-523.96"/>
<text text-anchor="middle" x="567" y="-501.68" font-family="Times New Roman,serif" font-size="12.00">Send for Credit Collection</text>
</g>
<!-- 2711177207216 -->
<g id="node17" class="node">
<title>2711177207216</title>
<ellipse fill="white" stroke="black" cx="403.75" cy="-424.96" rx="27" ry="27"/>
</g>
<!-- 2711177208128&#45;&gt;2711177207216 -->
<g id="edge12" class="edge">
<title>2711177208128&#45;&gt;2711177207216</title>
<path fill="none" stroke="black" d="M496.38,-500.23C486.15,-496.97 475.96,-492.88 466.75,-487.96 451.86,-479.99 437.49,-467.86 426.35,-456.22"/>
<polygon fill="black" stroke="black" points="429.15,-454.1 419.85,-449.03 423.95,-458.79 429.15,-454.1"/>
</g>
<!-- 2711177210240 -->
<g id="node5" class="node">
<title>2711177210240</title>
<polygon fill="white" stroke="black" points="917.62,-98.96 843.12,-98.96 843.12,-62.96 917.62,-62.96 917.62,-98.96"/>
<text text-anchor="middle" x="880.38" y="-76.68" font-family="Times New Roman,serif" font-size="12.00">Add penalty</text>
</g>
<!-- 2711177201312 -->
<g id="node21" class="node">
<title>2711177201312</title>
<ellipse fill="white" stroke="black" cx="403.75" cy="-232.96" rx="27" ry="27"/>
</g>
<!-- 2711177210240&#45;&gt;2711177201312 -->
<g id="edge2" class="edge">
<title>2711177210240&#45;&gt;2711177201312</title>
<path fill="none" stroke="black" d="M842.82,-83.53C768.2,-90.03 594.64,-111.66 466.75,-177.96 453.58,-184.78 440.96,-195.04 430.58,-204.85"/>
<polygon fill="black" stroke="black" points="428.16,-202.32 423.51,-211.83 433.08,-207.3 428.16,-202.32"/>
</g>
<!-- 2711177201360 -->
<g id="node6" class="node">
<title>2711177201360</title>
<polygon fill="black" stroke="black" points="1483.88,-510.96 1429.88,-510.96 1429.88,-474.96 1483.88,-474.96 1483.88,-510.96"/>
</g>
<!-- 2711177201360&#45;&gt;2711177204960 -->
<g id="edge34" class="edge">
<title>2711177201360&#45;&gt;2711177204960</title>
<path fill="none" stroke="black" d="M1429.75,-508.76C1381.75,-536.24 1275.51,-589.96 1178.25,-589.96 402.75,-589.96 402.75,-589.96 402.75,-589.96 318.38,-589.96 262.77,-489.01 238.58,-433.51"/>
<polygon fill="black" stroke="black" points="241.87,-432.3 234.75,-424.45 235.42,-435.02 241.87,-432.3"/>
</g>
<!-- 2711177207120 -->
<g id="node7" class="node">
<title>2711177207120</title>
<polygon fill="black" stroke="black" points="1483.88,-337.96 1429.88,-337.96 1429.88,-301.96 1483.88,-301.96 1483.88,-337.96"/>
</g>
<!-- 2711177206304 -->
<g id="node25" class="node">
<title>2711177206304</title>
<ellipse fill="white" stroke="black" cx="1593.75" cy="-319.96" rx="27" ry="27"/>
<ellipse fill="none" stroke="black" cx="1593.75" cy="-319.96" rx="31" ry="31"/>
<text text-anchor="start" x="1584" y="-307.93" font-family="Times New Roman,serif" font-size="32.00">■</text>
</g>
<!-- 2711177207120&#45;&gt;2711177206304 -->
<g id="edge35" class="edge">
<title>2711177207120&#45;&gt;2711177206304</title>
<path fill="none" stroke="black" d="M1484.2,-319.96C1503.31,-319.96 1529.53,-319.96 1551.42,-319.96"/>
<polygon fill="black" stroke="black" points="1551.22,-323.46 1561.22,-319.96 1551.22,-316.46 1551.22,-323.46"/>
</g>
<!-- 2711177207840 -->
<g id="node8" class="node">
<title>2711177207840</title>
<polygon fill="white" stroke="black" points="595.62,-469.96 538.38,-469.96 538.38,-433.96 595.62,-433.96 595.62,-469.96"/>
<text text-anchor="middle" x="567" y="-447.68" font-family="Times New Roman,serif" font-size="12.00">Payment</text>
</g>
<!-- 2711177207840&#45;&gt;2711177207216 -->
<g id="edge8" class="edge">
<title>2711177207840&#45;&gt;2711177207216</title>
<path fill="none" stroke="black" d="M538.15,-452.54C511.15,-449.85 470.08,-443.13 440.64,-436.69"/>
<polygon fill="black" stroke="black" points="441.6,-433.32 431.07,-434.49 440.03,-440.14 441.6,-433.32"/>
</g>
<!-- 2711177207648 -->
<g id="node9" class="node">
<title>2711177207648</title>
<polygon fill="white" stroke="black" points="613.62,-415.96 520.38,-415.96 520.38,-379.96 613.62,-379.96 613.62,-415.96"/>
<text text-anchor="middle" x="567" y="-393.68" font-family="Times New Roman,serif" font-size="12.00">Appeal to Judge</text>
</g>
<!-- 2711177207648&#45;&gt;2711177207216 -->
<g id="edge3" class="edge">
<title>2711177207648&#45;&gt;2711177207216</title>
<path fill="none" stroke="black" d="M520.19,-411.78C495.5,-416.81 465.43,-421.73 442.17,-424.49"/>
<polygon fill="black" stroke="black" points="442.09,-420.98 432.52,-425.54 442.84,-427.94 442.09,-420.98"/>
</g>
<!-- 2711177208032 -->
<g id="node10" class="node">
<title>2711177208032</title>
<polygon fill="white" stroke="black" points="1526.75,-230.96 1387,-230.96 1387,-194.96 1526.75,-194.96 1526.75,-230.96"/>
<text text-anchor="middle" x="1456.88" y="-208.68" font-family="Times New Roman,serif" font-size="12.00">Send Appeal to Prefecture</text>
</g>
<!-- 2711177204624 -->
<g id="node23" class="node">
<title>2711177204624</title>
<ellipse fill="white" stroke="black" cx="1030.5" cy="-196.96" rx="27" ry="27"/>
</g>
<!-- 2711177208032&#45;&gt;2711177204624 -->
<g id="edge10" class="edge">
<title>2711177208032&#45;&gt;2711177204624</title>
<path fill="none" stroke="black" d="M1386.53,-218.99C1374.68,-219.81 1362.5,-220.52 1351,-220.96 1236.62,-225.31 1206.49,-234.3 1093.5,-215.96 1084.77,-214.54 1075.56,-212.2 1066.98,-209.64"/>
<polygon fill="black" stroke="black" points="1068.2,-206.36 1057.61,-206.67 1066.08,-213.03 1068.2,-206.36"/>
</g>
<!-- 2711177210144 -->
<g id="node11" class="node">
<title>2711177210144</title>
<polygon fill="black" stroke="black" points="340.75,-346.96 286.75,-346.96 286.75,-310.96 340.75,-310.96 340.75,-346.96"/>
</g>
<!-- 2711177210144&#45;&gt;2711177207216 -->
<g id="edge13" class="edge">
<title>2711177210144&#45;&gt;2711177207216</title>
<path fill="none" stroke="black" d="M331.3,-347.01C344.28,-361.17 362.55,-381.1 377.37,-397.27"/>
<polygon fill="black" stroke="black" points="374.4,-399.21 383.74,-404.21 379.56,-394.48 374.4,-399.21"/>
</g>
<!-- 2711177210144&#45;&gt;2711177201312 -->
<g id="edge14" class="edge">
<title>2711177210144&#45;&gt;2711177201312</title>
<path fill="none" stroke="black" d="M331.3,-310.9C344.28,-296.75 362.55,-276.81 377.37,-260.64"/>
<polygon fill="black" stroke="black" points="379.56,-263.44 383.74,-253.7 374.4,-258.71 379.56,-263.44"/>
</g>
<!-- 2711177210144&#45;&gt;2711177204624 -->
<g id="edge15" class="edge">
<title>2711177210144&#45;&gt;2711177204624</title>
<path fill="none" stroke="black" d="M322.79,-310.83C334.26,-285.22 356.21,-237.07 376.75,-196.96 414.28,-123.64 403.35,-87.53 466.75,-34.96 502.53,-5.28 519.51,-1.96 566,-1.96 566,-1.96 566,-1.96 731.25,-1.96 838.76,-1.96 884.52,14.41 967.5,-53.96 999.54,-80.35 1015.44,-126.47 1023.05,-159.19"/>
<polygon fill="black" stroke="black" points="1019.56,-159.62 1025.08,-168.67 1026.4,-158.15 1019.56,-159.62"/>
</g>
<!-- 2711177207600 -->
<g id="node12" class="node">
<title>2711177207600</title>
<polygon fill="white" stroke="black" points="967.5,-222.96 793.25,-222.96 793.25,-186.96 967.5,-186.96 967.5,-222.96"/>
<text text-anchor="middle" x="880.38" y="-200.68" font-family="Times New Roman,serif" font-size="12.00">Notify Result Appeal to Offender</text>
</g>
<!-- 2711177207600&#45;&gt;2711177201312 -->
<g id="edge6" class="edge">
<title>2711177207600&#45;&gt;2711177201312</title>
<path fill="none" stroke="black" d="M828.7,-223.43C807.01,-230.41 781.21,-237.5 757.25,-240.96 643.46,-257.38 506.91,-245.4 442.24,-237.85"/>
<polygon fill="black" stroke="black" points="442.87,-234.4 432.52,-236.68 442.03,-241.35 442.87,-234.4"/>
</g>
<!-- 2711177207600&#45;&gt;2711177204624 -->
<g id="edge7" class="edge">
<title>2711177207600&#45;&gt;2711177204624</title>
<path fill="none" stroke="black" d="M967.97,-200.28C976.26,-199.83 984.34,-199.39 991.77,-198.99"/>
<polygon fill="black" stroke="black" points="991.9,-202.49 1001.7,-198.46 991.52,-195.5 991.9,-202.49"/>
</g>
<!-- 2711177213936 -->
<g id="node13" class="node">
<title>2711177213936</title>
<polygon fill="white" stroke="black" points="1261,-206.96 1093.5,-206.96 1093.5,-170.96 1261,-170.96 1261,-206.96"/>
<text text-anchor="middle" x="1177.25" y="-184.68" font-family="Times New Roman,serif" font-size="12.00">Insert Date Appeal to Prefecture</text>
</g>
<!-- 2711177204576 -->
<g id="node19" class="node">
<title>2711177204576</title>
<ellipse fill="white" stroke="black" cx="1324" cy="-184.96" rx="27" ry="27"/>
</g>
<!-- 2711177213936&#45;&gt;2711177204576 -->
<g id="edge4" class="edge">
<title>2711177213936&#45;&gt;2711177204576</title>
<path fill="none" stroke="black" d="M1261.19,-186.66C1269.65,-186.43 1277.91,-186.2 1285.5,-185.99"/>
<polygon fill="black" stroke="black" points="1285.39,-189.5 1295.29,-185.72 1285.19,-182.5 1285.39,-189.5"/>
</g>
<!-- 2711177213744 -->
<g id="node14" class="node">
<title>2711177213744</title>
<polygon fill="white" stroke="black" points="599,-361.96 535,-361.96 535,-325.96 599,-325.96 599,-361.96"/>
<text text-anchor="middle" x="567" y="-339.68" font-family="Times New Roman,serif" font-size="12.00">Send Fine</text>
</g>
<!-- 2711177213744&#45;&gt;2711177207216 -->
<g id="edge11" class="edge">
<title>2711177213744&#45;&gt;2711177207216</title>
<path fill="none" stroke="black" d="M534.69,-356.41C514.45,-361.7 488.01,-368.59 466.75,-379.96 455.49,-385.97 444.54,-394.38 435.04,-402.38"/>
<polygon fill="black" stroke="black" points="432.84,-399.66 427.57,-408.85 437.42,-404.95 432.84,-399.66"/>
</g>
<!-- 2711177212976 -->
<g id="node15" class="node">
<title>2711177212976</title>
<polygon fill="black" stroke="black" points="1204.25,-322.96 1150.25,-322.96 1150.25,-286.96 1204.25,-286.96 1204.25,-322.96"/>
</g>
<!-- 2711177209520 -->
<g id="node24" class="node">
<title>2711177209520</title>
<ellipse fill="white" stroke="black" cx="1324" cy="-319.96" rx="27" ry="27"/>
</g>
<!-- 2711177212976&#45;&gt;2711177209520 -->
<g id="edge16" class="edge">
<title>2711177212976&#45;&gt;2711177209520</title>
<path fill="none" stroke="black" d="M1204.46,-307.67C1227.11,-310.02 1260.11,-313.44 1285.54,-316.07"/>
<polygon fill="black" stroke="black" points="1285.17,-319.55 1295.48,-317.1 1285.89,-312.59 1285.17,-319.55"/>
</g>
<!-- 2711177209952 -->
<g id="node16" class="node">
<title>2711177209952</title>
<ellipse fill="white" stroke="black" cx="27" cy="-397.96" rx="27" ry="27"/>
<text text-anchor="start" x="16.88" y="-384.78" font-family="Times New Roman,serif" font-size="34.00">●</text>
</g>
<!-- 2711177209952&#45;&gt;2711177202176 -->
<g id="edge36" class="edge">
<title>2711177209952&#45;&gt;2711177202176</title>
<path fill="none" stroke="black" d="M54.33,-397.96C61.76,-397.96 70.06,-397.96 78.28,-397.96"/>
<polygon fill="black" stroke="black" points="78.24,-401.46 88.24,-397.96 78.24,-394.46 78.24,-401.46"/>
</g>
<!-- 2711177207216&#45;&gt;2711177208128 -->
<g id="edge20" class="edge">
<title>2711177207216&#45;&gt;2711177208128</title>
<path fill="none" stroke="black" d="M426.43,-440.07C437.56,-449.92 451.9,-462.01 466.75,-469.96 477.54,-475.73 489.67,-480.34 501.64,-484.18"/>
<polygon fill="black" stroke="black" points="500.51,-487.5 511.1,-487.06 502.55,-480.8 500.51,-487.5"/>
</g>
<!-- 2711177207216&#45;&gt;2711177207840 -->
<g id="edge18" class="edge">
<title>2711177207216&#45;&gt;2711177207840</title>
<path fill="none" stroke="black" d="M431.02,-424.21C457.13,-426.72 497.49,-433.23 527.27,-439.61"/>
<polygon fill="black" stroke="black" points="526.12,-442.94 536.64,-441.7 527.65,-436.1 526.12,-442.94"/>
</g>
<!-- 2711177207216&#45;&gt;2711177207648 -->
<g id="edge17" class="edge">
<title>2711177207216&#45;&gt;2711177207648</title>
<path fill="none" stroke="black" d="M429.59,-415.76C450.62,-410.65 481.57,-404.99 508.68,-401.06"/>
<polygon fill="black" stroke="black" points="509.1,-404.54 518.52,-399.7 508.14,-397.6 509.1,-404.54"/>
</g>
<!-- 2711177207216&#45;&gt;2711177213744 -->
<g id="edge19" class="edge">
<title>2711177207216&#45;&gt;2711177213744</title>
<path fill="none" stroke="black" d="M418.83,-402.01C430.55,-388.19 448.25,-371.85 466.75,-361.96 484.27,-352.59 505.31,-346.26 523.5,-342.84"/>
<polygon fill="black" stroke="black" points="523.87,-346.33 533.19,-341.29 522.77,-339.41 523.87,-346.33"/>
</g>
<!-- 2711177207216&#45;&gt;2711177212976 -->
<g id="edge21" class="edge">
<title>2711177207216&#45;&gt;2711177212976</title>
<path fill="none" stroke="black" d="M411.85,-450.88C420.35,-476.5 437.28,-514.44 466.75,-532.96 565.8,-595.18 612.28,-551.96 729.25,-551.96 729.25,-551.96 729.25,-551.96 881.38,-551.96 1016.43,-551.96 1122.13,-397.8 1160.57,-333.06"/>
<polygon fill="black" stroke="black" points="1163.59,-334.83 1165.59,-324.43 1157.54,-331.31 1163.59,-334.83"/>
</g>
<!-- 2711177204912&#45;&gt;2711177207600 -->
<g id="edge22" class="edge">
<title>2711177204912&#45;&gt;2711177207600</title>
<path fill="none" stroke="black" d="M757.73,-204.96C764.79,-204.96 772.85,-204.96 781.38,-204.96"/>
<polygon fill="black" stroke="black" points="781.32,-208.46 791.32,-204.96 781.32,-201.46 781.32,-208.46"/>
</g>
<!-- 2711177204576&#45;&gt;2711177208032 -->
<g id="edge23" class="edge">
<title>2711177204576&#45;&gt;2711177208032</title>
<path fill="none" stroke="black" d="M1350.86,-190.49C1358.27,-192.07 1366.77,-193.89 1375.66,-195.79"/>
<polygon fill="black" stroke="black" points="1374.64,-199.16 1385.16,-197.83 1376.11,-192.31 1374.64,-199.16"/>
</g>
<!-- 2711177207408&#45;&gt;2711177210240 -->
<g id="edge24" class="edge">
<title>2711177207408&#45;&gt;2711177210240</title>
<path fill="none" stroke="black" d="M757.39,-61.19C777.83,-64.5 806.79,-69.19 831.37,-73.18"/>
<polygon fill="black" stroke="black" points="830.74,-76.62 841.17,-74.76 831.86,-69.71 830.74,-76.62"/>
</g>
<!-- 2711177201312&#45;&gt;2711177207936 -->
<g id="edge26" class="edge">
<title>2711177201312&#45;&gt;2711177207936</title>
<path fill="none" stroke="black" d="M430.66,-228.46C437.94,-227.19 446.34,-225.73 455.33,-224.17"/>
<polygon fill="black" stroke="black" points="455.8,-227.64 465.05,-222.48 454.6,-220.75 455.8,-227.64"/>
</g>
<!-- 2711177201312&#45;&gt;2711177207744 -->
<g id="edge25" class="edge">
<title>2711177201312&#45;&gt;2711177207744</title>
<path fill="none" stroke="black" d="M410.39,-206.47C418.13,-176.27 434.87,-127.3 466.75,-97.96 474.42,-90.89 483.59,-85.19 493.21,-80.59"/>
<polygon fill="black" stroke="black" points="494.59,-83.8 502.38,-76.62 491.82,-77.38 494.59,-83.8"/>
</g>
<!-- 2711177201312&#45;&gt;2711177212976 -->
<g id="edge27" class="edge">
<title>2711177201312&#45;&gt;2711177212976</title>
<path fill="none" stroke="black" d="M428.4,-244.51C439.76,-249.63 453.71,-255.31 466.75,-258.96 580.35,-290.68 611.3,-297.96 729.25,-297.96 729.25,-297.96 729.25,-297.96 881.38,-297.96 973.69,-297.96 1082.21,-301.43 1138.34,-303.48"/>
<polygon fill="black" stroke="black" points="1138.19,-306.98 1148.31,-303.85 1138.45,-299.98 1138.19,-306.98"/>
</g>
<!-- 2711177204960&#45;&gt;2711177210144 -->
<g id="edge28" class="edge">
<title>2711177204960&#45;&gt;2711177210144</title>
<path fill="none" stroke="black" d="M245.6,-381.6C255.95,-373.49 268.69,-363.51 280.27,-354.42"/>
<polygon fill="black" stroke="black" points="282.35,-357.24 288.06,-348.31 278.03,-351.73 282.35,-357.24"/>
</g>
<!-- 2711177204624&#45;&gt;2711177207936 -->
<g id="edge30" class="edge">
<title>2711177204624&#45;&gt;2711177207936</title>
<path fill="none" stroke="black" d="M1004.81,-187.81C993.59,-184.06 980.04,-180.11 967.5,-177.96 863.22,-160.05 763.93,-161.02 703.25,-168.96 680.78,-171.89 656.74,-177.47 635.25,-183.37"/>
<polygon fill="black" stroke="black" points="634.39,-179.97 625.72,-186.06 636.3,-186.71 634.39,-179.97"/>
</g>
<!-- 2711177204624&#45;&gt;2711177213936 -->
<g id="edge29" class="edge">
<title>2711177204624&#45;&gt;2711177213936</title>
<path fill="none" stroke="black" d="M1057.71,-195.51C1064.93,-195.11 1073.2,-194.65 1081.94,-194.17"/>
<polygon fill="black" stroke="black" points="1081.92,-197.67 1091.71,-193.63 1081.53,-190.69 1081.92,-197.67"/>
</g>
<!-- 2711177204624&#45;&gt;2711177212976 -->
<g id="edge31" class="edge">
<title>2711177204624&#45;&gt;2711177212976</title>
<path fill="none" stroke="black" d="M1050.22,-215.92C1062.11,-227.52 1078.11,-242.31 1093.5,-253.96 1108.15,-265.04 1125.31,-275.92 1140.19,-284.77"/>
<polygon fill="black" stroke="black" points="1138.36,-287.76 1148.76,-289.78 1141.89,-281.71 1138.36,-287.76"/>
</g>
<!-- 2711177209520&#45;&gt;2711177201360 -->
<g id="edge32" class="edge">
<title>2711177209520&#45;&gt;2711177201360</title>
<path fill="none" stroke="black" d="M1341.05,-341.17C1364.69,-372.43 1408.91,-430.87 1435.04,-465.41"/>
<polygon fill="black" stroke="black" points="1432.15,-467.4 1440.98,-473.27 1437.74,-463.18 1432.15,-467.4"/>
</g>
<!-- 2711177209520&#45;&gt;2711177207120 -->
<g id="edge33" class="edge">
<title>2711177209520&#45;&gt;2711177207120</title>
<path fill="none" stroke="black" d="M1351.48,-319.96C1370.64,-319.96 1396.81,-319.96 1418.15,-319.96"/>
<polygon fill="black" stroke="black" points="1417.92,-323.46 1427.92,-319.96 1417.92,-316.46 1417.92,-323.46"/>
</g>
</g>
</svg>
