<?xml version="1.0" encoding="UTF-8" standalone="no"?>
<!DOCTYPE svg PUBLIC "-//W3C//DTD SVG 1.1//EN"
 "http://www.w3.org/Graphics/SVG/1.1/DTD/svg11.dtd">
<!-- Generated by graphviz version 12.2.0 (20241103.1931)
 -->
<!-- Title: imsfs Pages: 1 -->
<svg width="597pt" height="550pt"
 viewBox="0.00 0.00 597.00 549.64" xmlns="http://www.w3.org/2000/svg" xmlns:xlink="http://www.w3.org/1999/xlink">
<g id="graph0" class="graph" transform="scale(1 1) rotate(0) translate(4 545.64)">
<title>imsfs</title>
<polygon fill="white" stroke="none" points="-4,4 -4,-545.64 593,-545.64 593,4 -4,4"/>
<!-- 2876522590848 -->
<g id="node1" class="node">
<title>2876522590848</title>
<polygon fill="white" stroke="black" points="164.5,-529 90,-529 90,-493 164.5,-493 164.5,-529"/>
<text text-anchor="middle" x="127.25" y="-506.73" font-family="Times New Roman,serif" font-size="12.00">Add penalty</text>
</g>
<!-- 2876611157664 -->
<g id="node16" class="node">
<title>2876611157664</title>
<ellipse fill="white" stroke="black" cx="227.5" cy="-472" rx="27" ry="27"/>
</g>
<!-- 2876522590848&#45;&gt;2876611157664 -->
<g id="edge1" class="edge">
<title>2876522590848&#45;&gt;2876611157664</title>
<path fill="none" stroke="black" d="M164.83,-496.48C173.5,-493.04 182.73,-489.37 191.34,-485.96"/>
<polygon fill="black" stroke="black" points="192.4,-489.3 200.41,-482.36 189.82,-482.79 192.4,-489.3"/>
</g>
<!-- 2876518274176 -->
<g id="node2" class="node">
<title>2876518274176</title>
<polygon fill="white" stroke="black" points="477.88,-144 303.62,-144 303.62,-108 477.88,-108 477.88,-144"/>
<text text-anchor="middle" x="390.75" y="-121.72" font-family="Times New Roman,serif" font-size="12.00">Notify Result Appeal to Offender</text>
</g>
<!-- 2876518269184 -->
<g id="node14" class="node">
<title>2876518269184</title>
<ellipse fill="white" stroke="black" cx="227.5" cy="-207" rx="27" ry="27"/>
</g>
<!-- 2876518274176&#45;&gt;2876518269184 -->
<g id="edge5" class="edge">
<title>2876518274176&#45;&gt;2876518269184</title>
<path fill="none" stroke="black" d="M336.3,-144.46C320.96,-148.9 304.59,-154.46 290.5,-162 279.24,-168.02 268.29,-176.42 258.79,-184.43"/>
<polygon fill="black" stroke="black" points="256.59,-181.7 251.32,-190.89 261.17,-187 256.59,-181.7"/>
</g>
<!-- 2876522590656 -->
<g id="node3" class="node">
<title>2876522590656</title>
<polygon fill="white" stroke="black" points="437.38,-90 344.12,-90 344.12,-54 437.38,-54 437.38,-90"/>
<text text-anchor="middle" x="390.75" y="-67.72" font-family="Times New Roman,serif" font-size="12.00">Appeal to Judge</text>
</g>
<!-- 2876522590656&#45;&gt;2876518269184 -->
<g id="edge2" class="edge">
<title>2876522590656&#45;&gt;2876518269184</title>
<path fill="none" stroke="black" d="M343.64,-85.2C325.63,-89.63 305.69,-96.27 290.5,-108 269.13,-124.51 253.85,-150.61 243.81,-171.98"/>
<polygon fill="black" stroke="black" points="240.69,-170.4 239.79,-180.95 247.07,-173.26 240.69,-170.4"/>
</g>
<!-- 2876518274080 -->
<g id="node4" class="node">
<title>2876518274080</title>
<polygon fill="white" stroke="black" points="419.38,-522 362.12,-522 362.12,-486 419.38,-486 419.38,-522"/>
<text text-anchor="middle" x="390.75" y="-499.73" font-family="Times New Roman,serif" font-size="12.00">Payment</text>
</g>
<!-- 2876611157376 -->
<g id="node15" class="node">
<title>2876611157376</title>
<ellipse fill="white" stroke="black" cx="558" cy="-504" rx="27" ry="27"/>
</g>
<!-- 2876518274080&#45;&gt;2876611157376 -->
<g id="edge6" class="edge">
<title>2876518274080&#45;&gt;2876611157376</title>
<path fill="none" stroke="black" d="M419.78,-498.78C447.26,-496.94 489.32,-496.76 519.62,-498.25"/>
<polygon fill="black" stroke="black" points="519.31,-501.73 529.5,-498.84 519.73,-494.75 519.31,-501.73"/>
</g>
<!-- 2876518274080&#45;&gt;2876611157664 -->
<g id="edge7" class="edge">
<title>2876518274080&#45;&gt;2876611157664</title>
<path fill="none" stroke="black" d="M361.77,-503.71C334.66,-500.15 293.43,-492.12 264.02,-484.76"/>
<polygon fill="black" stroke="black" points="265.01,-481.4 254.45,-482.25 263.24,-488.17 265.01,-481.4"/>
</g>
<!-- 2876518273984 -->
<g id="node5" class="node">
<title>2876518273984</title>
<polygon fill="white" stroke="black" points="491,-36 290.5,-36 290.5,0 491,0 491,-36"/>
<text text-anchor="middle" x="390.75" y="-13.72" font-family="Times New Roman,serif" font-size="12.00">Receive Result Appeal from Prefecture</text>
</g>
<!-- 2876518273984&#45;&gt;2876518269184 -->
<g id="edge8" class="edge">
<title>2876518273984&#45;&gt;2876518269184</title>
<path fill="none" stroke="black" d="M321.08,-36.41C309.91,-40.55 299.17,-46.15 290.5,-54 257.2,-84.13 241.65,-134.14 234.48,-168.86"/>
<polygon fill="black" stroke="black" points="231.08,-168.03 232.64,-178.51 237.95,-169.34 231.08,-168.03"/>
</g>
<!-- 2876518273888 -->
<g id="node6" class="node">
<title>2876518273888</title>
<polygon fill="white" stroke="black" points="460.62,-360 320.88,-360 320.88,-324 460.62,-324 460.62,-360"/>
<text text-anchor="middle" x="390.75" y="-337.73" font-family="Times New Roman,serif" font-size="12.00">Send Appeal to Prefecture</text>
</g>
<!-- 2876518273888&#45;&gt;2876518269184 -->
<g id="edge9" class="edge">
<title>2876518273888&#45;&gt;2876518269184</title>
<path fill="none" stroke="black" d="M320.5,-339.6C309.77,-335.92 299.33,-330.82 290.5,-324 264.75,-304.11 247.85,-270.28 238.29,-243.95"/>
<polygon fill="black" stroke="black" points="241.65,-242.96 235.13,-234.61 235.02,-245.21 241.65,-242.96"/>
</g>
<!-- 2876518270816 -->
<g id="node7" class="node">
<title>2876518270816</title>
<polygon fill="white" stroke="black" points="461,-306 320.5,-306 320.5,-270 461,-270 461,-306"/>
<text text-anchor="middle" x="390.75" y="-283.73" font-family="Times New Roman,serif" font-size="12.00">Send for Credit Collection</text>
</g>
<!-- 2876518270816&#45;&gt;2876518269184 -->
<g id="edge11" class="edge">
<title>2876518270816&#45;&gt;2876518269184</title>
<path fill="none" stroke="black" d="M320.13,-282.27C309.9,-279.01 299.71,-274.93 290.5,-270 275.61,-262.04 261.24,-249.9 250.1,-238.27"/>
<polygon fill="black" stroke="black" points="252.9,-236.15 243.6,-231.07 247.7,-240.84 252.9,-236.15"/>
</g>
<!-- 2876518270240 -->
<g id="node8" class="node">
<title>2876518270240</title>
<polygon fill="black" stroke="black" points="154.25,-370 100.25,-370 100.25,-334 154.25,-334 154.25,-370"/>
</g>
<!-- 2876518270240&#45;&gt;2876518269184 -->
<g id="edge12" class="edge">
<title>2876518270240&#45;&gt;2876518269184</title>
<path fill="none" stroke="black" d="M140.69,-333.64C156.93,-309.67 185.59,-267.38 205.29,-238.31"/>
<polygon fill="black" stroke="black" points="208.03,-240.5 210.74,-230.25 202.24,-236.57 208.03,-240.5"/>
</g>
<!-- 2876518270240&#45;&gt;2876611157664 -->
<g id="edge13" class="edge">
<title>2876518270240&#45;&gt;2876611157664</title>
<path fill="none" stroke="black" d="M143.39,-370.49C159.09,-389.67 183.89,-419.96 202.32,-442.47"/>
<polygon fill="black" stroke="black" points="199.53,-444.58 208.57,-450.1 204.95,-440.15 199.53,-444.58"/>
</g>
<!-- 2876518273600 -->
<g id="node9" class="node">
<title>2876518273600</title>
<polygon fill="black" stroke="black" points="417.75,-414 363.75,-414 363.75,-378 417.75,-378 417.75,-414"/>
</g>
<!-- 2876518271536 -->
<g id="node17" class="node">
<title>2876518271536</title>
<ellipse fill="white" stroke="black" cx="558" cy="-396" rx="27" ry="27"/>
<ellipse fill="none" stroke="black" cx="558" cy="-396" rx="31" ry="31"/>
<text text-anchor="start" x="548.25" y="-383.98" font-family="Times New Roman,serif" font-size="32.00">■</text>
</g>
<!-- 2876518273600&#45;&gt;2876518271536 -->
<g id="edge14" class="edge">
<title>2876518273600&#45;&gt;2876518271536</title>
<path fill="none" stroke="black" d="M417.93,-396C444.16,-396 484.92,-396 515.55,-396"/>
<polygon fill="black" stroke="black" points="515.22,-399.5 525.22,-396 515.22,-392.5 515.22,-399.5"/>
</g>
<!-- 2876518273264 -->
<g id="node10" class="node">
<title>2876518273264</title>
<polygon fill="white" stroke="black" points="453.5,-468 328,-468 328,-432 453.5,-432 453.5,-468"/>
<text text-anchor="middle" x="390.75" y="-445.73" font-family="Times New Roman,serif" font-size="12.00">Insert Fine Notification</text>
</g>
<!-- 2876518273264&#45;&gt;2876611157376 -->
<g id="edge4" class="edge">
<title>2876518273264&#45;&gt;2876611157376</title>
<path fill="none" stroke="black" d="M453.78,-465.62C466.19,-469.09 479.08,-472.96 491,-477 501.33,-480.5 512.37,-484.8 522.41,-488.92"/>
<polygon fill="black" stroke="black" points="520.85,-492.06 531.43,-492.69 523.55,-485.6 520.85,-492.06"/>
</g>
<!-- 2876518273168 -->
<g id="node11" class="node">
<title>2876518273168</title>
<polygon fill="white" stroke="black" points="474.5,-252 307,-252 307,-216 474.5,-216 474.5,-252"/>
<text text-anchor="middle" x="390.75" y="-229.72" font-family="Times New Roman,serif" font-size="12.00">Insert Date Appeal to Prefecture</text>
</g>
<!-- 2876518273168&#45;&gt;2876518269184 -->
<g id="edge3" class="edge">
<title>2876518273168&#45;&gt;2876518269184</title>
<path fill="none" stroke="black" d="M306.8,-226.86C291.84,-224.32 277,-221.49 264.32,-218.72"/>
<polygon fill="black" stroke="black" points="265.35,-215.36 254.82,-216.53 263.78,-222.19 265.35,-215.36"/>
</g>
<!-- 2876518269424 -->
<g id="node12" class="node">
<title>2876518269424</title>
<polygon fill="white" stroke="black" points="422.75,-198 358.75,-198 358.75,-162 422.75,-162 422.75,-198"/>
<text text-anchor="middle" x="390.75" y="-175.72" font-family="Times New Roman,serif" font-size="12.00">Send Fine</text>
</g>
<!-- 2876518269424&#45;&gt;2876518269184 -->
<g id="edge10" class="edge">
<title>2876518269424&#45;&gt;2876518269184</title>
<path fill="none" stroke="black" d="M358.52,-190.7C332.12,-196.7 294.21,-203.17 266.13,-206.51"/>
<polygon fill="black" stroke="black" points="265.84,-203.02 256.27,-207.58 266.59,-209.98 265.84,-203.02"/>
</g>
<!-- 2876522590992 -->
<g id="node13" class="node">
<title>2876522590992</title>
<ellipse fill="white" stroke="black" cx="27" cy="-352" rx="27" ry="27"/>
<text text-anchor="start" x="16.88" y="-338.82" font-family="Times New Roman,serif" font-size="34.00">●</text>
</g>
<!-- 2876522590992&#45;&gt;2876518270240 -->
<g id="edge23" class="edge">
<title>2876522590992&#45;&gt;2876518270240</title>
<path fill="none" stroke="black" d="M54.33,-352C64.79,-352 77.03,-352 88.41,-352"/>
<polygon fill="black" stroke="black" points="88.33,-355.5 98.33,-352 88.33,-348.5 88.33,-355.5"/>
</g>
<!-- 2876518269184&#45;&gt;2876518274176 -->
<g id="edge17" class="edge">
<title>2876518269184&#45;&gt;2876518274176</title>
<path fill="none" stroke="black" d="M242.58,-184.05C254.3,-170.23 272,-153.9 290.5,-144 291.4,-143.52 292.3,-143.05 293.21,-142.59"/>
<polygon fill="black" stroke="black" points="294.3,-145.94 301.9,-138.56 291.36,-139.59 294.3,-145.94"/>
</g>
<!-- 2876518269184&#45;&gt;2876522590656 -->
<g id="edge15" class="edge">
<title>2876518269184&#45;&gt;2876522590656</title>
<path fill="none" stroke="black" d="M234.64,-180.82C243.2,-153.67 261.07,-112.73 290.5,-90 302.61,-80.65 317.72,-74.53 332.48,-70.87"/>
<polygon fill="black" stroke="black" points="333.09,-74.32 342.16,-68.85 331.66,-67.47 333.09,-74.32"/>
</g>
<!-- 2876518269184&#45;&gt;2876518273984 -->
<g id="edge18" class="edge">
<title>2876518269184&#45;&gt;2876518273984</title>
<path fill="none" stroke="black" d="M230.59,-179.86C234.81,-144.38 247.17,-82.89 282.19,-44.31"/>
<polygon fill="black" stroke="black" points="284.38,-47.07 288.95,-37.51 279.42,-42.14 284.38,-47.07"/>
</g>
<!-- 2876518269184&#45;&gt;2876518273888 -->
<g id="edge19" class="edge">
<title>2876518269184&#45;&gt;2876518273888</title>
<path fill="none" stroke="black" d="M239.17,-231.67C248.87,-254.29 265.52,-286.71 290.5,-306 297.73,-311.59 306.04,-316.02 314.71,-319.61"/>
<polygon fill="black" stroke="black" points="313.4,-322.85 323.99,-323.06 315.84,-316.29 313.4,-322.85"/>
</g>
<!-- 2876518269184&#45;&gt;2876518270816 -->
<g id="edge21" class="edge">
<title>2876518269184&#45;&gt;2876518270816</title>
<path fill="none" stroke="black" d="M250.18,-222.11C261.31,-231.96 275.65,-244.06 290.5,-252 301.29,-257.77 313.42,-262.39 325.39,-266.22"/>
<polygon fill="black" stroke="black" points="324.26,-269.54 334.85,-269.1 326.3,-262.84 324.26,-269.54"/>
</g>
<!-- 2876518269184&#45;&gt;2876518273600 -->
<g id="edge22" class="edge">
<title>2876518269184&#45;&gt;2876518273600</title>
<path fill="none" stroke="black" d="M231.37,-234.16C236.63,-270.2 251.2,-333.44 290.5,-369 307.29,-384.19 331.8,-390.96 352.27,-393.92"/>
<polygon fill="black" stroke="black" points="351.61,-397.37 361.94,-395.05 352.42,-390.41 351.61,-397.37"/>
</g>
<!-- 2876518269184&#45;&gt;2876518273168 -->
<g id="edge16" class="edge">
<title>2876518269184&#45;&gt;2876518273168</title>
<path fill="none" stroke="black" d="M254.77,-206.26C269.46,-207.67 288.67,-210.35 307.97,-213.56"/>
<polygon fill="black" stroke="black" points="307.36,-217 317.81,-215.25 308.55,-210.11 307.36,-217"/>
</g>
<!-- 2876518269184&#45;&gt;2876518269424 -->
<g id="edge20" class="edge">
<title>2876518269184&#45;&gt;2876518269424</title>
<path fill="none" stroke="black" d="M253.34,-197.8C278.3,-191.74 317.24,-184.89 347.14,-181.1"/>
<polygon fill="black" stroke="black" points="347.49,-184.58 357.01,-179.94 346.67,-177.63 347.49,-184.58"/>
</g>
<!-- 2876611157376&#45;&gt;2876522590848 -->
<g id="edge24" class="edge">
<title>2876611157376&#45;&gt;2876522590848</title>
<path fill="none" stroke="black" d="M533.56,-516.2C521.25,-521.92 505.7,-528.11 491,-531 379.76,-552.87 245.9,-534.17 176.02,-521.09"/>
<polygon fill="black" stroke="black" points="176.93,-517.7 166.45,-519.25 175.61,-524.57 176.93,-517.7"/>
</g>
<!-- 2876611157376&#45;&gt;2876518274080 -->
<g id="edge25" class="edge">
<title>2876611157376&#45;&gt;2876518274080</title>
<path fill="none" stroke="black" d="M531.01,-509.07C504.17,-511.01 461.95,-511.27 431.02,-509.85"/>
<polygon fill="black" stroke="black" points="431.47,-506.36 421.29,-509.3 431.08,-513.35 431.47,-506.36"/>
</g>
<!-- 2876611157664&#45;&gt;2876518274080 -->
<g id="edge27" class="edge">
<title>2876611157664&#45;&gt;2876518274080</title>
<path fill="none" stroke="black" d="M254.77,-472.07C280.88,-475.39 321.24,-483.15 351.02,-490.45"/>
<polygon fill="black" stroke="black" points="349.85,-493.76 360.4,-492.84 351.58,-486.98 349.85,-493.76"/>
</g>
<!-- 2876611157664&#45;&gt;2876518273600 -->
<g id="edge28" class="edge">
<title>2876611157664&#45;&gt;2876518273600</title>
<path fill="none" stroke="black" d="M247.74,-453.43C259.32,-443.16 274.82,-430.91 290.5,-423 309.87,-413.23 333.2,-406.65 352.38,-402.44"/>
<polygon fill="black" stroke="black" points="352.84,-405.92 361.93,-400.47 351.43,-399.06 352.84,-405.92"/>
</g>
<!-- 2876611157664&#45;&gt;2876518273264 -->
<g id="edge26" class="edge">
<title>2876611157664&#45;&gt;2876518273264</title>
<path fill="none" stroke="black" d="M254.41,-468.47C271.32,-466.16 294.3,-463.02 316.53,-459.99"/>
<polygon fill="black" stroke="black" points="316.76,-463.49 326.2,-458.67 315.82,-456.55 316.76,-463.49"/>
</g>
</g>
</svg>
