<?xml version="1.0" encoding="UTF-8" standalone="no"?>
<!DOCTYPE svg PUBLIC "-//W3C//DTD SVG 1.1//EN"
 "http://www.w3.org/Graphics/SVG/1.1/DTD/svg11.dtd">
<!-- Generated by graphviz version 12.2.0 (20241103.1931)
 -->
<!-- Title: imdf_net_1747827986.5216796 Pages: 1 -->
<svg width="884pt" height="582pt"
 viewBox="0.00 0.00 883.75 581.83" xmlns="http://www.w3.org/2000/svg" xmlns:xlink="http://www.w3.org/1999/xlink">
<g id="graph0" class="graph" transform="scale(1 1) rotate(0) translate(4 577.83)">
<title>imdf_net_1747827986.5216796</title>
<polygon fill="white" stroke="none" points="-4,4 -4,-577.83 879.75,-577.83 879.75,4 -4,4"/>
<!-- 2876611151808 -->
<g id="node1" class="node">
<title>2876611151808</title>
<polygon fill="white" stroke="black" points="160.75,-248.83 90,-248.83 90,-212.83 160.75,-212.83 160.75,-248.83"/>
<text text-anchor="middle" x="125.38" y="-226.56" font-family="Times New Roman,serif" font-size="12.00">Create Fine</text>
</g>
<!-- 2876611164624 -->
<g id="node18" class="node">
<title>2876611164624</title>
<ellipse fill="white" stroke="black" cx="223.75" cy="-230.83" rx="27" ry="27"/>
</g>
<!-- 2876611151808&#45;&gt;2876611164624 -->
<g id="edge1" class="edge">
<title>2876611151808&#45;&gt;2876611164624</title>
<path fill="none" stroke="black" d="M161.17,-230.83C168.9,-230.83 177.14,-230.83 184.98,-230.83"/>
<polygon fill="black" stroke="black" points="184.97,-234.33 194.97,-230.83 184.97,-227.33 184.97,-234.33"/>
</g>
<!-- 2876524147424 -->
<g id="node2" class="node">
<title>2876524147424</title>
<polygon fill="white" stroke="black" points="875.75,-49.83 801.25,-49.83 801.25,-13.83 875.75,-13.83 875.75,-49.83"/>
<text text-anchor="middle" x="838.5" y="-27.56" font-family="Times New Roman,serif" font-size="12.00">Add penalty</text>
</g>
<!-- 2876524147136 -->
<g id="node17" class="node">
<title>2876524147136</title>
<ellipse fill="white" stroke="black" cx="403.75" cy="-122.83" rx="27" ry="27"/>
</g>
<!-- 2876524147424&#45;&gt;2876524147136 -->
<g id="edge2" class="edge">
<title>2876524147424&#45;&gt;2876524147136</title>
<path fill="none" stroke="black" d="M800.97,-21.72C731.06,-4.53 575.62,23.02 466.75,-36.83 446.2,-48.13 430.75,-69.49 420.41,-88.09"/>
<polygon fill="black" stroke="black" points="417.43,-86.23 415.89,-96.72 423.63,-89.48 417.43,-86.23"/>
</g>
<!-- 2876524148576 -->
<g id="node3" class="node">
<title>2876524148576</title>
<polygon fill="black" stroke="black" points="340.75,-248.83 286.75,-248.83 286.75,-212.83 340.75,-212.83 340.75,-248.83"/>
</g>
<!-- 2876524146944 -->
<g id="node15" class="node">
<title>2876524146944</title>
<ellipse fill="white" stroke="black" cx="403.75" cy="-366.83" rx="27" ry="27"/>
</g>
<!-- 2876524148576&#45;&gt;2876524146944 -->
<g id="edge13" class="edge">
<title>2876524148576&#45;&gt;2876524146944</title>
<path fill="none" stroke="black" d="M326.62,-249.18C340.76,-271.04 364.65,-307.95 381.9,-334.61"/>
<polygon fill="black" stroke="black" points="378.95,-336.5 387.33,-343 384.83,-332.7 378.95,-336.5"/>
</g>
<!-- 2876524148576&#45;&gt;2876524147136 -->
<g id="edge14" class="edge">
<title>2876524148576&#45;&gt;2876524147136</title>
<path fill="none" stroke="black" d="M329.68,-212.51C343.14,-195.99 363.17,-171.41 378.86,-152.15"/>
<polygon fill="black" stroke="black" points="381.38,-154.6 384.99,-144.63 375.96,-150.18 381.38,-154.6"/>
</g>
<!-- 2876524148672 -->
<g id="node4" class="node">
<title>2876524148672</title>
<polygon fill="black" stroke="black" points="594,-195.83 540,-195.83 540,-159.83 594,-159.83 594,-195.83"/>
</g>
<!-- 2876611164336 -->
<g id="node19" class="node">
<title>2876611164336</title>
<ellipse fill="white" stroke="black" cx="734.25" cy="-190.83" rx="27" ry="27"/>
<ellipse fill="none" stroke="black" cx="734.25" cy="-190.83" rx="31" ry="31"/>
<text text-anchor="start" x="724.5" y="-178.81" font-family="Times New Roman,serif" font-size="32.00">■</text>
</g>
<!-- 2876524148672&#45;&gt;2876611164336 -->
<g id="edge15" class="edge">
<title>2876524148672&#45;&gt;2876611164336</title>
<path fill="none" stroke="black" d="M594.18,-179.89C620.41,-181.96 661.17,-185.16 691.8,-187.57"/>
<polygon fill="black" stroke="black" points="691.23,-191.04 701.48,-188.33 691.78,-184.06 691.23,-191.04"/>
</g>
<!-- 2876524148768 -->
<g id="node5" class="node">
<title>2876524148768</title>
<polygon fill="white" stroke="black" points="629.75,-81.83 504.25,-81.83 504.25,-45.83 629.75,-45.83 629.75,-81.83"/>
<text text-anchor="middle" x="567" y="-59.56" font-family="Times New Roman,serif" font-size="12.00">Insert Fine Notification</text>
</g>
<!-- 2876524147040 -->
<g id="node16" class="node">
<title>2876524147040</title>
<ellipse fill="white" stroke="black" cx="734.25" cy="-58.83" rx="27" ry="27"/>
</g>
<!-- 2876524148768&#45;&gt;2876524147040 -->
<g id="edge5" class="edge">
<title>2876524148768&#45;&gt;2876524147040</title>
<path fill="none" stroke="black" d="M630,-61.96C652,-61.29 676.07,-60.56 695.44,-59.98"/>
<polygon fill="black" stroke="black" points="695.43,-63.48 705.32,-59.68 695.22,-56.48 695.43,-63.48"/>
</g>
<!-- 2876524148864 -->
<g id="node6" class="node">
<title>2876524148864</title>
<polygon fill="white" stroke="black" points="650.75,-357.83 483.25,-357.83 483.25,-321.83 650.75,-321.83 650.75,-357.83"/>
<text text-anchor="middle" x="567" y="-335.56" font-family="Times New Roman,serif" font-size="12.00">Insert Date Appeal to Prefecture</text>
</g>
<!-- 2876524148864&#45;&gt;2876524146944 -->
<g id="edge4" class="edge">
<title>2876524148864&#45;&gt;2876524146944</title>
<path fill="none" stroke="black" d="M495.55,-358.33C477.11,-361.6 457.94,-364.5 442,-366.39"/>
<polygon fill="black" stroke="black" points="442.09,-362.86 432.52,-367.41 442.84,-369.82 442.09,-362.86"/>
</g>
<!-- 2876524148960 -->
<g id="node7" class="node">
<title>2876524148960</title>
<polygon fill="white" stroke="black" points="599,-303.83 535,-303.83 535,-267.83 599,-267.83 599,-303.83"/>
<text text-anchor="middle" x="567" y="-281.56" font-family="Times New Roman,serif" font-size="12.00">Send Fine</text>
</g>
<!-- 2876524148960&#45;&gt;2876524146944 -->
<g id="edge11" class="edge">
<title>2876524148960&#45;&gt;2876524146944</title>
<path fill="none" stroke="black" d="M534.69,-298.29C514.45,-303.58 488.01,-310.47 466.75,-321.83 455.49,-327.85 444.54,-336.26 435.04,-344.26"/>
<polygon fill="black" stroke="black" points="432.84,-341.54 427.57,-350.73 437.42,-346.83 432.84,-341.54"/>
</g>
<!-- 2876524147472 -->
<g id="node8" class="node">
<title>2876524147472</title>
<polygon fill="white" stroke="black" points="654.12,-249.83 479.88,-249.83 479.88,-213.83 654.12,-213.83 654.12,-249.83"/>
<text text-anchor="middle" x="567" y="-227.56" font-family="Times New Roman,serif" font-size="12.00">Notify Result Appeal to Offender</text>
</g>
<!-- 2876524147472&#45;&gt;2876524146944 -->
<g id="edge6" class="edge">
<title>2876524147472&#45;&gt;2876524146944</title>
<path fill="none" stroke="black" d="M501.66,-250.25C489.23,-254.4 476.93,-259.98 466.75,-267.83 445.38,-284.34 430.1,-310.45 420.06,-331.81"/>
<polygon fill="black" stroke="black" points="416.94,-330.23 416.04,-340.79 423.32,-333.1 416.94,-330.23"/>
</g>
<!-- 2876524147760 -->
<g id="node9" class="node">
<title>2876524147760</title>
<polygon fill="white" stroke="black" points="667.25,-573.83 466.75,-573.83 466.75,-537.83 667.25,-537.83 667.25,-573.83"/>
<text text-anchor="middle" x="567" y="-551.56" font-family="Times New Roman,serif" font-size="12.00">Receive Result Appeal from Prefecture</text>
</g>
<!-- 2876524147760&#45;&gt;2876524146944 -->
<g id="edge9" class="edge">
<title>2876524147760&#45;&gt;2876524146944</title>
<path fill="none" stroke="black" d="M466.27,-537.39C428.99,-503.27 414.14,-444.18 408.34,-405.15"/>
<polygon fill="black" stroke="black" points="411.84,-404.92 407.04,-395.47 404.9,-405.85 411.84,-404.92"/>
</g>
<!-- 2876524147568 -->
<g id="node10" class="node">
<title>2876524147568</title>
<polygon fill="white" stroke="black" points="613.62,-519.83 520.38,-519.83 520.38,-483.83 613.62,-483.83 613.62,-519.83"/>
<text text-anchor="middle" x="567" y="-497.56" font-family="Times New Roman,serif" font-size="12.00">Appeal to Judge</text>
</g>
<!-- 2876524147568&#45;&gt;2876524146944 -->
<g id="edge3" class="edge">
<title>2876524147568&#45;&gt;2876524146944</title>
<path fill="none" stroke="black" d="M519.89,-505.3C501.88,-502.21 481.94,-495.57 466.75,-483.83 441,-463.95 424.1,-430.12 414.54,-403.78"/>
<polygon fill="black" stroke="black" points="417.9,-402.8 411.38,-394.45 411.27,-405.04 417.9,-402.8"/>
</g>
<!-- 2876524147664 -->
<g id="node11" class="node">
<title>2876524147664</title>
<polygon fill="white" stroke="black" points="867.12,-103.83 809.88,-103.83 809.88,-67.83 867.12,-67.83 867.12,-103.83"/>
<text text-anchor="middle" x="838.5" y="-81.56" font-family="Times New Roman,serif" font-size="12.00">Payment</text>
</g>
<!-- 2876524147664&#45;&gt;2876524147040 -->
<g id="edge7" class="edge">
<title>2876524147664&#45;&gt;2876524147040</title>
<path fill="none" stroke="black" d="M809.42,-84.52C797.11,-82.01 782.53,-78.27 769.58,-74.31"/>
<polygon fill="black" stroke="black" points="770.74,-71.01 760.15,-71.27 768.59,-77.67 770.74,-71.01"/>
</g>
<!-- 2876524147664&#45;&gt;2876524147136 -->
<g id="edge8" class="edge">
<title>2876524147664&#45;&gt;2876524147136</title>
<path fill="none" stroke="black" d="M809.4,-97.81C796.04,-100.37 779.84,-102.36 765.25,-103.83 647.65,-115.72 508.03,-125.27 442.4,-125.91"/>
<polygon fill="black" stroke="black" points="442.53,-122.41 432.54,-125.92 442.54,-129.41 442.53,-122.41"/>
</g>
<!-- 2876524148336 -->
<g id="node12" class="node">
<title>2876524148336</title>
<polygon fill="white" stroke="black" points="636.88,-465.83 497.12,-465.83 497.12,-429.83 636.88,-429.83 636.88,-465.83"/>
<text text-anchor="middle" x="567" y="-443.56" font-family="Times New Roman,serif" font-size="12.00">Send Appeal to Prefecture</text>
</g>
<!-- 2876524148336&#45;&gt;2876524146944 -->
<g id="edge10" class="edge">
<title>2876524148336&#45;&gt;2876524146944</title>
<path fill="none" stroke="black" d="M496.64,-442.19C486.32,-438.92 476.04,-434.8 466.75,-429.83 451.86,-421.87 437.49,-409.74 426.35,-398.1"/>
<polygon fill="black" stroke="black" points="429.15,-395.98 419.85,-390.9 423.95,-400.67 429.15,-395.98"/>
</g>
<!-- 2876524148432 -->
<g id="node13" class="node">
<title>2876524148432</title>
<polygon fill="white" stroke="black" points="637.25,-411.83 496.75,-411.83 496.75,-375.83 637.25,-375.83 637.25,-411.83"/>
<text text-anchor="middle" x="567" y="-389.56" font-family="Times New Roman,serif" font-size="12.00">Send for Credit Collection</text>
</g>
<!-- 2876524148432&#45;&gt;2876524146944 -->
<g id="edge12" class="edge">
<title>2876524148432&#45;&gt;2876524146944</title>
<path fill="none" stroke="black" d="M496.51,-388.89C477.15,-385.85 456.91,-382.14 440.39,-378.51"/>
<polygon fill="black" stroke="black" points="441.6,-375.2 431.07,-376.37 440.03,-382.02 441.6,-375.2"/>
</g>
<!-- 2876611160880 -->
<g id="node14" class="node">
<title>2876611160880</title>
<ellipse fill="white" stroke="black" cx="27" cy="-230.83" rx="27" ry="27"/>
<text text-anchor="start" x="16.88" y="-217.66" font-family="Times New Roman,serif" font-size="34.00">●</text>
</g>
<!-- 2876611160880&#45;&gt;2876611151808 -->
<g id="edge30" class="edge">
<title>2876611160880&#45;&gt;2876611151808</title>
<path fill="none" stroke="black" d="M54.33,-230.83C61.76,-230.83 70.06,-230.83 78.28,-230.83"/>
<polygon fill="black" stroke="black" points="78.24,-234.33 88.24,-230.83 78.24,-227.33 78.24,-234.33"/>
</g>
<!-- 2876524146944&#45;&gt;2876524148672 -->
<g id="edge23" class="edge">
<title>2876524146944&#45;&gt;2876524148672</title>
<path fill="none" stroke="black" d="M407.62,-339.68C412.88,-303.63 427.45,-240.39 466.75,-204.83 483.54,-189.64 508.05,-182.87 528.52,-179.92"/>
<polygon fill="black" stroke="black" points="528.67,-183.42 538.19,-178.78 527.86,-176.47 528.67,-183.42"/>
</g>
<!-- 2876524146944&#45;&gt;2876524148864 -->
<g id="edge17" class="edge">
<title>2876524146944&#45;&gt;2876524148864</title>
<path fill="none" stroke="black" d="M429.59,-357.64C441.44,-354.76 456.43,-351.71 472.11,-348.89"/>
<polygon fill="black" stroke="black" points="472.31,-352.41 481.56,-347.24 471.1,-345.51 472.31,-352.41"/>
</g>
<!-- 2876524146944&#45;&gt;2876524148960 -->
<g id="edge21" class="edge">
<title>2876524146944&#45;&gt;2876524148960</title>
<path fill="none" stroke="black" d="M418.83,-343.89C430.55,-330.07 448.25,-313.73 466.75,-303.83 484.27,-294.46 505.31,-288.14 523.5,-284.72"/>
<polygon fill="black" stroke="black" points="523.87,-288.21 533.19,-283.17 522.77,-281.29 523.87,-288.21"/>
</g>
<!-- 2876524146944&#45;&gt;2876524147472 -->
<g id="edge18" class="edge">
<title>2876524146944&#45;&gt;2876524147472</title>
<path fill="none" stroke="black" d="M410.89,-340.65C419.45,-313.5 437.32,-272.56 466.75,-249.83 467.74,-249.07 468.75,-248.33 469.78,-247.61"/>
<polygon fill="black" stroke="black" points="471.48,-250.67 478.18,-242.47 467.82,-244.7 471.48,-250.67"/>
</g>
<!-- 2876524146944&#45;&gt;2876524147760 -->
<g id="edge19" class="edge">
<title>2876524146944&#45;&gt;2876524147760</title>
<path fill="none" stroke="black" d="M408.61,-393.84C414.62,-428.14 429.68,-486.3 466.75,-519.83 472.65,-525.17 479.49,-529.46 486.78,-532.97"/>
<polygon fill="black" stroke="black" points="485.36,-536.17 495.93,-536.83 488.08,-529.72 485.36,-536.17"/>
</g>
<!-- 2876524146944&#45;&gt;2876524147568 -->
<g id="edge16" class="edge">
<title>2876524146944&#45;&gt;2876524147568</title>
<path fill="none" stroke="black" d="M415.42,-391.5C425.12,-414.13 441.77,-446.54 466.75,-465.83 478.98,-475.28 494.27,-481.42 509.17,-485.76"/>
<polygon fill="black" stroke="black" points="507.87,-489.04 518.43,-488.24 509.67,-482.28 507.87,-489.04"/>
</g>
<!-- 2876524146944&#45;&gt;2876524148336 -->
<g id="edge20" class="edge">
<title>2876524146944&#45;&gt;2876524148336</title>
<path fill="none" stroke="black" d="M426.43,-381.95C437.56,-391.8 451.9,-403.89 466.75,-411.83 477.54,-417.6 489.67,-422.22 501.64,-426.06"/>
<polygon fill="black" stroke="black" points="500.51,-429.38 511.1,-428.94 502.55,-422.68 500.51,-429.38"/>
</g>
<!-- 2876524146944&#45;&gt;2876524148432 -->
<g id="edge22" class="edge">
<title>2876524146944&#45;&gt;2876524148432</title>
<path fill="none" stroke="black" d="M431.02,-366.09C445.93,-367.52 465.49,-370.26 485.08,-373.53"/>
<polygon fill="black" stroke="black" points="484.31,-376.95 494.76,-375.2 485.5,-370.06 484.31,-376.95"/>
</g>
<!-- 2876524147040&#45;&gt;2876524147424 -->
<g id="edge24" class="edge">
<title>2876524147040&#45;&gt;2876524147424</title>
<path fill="none" stroke="black" d="M760.79,-52.09C769.74,-49.73 780.09,-46.99 790.25,-44.31"/>
<polygon fill="black" stroke="black" points="790.87,-47.77 799.64,-41.83 789.08,-41 790.87,-47.77"/>
</g>
<!-- 2876524147040&#45;&gt;2876524147664 -->
<g id="edge25" class="edge">
<title>2876524147040&#45;&gt;2876524147664</title>
<path fill="none" stroke="black" d="M761.58,-59.8C772.82,-62.02 786.16,-65.34 798.5,-68.96"/>
<polygon fill="black" stroke="black" points="797.43,-72.29 808.02,-71.89 799.49,-65.6 797.43,-72.29"/>
</g>
<!-- 2876524147136&#45;&gt;2876524148672 -->
<g id="edge28" class="edge">
<title>2876524147136&#45;&gt;2876524148672</title>
<path fill="none" stroke="black" d="M429.4,-132.26C440.74,-136.52 454.38,-141.55 466.75,-145.83 487.25,-152.94 510.3,-160.4 529.02,-166.33"/>
<polygon fill="black" stroke="black" points="527.74,-169.6 538.33,-169.27 529.85,-162.92 527.74,-169.6"/>
</g>
<!-- 2876524147136&#45;&gt;2876524148768 -->
<g id="edge26" class="edge">
<title>2876524147136&#45;&gt;2876524148768</title>
<path fill="none" stroke="black" d="M429.47,-113.62C440.82,-109.4 454.46,-104.34 466.75,-99.83 478.86,-95.39 491.82,-90.67 504.23,-86.16"/>
<polygon fill="black" stroke="black" points="505.34,-89.48 513.55,-82.78 502.96,-82.9 505.34,-89.48"/>
</g>
<!-- 2876524147136&#45;&gt;2876524147664 -->
<g id="edge27" class="edge">
<title>2876524147136&#45;&gt;2876524147664</title>
<path fill="none" stroke="black" d="M430.14,-116.63C489.07,-108.55 639.71,-98.52 765.25,-85.83 775.96,-84.75 787.55,-83.39 798.24,-82.39"/>
<polygon fill="black" stroke="black" points="798.21,-85.91 807.89,-81.6 797.64,-78.93 798.21,-85.91"/>
</g>
<!-- 2876611164624&#45;&gt;2876524148576 -->
<g id="edge29" class="edge">
<title>2876611164624&#45;&gt;2876524148576</title>
<path fill="none" stroke="black" d="M251.15,-230.83C258.64,-230.83 266.93,-230.83 274.95,-230.83"/>
<polygon fill="black" stroke="black" points="274.85,-234.33 284.85,-230.83 274.85,-227.33 274.85,-234.33"/>
</g>
</g>
</svg>
