<?xml version="1.0" encoding="UTF-8" standalone="no"?>
<!DOCTYPE svg PUBLIC "-//W3C//DTD SVG 1.1//EN"
 "http://www.w3.org/Graphics/SVG/1.1/DTD/svg11.dtd">
<!-- Generated by graphviz version 12.2.0 (20241103.1931)
 -->
<!-- Title: imdf_net_1745766133.3923488 Pages: 1 -->
<svg width="2772pt" height="763pt"
 viewBox="0.00 0.00 2771.50 763.28" xmlns="http://www.w3.org/2000/svg" xmlns:xlink="http://www.w3.org/1999/xlink">
<g id="graph0" class="graph" transform="scale(1 1) rotate(0) translate(4 759.28)">
<title>imdf_net_1745766133.3923488</title>
<polygon fill="white" stroke="none" points="-4,4 -4,-759.28 2767.5,-759.28 2767.5,4 -4,4"/>
<!-- 1218712618368 -->
<g id="node1" class="node">
<title>1218712618368</title>
<polygon fill="white" stroke="black" points="147.25,-753 90,-753 90,-717 147.25,-717 147.25,-753"/>
<text text-anchor="middle" x="118.62" y="-730.73" font-family="Times New Roman,serif" font-size="12.00">Payment</text>
</g>
<!-- 1218712618560 -->
<g id="node42" class="node">
<title>1218712618560</title>
<ellipse fill="white" stroke="black" cx="210.25" cy="-708" rx="27" ry="27"/>
</g>
<!-- 1218712618368&#45;&gt;1218712618560 -->
<g id="edge6" class="edge">
<title>1218712618368&#45;&gt;1218712618560</title>
<path fill="none" stroke="black" d="M147.49,-726.61C155.57,-724.17 164.5,-721.48 173.01,-718.92"/>
<polygon fill="black" stroke="black" points="173.82,-722.33 182.39,-716.09 171.8,-715.63 173.82,-722.33"/>
</g>
<!-- 1218712619664 -->
<g id="node2" class="node">
<title>1218712619664</title>
<polygon fill="black" stroke="black" points="872.25,-530 818.25,-530 818.25,-494 872.25,-494 872.25,-530"/>
</g>
<!-- 1218712619424 -->
<g id="node44" class="node">
<title>1218712619424</title>
<ellipse fill="white" stroke="black" cx="2102" cy="-484" rx="27" ry="27"/>
</g>
<!-- 1218712619664&#45;&gt;1218712619424 -->
<g id="edge55" class="edge">
<title>1218712619664&#45;&gt;1218712619424</title>
<path fill="none" stroke="black" d="M872.65,-512.7C918.43,-513.84 1015.48,-516 1097.5,-516 1097.5,-516 1097.5,-516 1923,-516 1972.72,-516 2029.04,-503.75 2064.77,-494.41"/>
<polygon fill="black" stroke="black" points="2065.4,-497.87 2074.15,-491.9 2063.59,-491.11 2065.4,-497.87"/>
</g>
<!-- 1218712631952 -->
<g id="node3" class="node">
<title>1218712631952</title>
<polygon fill="black" stroke="black" points="2219,-502 2165,-502 2165,-466 2219,-466 2219,-502"/>
</g>
<!-- 1218712632240 -->
<g id="node38" class="node">
<title>1218712632240</title>
<ellipse fill="white" stroke="black" cx="2282" cy="-304" rx="27" ry="27"/>
</g>
<!-- 1218712631952&#45;&gt;1218712632240 -->
<g id="edge67" class="edge">
<title>1218712631952&#45;&gt;1218712632240</title>
<path fill="none" stroke="black" d="M2201.92,-465.75C2216.5,-435.93 2245.66,-376.29 2264.2,-338.36"/>
<polygon fill="black" stroke="black" points="2267.22,-340.16 2268.47,-329.64 2260.93,-337.08 2267.22,-340.16"/>
</g>
<!-- 1218712632336 -->
<g id="node4" class="node">
<title>1218712632336</title>
<polygon fill="white" stroke="black" points="661.5,-481 597.5,-481 597.5,-445 661.5,-445 661.5,-481"/>
<text text-anchor="middle" x="629.5" y="-458.73" font-family="Times New Roman,serif" font-size="12.00">Send Fine</text>
</g>
<!-- 1218712632624 -->
<g id="node46" class="node">
<title>1218712632624</title>
<ellipse fill="white" stroke="black" cx="1742" cy="-461" rx="27" ry="27"/>
</g>
<!-- 1218712632336&#45;&gt;1218712632624 -->
<g id="edge4" class="edge">
<title>1218712632336&#45;&gt;1218712632624</title>
<path fill="none" stroke="black" d="M661.65,-462.76C703.27,-462.47 779.31,-462 844.25,-462 844.25,-462 844.25,-462 1563,-462 1611.45,-462 1667.32,-461.62 1703.34,-461.33"/>
<polygon fill="black" stroke="black" points="1703.28,-464.83 1713.25,-461.25 1703.22,-457.84 1703.28,-464.83"/>
</g>
<!-- 1218712630800 -->
<g id="node5" class="node">
<title>1218712630800</title>
<polygon fill="black" stroke="black" points="1679,-434 1625,-434 1625,-398 1679,-398 1679,-434"/>
</g>
<!-- 1218712631040 -->
<g id="node48" class="node">
<title>1218712631040</title>
<ellipse fill="white" stroke="black" cx="1922" cy="-406" rx="27" ry="27"/>
</g>
<!-- 1218712630800&#45;&gt;1218712631040 -->
<g id="edge56" class="edge">
<title>1218712630800&#45;&gt;1218712631040</title>
<path fill="none" stroke="black" d="M1679.18,-415.02C1726.92,-413.24 1828.23,-409.46 1883.36,-407.4"/>
<polygon fill="black" stroke="black" points="1883.33,-410.91 1893.2,-407.04 1883.07,-403.91 1883.33,-410.91"/>
</g>
<!-- 1218712630416 -->
<g id="node6" class="node">
<title>1218712630416</title>
<polygon fill="black" stroke="black" points="872.25,-308 818.25,-308 818.25,-272 872.25,-272 872.25,-308"/>
</g>
<!-- 1218712629408 -->
<g id="node50" class="node">
<title>1218712629408</title>
<ellipse fill="white" stroke="black" cx="935.25" cy="-335" rx="27" ry="27"/>
</g>
<!-- 1218712630416&#45;&gt;1218712629408 -->
<g id="edge74" class="edge">
<title>1218712630416&#45;&gt;1218712629408</title>
<path fill="none" stroke="black" d="M872.65,-303.5C881.48,-308.02 891.44,-313.11 900.74,-317.86"/>
<polygon fill="black" stroke="black" points="899.01,-320.91 909.51,-322.35 902.2,-314.68 899.01,-320.91"/>
</g>
<!-- 1218712629024 -->
<g id="node52" class="node">
<title>1218712629024</title>
<ellipse fill="white" stroke="black" cx="935.25" cy="-263" rx="27" ry="27"/>
</g>
<!-- 1218712630416&#45;&gt;1218712629024 -->
<g id="edge75" class="edge">
<title>1218712630416&#45;&gt;1218712629024</title>
<path fill="none" stroke="black" d="M872.65,-281.9C880.68,-279.44 889.64,-276.69 898.19,-274.06"/>
<polygon fill="black" stroke="black" points="899.09,-277.45 907.63,-271.17 897.04,-270.76 899.09,-277.45"/>
</g>
<!-- 1218712626144 -->
<g id="node58" class="node">
<title>1218712626144</title>
<ellipse fill="white" stroke="black" cx="935.25" cy="-150" rx="27" ry="27"/>
</g>
<!-- 1218712630416&#45;&gt;1218712626144 -->
<g id="edge76" class="edge">
<title>1218712630416&#45;&gt;1218712626144</title>
<path fill="none" stroke="black" d="M857.75,-271.7C872.03,-248.99 896.61,-209.88 914.05,-182.13"/>
<polygon fill="black" stroke="black" points="916.96,-184.08 919.32,-173.76 911.03,-180.36 916.96,-184.08"/>
</g>
<!-- 1218712629648 -->
<g id="node7" class="node">
<title>1218712629648</title>
<polygon fill="black" stroke="black" points="1859,-354 1805,-354 1805,-318 1859,-318 1859,-354"/>
</g>
<!-- 1218712629648&#45;&gt;1218712631040 -->
<g id="edge69" class="edge">
<title>1218712629648&#45;&gt;1218712631040</title>
<path fill="none" stroke="black" d="M1856.12,-354.39C1866.89,-362.96 1879.83,-373.25 1891.31,-382.38"/>
<polygon fill="black" stroke="black" points="1888.95,-384.98 1898.95,-388.46 1893.31,-379.5 1888.95,-384.98"/>
</g>
<!-- 1218712625808 -->
<g id="node8" class="node">
<title>1218712625808</title>
<polygon fill="black" stroke="black" points="1125.5,-248 1071.5,-248 1071.5,-212 1125.5,-212 1125.5,-248"/>
</g>
<!-- 1218712625376 -->
<g id="node54" class="node">
<title>1218712625376</title>
<ellipse fill="white" stroke="black" cx="1261.75" cy="-171" rx="27" ry="27"/>
</g>
<!-- 1218712625808&#45;&gt;1218712625376 -->
<g id="edge77" class="edge">
<title>1218712625808&#45;&gt;1218712625376</title>
<path fill="none" stroke="black" d="M1125.77,-220.39C1152.87,-210.47 1195.31,-194.94 1225.36,-183.95"/>
<polygon fill="black" stroke="black" points="1226.21,-187.36 1234.4,-180.64 1223.81,-180.79 1226.21,-187.36"/>
</g>
<!-- 1218712624992 -->
<g id="node56" class="node">
<title>1218712624992</title>
<ellipse fill="white" stroke="black" cx="1261.75" cy="-243" rx="27" ry="27"/>
</g>
<!-- 1218712625808&#45;&gt;1218712624992 -->
<g id="edge78" class="edge">
<title>1218712625808&#45;&gt;1218712624992</title>
<path fill="none" stroke="black" d="M1125.77,-232.12C1152.24,-234.25 1193.34,-237.57 1223.24,-239.98"/>
<polygon fill="black" stroke="black" points="1222.74,-243.45 1232.99,-240.76 1223.3,-236.47 1222.74,-243.45"/>
</g>
<!-- 1218712623120 -->
<g id="node9" class="node">
<title>1218712623120</title>
<polygon fill="black" stroke="black" points="1125.5,-114 1071.5,-114 1071.5,-78 1125.5,-78 1125.5,-114"/>
</g>
<!-- 1218712623360 -->
<g id="node59" class="node">
<title>1218712623360</title>
<ellipse fill="white" stroke="black" cx="1261.75" cy="-96" rx="27" ry="27"/>
</g>
<!-- 1218712623120&#45;&gt;1218712623360 -->
<g id="edge62" class="edge">
<title>1218712623120&#45;&gt;1218712623360</title>
<path fill="none" stroke="black" d="M1125.77,-96C1152.24,-96 1193.34,-96 1223.24,-96"/>
<polygon fill="black" stroke="black" points="1222.98,-99.5 1232.98,-96 1222.98,-92.5 1222.98,-99.5"/>
</g>
<!-- 1218712622736 -->
<g id="node10" class="node">
<title>1218712622736</title>
<polygon fill="white" stroke="black" points="1198.75,-168 998.25,-168 998.25,-132 1198.75,-132 1198.75,-168"/>
<text text-anchor="middle" x="1098.5" y="-145.72" font-family="Times New Roman,serif" font-size="12.00">Receive Result Appeal from Prefecture</text>
</g>
<!-- 1218712622736&#45;&gt;1218712623360 -->
<g id="edge1" class="edge">
<title>1218712622736&#45;&gt;1218712623360</title>
<path fill="none" stroke="black" d="M1172.24,-131.52C1181.23,-128.85 1190.24,-125.99 1198.75,-123 1207.88,-119.79 1217.57,-115.84 1226.5,-111.97"/>
<polygon fill="black" stroke="black" points="1227.83,-115.21 1235.55,-107.95 1224.99,-108.81 1227.83,-115.21"/>
</g>
<!-- 1218707189152 -->
<g id="node11" class="node">
<title>1218707189152</title>
<polygon fill="black" stroke="black" points="384,-273 330,-273 330,-237 384,-237 384,-273"/>
</g>
<!-- 1218707189296 -->
<g id="node61" class="node">
<title>1218707189296</title>
<ellipse fill="white" stroke="black" cx="503.75" cy="-255" rx="27" ry="27"/>
</g>
<!-- 1218707189152&#45;&gt;1218707189296 -->
<g id="edge64" class="edge">
<title>1218707189152&#45;&gt;1218707189296</title>
<path fill="none" stroke="black" d="M384.21,-255C406.86,-255 439.86,-255 465.29,-255"/>
<polygon fill="black" stroke="black" points="465.22,-258.5 475.22,-255 465.22,-251.5 465.22,-258.5"/>
</g>
<!-- 1218707188768 -->
<g id="node12" class="node">
<title>1218707188768</title>
<polygon fill="white" stroke="black" points="440.75,-327 273.25,-327 273.25,-291 440.75,-291 440.75,-327"/>
<text text-anchor="middle" x="357" y="-304.73" font-family="Times New Roman,serif" font-size="12.00">Insert Date Appeal to Prefecture</text>
</g>
<!-- 1218707188768&#45;&gt;1218707189296 -->
<g id="edge10" class="edge">
<title>1218707188768&#45;&gt;1218707189296</title>
<path fill="none" stroke="black" d="M417.01,-290.51C425.03,-287.77 433.12,-284.9 440.75,-282 449.8,-278.56 459.45,-274.54 468.38,-270.66"/>
<polygon fill="black" stroke="black" points="469.7,-273.9 477.44,-266.66 466.88,-267.5 469.7,-273.9"/>
</g>
<!-- 1218707178928 -->
<g id="node13" class="node">
<title>1218707178928</title>
<polygon fill="black" stroke="black" points="384,-125 330,-125 330,-89 384,-89 384,-125"/>
</g>
<!-- 1218707187616 -->
<g id="node36" class="node">
<title>1218707187616</title>
<ellipse fill="white" stroke="black" cx="503.75" cy="-53" rx="27" ry="27"/>
</g>
<!-- 1218707178928&#45;&gt;1218707187616 -->
<g id="edge65" class="edge">
<title>1218707178928&#45;&gt;1218707187616</title>
<path fill="none" stroke="black" d="M384.31,-99.12C400.68,-94.04 422.1,-87.08 440.75,-80 449.8,-76.56 459.45,-72.54 468.38,-68.66"/>
<polygon fill="black" stroke="black" points="469.7,-71.9 477.44,-64.66 466.88,-65.5 469.7,-71.9"/>
</g>
<!-- 1218712617264 -->
<g id="node14" class="node">
<title>1218712617264</title>
<polygon fill="black" stroke="black" points="384,-627 330,-627 330,-591 384,-591 384,-627"/>
</g>
<!-- 1218712631520 -->
<g id="node40" class="node">
<title>1218712631520</title>
<ellipse fill="white" stroke="black" cx="503.75" cy="-564" rx="27" ry="27"/>
</g>
<!-- 1218712617264&#45;&gt;1218712631520 -->
<g id="edge54" class="edge">
<title>1218712617264&#45;&gt;1218712631520</title>
<path fill="none" stroke="black" d="M384.21,-600.85C407.35,-593.66 441.29,-583.11 466.92,-575.14"/>
<polygon fill="black" stroke="black" points="467.74,-578.55 476.26,-572.24 465.67,-571.86 467.74,-578.55"/>
</g>
<!-- 1218712619952 -->
<g id="node15" class="node">
<title>1218712619952</title>
<polygon fill="black" stroke="black" points="384,-432 330,-432 330,-396 384,-396 384,-432"/>
</g>
<!-- 1218712632816 -->
<g id="node45" class="node">
<title>1218712632816</title>
<ellipse fill="white" stroke="black" cx="503.75" cy="-449" rx="27" ry="27"/>
</g>
<!-- 1218712619952&#45;&gt;1218712632816 -->
<g id="edge72" class="edge">
<title>1218712619952&#45;&gt;1218712632816</title>
<path fill="none" stroke="black" d="M384.21,-420.34C407.1,-425.87 440.57,-433.96 466.11,-440.14"/>
<polygon fill="black" stroke="black" points="465.2,-443.52 475.75,-442.47 466.85,-436.72 465.2,-443.52"/>
</g>
<!-- 1218712631232 -->
<g id="node47" class="node">
<title>1218712631232</title>
<ellipse fill="white" stroke="black" cx="503.75" cy="-374" rx="27" ry="27"/>
</g>
<!-- 1218712619952&#45;&gt;1218712631232 -->
<g id="edge73" class="edge">
<title>1218712619952&#45;&gt;1218712631232</title>
<path fill="none" stroke="black" d="M384.21,-406.76C407.21,-400.4 440.87,-391.1 466.45,-384.03"/>
<polygon fill="black" stroke="black" points="467.05,-387.5 475.76,-381.46 465.19,-380.75 467.05,-387.5"/>
</g>
<!-- 1218712626096 -->
<g id="node16" class="node">
<title>1218712626096</title>
<polygon fill="black" stroke="black" points="1589,-338 1535,-338 1535,-302 1589,-302 1589,-338"/>
</g>
<!-- 1218712626336 -->
<g id="node53" class="node">
<title>1218712626336</title>
<ellipse fill="white" stroke="black" cx="1742" cy="-313" rx="27" ry="27"/>
</g>
<!-- 1218712626096&#45;&gt;1218712626336 -->
<g id="edge59" class="edge">
<title>1218712626096&#45;&gt;1218712626336</title>
<path fill="none" stroke="black" d="M1589.26,-318.97C1619.37,-317.78 1668.96,-315.83 1703.21,-314.49"/>
<polygon fill="black" stroke="black" points="1703.26,-317.99 1713.12,-314.1 1702.99,-310.99 1703.26,-317.99"/>
</g>
<!-- 1218712624944 -->
<g id="node17" class="node">
<title>1218712624944</title>
<polygon fill="black" stroke="black" points="1438.88,-140 1384.88,-140 1384.88,-104 1438.88,-104 1438.88,-140"/>
</g>
<!-- 1218712625184 -->
<g id="node55" class="node">
<title>1218712625184</title>
<ellipse fill="white" stroke="black" cx="1562" cy="-176" rx="27" ry="27"/>
</g>
<!-- 1218712624944&#45;&gt;1218712625184 -->
<g id="edge60" class="edge">
<title>1218712624944&#45;&gt;1218712625184</title>
<path fill="none" stroke="black" d="M1439.13,-129.44C1456.31,-134.5 1479.18,-141.6 1499,-149 1508.07,-152.39 1517.73,-156.39 1526.66,-160.27"/>
<polygon fill="black" stroke="black" points="1525.15,-163.43 1535.72,-164.27 1527.98,-157.03 1525.15,-163.43"/>
</g>
<!-- 1218712624560 -->
<g id="node18" class="node">
<title>1218712624560</title>
<polygon fill="white" stroke="black" points="1458.5,-194 1365.25,-194 1365.25,-158 1458.5,-158 1458.5,-194"/>
<text text-anchor="middle" x="1411.88" y="-171.72" font-family="Times New Roman,serif" font-size="12.00">Appeal to Judge</text>
</g>
<!-- 1218712624560&#45;&gt;1218712625184 -->
<g id="edge9" class="edge">
<title>1218712624560&#45;&gt;1218712625184</title>
<path fill="none" stroke="black" d="M1458.93,-176C1479.71,-176 1503.93,-176 1523.56,-176"/>
<polygon fill="black" stroke="black" points="1523.31,-179.5 1533.31,-176 1523.31,-172.5 1523.31,-179.5"/>
</g>
<!-- 1218707189824 -->
<g id="node19" class="node">
<title>1218707189824</title>
<polygon fill="black" stroke="black" points="2665.5,-56 2611.5,-56 2611.5,-20 2665.5,-20 2665.5,-56"/>
</g>
<!-- 1218707191264 -->
<g id="node63" class="node">
<title>1218707191264</title>
<ellipse fill="white" stroke="black" cx="2732.5" cy="-38" rx="27" ry="27"/>
<ellipse fill="none" stroke="black" cx="2732.5" cy="-38" rx="31" ry="31"/>
<text text-anchor="start" x="2722.75" y="-25.98" font-family="Times New Roman,serif" font-size="32.00">■</text>
</g>
<!-- 1218707189824&#45;&gt;1218707191264 -->
<g id="edge71" class="edge">
<title>1218707189824&#45;&gt;1218707191264</title>
<path fill="none" stroke="black" d="M2665.62,-38C2673.13,-38 2681.51,-38 2689.72,-38"/>
<polygon fill="black" stroke="black" points="2689.58,-41.5 2699.58,-38 2689.58,-34.5 2689.58,-41.5"/>
</g>
<!-- 1218712617792 -->
<g id="node20" class="node">
<title>1218712617792</title>
<polygon fill="black" stroke="black" points="384,-735 330,-735 330,-699 384,-699 384,-735"/>
</g>
<!-- 1218712627920 -->
<g id="node41" class="node">
<title>1218712627920</title>
<ellipse fill="white" stroke="black" cx="503.75" cy="-717" rx="27" ry="27"/>
</g>
<!-- 1218712617792&#45;&gt;1218712627920 -->
<g id="edge53" class="edge">
<title>1218712617792&#45;&gt;1218712627920</title>
<path fill="none" stroke="black" d="M384.21,-717C406.86,-717 439.86,-717 465.29,-717"/>
<polygon fill="black" stroke="black" points="465.22,-720.5 475.22,-717 465.22,-713.5 465.22,-720.5"/>
</g>
<!-- 1218712622400 -->
<g id="node21" class="node">
<title>1218712622400</title>
<polygon fill="white" stroke="black" points="2485.5,-322 2345,-322 2345,-286 2485.5,-286 2485.5,-322"/>
<text text-anchor="middle" x="2415.25" y="-299.73" font-family="Times New Roman,serif" font-size="12.00">Send for Credit Collection</text>
</g>
<!-- 1218712619232 -->
<g id="node37" class="node">
<title>1218712619232</title>
<ellipse fill="white" stroke="black" cx="2548.5" cy="-250" rx="27" ry="27"/>
</g>
<!-- 1218712622400&#45;&gt;1218712619232 -->
<g id="edge5" class="edge">
<title>1218712622400&#45;&gt;1218712619232</title>
<path fill="none" stroke="black" d="M2464.4,-285.5C2471.5,-282.7 2478.7,-279.8 2485.5,-277 2494.45,-273.31 2504.07,-269.19 2512.99,-265.31"/>
<polygon fill="black" stroke="black" points="2514.31,-268.56 2522.06,-261.34 2511.5,-262.14 2514.31,-268.56"/>
</g>
<!-- 1218707191120 -->
<g id="node22" class="node">
<title>1218707191120</title>
<polygon fill="black" stroke="black" points="145.62,-382 91.62,-382 91.62,-346 145.62,-346 145.62,-382"/>
</g>
<!-- 1218712631712 -->
<g id="node39" class="node">
<title>1218712631712</title>
<ellipse fill="white" stroke="black" cx="210.25" cy="-555" rx="27" ry="27"/>
</g>
<!-- 1218707191120&#45;&gt;1218712631712 -->
<g id="edge79" class="edge">
<title>1218707191120&#45;&gt;1218712631712</title>
<path fill="none" stroke="black" d="M128.22,-382.31C143.14,-414.11 174.06,-480.01 193.1,-520.58"/>
<polygon fill="black" stroke="black" points="189.84,-521.87 197.25,-529.43 196.17,-518.9 189.84,-521.87"/>
</g>
<!-- 1218712628256 -->
<g id="node43" class="node">
<title>1218712628256</title>
<ellipse fill="white" stroke="black" cx="210.25" cy="-414" rx="27" ry="27"/>
</g>
<!-- 1218707191120&#45;&gt;1218712628256 -->
<g id="edge80" class="edge">
<title>1218707191120&#45;&gt;1218712628256</title>
<path fill="none" stroke="black" d="M146.03,-378.73C155.46,-383.99 166.2,-389.98 176.12,-395.52"/>
<polygon fill="black" stroke="black" points="174.31,-398.52 184.75,-400.33 177.73,-392.41 174.31,-398.52"/>
</g>
<!-- 1218707189488 -->
<g id="node60" class="node">
<title>1218707189488</title>
<ellipse fill="white" stroke="black" cx="210.25" cy="-309" rx="27" ry="27"/>
</g>
<!-- 1218707191120&#45;&gt;1218707189488 -->
<g id="edge81" class="edge">
<title>1218707191120&#45;&gt;1218707189488</title>
<path fill="none" stroke="black" d="M146.03,-347.8C155.71,-341.85 166.78,-335.06 176.92,-328.84"/>
<polygon fill="black" stroke="black" points="178.69,-331.86 185.38,-323.65 175.03,-325.9 178.69,-331.86"/>
</g>
<!-- 1218707187808 -->
<g id="node62" class="node">
<title>1218707187808</title>
<ellipse fill="white" stroke="black" cx="210.25" cy="-107" rx="27" ry="27"/>
</g>
<!-- 1218707191120&#45;&gt;1218707187808 -->
<g id="edge82" class="edge">
<title>1218707191120&#45;&gt;1218707187808</title>
<path fill="none" stroke="black" d="M126.07,-345.52C140.83,-303.2 177.28,-198.66 196.67,-143.09"/>
<polygon fill="black" stroke="black" points="199.93,-144.36 199.92,-133.76 193.32,-142.05 199.93,-144.36"/>
</g>
<!-- 1218712625616 -->
<g id="node23" class="node">
<title>1218712625616</title>
<polygon fill="black" stroke="black" points="1679,-271 1625,-271 1625,-235 1679,-235 1679,-271"/>
</g>
<!-- 1218712625616&#45;&gt;1218712626336 -->
<g id="edge70" class="edge">
<title>1218712625616&#45;&gt;1218712626336</title>
<path fill="none" stroke="black" d="M1679.4,-271C1688.9,-277.47 1699.7,-284.84 1709.57,-291.57"/>
<polygon fill="black" stroke="black" points="1707.58,-294.45 1717.81,-297.19 1711.52,-288.66 1707.58,-294.45"/>
</g>
<!-- 1218712630368 -->
<g id="node24" class="node">
<title>1218712630368</title>
<polygon fill="black" stroke="black" points="656.5,-335 602.5,-335 602.5,-299 656.5,-299 656.5,-335"/>
</g>
<!-- 1218712630512 -->
<g id="node49" class="node">
<title>1218712630512</title>
<ellipse fill="white" stroke="black" cx="755.25" cy="-317" rx="27" ry="27"/>
</g>
<!-- 1218712630368&#45;&gt;1218712630512 -->
<g id="edge57" class="edge">
<title>1218712630368&#45;&gt;1218712630512</title>
<path fill="none" stroke="black" d="M656.74,-317C674.14,-317 697.22,-317 716.57,-317"/>
<polygon fill="black" stroke="black" points="716.53,-320.5 726.53,-317 716.53,-313.5 716.53,-320.5"/>
</g>
<!-- 1218712629984 -->
<g id="node25" class="node">
<title>1218712629984</title>
<polygon fill="white" stroke="black" points="692.25,-389 566.75,-389 566.75,-353 692.25,-353 692.25,-389"/>
<text text-anchor="middle" x="629.5" y="-366.73" font-family="Times New Roman,serif" font-size="12.00">Insert Fine Notification</text>
</g>
<!-- 1218712629984&#45;&gt;1218712630512 -->
<g id="edge3" class="edge">
<title>1218712629984&#45;&gt;1218712630512</title>
<path fill="none" stroke="black" d="M672.74,-352.57C688.18,-345.83 705.44,-338.3 720.08,-331.91"/>
<polygon fill="black" stroke="black" points="721.07,-335.3 728.84,-328.09 718.27,-328.88 721.07,-335.3"/>
</g>
<!-- 1218712619616 -->
<g id="node26" class="node">
<title>1218712619616</title>
<polygon fill="black" stroke="black" points="2442.25,-268 2388.25,-268 2388.25,-232 2442.25,-232 2442.25,-268"/>
</g>
<!-- 1218712619616&#45;&gt;1218712619232 -->
<g id="edge63" class="edge">
<title>1218712619616&#45;&gt;1218712619232</title>
<path fill="none" stroke="black" d="M2442.49,-250C2461.81,-250 2488.35,-250 2509.91,-250"/>
<polygon fill="black" stroke="black" points="2509.79,-253.5 2519.79,-250 2509.79,-246.5 2509.79,-253.5"/>
</g>
<!-- 1218707190256 -->
<g id="node27" class="node">
<title>1218707190256</title>
<polygon fill="white" stroke="black" points="426.88,-71 287.12,-71 287.12,-35 426.88,-35 426.88,-71"/>
<text text-anchor="middle" x="357" y="-48.73" font-family="Times New Roman,serif" font-size="12.00">Send Appeal to Prefecture</text>
</g>
<!-- 1218707190256&#45;&gt;1218707187616 -->
<g id="edge2" class="edge">
<title>1218707190256&#45;&gt;1218707187616</title>
<path fill="none" stroke="black" d="M426.98,-53C440.2,-53 453.57,-53 465.32,-53"/>
<polygon fill="black" stroke="black" points="464.95,-56.5 474.95,-53 464.95,-49.5 464.95,-56.5"/>
</g>
<!-- 1218712628208 -->
<g id="node28" class="node">
<title>1218712628208</title>
<polygon fill="black" stroke="black" points="384,-573 330,-573 330,-537 384,-537 384,-573"/>
</g>
<!-- 1218712628208&#45;&gt;1218712631520 -->
<g id="edge52" class="edge">
<title>1218712628208&#45;&gt;1218712631520</title>
<path fill="none" stroke="black" d="M384.21,-556.63C406.86,-558.04 439.86,-560.09 465.29,-561.67"/>
<polygon fill="black" stroke="black" points="465.02,-565.16 475.22,-562.29 465.46,-558.17 465.02,-565.16"/>
</g>
<!-- 1218712627824 -->
<g id="node29" class="node">
<title>1218712627824</title>
<polygon fill="black" stroke="black" points="384,-681 330,-681 330,-645 384,-645 384,-681"/>
</g>
<!-- 1218712627824&#45;&gt;1218712627920 -->
<g id="edge11" class="edge">
<title>1218712627824&#45;&gt;1218712627920</title>
<path fill="none" stroke="black" d="M384.31,-670.88C400.68,-675.96 422.1,-682.92 440.75,-690 449.8,-693.44 459.45,-697.46 468.38,-701.34"/>
<polygon fill="black" stroke="black" points="466.88,-704.5 477.44,-705.34 469.7,-698.1 466.88,-704.5"/>
</g>
<!-- 1218712620144 -->
<g id="node30" class="node">
<title>1218712620144</title>
<polygon fill="black" stroke="black" points="2039,-479 1985,-479 1985,-443 2039,-443 2039,-479"/>
</g>
<!-- 1218712620144&#45;&gt;1218712619424 -->
<g id="edge68" class="edge">
<title>1218712620144&#45;&gt;1218712619424</title>
<path fill="none" stroke="black" d="M2039.4,-467.9C2047.27,-469.96 2056.03,-472.25 2064.43,-474.44"/>
<polygon fill="black" stroke="black" points="2063.5,-477.82 2074.06,-476.96 2065.27,-471.04 2063.5,-477.82"/>
</g>
<!-- 1218712628976 -->
<g id="node31" class="node">
<title>1218712628976</title>
<polygon fill="black" stroke="black" points="1125.5,-340 1071.5,-340 1071.5,-304 1125.5,-304 1125.5,-340"/>
</g>
<!-- 1218712629216 -->
<g id="node51" class="node">
<title>1218712629216</title>
<ellipse fill="white" stroke="black" cx="1261.75" cy="-367" rx="27" ry="27"/>
</g>
<!-- 1218712628976&#45;&gt;1218712629216 -->
<g id="edge58" class="edge">
<title>1218712628976&#45;&gt;1218712629216</title>
<path fill="none" stroke="black" d="M1125.65,-328.99C1145.69,-334.37 1174,-342.04 1198.75,-349 1207.06,-351.34 1215.98,-353.9 1224.39,-356.33"/>
<polygon fill="black" stroke="black" points="1223.41,-359.69 1233.99,-359.12 1225.36,-352.97 1223.41,-359.69"/>
</g>
<!-- 1218712628592 -->
<g id="node32" class="node">
<title>1218712628592</title>
<polygon fill="white" stroke="black" points="1135.75,-394 1061.25,-394 1061.25,-358 1135.75,-358 1135.75,-394"/>
<text text-anchor="middle" x="1098.5" y="-371.73" font-family="Times New Roman,serif" font-size="12.00">Add penalty</text>
</g>
<!-- 1218712628592&#45;&gt;1218712629216 -->
<g id="edge7" class="edge">
<title>1218712628592&#45;&gt;1218712629216</title>
<path fill="none" stroke="black" d="M1136.09,-373.96C1162.04,-372.51 1196.76,-370.57 1222.97,-369.11"/>
<polygon fill="black" stroke="black" points="1223.05,-372.61 1232.84,-368.56 1222.66,-365.62 1223.05,-372.61"/>
</g>
<!-- 1218712623984 -->
<g id="node33" class="node">
<title>1218712623984</title>
<polygon fill="black" stroke="black" points="1438.88,-248 1384.88,-248 1384.88,-212 1438.88,-212 1438.88,-248"/>
</g>
<!-- 1218712624224 -->
<g id="node57" class="node">
<title>1218712624224</title>
<ellipse fill="white" stroke="black" cx="1562" cy="-253" rx="27" ry="27"/>
</g>
<!-- 1218712623984&#45;&gt;1218712624224 -->
<g id="edge61" class="edge">
<title>1218712623984&#45;&gt;1218712624224</title>
<path fill="none" stroke="black" d="M1439.36,-234.11C1462.99,-237.78 1497.83,-243.19 1524.17,-247.28"/>
<polygon fill="black" stroke="black" points="1523.33,-250.69 1533.75,-248.77 1524.4,-243.78 1523.33,-250.69"/>
</g>
<!-- 1218712623600 -->
<g id="node34" class="node">
<title>1218712623600</title>
<polygon fill="white" stroke="black" points="1499,-302 1324.75,-302 1324.75,-266 1499,-266 1499,-302"/>
<text text-anchor="middle" x="1411.88" y="-279.73" font-family="Times New Roman,serif" font-size="12.00">Notify Result Appeal to Offender</text>
</g>
<!-- 1218712623600&#45;&gt;1218712624224 -->
<g id="edge8" class="edge">
<title>1218712623600&#45;&gt;1218712624224</title>
<path fill="none" stroke="black" d="M1499.47,-265.88C1508.13,-264.06 1516.55,-262.3 1524.25,-260.69"/>
<polygon fill="black" stroke="black" points="1524.76,-264.16 1533.83,-258.69 1523.32,-257.31 1524.76,-264.16"/>
</g>
<!-- 1218707191360 -->
<g id="node35" class="node">
<title>1218707191360</title>
<ellipse fill="white" stroke="black" cx="27" cy="-364" rx="27" ry="27"/>
<text text-anchor="start" x="16.88" y="-350.82" font-family="Times New Roman,serif" font-size="34.00">●</text>
</g>
<!-- 1218707191360&#45;&gt;1218707191120 -->
<g id="edge66" class="edge">
<title>1218707191360&#45;&gt;1218707191120</title>
<path fill="none" stroke="black" d="M54.41,-364C62.43,-364 71.4,-364 80.02,-364"/>
<polygon fill="black" stroke="black" points="79.89,-367.5 89.89,-364 79.89,-360.5 79.89,-367.5"/>
</g>
<!-- 1218707187616&#45;&gt;1218707189824 -->
<g id="edge12" class="edge">
<title>1218707187616&#45;&gt;1218707189824</title>
<path fill="none" stroke="black" d="M527.93,-40.06C539.3,-34.26 553.4,-27.87 566.75,-24 647.44,-0.59 670.24,0 754.25,0 754.25,0 754.25,0 2416.25,0 2481.72,0 2556.54,-16.36 2600.24,-27.61"/>
<polygon fill="black" stroke="black" points="2599.16,-30.95 2609.72,-30.11 2600.94,-24.18 2599.16,-30.95"/>
</g>
<!-- 1218712619232&#45;&gt;1218707189824 -->
<g id="edge13" class="edge">
<title>1218712619232&#45;&gt;1218707189824</title>
<path fill="none" stroke="black" d="M2559.77,-225.27C2576.13,-185.85 2608.05,-108.95 2625.46,-67"/>
<polygon fill="black" stroke="black" points="2628.68,-68.37 2629.28,-57.8 2622.22,-65.69 2628.68,-68.37"/>
</g>
<!-- 1218712632240&#45;&gt;1218712622400 -->
<g id="edge14" class="edge">
<title>1218712632240&#45;&gt;1218712622400</title>
<path fill="none" stroke="black" d="M2309.24,-304C2316.42,-304 2324.6,-304 2333.15,-304"/>
<polygon fill="black" stroke="black" points="2333.03,-307.5 2343.03,-304 2333.03,-300.5 2333.03,-307.5"/>
</g>
<!-- 1218712632240&#45;&gt;1218712619616 -->
<g id="edge15" class="edge">
<title>1218712632240&#45;&gt;1218712619616</title>
<path fill="none" stroke="black" d="M2307.05,-293.27C2318.5,-288.22 2332.41,-282.19 2345,-277 2355.45,-272.69 2366.85,-268.17 2377.33,-264.09"/>
<polygon fill="black" stroke="black" points="2378.37,-267.44 2386.44,-260.56 2375.85,-260.91 2378.37,-267.44"/>
</g>
<!-- 1218712631712&#45;&gt;1218712628208 -->
<g id="edge17" class="edge">
<title>1218712631712&#45;&gt;1218712628208</title>
<path fill="none" stroke="black" d="M237.46,-555C260.11,-555 293.11,-555 318.54,-555"/>
<polygon fill="black" stroke="black" points="318.47,-558.5 328.47,-555 318.47,-551.5 318.47,-558.5"/>
</g>
<!-- 1218712631712&#45;&gt;1218712627824 -->
<g id="edge16" class="edge">
<title>1218712631712&#45;&gt;1218712627824</title>
<path fill="none" stroke="black" d="M224.07,-578.73C234.95,-596.81 252.15,-621.05 273.25,-636 286.61,-645.47 303.49,-651.76 318.52,-655.87"/>
<polygon fill="black" stroke="black" points="317.54,-659.23 328.08,-658.23 319.22,-652.43 317.54,-659.23"/>
</g>
<!-- 1218712631520&#45;&gt;1218712631952 -->
<g id="edge18" class="edge">
<title>1218712631520&#45;&gt;1218712631952</title>
<path fill="none" stroke="black" d="M530.97,-563.65C576.43,-563.08 672.81,-562 754.25,-562 754.25,-562 754.25,-562 2013,-562 2066.97,-562 2122.99,-531.55 2157.43,-508.7"/>
<polygon fill="black" stroke="black" points="2159,-511.86 2165.3,-503.34 2155.06,-506.07 2159,-511.86"/>
</g>
<!-- 1218712627920&#45;&gt;1218712618368 -->
<g id="edge19" class="edge">
<title>1218712627920&#45;&gt;1218712618368</title>
<path fill="none" stroke="black" d="M479.66,-729.76C468.3,-735.32 454.2,-741.2 440.75,-744 340.72,-764.83 219.41,-751.24 158.5,-741.83"/>
<polygon fill="black" stroke="black" points="159.42,-738.43 148.99,-740.31 158.32,-745.34 159.42,-738.43"/>
</g>
<!-- 1218712618560&#45;&gt;1218712617264 -->
<g id="edge21" class="edge">
<title>1218712618560&#45;&gt;1218712617264</title>
<path fill="none" stroke="black" d="M225.59,-685.61C236.81,-669.72 253.76,-648.99 273.25,-636 286.88,-626.92 303.8,-620.69 318.78,-616.52"/>
<polygon fill="black" stroke="black" points="319.48,-619.96 328.31,-614.1 317.75,-613.17 319.48,-619.96"/>
</g>
<!-- 1218712618560&#45;&gt;1218712617792 -->
<g id="edge20" class="edge">
<title>1218712618560&#45;&gt;1218712617792</title>
<path fill="none" stroke="black" d="M237.46,-709.63C260.11,-711.04 293.11,-713.09 318.54,-714.67"/>
<polygon fill="black" stroke="black" points="318.27,-718.16 328.47,-715.29 318.71,-711.17 318.27,-718.16"/>
</g>
<!-- 1218712628256&#45;&gt;1218712619664 -->
<g id="edge22" class="edge">
<title>1218712628256&#45;&gt;1218712619664</title>
<path fill="none" stroke="black" d="M234.22,-427.01C282.39,-453.03 398.16,-509 502.75,-509 502.75,-509 502.75,-509 630.5,-509 692.11,-509 763.7,-510.26 806.42,-511.15"/>
<polygon fill="black" stroke="black" points="806.34,-514.65 816.41,-511.36 806.49,-507.65 806.34,-514.65"/>
</g>
<!-- 1218712628256&#45;&gt;1218712619952 -->
<g id="edge23" class="edge">
<title>1218712628256&#45;&gt;1218712619952</title>
<path fill="none" stroke="black" d="M237.46,-414C260.11,-414 293.11,-414 318.54,-414"/>
<polygon fill="black" stroke="black" points="318.47,-417.5 328.47,-414 318.47,-410.5 318.47,-417.5"/>
</g>
<!-- 1218712619424&#45;&gt;1218712631952 -->
<g id="edge24" class="edge">
<title>1218712619424&#45;&gt;1218712631952</title>
<path fill="none" stroke="black" d="M2129.4,-484C2136.89,-484 2145.18,-484 2153.2,-484"/>
<polygon fill="black" stroke="black" points="2153.1,-487.5 2163.1,-484 2153.1,-480.5 2153.1,-487.5"/>
</g>
<!-- 1218712632816&#45;&gt;1218712632336 -->
<g id="edge25" class="edge">
<title>1218712632816&#45;&gt;1218712632336</title>
<path fill="none" stroke="black" d="M530.99,-451.97C546.9,-453.77 567.57,-456.11 585.78,-458.17"/>
<polygon fill="black" stroke="black" points="585.2,-461.62 595.53,-459.27 585.99,-454.67 585.2,-461.62"/>
</g>
<!-- 1218712632624&#45;&gt;1218712620144 -->
<g id="edge26" class="edge">
<title>1218712632624&#45;&gt;1218712620144</title>
<path fill="none" stroke="black" d="M1769.18,-461C1816.92,-461 1918.23,-461 1973.36,-461"/>
<polygon fill="black" stroke="black" points="1973.2,-464.5 1983.2,-461 1973.2,-457.5 1973.2,-464.5"/>
</g>
<!-- 1218712631232&#45;&gt;1218712630800 -->
<g id="edge28" class="edge">
<title>1218712631232&#45;&gt;1218712630800</title>
<path fill="none" stroke="black" d="M528.62,-385.4C539.91,-390.22 553.75,-395.34 566.75,-398 869.11,-459.91 952.12,-422 1260.75,-422 1260.75,-422 1260.75,-422 1412.88,-422 1483.63,-422 1566.18,-419.32 1613.15,-417.54"/>
<polygon fill="black" stroke="black" points="1613.21,-421.04 1623.07,-417.16 1612.94,-414.05 1613.21,-421.04"/>
</g>
<!-- 1218712631232&#45;&gt;1218712630368 -->
<g id="edge29" class="edge">
<title>1218712631232&#45;&gt;1218712630368</title>
<path fill="none" stroke="black" d="M528.5,-362.25C540,-356.62 554.04,-349.85 566.75,-344 574.81,-340.29 583.5,-336.41 591.76,-332.79"/>
<polygon fill="black" stroke="black" points="593.11,-336.02 600.87,-328.81 590.31,-329.6 593.11,-336.02"/>
</g>
<!-- 1218712631232&#45;&gt;1218712629984 -->
<g id="edge27" class="edge">
<title>1218712631232&#45;&gt;1218712629984</title>
<path fill="none" stroke="black" d="M530.99,-373.36C538.25,-373.19 546.49,-372.99 555.04,-372.78"/>
<polygon fill="black" stroke="black" points="554.97,-376.28 564.88,-372.54 554.8,-369.29 554.97,-376.28"/>
</g>
<!-- 1218712631040&#45;&gt;1218712620144 -->
<g id="edge30" class="edge">
<title>1218712631040&#45;&gt;1218712620144</title>
<path fill="none" stroke="black" d="M1945.21,-419.88C1954.31,-425.57 1965.08,-432.3 1975.25,-438.65"/>
<polygon fill="black" stroke="black" points="1973.11,-441.45 1983.45,-443.78 1976.82,-435.51 1973.11,-441.45"/>
</g>
<!-- 1218712630512&#45;&gt;1218712630416 -->
<g id="edge31" class="edge">
<title>1218712630512&#45;&gt;1218712630416</title>
<path fill="none" stroke="black" d="M781.23,-309.34C789.31,-306.86 798.44,-304.06 807.2,-301.37"/>
<polygon fill="black" stroke="black" points="808,-304.78 816.53,-298.5 805.94,-298.09 808,-304.78"/>
</g>
<!-- 1218712629408&#45;&gt;1218712628976 -->
<g id="edge33" class="edge">
<title>1218712629408&#45;&gt;1218712628976</title>
<path fill="none" stroke="black" d="M962.52,-332.88C988.99,-330.75 1030.09,-327.43 1059.99,-325.02"/>
<polygon fill="black" stroke="black" points="1060.05,-328.53 1069.74,-324.24 1059.49,-321.55 1060.05,-328.53"/>
</g>
<!-- 1218712629408&#45;&gt;1218712628592 -->
<g id="edge32" class="edge">
<title>1218712629408&#45;&gt;1218712628592</title>
<path fill="none" stroke="black" d="M961.8,-341.5C985.4,-347.5 1021.05,-356.56 1049.89,-363.9"/>
<polygon fill="black" stroke="black" points="1048.95,-367.27 1059.51,-366.34 1050.68,-360.48 1048.95,-367.27"/>
</g>
<!-- 1218712629216&#45;&gt;1218712629648 -->
<g id="edge34" class="edge">
<title>1218712629216&#45;&gt;1218712629648</title>
<path fill="none" stroke="black" d="M1289.08,-367.15C1341.06,-367.43 1460.55,-368 1561,-368 1561,-368 1561,-368 1653,-368 1702.3,-368 1758.08,-355.96 1793.85,-346.65"/>
<polygon fill="black" stroke="black" points="1794.51,-350.1 1803.26,-344.14 1792.7,-343.34 1794.51,-350.1"/>
</g>
<!-- 1218712629024&#45;&gt;1218712625808 -->
<g id="edge36" class="edge">
<title>1218712629024&#45;&gt;1218712625808</title>
<path fill="none" stroke="black" d="M962.16,-257.7C988.68,-252.27 1030.17,-243.78 1060.22,-237.63"/>
<polygon fill="black" stroke="black" points="1060.54,-241.14 1069.64,-235.7 1059.14,-234.28 1060.54,-241.14"/>
</g>
<!-- 1218712629024&#45;&gt;1218712626096 -->
<g id="edge35" class="edge">
<title>1218712629024&#45;&gt;1218712626096</title>
<path fill="none" stroke="black" d="M962.34,-266.14C1009.52,-271.82 1112.19,-284.23 1198.75,-295 1254.77,-301.97 1268.49,-306.37 1324.75,-311 1394.74,-316.77 1476.71,-318.84 1523.38,-319.59"/>
<polygon fill="black" stroke="black" points="1523.17,-323.09 1533.22,-319.73 1523.27,-316.09 1523.17,-323.09"/>
</g>
<!-- 1218712626336&#45;&gt;1218712629648 -->
<g id="edge37" class="edge">
<title>1218712626336&#45;&gt;1218712629648</title>
<path fill="none" stroke="black" d="M1768.45,-319.65C1776.36,-321.72 1785.24,-324.04 1793.78,-326.27"/>
<polygon fill="black" stroke="black" points="1792.66,-329.6 1803.22,-328.74 1794.43,-322.82 1792.66,-329.6"/>
</g>
<!-- 1218712625376&#45;&gt;1218712624944 -->
<g id="edge39" class="edge">
<title>1218712625376&#45;&gt;1218712624944</title>
<path fill="none" stroke="black" d="M1287.42,-162.01C1298.75,-157.94 1312.4,-153.13 1324.75,-149 1340.78,-143.65 1358.58,-138.01 1373.82,-133.28"/>
<polygon fill="black" stroke="black" points="1374.44,-136.76 1382.96,-130.47 1372.37,-130.07 1374.44,-136.76"/>
</g>
<!-- 1218712625376&#45;&gt;1218712624560 -->
<g id="edge38" class="edge">
<title>1218712625376&#45;&gt;1218712624560</title>
<path fill="none" stroke="black" d="M1289.23,-171.89C1307.09,-172.5 1331.35,-173.32 1353.5,-174.06"/>
<polygon fill="black" stroke="black" points="1353.23,-177.56 1363.34,-174.4 1353.46,-170.56 1353.23,-177.56"/>
</g>
<!-- 1218712625184&#45;&gt;1218712625616 -->
<g id="edge40" class="edge">
<title>1218712625184&#45;&gt;1218712625616</title>
<path fill="none" stroke="black" d="M1582.97,-193.47C1594.34,-203.42 1608.8,-216.08 1621.46,-227.16"/>
<polygon fill="black" stroke="black" points="1618.91,-229.58 1628.74,-233.53 1623.52,-224.31 1618.91,-229.58"/>
</g>
<!-- 1218712624992&#45;&gt;1218712623984 -->
<g id="edge42" class="edge">
<title>1218712624992&#45;&gt;1218712623984</title>
<path fill="none" stroke="black" d="M1288.89,-240.71C1312.23,-238.66 1346.69,-235.63 1373.03,-233.32"/>
<polygon fill="black" stroke="black" points="1373.33,-236.81 1382.99,-232.45 1372.72,-229.84 1373.33,-236.81"/>
</g>
<!-- 1218712624992&#45;&gt;1218712623600 -->
<g id="edge41" class="edge">
<title>1218712624992&#45;&gt;1218712623600</title>
<path fill="none" stroke="black" d="M1288.21,-250.05C1300.9,-253.56 1317,-258.02 1333.32,-262.53"/>
<polygon fill="black" stroke="black" points="1332.02,-265.8 1342.59,-265.1 1333.88,-259.06 1332.02,-265.8"/>
</g>
<!-- 1218712624224&#45;&gt;1218712625616 -->
<g id="edge43" class="edge">
<title>1218712624224&#45;&gt;1218712625616</title>
<path fill="none" stroke="black" d="M1589.4,-253C1596.89,-253 1605.18,-253 1613.2,-253"/>
<polygon fill="black" stroke="black" points="1613.1,-256.5 1623.1,-253 1613.1,-249.5 1613.1,-256.5"/>
</g>
<!-- 1218712626144&#45;&gt;1218712623120 -->
<g id="edge45" class="edge">
<title>1218712626144&#45;&gt;1218712623120</title>
<path fill="none" stroke="black" d="M960.07,-138.66C971.47,-133.49 985.4,-127.52 998.25,-123 1018.34,-115.94 1041.25,-109.59 1059.99,-104.83"/>
<polygon fill="black" stroke="black" points="1060.73,-108.26 1069.59,-102.45 1059.04,-101.46 1060.73,-108.26"/>
</g>
<!-- 1218712626144&#45;&gt;1218712622736 -->
<g id="edge44" class="edge">
<title>1218712626144&#45;&gt;1218712622736</title>
<path fill="none" stroke="black" d="M962.52,-150C969.67,-150 977.89,-150 986.67,-150"/>
<polygon fill="black" stroke="black" points="986.54,-153.5 996.54,-150 986.54,-146.5 986.54,-153.5"/>
</g>
<!-- 1218712623360&#45;&gt;1218712629648 -->
<g id="edge46" class="edge">
<title>1218712623360&#45;&gt;1218712629648</title>
<path fill="none" stroke="black" d="M1289.04,-93.05C1340.96,-87.49 1460.32,-76 1561,-76 1561,-76 1561,-76 1653,-76 1763.69,-76 1810.61,-238.44 1825.41,-306.53"/>
<polygon fill="black" stroke="black" points="1821.96,-307.16 1827.43,-316.24 1828.82,-305.73 1821.96,-307.16"/>
</g>
<!-- 1218707189488&#45;&gt;1218707189152 -->
<g id="edge48" class="edge">
<title>1218707189488&#45;&gt;1218707189152</title>
<path fill="none" stroke="black" d="M235.17,-297.95C246.6,-292.83 260.52,-286.84 273.25,-282 287.96,-276.41 304.4,-270.9 318.73,-266.33"/>
<polygon fill="black" stroke="black" points="319.76,-269.67 328.24,-263.34 317.66,-263 319.76,-269.67"/>
</g>
<!-- 1218707189488&#45;&gt;1218707188768 -->
<g id="edge47" class="edge">
<title>1218707189488&#45;&gt;1218707188768</title>
<path fill="none" stroke="black" d="M237.46,-309C244.68,-309 252.95,-309 261.69,-309"/>
<polygon fill="black" stroke="black" points="261.46,-312.5 271.46,-309 261.46,-305.5 261.46,-312.5"/>
</g>
<!-- 1218707189296&#45;&gt;1218707189824 -->
<g id="edge49" class="edge">
<title>1218707189296&#45;&gt;1218707189824</title>
<path fill="none" stroke="black" d="M517.19,-231.36C548.67,-175.12 637.43,-38 754.25,-38 754.25,-38 754.25,-38 2416.25,-38 2480.82,-38 2555.98,-38 2599.99,-38"/>
<polygon fill="black" stroke="black" points="2599.76,-41.5 2609.76,-38 2599.76,-34.5 2599.76,-41.5"/>
</g>
<!-- 1218707187808&#45;&gt;1218707178928 -->
<g id="edge51" class="edge">
<title>1218707187808&#45;&gt;1218707178928</title>
<path fill="none" stroke="black" d="M237.46,-107C260.11,-107 293.11,-107 318.54,-107"/>
<polygon fill="black" stroke="black" points="318.47,-110.5 328.47,-107 318.47,-103.5 318.47,-110.5"/>
</g>
<!-- 1218707187808&#45;&gt;1218707190256 -->
<g id="edge50" class="edge">
<title>1218707187808&#45;&gt;1218707190256</title>
<path fill="none" stroke="black" d="M235.17,-95.95C246.6,-90.83 260.52,-84.84 273.25,-80 277.54,-78.37 281.98,-76.75 286.47,-75.15"/>
<polygon fill="black" stroke="black" points="287.27,-78.58 295.56,-71.99 284.97,-71.97 287.27,-78.58"/>
</g>
</g>
</svg>
