<?xml version="1.0" encoding="UTF-8" standalone="no"?>
<!DOCTYPE svg PUBLIC "-//W3C//DTD SVG 1.1//EN"
 "http://www.w3.org/Graphics/SVG/1.1/DTD/svg11.dtd">
<!-- Generated by graphviz version 12.2.0 (20241103.1931)
 -->
<!-- Title: imdf_net_1739903348.9340603 Pages: 1 -->
<svg width="2785pt" height="830pt"
 viewBox="0.00 0.00 2785.00 830.00" xmlns="http://www.w3.org/2000/svg" xmlns:xlink="http://www.w3.org/1999/xlink">
<g id="graph0" class="graph" transform="scale(1 1) rotate(0) translate(4 826)">
<title>imdf_net_1739903348.9340603</title>
<polygon fill="white" stroke="none" points="-4,4 -4,-826 2781,-826 2781,4 -4,4"/>
<!-- 3149211692928 -->
<g id="node1" class="node">
<title>3149211692928</title>
<polygon fill="black" stroke="black" points="795.75,-822 741.75,-822 741.75,-786 795.75,-786 795.75,-822"/>
</g>
<!-- 3149211692688 -->
<g id="node38" class="node">
<title>3149211692688</title>
<ellipse fill="white" stroke="black" cx="948.75" cy="-703" rx="27" ry="27"/>
</g>
<!-- 3149211692928&#45;&gt;3149211692688 -->
<g id="edge69" class="edge">
<title>3149211692928&#45;&gt;3149211692688</title>
<path fill="none" stroke="black" d="M796.06,-804.79C820.89,-804.37 858.3,-800.61 885.75,-784 904.5,-772.66 919.6,-753.36 930.21,-736.45"/>
<polygon fill="black" stroke="black" points="933.05,-738.52 935.16,-728.14 927.03,-734.94 933.05,-738.52"/>
</g>
<!-- 3149211693312 -->
<g id="node2" class="node">
<title>3149211693312</title>
<polygon fill="black" stroke="black" points="397.5,-736 343.5,-736 343.5,-700 397.5,-700 397.5,-736"/>
</g>
<!-- 3149211693216 -->
<g id="node39" class="node">
<title>3149211693216</title>
<ellipse fill="white" stroke="black" cx="517.25" cy="-718" rx="27" ry="27"/>
</g>
<!-- 3149211693312&#45;&gt;3149211693216 -->
<g id="edge15" class="edge">
<title>3149211693312&#45;&gt;3149211693216</title>
<path fill="none" stroke="black" d="M397.71,-718C420.36,-718 453.36,-718 478.79,-718"/>
<polygon fill="black" stroke="black" points="478.72,-721.5 488.72,-718 478.72,-714.5 478.72,-721.5"/>
</g>
<!-- 3149211695616 -->
<g id="node3" class="node">
<title>3149211695616</title>
<polygon fill="black" stroke="black" points="397.5,-552 343.5,-552 343.5,-516 397.5,-516 397.5,-552"/>
</g>
<!-- 3149211696048 -->
<g id="node43" class="node">
<title>3149211696048</title>
<ellipse fill="white" stroke="black" cx="517.25" cy="-645" rx="27" ry="27"/>
</g>
<!-- 3149211695616&#45;&gt;3149211696048 -->
<g id="edge76" class="edge">
<title>3149211695616&#45;&gt;3149211696048</title>
<path fill="none" stroke="black" d="M395.4,-552.33C420.26,-571.39 459.22,-601.27 486.16,-621.92"/>
<polygon fill="black" stroke="black" points="483.87,-624.58 493.94,-627.89 488.13,-619.03 483.87,-624.58"/>
</g>
<!-- 3149211696720 -->
<g id="node45" class="node">
<title>3149211696720</title>
<ellipse fill="white" stroke="black" cx="517.25" cy="-534" rx="27" ry="27"/>
</g>
<!-- 3149211695616&#45;&gt;3149211696720 -->
<g id="edge77" class="edge">
<title>3149211695616&#45;&gt;3149211696720</title>
<path fill="none" stroke="black" d="M397.71,-534C420.36,-534 453.36,-534 478.79,-534"/>
<polygon fill="black" stroke="black" points="478.72,-537.5 488.72,-534 478.72,-530.5 478.72,-537.5"/>
</g>
<!-- 3149211783168 -->
<g id="node4" class="node">
<title>3149211783168</title>
<polygon fill="black" stroke="black" points="1139,-358 1085,-358 1085,-322 1139,-322 1139,-358"/>
</g>
<!-- 3149211783600 -->
<g id="node54" class="node">
<title>3149211783600</title>
<ellipse fill="white" stroke="black" cx="1275.25" cy="-408" rx="27" ry="27"/>
</g>
<!-- 3149211783168&#45;&gt;3149211783600 -->
<g id="edge81" class="edge">
<title>3149211783168&#45;&gt;3149211783600</title>
<path fill="none" stroke="black" d="M1139.27,-346.81C1159.61,-352.47 1188.27,-361.32 1212.25,-372 1222.35,-376.5 1232.91,-382.21 1242.39,-387.76"/>
<polygon fill="black" stroke="black" points="1240.52,-390.71 1250.89,-392.86 1244.12,-384.71 1240.52,-390.71"/>
</g>
<!-- 3149211783984 -->
<g id="node56" class="node">
<title>3149211783984</title>
<ellipse fill="white" stroke="black" cx="1275.25" cy="-336" rx="27" ry="27"/>
</g>
<!-- 3149211783168&#45;&gt;3149211783984 -->
<g id="edge82" class="edge">
<title>3149211783168&#45;&gt;3149211783984</title>
<path fill="none" stroke="black" d="M1139.27,-339.35C1165.74,-338.69 1206.84,-337.67 1236.74,-336.93"/>
<polygon fill="black" stroke="black" points="1236.57,-340.44 1246.48,-336.69 1236.4,-333.44 1236.57,-340.44"/>
</g>
<!-- 3149211688464 -->
<g id="node5" class="node">
<title>3149211688464</title>
<polygon fill="white" stroke="black" points="160.75,-221 90,-221 90,-185 160.75,-185 160.75,-221"/>
<text text-anchor="middle" x="125.38" y="-198.72" font-family="Times New Roman,serif" font-size="12.00">Create Fine</text>
</g>
<!-- 3149211692496 -->
<g id="node37" class="node">
<title>3149211692496</title>
<ellipse fill="white" stroke="black" cx="223.75" cy="-718" rx="27" ry="27"/>
</g>
<!-- 3149211688464&#45;&gt;3149211692496 -->
<g id="edge6" class="edge">
<title>3149211688464&#45;&gt;3149211692496</title>
<path fill="none" stroke="black" d="M129.81,-221.33C143.77,-295.95 196.51,-577.77 215.71,-680.36"/>
<polygon fill="black" stroke="black" points="212.21,-680.73 217.49,-689.91 219.09,-679.44 212.21,-680.73"/>
</g>
<!-- 3149211692880 -->
<g id="node41" class="node">
<title>3149211692880</title>
<ellipse fill="white" stroke="black" cx="223.75" cy="-239" rx="27" ry="27"/>
</g>
<!-- 3149211688464&#45;&gt;3149211692880 -->
<g id="edge7" class="edge">
<title>3149211688464&#45;&gt;3149211692880</title>
<path fill="none" stroke="black" d="M161.17,-216C169.64,-219.16 178.71,-222.55 187.22,-225.73"/>
<polygon fill="black" stroke="black" points="185.97,-229 196.56,-229.22 188.42,-222.44 185.97,-229"/>
</g>
<!-- 3149211687072 -->
<g id="node58" class="node">
<title>3149211687072</title>
<ellipse fill="white" stroke="black" cx="223.75" cy="-167" rx="27" ry="27"/>
</g>
<!-- 3149211688464&#45;&gt;3149211687072 -->
<g id="edge8" class="edge">
<title>3149211688464&#45;&gt;3149211687072</title>
<path fill="none" stroke="black" d="M161.17,-190C169.64,-186.84 178.71,-183.45 187.22,-180.27"/>
<polygon fill="black" stroke="black" points="188.42,-183.56 196.56,-176.78 185.97,-177 188.42,-183.56"/>
</g>
<!-- 3149211690336 -->
<g id="node60" class="node">
<title>3149211690336</title>
<ellipse fill="white" stroke="black" cx="223.75" cy="-72" rx="27" ry="27"/>
</g>
<!-- 3149211688464&#45;&gt;3149211690336 -->
<g id="edge9" class="edge">
<title>3149211688464&#45;&gt;3149211690336</title>
<path fill="none" stroke="black" d="M139.98,-184.51C155.62,-163.25 181.54,-128.01 200.21,-102.64"/>
<polygon fill="black" stroke="black" points="202.97,-104.79 206.08,-94.66 197.33,-100.64 202.97,-104.79"/>
</g>
<!-- 3149211684240 -->
<g id="node6" class="node">
<title>3149211684240</title>
<polygon fill="black" stroke="black" points="397.5,-198 343.5,-198 343.5,-162 397.5,-162 397.5,-198"/>
</g>
<!-- 3149211687648 -->
<g id="node59" class="node">
<title>3149211687648</title>
<ellipse fill="white" stroke="black" cx="517.25" cy="-158" rx="27" ry="27"/>
</g>
<!-- 3149211684240&#45;&gt;3149211687648 -->
<g id="edge67" class="edge">
<title>3149211684240&#45;&gt;3149211687648</title>
<path fill="none" stroke="black" d="M397.71,-176.02C420.46,-172.56 453.66,-167.51 479.13,-163.64"/>
<polygon fill="black" stroke="black" points="479.37,-167.14 488.74,-162.18 478.32,-160.22 479.37,-167.14"/>
</g>
<!-- 3149211681168 -->
<g id="node7" class="node">
<title>3149211681168</title>
<polygon fill="black" stroke="black" points="2679,-176 2625,-176 2625,-140 2679,-140 2679,-176"/>
</g>
<!-- 3149211685344 -->
<g id="node63" class="node">
<title>3149211685344</title>
<ellipse fill="white" stroke="black" cx="2746" cy="-158" rx="27" ry="27"/>
<ellipse fill="none" stroke="black" cx="2746" cy="-158" rx="31" ry="31"/>
<text text-anchor="start" x="2736.25" y="-145.97" font-family="Times New Roman,serif" font-size="32.00">■</text>
</g>
<!-- 3149211681168&#45;&gt;3149211685344 -->
<g id="edge73" class="edge">
<title>3149211681168&#45;&gt;3149211685344</title>
<path fill="none" stroke="black" d="M2679.12,-158C2686.63,-158 2695.01,-158 2703.22,-158"/>
<polygon fill="black" stroke="black" points="2703.08,-161.5 2713.08,-158 2703.08,-154.5 2703.08,-161.5"/>
</g>
<!-- 3149211696528 -->
<g id="node8" class="node">
<title>3149211696528</title>
<polygon fill="white" stroke="black" points="675,-671 611,-671 611,-635 675,-635 675,-671"/>
<text text-anchor="middle" x="643" y="-648.73" font-family="Times New Roman,serif" font-size="12.00">Send Fine</text>
</g>
<!-- 3149211696240 -->
<g id="node44" class="node">
<title>3149211696240</title>
<ellipse fill="white" stroke="black" cx="1845.5" cy="-638" rx="27" ry="27"/>
</g>
<!-- 3149211696528&#45;&gt;3149211696240 -->
<g id="edge4" class="edge">
<title>3149211696528&#45;&gt;3149211696240</title>
<path fill="none" stroke="black" d="M675.15,-651.82C716.76,-650.34 792.79,-648 857.75,-648 857.75,-648 857.75,-648 1666.5,-648 1715.02,-648 1770.87,-644.25 1806.88,-641.34"/>
<polygon fill="black" stroke="black" points="1807.1,-644.84 1816.78,-640.52 1806.52,-637.86 1807.1,-644.84"/>
</g>
<!-- 3149211785616 -->
<g id="node9" class="node">
<title>3149211785616</title>
<polygon fill="white" stroke="black" points="2499,-466 2358.5,-466 2358.5,-430 2499,-430 2499,-466"/>
<text text-anchor="middle" x="2428.75" y="-443.73" font-family="Times New Roman,serif" font-size="12.00">Send for Credit Collection</text>
</g>
<!-- 3149211685296 -->
<g id="node62" class="node">
<title>3149211685296</title>
<ellipse fill="white" stroke="black" cx="2562" cy="-394" rx="27" ry="27"/>
</g>
<!-- 3149211785616&#45;&gt;3149211685296 -->
<g id="edge2" class="edge">
<title>3149211785616&#45;&gt;3149211685296</title>
<path fill="none" stroke="black" d="M2477.9,-429.5C2485,-426.7 2492.2,-423.8 2499,-421 2507.95,-417.31 2517.57,-413.19 2526.49,-409.31"/>
<polygon fill="black" stroke="black" points="2527.81,-412.56 2535.56,-405.34 2525,-406.14 2527.81,-412.56"/>
</g>
<!-- 3149211690912 -->
<g id="node10" class="node">
<title>3149211690912</title>
<polygon fill="white" stroke="black" points="454.25,-90 286.75,-90 286.75,-54 454.25,-54 454.25,-90"/>
<text text-anchor="middle" x="370.5" y="-67.72" font-family="Times New Roman,serif" font-size="12.00">Insert Date Appeal to Prefecture</text>
</g>
<!-- 3149211688992 -->
<g id="node61" class="node">
<title>3149211688992</title>
<ellipse fill="white" stroke="black" cx="517.25" cy="-72" rx="27" ry="27"/>
</g>
<!-- 3149211690912&#45;&gt;3149211688992 -->
<g id="edge10" class="edge">
<title>3149211690912&#45;&gt;3149211688992</title>
<path fill="none" stroke="black" d="M454.44,-72C462.9,-72 471.16,-72 478.75,-72"/>
<polygon fill="black" stroke="black" points="478.54,-75.5 488.54,-72 478.54,-68.5 478.54,-75.5"/>
</g>
<!-- 3149211781920 -->
<g id="node11" class="node">
<title>3149211781920</title>
<polygon fill="black" stroke="black" points="1139,-471 1085,-471 1085,-435 1139,-435 1139,-471"/>
</g>
<!-- 3149211781680 -->
<g id="node51" class="node">
<title>3149211781680</title>
<ellipse fill="white" stroke="black" cx="1275.25" cy="-480" rx="27" ry="27"/>
</g>
<!-- 3149211781920&#45;&gt;3149211781680 -->
<g id="edge62" class="edge">
<title>3149211781920&#45;&gt;3149211781680</title>
<path fill="none" stroke="black" d="M1139.27,-457.4C1165.82,-461.84 1207.09,-468.75 1237.01,-473.76"/>
<polygon fill="black" stroke="black" points="1236.33,-477.2 1246.77,-475.4 1237.48,-470.3 1236.33,-477.2"/>
</g>
<!-- 3149211782304 -->
<g id="node12" class="node">
<title>3149211782304</title>
<polygon fill="white" stroke="black" points="1149.25,-417 1074.75,-417 1074.75,-381 1149.25,-381 1149.25,-417"/>
<text text-anchor="middle" x="1112" y="-394.73" font-family="Times New Roman,serif" font-size="12.00">Add penalty</text>
</g>
<!-- 3149211782304&#45;&gt;3149211781680 -->
<g id="edge13" class="edge">
<title>3149211782304&#45;&gt;3149211781680</title>
<path fill="none" stroke="black" d="M1149.38,-404.8C1168.83,-408.9 1192.72,-415.56 1212.25,-426 1225.13,-432.89 1237.62,-442.9 1247.98,-452.44"/>
<polygon fill="black" stroke="black" points="1245.4,-454.81 1255.04,-459.21 1250.24,-449.76 1245.4,-454.81"/>
</g>
<!-- 3149211784992 -->
<g id="node13" class="node">
<title>3149211784992</title>
<polygon fill="black" stroke="black" points="1452.38,-382 1398.38,-382 1398.38,-346 1452.38,-346 1452.38,-382"/>
</g>
<!-- 3149211784752 -->
<g id="node57" class="node">
<title>3149211784752</title>
<ellipse fill="white" stroke="black" cx="1575.5" cy="-355" rx="27" ry="27"/>
</g>
<!-- 3149211784992&#45;&gt;3149211784752 -->
<g id="edge65" class="edge">
<title>3149211784992&#45;&gt;3149211784752</title>
<path fill="none" stroke="black" d="M1452.86,-362.39C1476.24,-360.97 1510.59,-358.88 1536.83,-357.29"/>
<polygon fill="black" stroke="black" points="1536.97,-360.79 1546.74,-356.69 1536.54,-353.8 1536.97,-360.79"/>
</g>
<!-- 3149211785376 -->
<g id="node14" class="node">
<title>3149211785376</title>
<polygon fill="white" stroke="black" points="1512.5,-328 1338.25,-328 1338.25,-292 1512.5,-292 1512.5,-328"/>
<text text-anchor="middle" x="1425.38" y="-305.73" font-family="Times New Roman,serif" font-size="12.00">Notify Result Appeal to Offender</text>
</g>
<!-- 3149211785376&#45;&gt;3149211784752 -->
<g id="edge11" class="edge">
<title>3149211785376&#45;&gt;3149211784752</title>
<path fill="none" stroke="black" d="M1487.05,-328.43C1504.54,-333.75 1523.05,-339.37 1538.53,-344.07"/>
<polygon fill="black" stroke="black" points="1537.16,-347.31 1547.75,-346.87 1539.2,-340.62 1537.16,-347.31"/>
</g>
<!-- 3149211690288 -->
<g id="node15" class="node">
<title>3149211690288</title>
<polygon fill="white" stroke="black" points="440.38,-144 300.62,-144 300.62,-108 440.38,-108 440.38,-144"/>
<text text-anchor="middle" x="370.5" y="-121.72" font-family="Times New Roman,serif" font-size="12.00">Send Appeal to Prefecture</text>
</g>
<!-- 3149211690288&#45;&gt;3149211687648 -->
<g id="edge1" class="edge">
<title>3149211690288&#45;&gt;3149211687648</title>
<path fill="none" stroke="black" d="M440.48,-141.25C454.06,-144.25 467.79,-147.29 479.77,-149.94"/>
<polygon fill="black" stroke="black" points="478.66,-153.27 489.17,-152.01 480.17,-146.44 478.66,-153.27"/>
</g>
<!-- 3149211695280 -->
<g id="node16" class="node">
<title>3149211695280</title>
<polygon fill="black" stroke="black" points="2455.75,-412 2401.75,-412 2401.75,-376 2455.75,-376 2455.75,-412"/>
</g>
<!-- 3149211695280&#45;&gt;3149211685296 -->
<g id="edge66" class="edge">
<title>3149211695280&#45;&gt;3149211685296</title>
<path fill="none" stroke="black" d="M2455.99,-394C2475.31,-394 2501.85,-394 2523.41,-394"/>
<polygon fill="black" stroke="black" points="2523.29,-397.5 2533.29,-394 2523.29,-390.5 2523.29,-397.5"/>
</g>
<!-- 3149211693888 -->
<g id="node17" class="node">
<title>3149211693888</title>
<polygon fill="white" stroke="black" points="671.62,-727 614.38,-727 614.38,-691 671.62,-691 671.62,-727"/>
<text text-anchor="middle" x="643" y="-704.73" font-family="Times New Roman,serif" font-size="12.00">Payment</text>
</g>
<!-- 3149211693696 -->
<g id="node40" class="node">
<title>3149211693696</title>
<ellipse fill="white" stroke="black" cx="768.75" cy="-703" rx="27" ry="27"/>
</g>
<!-- 3149211693888&#45;&gt;3149211693696 -->
<g id="edge14" class="edge">
<title>3149211693888&#45;&gt;3149211693696</title>
<path fill="none" stroke="black" d="M672.08,-707.64C689.24,-706.81 711.41,-705.73 730.08,-704.83"/>
<polygon fill="black" stroke="black" points="730.14,-708.33 739.96,-704.35 729.8,-701.34 730.14,-708.33"/>
</g>
<!-- 3149211695808 -->
<g id="node18" class="node">
<title>3149211695808</title>
<polygon fill="black" stroke="black" points="2052.5,-562 1998.5,-562 1998.5,-526 2052.5,-526 2052.5,-562"/>
</g>
<!-- 3149211695088 -->
<g id="node42" class="node">
<title>3149211695088</title>
<ellipse fill="white" stroke="black" cx="2115.5" cy="-460" rx="27" ry="27"/>
</g>
<!-- 3149211695808&#45;&gt;3149211695088 -->
<g id="edge71" class="edge">
<title>3149211695808&#45;&gt;3149211695088</title>
<path fill="none" stroke="black" d="M2045.59,-525.77C2057.73,-514.19 2073.65,-499 2087.12,-486.14"/>
<polygon fill="black" stroke="black" points="2089.23,-488.96 2094.04,-479.53 2084.39,-483.9 2089.23,-488.96"/>
</g>
<!-- 3149211779136 -->
<g id="node19" class="node">
<title>3149211779136</title>
<polygon fill="black" stroke="black" points="1782.5,-620 1728.5,-620 1728.5,-584 1782.5,-584 1782.5,-620"/>
</g>
<!-- 3149211696912 -->
<g id="node46" class="node">
<title>3149211696912</title>
<ellipse fill="white" stroke="black" cx="1935.5" cy="-544" rx="27" ry="27"/>
</g>
<!-- 3149211779136&#45;&gt;3149211696912 -->
<g id="edge59" class="edge">
<title>3149211779136&#45;&gt;3149211696912</title>
<path fill="none" stroke="black" d="M1782.76,-593.44C1813.48,-583.43 1864.48,-566.81 1898.78,-555.64"/>
<polygon fill="black" stroke="black" points="1899.42,-559.11 1907.84,-552.69 1897.25,-552.46 1899.42,-559.11"/>
</g>
<!-- 3149211779520 -->
<g id="node20" class="node">
<title>3149211779520</title>
<polygon fill="black" stroke="black" points="885.75,-475 831.75,-475 831.75,-439 885.75,-439 885.75,-475"/>
</g>
<!-- 3149211780528 -->
<g id="node48" class="node">
<title>3149211780528</title>
<ellipse fill="white" stroke="black" cx="948.75" cy="-516" rx="27" ry="27"/>
</g>
<!-- 3149211779520&#45;&gt;3149211780528 -->
<g id="edge78" class="edge">
<title>3149211779520&#45;&gt;3149211780528</title>
<path fill="none" stroke="black" d="M886.15,-474.7C895.65,-481.07 906.45,-488.31 916.32,-494.93"/>
<polygon fill="black" stroke="black" points="914.3,-497.79 924.55,-500.45 918.2,-491.97 914.3,-497.79"/>
</g>
<!-- 3149211780912 -->
<g id="node50" class="node">
<title>3149211780912</title>
<ellipse fill="white" stroke="black" cx="948.75" cy="-444" rx="27" ry="27"/>
</g>
<!-- 3149211779520&#45;&gt;3149211780912 -->
<g id="edge79" class="edge">
<title>3149211779520&#45;&gt;3149211780912</title>
<path fill="none" stroke="black" d="M886.15,-453.1C893.79,-451.97 902.28,-450.72 910.45,-449.51"/>
<polygon fill="black" stroke="black" points="910.79,-453 920.17,-448.07 909.77,-446.07 910.79,-453"/>
</g>
<!-- 3149211781872 -->
<g id="node52" class="node">
<title>3149211781872</title>
<ellipse fill="white" stroke="black" cx="948.75" cy="-340" rx="27" ry="27"/>
</g>
<!-- 3149211779520&#45;&gt;3149211781872 -->
<g id="edge80" class="edge">
<title>3149211779520&#45;&gt;3149211781872</title>
<path fill="none" stroke="black" d="M873.5,-438.72C887.23,-420.47 908.57,-392.09 924.85,-370.44"/>
<polygon fill="black" stroke="black" points="927.59,-372.63 930.8,-362.53 921.99,-368.42 927.59,-372.63"/>
</g>
<!-- 3149211780288 -->
<g id="node21" class="node">
<title>3149211780288</title>
<polygon fill="black" stroke="black" points="1872.5,-546 1818.5,-546 1818.5,-510 1872.5,-510 1872.5,-546"/>
</g>
<!-- 3149211780288&#45;&gt;3149211696912 -->
<g id="edge72" class="edge">
<title>3149211780288&#45;&gt;3149211696912</title>
<path fill="none" stroke="black" d="M1872.9,-532.8C1880.54,-534.19 1889.03,-535.73 1897.2,-537.22"/>
<polygon fill="black" stroke="black" points="1896.47,-540.64 1906.93,-538.99 1897.72,-533.75 1896.47,-540.64"/>
</g>
<!-- 3149211783360 -->
<g id="node22" class="node">
<title>3149211783360</title>
<polygon fill="black" stroke="black" points="1692.5,-409 1638.5,-409 1638.5,-373 1692.5,-373 1692.5,-409"/>
</g>
<!-- 3149211782640 -->
<g id="node53" class="node">
<title>3149211782640</title>
<ellipse fill="white" stroke="black" cx="1755.5" cy="-391" rx="27" ry="27"/>
</g>
<!-- 3149211783360&#45;&gt;3149211782640 -->
<g id="edge74" class="edge">
<title>3149211783360&#45;&gt;3149211782640</title>
<path fill="none" stroke="black" d="M1692.9,-391C1700.39,-391 1708.68,-391 1716.7,-391"/>
<polygon fill="black" stroke="black" points="1716.6,-394.5 1726.6,-391 1716.6,-387.5 1716.6,-394.5"/>
</g>
<!-- 3149211688416 -->
<g id="node23" class="node">
<title>3149211688416</title>
<polygon fill="black" stroke="black" points="397.5,-36 343.5,-36 343.5,0 397.5,0 397.5,-36"/>
</g>
<!-- 3149211688416&#45;&gt;3149211688992 -->
<g id="edge68" class="edge">
<title>3149211688416&#45;&gt;3149211688992</title>
<path fill="none" stroke="black" d="M397.81,-25.88C414.18,-30.96 435.6,-37.92 454.25,-45 463.3,-48.44 472.95,-52.46 481.88,-56.34"/>
<polygon fill="black" stroke="black" points="480.38,-59.5 490.94,-60.34 483.2,-53.1 480.38,-59.5"/>
</g>
<!-- 3149211686880 -->
<g id="node24" class="node">
<title>3149211686880</title>
<polygon fill="black" stroke="black" points="2232.5,-478 2178.5,-478 2178.5,-442 2232.5,-442 2232.5,-478"/>
</g>
<!-- 3149211683472 -->
<g id="node36" class="node">
<title>3149211683472</title>
<ellipse fill="white" stroke="black" cx="2295.5" cy="-448" rx="27" ry="27"/>
</g>
<!-- 3149211686880&#45;&gt;3149211683472 -->
<g id="edge75" class="edge">
<title>3149211686880&#45;&gt;3149211683472</title>
<path fill="none" stroke="black" d="M2232.9,-456.4C2240.54,-455.36 2249.03,-454.2 2257.2,-453.09"/>
<polygon fill="black" stroke="black" points="2257.48,-456.58 2266.92,-451.76 2256.54,-449.64 2257.48,-456.58"/>
</g>
<!-- 3149211694176 -->
<g id="node25" class="node">
<title>3149211694176</title>
<polygon fill="black" stroke="black" points="885.75,-775 831.75,-775 831.75,-739 885.75,-739 885.75,-775"/>
</g>
<!-- 3149211694176&#45;&gt;3149211693216 -->
<g id="edge56" class="edge">
<title>3149211694176&#45;&gt;3149211693216</title>
<path fill="none" stroke="black" d="M831.51,-756.82C781.98,-756.07 671.53,-752.52 580.25,-736 571.76,-734.46 562.76,-732.22 554.34,-729.84"/>
<polygon fill="black" stroke="black" points="555.34,-726.49 544.76,-726.99 553.34,-733.2 555.34,-726.49"/>
</g>
<!-- 3149211695328 -->
<g id="node26" class="node">
<title>3149211695328</title>
<polygon fill="black" stroke="black" points="1692.5,-296 1638.5,-296 1638.5,-260 1692.5,-260 1692.5,-296"/>
</g>
<!-- 3149211695328&#45;&gt;3149211695088 -->
<g id="edge58" class="edge">
<title>3149211695328&#45;&gt;3149211695088</title>
<path fill="none" stroke="black" d="M1692.92,-287.79C1727.32,-299.63 1789.55,-318 1844.5,-318 1844.5,-318 1844.5,-318 1936.5,-318 2006.55,-318 2064.91,-386.03 2094.2,-427.92"/>
<polygon fill="black" stroke="black" points="2091.13,-429.64 2099.65,-435.93 2096.92,-425.7 2091.13,-429.64"/>
</g>
<!-- 3149211694560 -->
<g id="node27" class="node">
<title>3149211694560</title>
<polygon fill="black" stroke="black" points="885.75,-721 831.75,-721 831.75,-685 885.75,-685 885.75,-721"/>
</g>
<!-- 3149211694560&#45;&gt;3149211692688 -->
<g id="edge57" class="edge">
<title>3149211694560&#45;&gt;3149211692688</title>
<path fill="none" stroke="black" d="M886.15,-703C893.64,-703 901.93,-703 909.95,-703"/>
<polygon fill="black" stroke="black" points="909.85,-706.5 919.85,-703 909.85,-699.5 909.85,-706.5"/>
</g>
<!-- 3149211780960 -->
<g id="node28" class="node">
<title>3149211780960</title>
<polygon fill="black" stroke="black" points="1139,-579 1085,-579 1085,-543 1139,-543 1139,-579"/>
</g>
<!-- 3149211780720 -->
<g id="node49" class="node">
<title>3149211780720</title>
<ellipse fill="white" stroke="black" cx="1275.25" cy="-552" rx="27" ry="27"/>
</g>
<!-- 3149211780960&#45;&gt;3149211780720 -->
<g id="edge61" class="edge">
<title>3149211780960&#45;&gt;3149211780720</title>
<path fill="none" stroke="black" d="M1139.27,-559.53C1165.74,-558.06 1206.84,-555.76 1236.74,-554.09"/>
<polygon fill="black" stroke="black" points="1236.69,-557.6 1246.48,-553.55 1236.3,-550.61 1236.69,-557.6"/>
</g>
<!-- 3149211781344 -->
<g id="node29" class="node">
<title>3149211781344</title>
<polygon fill="white" stroke="black" points="1212.25,-525 1011.75,-525 1011.75,-489 1212.25,-489 1212.25,-525"/>
<text text-anchor="middle" x="1112" y="-502.73" font-family="Times New Roman,serif" font-size="12.00">Receive Result Appeal from Prefecture</text>
</g>
<!-- 3149211781344&#45;&gt;3149211780720 -->
<g id="edge12" class="edge">
<title>3149211781344&#45;&gt;3149211780720</title>
<path fill="none" stroke="black" d="M1181.38,-525.44C1191.73,-528.28 1202.28,-531.2 1212.25,-534 1220.56,-536.34 1229.48,-538.9 1237.89,-541.33"/>
<polygon fill="black" stroke="black" points="1236.91,-544.69 1247.49,-544.12 1238.86,-537.97 1236.91,-544.69"/>
</g>
<!-- 3149211782880 -->
<g id="node30" class="node">
<title>3149211782880</title>
<polygon fill="black" stroke="black" points="1602.5,-300 1548.5,-300 1548.5,-264 1602.5,-264 1602.5,-300"/>
</g>
<!-- 3149211782880&#45;&gt;3149211782640 -->
<g id="edge63" class="edge">
<title>3149211782880&#45;&gt;3149211782640</title>
<path fill="none" stroke="black" d="M1602.76,-298.08C1634.54,-317.54 1688.02,-350.29 1722.26,-371.26"/>
<polygon fill="black" stroke="black" points="1720.15,-374.07 1730.51,-376.31 1723.81,-368.1 1720.15,-374.07"/>
</g>
<!-- 3149211784032 -->
<g id="node31" class="node">
<title>3149211784032</title>
<polygon fill="black" stroke="black" points="1452.38,-490 1398.38,-490 1398.38,-454 1452.38,-454 1452.38,-490"/>
</g>
<!-- 3149211783792 -->
<g id="node55" class="node">
<title>3149211783792</title>
<ellipse fill="white" stroke="black" cx="1575.5" cy="-427" rx="27" ry="27"/>
</g>
<!-- 3149211784032&#45;&gt;3149211783792 -->
<g id="edge64" class="edge">
<title>3149211784032&#45;&gt;3149211783792</title>
<path fill="none" stroke="black" d="M1452.86,-463.95C1476.74,-456.7 1512.07,-445.97 1538.51,-437.93"/>
<polygon fill="black" stroke="black" points="1539.24,-441.37 1547.79,-435.12 1537.2,-434.67 1539.24,-441.37"/>
</g>
<!-- 3149211784416 -->
<g id="node32" class="node">
<title>3149211784416</title>
<polygon fill="white" stroke="black" points="1472,-436 1378.75,-436 1378.75,-400 1472,-400 1472,-436"/>
<text text-anchor="middle" x="1425.38" y="-413.73" font-family="Times New Roman,serif" font-size="12.00">Appeal to Judge</text>
</g>
<!-- 3149211784416&#45;&gt;3149211783792 -->
<g id="edge5" class="edge">
<title>3149211784416&#45;&gt;3149211783792</title>
<path fill="none" stroke="black" d="M1472.43,-420.8C1493.21,-422.06 1517.43,-423.53 1537.06,-424.73"/>
<polygon fill="black" stroke="black" points="1536.62,-428.2 1546.81,-425.32 1537.04,-421.22 1536.62,-428.2"/>
</g>
<!-- 3149211779568 -->
<g id="node33" class="node">
<title>3149211779568</title>
<polygon fill="black" stroke="black" points="670,-552 616,-552 616,-516 670,-516 670,-552"/>
</g>
<!-- 3149211779424 -->
<g id="node47" class="node">
<title>3149211779424</title>
<ellipse fill="white" stroke="black" cx="768.75" cy="-480" rx="27" ry="27"/>
</g>
<!-- 3149211779568&#45;&gt;3149211779424 -->
<g id="edge60" class="edge">
<title>3149211779568&#45;&gt;3149211779424</title>
<path fill="none" stroke="black" d="M670.24,-522.55C688.56,-514.55 713.2,-503.8 733.13,-495.11"/>
<polygon fill="black" stroke="black" points="734.49,-498.33 742.25,-491.13 731.69,-491.92 734.49,-498.33"/>
</g>
<!-- 3149211779952 -->
<g id="node34" class="node">
<title>3149211779952</title>
<polygon fill="white" stroke="black" points="705.75,-498 580.25,-498 580.25,-462 705.75,-462 705.75,-498"/>
<text text-anchor="middle" x="643" y="-475.73" font-family="Times New Roman,serif" font-size="12.00">Insert Fine Notification</text>
</g>
<!-- 3149211779952&#45;&gt;3149211779424 -->
<g id="edge3" class="edge">
<title>3149211779952&#45;&gt;3149211779424</title>
<path fill="none" stroke="black" d="M706.24,-480C714.37,-480 722.5,-480 730.06,-480"/>
<polygon fill="black" stroke="black" points="729.87,-483.5 739.87,-480 729.87,-476.5 729.87,-483.5"/>
</g>
<!-- 3149211680976 -->
<g id="node35" class="node">
<title>3149211680976</title>
<ellipse fill="white" stroke="black" cx="27" cy="-203" rx="27" ry="27"/>
<text text-anchor="start" x="16.88" y="-189.82" font-family="Times New Roman,serif" font-size="34.00">●</text>
</g>
<!-- 3149211680976&#45;&gt;3149211688464 -->
<g id="edge70" class="edge">
<title>3149211680976&#45;&gt;3149211688464</title>
<path fill="none" stroke="black" d="M54.33,-203C61.76,-203 70.06,-203 78.28,-203"/>
<polygon fill="black" stroke="black" points="78.24,-206.5 88.24,-203 78.24,-199.5 78.24,-206.5"/>
</g>
<!-- 3149211683472&#45;&gt;3149211785616 -->
<g id="edge16" class="edge">
<title>3149211683472&#45;&gt;3149211785616</title>
<path fill="none" stroke="black" d="M2322.74,-448C2329.92,-448 2338.1,-448 2346.65,-448"/>
<polygon fill="black" stroke="black" points="2346.53,-451.5 2356.53,-448 2346.53,-444.5 2346.53,-451.5"/>
</g>
<!-- 3149211683472&#45;&gt;3149211695280 -->
<g id="edge17" class="edge">
<title>3149211683472&#45;&gt;3149211695280</title>
<path fill="none" stroke="black" d="M2320.55,-437.27C2332,-432.22 2345.91,-426.19 2358.5,-421 2368.95,-416.69 2380.35,-412.17 2390.83,-408.09"/>
<polygon fill="black" stroke="black" points="2391.87,-411.44 2399.94,-404.56 2389.35,-404.91 2391.87,-411.44"/>
</g>
<!-- 3149211692496&#45;&gt;3149211692928 -->
<g id="edge19" class="edge">
<title>3149211692496&#45;&gt;3149211692928</title>
<path fill="none" stroke="black" d="M248.31,-730.18C259.65,-735.54 273.61,-741.41 286.75,-745 447.69,-788.92 647.88,-800.2 729.97,-803.05"/>
<polygon fill="black" stroke="black" points="729.81,-806.55 739.92,-803.37 730.04,-799.55 729.81,-806.55"/>
</g>
<!-- 3149211692496&#45;&gt;3149211693312 -->
<g id="edge18" class="edge">
<title>3149211692496&#45;&gt;3149211693312</title>
<path fill="none" stroke="black" d="M250.96,-718C273.61,-718 306.61,-718 332.04,-718"/>
<polygon fill="black" stroke="black" points="331.97,-721.5 341.97,-718 331.97,-714.5 331.97,-721.5"/>
</g>
<!-- 3149211692688&#45;&gt;3149211686880 -->
<g id="edge20" class="edge">
<title>3149211692688&#45;&gt;3149211686880</title>
<path fill="none" stroke="black" d="M975.82,-701.79C1030.91,-699.33 1163.22,-694 1274.25,-694 1274.25,-694 1274.25,-694 2026.5,-694 2128.37,-694 2179.59,-551.78 2197.22,-489.09"/>
<polygon fill="black" stroke="black" points="2200.49,-490.39 2199.73,-479.82 2193.73,-488.56 2200.49,-490.39"/>
</g>
<!-- 3149211693216&#45;&gt;3149211693888 -->
<g id="edge21" class="edge">
<title>3149211693216&#45;&gt;3149211693888</title>
<path fill="none" stroke="black" d="M544.49,-716.09C561.42,-714.86 583.73,-713.24 602.74,-711.86"/>
<polygon fill="black" stroke="black" points="602.84,-715.36 612.56,-711.14 602.34,-708.38 602.84,-715.36"/>
</g>
<!-- 3149211693696&#45;&gt;3149211694176 -->
<g id="edge22" class="edge">
<title>3149211693696&#45;&gt;3149211694176</title>
<path fill="none" stroke="black" d="M792.41,-716.91C801.35,-722.39 811.84,-728.83 821.76,-734.92"/>
<polygon fill="black" stroke="black" points="819.78,-737.8 830.13,-740.05 823.44,-731.84 819.78,-737.8"/>
</g>
<!-- 3149211693696&#45;&gt;3149211694560 -->
<g id="edge23" class="edge">
<title>3149211693696&#45;&gt;3149211694560</title>
<path fill="none" stroke="black" d="M796.15,-703C803.64,-703 811.93,-703 819.95,-703"/>
<polygon fill="black" stroke="black" points="819.85,-706.5 829.85,-703 819.85,-699.5 819.85,-706.5"/>
</g>
<!-- 3149211692880&#45;&gt;3149211695616 -->
<g id="edge25" class="edge">
<title>3149211692880&#45;&gt;3149211695616</title>
<path fill="none" stroke="black" d="M236.6,-263.14C263.11,-317.18 327.13,-447.66 355.53,-505.53"/>
<polygon fill="black" stroke="black" points="352.35,-506.98 359.89,-514.42 358.63,-503.9 352.35,-506.98"/>
</g>
<!-- 3149211692880&#45;&gt;3149211695328 -->
<g id="edge24" class="edge">
<title>3149211692880&#45;&gt;3149211695328</title>
<path fill="none" stroke="black" d="M250.86,-237.05C301.85,-233.43 418.23,-226 516.25,-226 516.25,-226 516.25,-226 1426.38,-226 1505.71,-226 1525.82,-234.67 1602.5,-255 1610.66,-257.16 1619.25,-259.98 1627.35,-262.9"/>
<polygon fill="black" stroke="black" points="1626,-266.13 1636.59,-266.36 1628.45,-259.58 1626,-266.13"/>
</g>
<!-- 3149211695088&#45;&gt;3149211686880 -->
<g id="edge26" class="edge">
<title>3149211695088&#45;&gt;3149211686880</title>
<path fill="none" stroke="black" d="M2142.9,-460C2150.39,-460 2158.68,-460 2166.7,-460"/>
<polygon fill="black" stroke="black" points="2166.6,-463.5 2176.6,-460 2166.6,-456.5 2166.6,-463.5"/>
</g>
<!-- 3149211696048&#45;&gt;3149211696528 -->
<g id="edge27" class="edge">
<title>3149211696048&#45;&gt;3149211696528</title>
<path fill="none" stroke="black" d="M544.49,-646.7C560.4,-647.72 581.07,-649.06 599.28,-650.24"/>
<polygon fill="black" stroke="black" points="598.82,-653.72 609.02,-650.87 599.27,-646.73 598.82,-653.72"/>
</g>
<!-- 3149211696240&#45;&gt;3149211695808 -->
<g id="edge28" class="edge">
<title>3149211696240&#45;&gt;3149211695808</title>
<path fill="none" stroke="black" d="M1870.27,-626.65C1893.88,-615.26 1930.99,-597 1962.5,-580 1970.91,-575.46 1979.85,-570.41 1988.25,-565.55"/>
<polygon fill="black" stroke="black" points="1989.97,-568.6 1996.85,-560.55 1986.45,-562.56 1989.97,-568.6"/>
</g>
<!-- 3149211696720&#45;&gt;3149211779136 -->
<g id="edge30" class="edge">
<title>3149211696720&#45;&gt;3149211779136</title>
<path fill="none" stroke="black" d="M542.01,-545.89C585.59,-566.58 681.77,-607 767.75,-607 767.75,-607 767.75,-607 1576.5,-607 1624.97,-607 1680.83,-605.12 1716.85,-603.67"/>
<polygon fill="black" stroke="black" points="1716.91,-607.17 1726.76,-603.26 1716.62,-600.18 1716.91,-607.17"/>
</g>
<!-- 3149211696720&#45;&gt;3149211779568 -->
<g id="edge31" class="edge">
<title>3149211696720&#45;&gt;3149211779568</title>
<path fill="none" stroke="black" d="M544.49,-534C561.89,-534 584.97,-534 604.32,-534"/>
<polygon fill="black" stroke="black" points="604.28,-537.5 614.28,-534 604.28,-530.5 604.28,-537.5"/>
</g>
<!-- 3149211696720&#45;&gt;3149211779952 -->
<g id="edge29" class="edge">
<title>3149211696720&#45;&gt;3149211779952</title>
<path fill="none" stroke="black" d="M542.4,-523.46C555.79,-517.62 572.99,-510.12 589.31,-502.99"/>
<polygon fill="black" stroke="black" points="590.71,-506.2 598.47,-498.99 587.91,-499.78 590.71,-506.2"/>
</g>
<!-- 3149211696912&#45;&gt;3149211695808 -->
<g id="edge32" class="edge">
<title>3149211696912&#45;&gt;3149211695808</title>
<path fill="none" stroke="black" d="M1962.9,-544C1970.39,-544 1978.68,-544 1986.7,-544"/>
<polygon fill="black" stroke="black" points="1986.6,-547.5 1996.6,-544 1986.6,-540.5 1986.6,-547.5"/>
</g>
<!-- 3149211779424&#45;&gt;3149211779520 -->
<g id="edge33" class="edge">
<title>3149211779424&#45;&gt;3149211779520</title>
<path fill="none" stroke="black" d="M795.2,-473.35C803.11,-471.28 811.99,-468.96 820.53,-466.73"/>
<polygon fill="black" stroke="black" points="821.18,-470.18 829.97,-464.26 819.41,-463.4 821.18,-470.18"/>
</g>
<!-- 3149211780528&#45;&gt;3149211780960 -->
<g id="edge35" class="edge">
<title>3149211780528&#45;&gt;3149211780960</title>
<path fill="none" stroke="black" d="M975.06,-523.45C986.29,-526.73 999.67,-530.6 1011.75,-534 1032.25,-539.76 1055.19,-546.02 1073.84,-551.05"/>
<polygon fill="black" stroke="black" points="1072.82,-554.4 1083.38,-553.62 1074.64,-547.64 1072.82,-554.4"/>
</g>
<!-- 3149211780528&#45;&gt;3149211781344 -->
<g id="edge34" class="edge">
<title>3149211780528&#45;&gt;3149211781344</title>
<path fill="none" stroke="black" d="M976.02,-514.53C983.17,-514.13 991.39,-513.68 1000.17,-513.19"/>
<polygon fill="black" stroke="black" points="1000.25,-516.69 1010.04,-512.63 999.86,-509.7 1000.25,-516.69"/>
</g>
<!-- 3149211780720&#45;&gt;3149211780288 -->
<g id="edge36" class="edge">
<title>3149211780720&#45;&gt;3149211780288</title>
<path fill="none" stroke="black" d="M1302.58,-552.59C1354.56,-553.7 1474.04,-556 1574.5,-556 1574.5,-556 1574.5,-556 1666.5,-556 1715.62,-556 1771.44,-545.47 1807.27,-537.32"/>
<polygon fill="black" stroke="black" points="1807.75,-540.8 1816.69,-535.12 1806.16,-533.99 1807.75,-540.8"/>
</g>
<!-- 3149211780912&#45;&gt;3149211781920 -->
<g id="edge38" class="edge">
<title>3149211780912&#45;&gt;3149211781920</title>
<path fill="none" stroke="black" d="M976.02,-445.47C1002.49,-446.94 1043.59,-449.24 1073.49,-450.91"/>
<polygon fill="black" stroke="black" points="1073.05,-454.39 1083.23,-451.45 1073.44,-447.4 1073.05,-454.39"/>
</g>
<!-- 3149211780912&#45;&gt;3149211782304 -->
<g id="edge37" class="edge">
<title>3149211780912&#45;&gt;3149211782304</title>
<path fill="none" stroke="black" d="M975.06,-436.55C986.29,-433.27 999.67,-429.4 1011.75,-426 1028.65,-421.25 1047.21,-416.16 1063.66,-411.7"/>
<polygon fill="black" stroke="black" points="1064.46,-415.11 1073.2,-409.12 1062.63,-408.35 1064.46,-415.11"/>
</g>
<!-- 3149211781680&#45;&gt;3149211780288 -->
<g id="edge39" class="edge">
<title>3149211781680&#45;&gt;3149211780288</title>
<path fill="none" stroke="black" d="M1300.98,-488.93C1312.21,-492.63 1325.75,-496.61 1338.25,-499 1441.72,-518.77 1469.16,-518 1574.5,-518 1574.5,-518 1574.5,-518 1666.5,-518 1715.02,-518 1770.87,-521.75 1806.88,-524.66"/>
<polygon fill="black" stroke="black" points="1806.52,-528.14 1816.78,-525.48 1807.1,-521.16 1806.52,-528.14"/>
</g>
<!-- 3149211781872&#45;&gt;3149211783168 -->
<g id="edge41" class="edge">
<title>3149211781872&#45;&gt;3149211783168</title>
<path fill="none" stroke="black" d="M976.02,-340C1002.49,-340 1043.59,-340 1073.49,-340"/>
<polygon fill="black" stroke="black" points="1073.23,-343.5 1083.23,-340 1073.23,-336.5 1073.23,-343.5"/>
</g>
<!-- 3149211781872&#45;&gt;3149211782880 -->
<g id="edge40" class="edge">
<title>3149211781872&#45;&gt;3149211782880</title>
<path fill="none" stroke="black" d="M973.26,-327.64C984.59,-322.25 998.56,-316.38 1011.75,-313 1204.04,-263.66 1445.01,-273.06 1536.72,-279.08"/>
<polygon fill="black" stroke="black" points="1536.42,-282.57 1546.64,-279.76 1536.9,-275.58 1536.42,-282.57"/>
</g>
<!-- 3149211782640&#45;&gt;3149211780288 -->
<g id="edge42" class="edge">
<title>3149211782640&#45;&gt;3149211780288</title>
<path fill="none" stroke="black" d="M1771.03,-413.62C1786.29,-437.37 1810.29,-474.74 1826.68,-500.26"/>
<polygon fill="black" stroke="black" points="1823.6,-501.94 1831.95,-508.46 1829.49,-498.15 1823.6,-501.94"/>
</g>
<!-- 3149211783600&#45;&gt;3149211784032 -->
<g id="edge44" class="edge">
<title>3149211783600&#45;&gt;3149211784032</title>
<path fill="none" stroke="black" d="M1298.24,-422.85C1309.8,-430.2 1324.41,-438.8 1338.25,-445 1353.9,-452.01 1371.91,-457.96 1387.4,-462.47"/>
<polygon fill="black" stroke="black" points="1386.13,-465.75 1396.71,-465.09 1388.03,-459.02 1386.13,-465.75"/>
</g>
<!-- 3149211783600&#45;&gt;3149211784416 -->
<g id="edge43" class="edge">
<title>3149211783600&#45;&gt;3149211784416</title>
<path fill="none" stroke="black" d="M1302.39,-409.76C1320.28,-410.97 1344.72,-412.62 1367.02,-414.13"/>
<polygon fill="black" stroke="black" points="1366.72,-417.62 1376.93,-414.8 1367.19,-410.63 1366.72,-417.62"/>
</g>
<!-- 3149211783792&#45;&gt;3149211783360 -->
<g id="edge45" class="edge">
<title>3149211783792&#45;&gt;3149211783360</title>
<path fill="none" stroke="black" d="M1601.01,-416.97C1609.26,-413.6 1618.64,-409.76 1627.62,-406.09"/>
<polygon fill="black" stroke="black" points="1628.94,-409.33 1636.87,-402.3 1626.29,-402.85 1628.94,-409.33"/>
</g>
<!-- 3149211783984&#45;&gt;3149211784992 -->
<g id="edge47" class="edge">
<title>3149211783984&#45;&gt;3149211784992</title>
<path fill="none" stroke="black" d="M1302.05,-340.88C1325.52,-345.31 1360.43,-351.91 1386.96,-356.93"/>
<polygon fill="black" stroke="black" points="1386.16,-360.34 1396.64,-358.76 1387.46,-353.46 1386.16,-360.34"/>
</g>
<!-- 3149211783984&#45;&gt;3149211785376 -->
<g id="edge46" class="edge">
<title>3149211783984&#45;&gt;3149211785376</title>
<path fill="none" stroke="black" d="M1302.05,-331.47C1309.36,-330.19 1317.78,-328.71 1326.7,-327.14"/>
<polygon fill="black" stroke="black" points="1327.07,-330.63 1336.32,-325.46 1325.86,-323.74 1327.07,-330.63"/>
</g>
<!-- 3149211784752&#45;&gt;3149211783360 -->
<g id="edge48" class="edge">
<title>3149211784752&#45;&gt;3149211783360</title>
<path fill="none" stroke="black" d="M1601.01,-365.03C1609.26,-368.4 1618.64,-372.24 1627.62,-375.91"/>
<polygon fill="black" stroke="black" points="1626.29,-379.15 1636.87,-379.7 1628.94,-372.67 1626.29,-379.15"/>
</g>
<!-- 3149211687072&#45;&gt;3149211684240 -->
<g id="edge50" class="edge">
<title>3149211687072&#45;&gt;3149211684240</title>
<path fill="none" stroke="black" d="M250.96,-169.35C273.61,-171.39 306.61,-174.35 332.04,-176.64"/>
<polygon fill="black" stroke="black" points="331.7,-180.12 341.97,-177.53 332.33,-173.15 331.7,-180.12"/>
</g>
<!-- 3149211687072&#45;&gt;3149211690288 -->
<g id="edge49" class="edge">
<title>3149211687072&#45;&gt;3149211690288</title>
<path fill="none" stroke="black" d="M249.96,-159.86C262.27,-156.37 277.8,-151.97 293.56,-147.51"/>
<polygon fill="black" stroke="black" points="294.34,-150.93 303.01,-144.83 292.43,-144.19 294.34,-150.93"/>
</g>
<!-- 3149211687648&#45;&gt;3149211681168 -->
<g id="edge51" class="edge">
<title>3149211687648&#45;&gt;3149211681168</title>
<path fill="none" stroke="black" d="M544.47,-158C589.93,-158 686.32,-158 767.75,-158 767.75,-158 767.75,-158 2429.75,-158 2494.32,-158 2569.48,-158 2613.49,-158"/>
<polygon fill="black" stroke="black" points="2613.26,-161.5 2623.26,-158 2613.26,-154.5 2613.26,-161.5"/>
</g>
<!-- 3149211690336&#45;&gt;3149211690912 -->
<g id="edge52" class="edge">
<title>3149211690336&#45;&gt;3149211690912</title>
<path fill="none" stroke="black" d="M250.96,-72C258.18,-72 266.45,-72 275.19,-72"/>
<polygon fill="black" stroke="black" points="274.96,-75.5 284.96,-72 274.96,-68.5 274.96,-75.5"/>
</g>
<!-- 3149211690336&#45;&gt;3149211688416 -->
<g id="edge53" class="edge">
<title>3149211690336&#45;&gt;3149211688416</title>
<path fill="none" stroke="black" d="M248.67,-60.95C260.1,-55.83 274.02,-49.84 286.75,-45 301.46,-39.41 317.9,-33.9 332.23,-29.33"/>
<polygon fill="black" stroke="black" points="333.26,-32.67 341.74,-26.34 331.16,-26 333.26,-32.67"/>
</g>
<!-- 3149211688992&#45;&gt;3149211681168 -->
<g id="edge54" class="edge">
<title>3149211688992&#45;&gt;3149211681168</title>
<path fill="none" stroke="black" d="M544.39,-76.18C589.73,-83.06 685.94,-96 767.75,-96 767.75,-96 767.75,-96 2429.75,-96 2496.72,-96 2571.01,-122.66 2614.21,-141.02"/>
<polygon fill="black" stroke="black" points="2612.81,-144.23 2623.37,-145 2615.6,-137.81 2612.81,-144.23"/>
</g>
<!-- 3149211685296&#45;&gt;3149211681168 -->
<g id="edge55" class="edge">
<title>3149211685296&#45;&gt;3149211681168</title>
<path fill="none" stroke="black" d="M2572.42,-368.74C2588.88,-324.58 2622.81,-233.61 2640.2,-186.97"/>
<polygon fill="black" stroke="black" points="2643.4,-188.39 2643.62,-177.8 2636.84,-185.95 2643.4,-188.39"/>
</g>
</g>
</svg>
