<?xml version="1.0" encoding="UTF-8" standalone="no"?>
<!DOCTYPE svg PUBLIC "-//W3C//DTD SVG 1.1//EN"
 "http://www.w3.org/Graphics/SVG/1.1/DTD/svg11.dtd">
<!-- Generated by graphviz version 12.2.0 (20241103.1931)
 -->
<!-- Title: imdf_net_1744738159.955151 Pages: 1 -->
<svg width="4763pt" height="700pt"
 viewBox="0.00 0.00 4762.50 700.00" xmlns="http://www.w3.org/2000/svg" xmlns:xlink="http://www.w3.org/1999/xlink">
<g id="graph0" class="graph" transform="scale(1 1) rotate(0) translate(4 696)">
<title>imdf_net_1744738159.955151</title>
<polygon fill="white" stroke="none" points="-4,4 -4,-696 4758.5,-696 4758.5,4 -4,4"/>
<!-- 2036269222016 -->
<g id="node1" class="node">
<title>2036269222016</title>
<polygon fill="black" stroke="black" points="215,-670 161,-670 161,-634 215,-634 215,-670"/>
</g>
<!-- 2036269233440 -->
<g id="node63" class="node">
<title>2036269233440</title>
<ellipse fill="white" stroke="black" cx="349" cy="-625" rx="27" ry="27"/>
</g>
<!-- 2036269222016&#45;&gt;2036269233440 -->
<g id="edge66" class="edge">
<title>2036269222016&#45;&gt;2036269233440</title>
<path fill="none" stroke="black" d="M215.26,-647.54C241.34,-643.11 281.58,-636.28 310.92,-631.3"/>
<polygon fill="black" stroke="black" points="311.2,-634.8 320.48,-629.67 310.03,-627.9 311.2,-634.8"/>
</g>
<!-- 2036269227008 -->
<g id="node2" class="node">
<title>2036269227008</title>
<polygon fill="white" stroke="black" points="286,-616 90,-616 90,-580 286,-580 286,-616"/>
<text text-anchor="middle" x="188" y="-593.73" font-family="Times New Roman,serif" font-size="12.00">Declaration SAVED by EMPLOYEE</text>
</g>
<!-- 2036269227008&#45;&gt;2036269233440 -->
<g id="edge16" class="edge">
<title>2036269227008&#45;&gt;2036269233440</title>
<path fill="none" stroke="black" d="M286.07,-614.48C294.73,-615.95 303.09,-617.37 310.72,-618.67"/>
<polygon fill="black" stroke="black" points="310.11,-622.12 320.56,-620.34 311.29,-615.22 310.11,-622.12"/>
</g>
<!-- 2036269226240 -->
<g id="node3" class="node">
<title>2036269226240</title>
<polygon fill="black" stroke="black" points="1845.25,-682 1791.25,-682 1791.25,-646 1845.25,-646 1845.25,-682"/>
</g>
<!-- 2036269232960 -->
<g id="node69" class="node">
<title>2036269232960</title>
<ellipse fill="white" stroke="black" cx="4723.5" cy="-537" rx="27" ry="27"/>
<ellipse fill="none" stroke="black" cx="4723.5" cy="-537" rx="31" ry="31"/>
<text text-anchor="start" x="4713.75" y="-524.98" font-family="Times New Roman,serif" font-size="32.00">■</text>
</g>
<!-- 2036269226240&#45;&gt;2036269232960 -->
<g id="edge71" class="edge">
<title>2036269226240&#45;&gt;2036269232960</title>
<path fill="none" stroke="black" d="M1845.39,-656.61C1893.77,-643.61 2000.7,-618 2092.62,-618 2092.62,-618 2092.62,-618 4540.5,-618 4596.3,-618 4654.05,-585.83 4689.13,-562.04"/>
<polygon fill="black" stroke="black" points="4690.96,-565.03 4697.16,-556.45 4686.96,-559.29 4690.96,-565.03"/>
</g>
<!-- 2036269233152 -->
<g id="node4" class="node">
<title>2036269233152</title>
<polygon fill="white" stroke="black" points="981.12,-622 779.88,-622 779.88,-586 981.12,-586 981.12,-622"/>
<text text-anchor="middle" x="880.5" y="-599.73" font-family="Times New Roman,serif" font-size="12.00">Declaration REJECTED by MISSING</text>
</g>
<!-- 2036269232240 -->
<g id="node50" class="node">
<title>2036269232240</title>
<ellipse fill="white" stroke="black" cx="1052" cy="-599" rx="27" ry="27"/>
</g>
<!-- 2036269233152&#45;&gt;2036269232240 -->
<g id="edge2" class="edge">
<title>2036269233152&#45;&gt;2036269232240</title>
<path fill="none" stroke="black" d="M981.57,-601.05C992.88,-600.71 1003.82,-600.39 1013.53,-600.11"/>
<polygon fill="black" stroke="black" points="1013.32,-603.61 1023.21,-599.82 1013.11,-596.62 1013.32,-603.61"/>
</g>
<!-- 2036269235840 -->
<g id="node5" class="node">
<title>2036269235840</title>
<polygon fill="black" stroke="black" points="1255.38,-664 1201.38,-664 1201.38,-628 1255.38,-628 1255.38,-664"/>
</g>
<!-- 2036269220000 -->
<g id="node49" class="node">
<title>2036269220000</title>
<ellipse fill="white" stroke="black" cx="709" cy="-615" rx="27" ry="27"/>
</g>
<!-- 2036269235840&#45;&gt;2036269220000 -->
<g id="edge68" class="edge">
<title>2036269235840&#45;&gt;2036269220000</title>
<path fill="none" stroke="black" d="M1201.02,-647.14C1130.82,-649.75 933.68,-654.24 772,-631 763.53,-629.78 754.54,-627.85 746.12,-625.74"/>
<polygon fill="black" stroke="black" points="747.11,-622.38 736.55,-623.2 745.31,-629.15 747.11,-622.38"/>
</g>
<!-- 2036192366592 -->
<g id="node6" class="node">
<title>2036192366592</title>
<polygon fill="white" stroke="black" points="3486.75,-421 3231.5,-421 3231.5,-385 3486.75,-385 3486.75,-421"/>
<text text-anchor="middle" x="3359.12" y="-398.73" font-family="Times New Roman,serif" font-size="12.00">Declaration REJECTED by ADMINISTRATION</text>
</g>
<!-- 2036269230656 -->
<g id="node55" class="node">
<title>2036269230656</title>
<ellipse fill="white" stroke="black" cx="3549.75" cy="-346" rx="27" ry="27"/>
</g>
<!-- 2036192366592&#45;&gt;2036269230656 -->
<g id="edge4" class="edge">
<title>2036192366592&#45;&gt;2036269230656</title>
<path fill="none" stroke="black" d="M3421.11,-384.57C3451.3,-375.45 3486.72,-364.75 3512.58,-356.93"/>
<polygon fill="black" stroke="black" points="3513.37,-360.35 3521.93,-354.1 3511.35,-353.65 3513.37,-360.35"/>
</g>
<!-- 2036269361920 -->
<g id="node7" class="node">
<title>2036269361920</title>
<polygon fill="black" stroke="black" points="2408.88,-294 2354.88,-294 2354.88,-258 2408.88,-258 2408.88,-294"/>
</g>
<!-- 2036269359712 -->
<g id="node64" class="node">
<title>2036269359712</title>
<ellipse fill="white" stroke="black" cx="2672.38" cy="-222" rx="27" ry="27"/>
</g>
<!-- 2036269361920&#45;&gt;2036269359712 -->
<g id="edge75" class="edge">
<title>2036269361920&#45;&gt;2036269359712</title>
<path fill="none" stroke="black" d="M2409.24,-271.06C2460.88,-261.4 2575.46,-239.95 2634.55,-228.89"/>
<polygon fill="black" stroke="black" points="2634.92,-232.39 2644.1,-227.11 2633.63,-225.5 2634.92,-232.39"/>
</g>
<!-- 2036269226000 -->
<g id="node8" class="node">
<title>2036269226000</title>
<polygon fill="black" stroke="black" points="1255.38,-166 1201.38,-166 1201.38,-130 1255.38,-130 1255.38,-166"/>
</g>
<!-- 2036269226480 -->
<g id="node67" class="node">
<title>2036269226480</title>
<ellipse fill="white" stroke="black" cx="709" cy="-145" rx="27" ry="27"/>
</g>
<!-- 2036269226000&#45;&gt;2036269226480 -->
<g id="edge81" class="edge">
<title>2036269226000&#45;&gt;2036269226480</title>
<path fill="none" stroke="black" d="M1201.06,-147.85C1115.85,-147.35 847.26,-145.8 747.65,-145.22"/>
<polygon fill="black" stroke="black" points="747.9,-141.72 737.88,-145.16 747.86,-148.72 747.9,-141.72"/>
</g>
<!-- 2036269232912 -->
<g id="node9" class="node">
<title>2036269232912</title>
<polygon fill="black" stroke="black" points="4249.75,-513 4195.75,-513 4195.75,-477 4249.75,-477 4249.75,-513"/>
</g>
<!-- 2036269227344 -->
<g id="node46" class="node">
<title>2036269227344</title>
<ellipse fill="white" stroke="black" cx="4312.75" cy="-495" rx="27" ry="27"/>
</g>
<!-- 2036269232912&#45;&gt;2036269227344 -->
<g id="edge85" class="edge">
<title>2036269232912&#45;&gt;2036269227344</title>
<path fill="none" stroke="black" d="M4250.15,-495C4257.64,-495 4265.93,-495 4273.95,-495"/>
<polygon fill="black" stroke="black" points="4273.85,-498.5 4283.85,-495 4273.85,-491.5 4273.85,-498.5"/>
</g>
<!-- 2036269232528 -->
<g id="node10" class="node">
<title>2036269232528</title>
<polygon fill="black" stroke="black" points="3195.5,-532 3141.5,-532 3141.5,-496 3195.5,-496 3195.5,-532"/>
</g>
<!-- 2036269232288 -->
<g id="node53" class="node">
<title>2036269232288</title>
<ellipse fill="white" stroke="black" cx="3729.75" cy="-449" rx="27" ry="27"/>
</g>
<!-- 2036269232528&#45;&gt;2036269232288 -->
<g id="edge70" class="edge">
<title>2036269232528&#45;&gt;2036269232288</title>
<path fill="none" stroke="black" d="M3195.73,-512.23C3260.48,-507.81 3433.07,-495.62 3576.75,-482 3616.82,-478.2 3627.59,-481.29 3666.75,-472 3675.7,-469.88 3685.13,-466.83 3693.85,-463.64"/>
<polygon fill="black" stroke="black" points="3694.94,-466.97 3703.03,-460.13 3692.43,-460.44 3694.94,-466.97"/>
</g>
<!-- 2036269230608 -->
<g id="node11" class="node">
<title>2036269230608</title>
<polygon fill="black" stroke="black" points="646,-474 592,-474 592,-438 646,-438 646,-474"/>
</g>
<!-- 2036269230320 -->
<g id="node54" class="node">
<title>2036269230320</title>
<ellipse fill="white" stroke="black" cx="709" cy="-451" rx="27" ry="27"/>
</g>
<!-- 2036269230608&#45;&gt;2036269230320 -->
<g id="edge19" class="edge">
<title>2036269230608&#45;&gt;2036269230320</title>
<path fill="none" stroke="black" d="M646.4,-454.5C653.89,-454.07 662.18,-453.6 670.2,-453.15"/>
<polygon fill="black" stroke="black" points="670.32,-456.65 680.1,-452.58 669.92,-449.66 670.32,-456.65"/>
</g>
<!-- 2036269221008 -->
<g id="node12" class="node">
<title>2036269221008</title>
<polygon fill="white" stroke="black" points="1341.75,-368 1115,-368 1115,-332 1341.75,-332 1341.75,-368"/>
<text text-anchor="middle" x="1228.38" y="-345.73" font-family="Times New Roman,serif" font-size="12.00">Declaration SUBMITTED by EMPLOYEE</text>
</g>
<!-- 2036269230224 -->
<g id="node58" class="node">
<title>2036269230224</title>
<ellipse fill="white" stroke="black" cx="1404.75" cy="-345" rx="27" ry="27"/>
</g>
<!-- 2036269221008&#45;&gt;2036269230224 -->
<g id="edge7" class="edge">
<title>2036269221008&#45;&gt;2036269230224</title>
<path fill="none" stroke="black" d="M1341.78,-346.78C1350.33,-346.53 1358.52,-346.3 1365.99,-346.08"/>
<polygon fill="black" stroke="black" points="1366.04,-349.58 1375.93,-345.8 1365.83,-342.59 1366.04,-349.58"/>
</g>
<!-- 2036269044240 -->
<g id="node13" class="node">
<title>2036269044240</title>
<polygon fill="white" stroke="black" points="2506.5,-240 2257.25,-240 2257.25,-204 2506.5,-204 2506.5,-240"/>
<text text-anchor="middle" x="2381.88" y="-217.72" font-family="Times New Roman,serif" font-size="12.00">Declaration APPROVED by PRE_APPROVER</text>
</g>
<!-- 2036269044240&#45;&gt;2036269359712 -->
<g id="edge14" class="edge">
<title>2036269044240&#45;&gt;2036269359712</title>
<path fill="none" stroke="black" d="M2506.9,-222C2552.74,-222 2601.35,-222 2633.74,-222"/>
<polygon fill="black" stroke="black" points="2633.39,-225.5 2643.39,-222 2633.39,-218.5 2633.39,-225.5"/>
</g>
<!-- 2036269043088 -->
<g id="node14" class="node">
<title>2036269043088</title>
<polygon fill="white" stroke="black" points="3081.88,-275 2856.62,-275 2856.62,-239 3081.88,-239 3081.88,-275"/>
<text text-anchor="middle" x="2969.25" y="-252.72" font-family="Times New Roman,serif" font-size="12.00">Declaration REJECTED by SUPERVISOR</text>
</g>
<!-- 2036269286976 -->
<g id="node62" class="node">
<title>2036269286976</title>
<ellipse fill="white" stroke="black" cx="3168.5" cy="-230" rx="27" ry="27"/>
</g>
<!-- 2036269043088&#45;&gt;2036269286976 -->
<g id="edge1" class="edge">
<title>2036269043088&#45;&gt;2036269286976</title>
<path fill="none" stroke="black" d="M3082.13,-241.69C3099.52,-239.31 3116.35,-237 3130.41,-235.08"/>
<polygon fill="black" stroke="black" points="3130.58,-238.59 3140.01,-233.76 3129.63,-231.65 3130.58,-238.59"/>
</g>
<!-- 2036269224992 -->
<g id="node15" class="node">
<title>2036269224992</title>
<polygon fill="white" stroke="black" points="989,-117 772,-117 772,-81 989,-81 989,-117"/>
<text text-anchor="middle" x="880.5" y="-94.72" font-family="Times New Roman,serif" font-size="12.00">Declaration REJECTED by EMPLOYEE</text>
</g>
<!-- 2036269225760 -->
<g id="node68" class="node">
<title>2036269225760</title>
<ellipse fill="white" stroke="black" cx="1052" cy="-94" rx="27" ry="27"/>
</g>
<!-- 2036269224992&#45;&gt;2036269225760 -->
<g id="edge8" class="edge">
<title>2036269224992&#45;&gt;2036269225760</title>
<path fill="none" stroke="black" d="M989.33,-95.82C997.79,-95.57 1005.93,-95.33 1013.36,-95.11"/>
<polygon fill="black" stroke="black" points="1013.35,-98.61 1023.24,-94.82 1013.14,-91.62 1013.35,-98.61"/>
</g>
<!-- 2036117590304 -->
<g id="node16" class="node">
<title>2036117590304</title>
<polygon fill="black" stroke="black" points="1935.25,-325 1881.25,-325 1881.25,-289 1935.25,-289 1935.25,-325"/>
</g>
<!-- 2036269291824 -->
<g id="node59" class="node">
<title>2036269291824</title>
<ellipse fill="white" stroke="black" cx="2093.62" cy="-330" rx="27" ry="27"/>
</g>
<!-- 2036117590304&#45;&gt;2036269291824 -->
<g id="edge88" class="edge">
<title>2036117590304&#45;&gt;2036269291824</title>
<path fill="none" stroke="black" d="M1935.52,-310.3C1966.84,-314.22 2019.41,-320.82 2055.03,-325.28"/>
<polygon fill="black" stroke="black" points="2054.54,-328.75 2064.9,-326.52 2055.41,-321.81 2054.54,-328.75"/>
</g>
<!-- 2036269286064 -->
<g id="node61" class="node">
<title>2036269286064</title>
<ellipse fill="white" stroke="black" cx="2093.62" cy="-222" rx="27" ry="27"/>
</g>
<!-- 2036117590304&#45;&gt;2036269286064 -->
<g id="edge89" class="edge">
<title>2036117590304&#45;&gt;2036269286064</title>
<path fill="none" stroke="black" d="M1935.52,-294.82C1967.83,-279.85 2022.75,-254.39 2058.35,-237.89"/>
<polygon fill="black" stroke="black" points="2059.76,-241.09 2067.36,-233.71 2056.82,-234.74 2059.76,-241.09"/>
</g>
<!-- 2036269285920 -->
<g id="node17" class="node">
<title>2036269285920</title>
<polygon fill="white" stroke="black" points="2511.75,-402 2252,-402 2252,-366 2511.75,-366 2511.75,-402"/>
<text text-anchor="middle" x="2381.88" y="-379.73" font-family="Times New Roman,serif" font-size="12.00">Declaration APPROVED by ADMINISTRATION</text>
</g>
<!-- 2036269288944 -->
<g id="node60" class="node">
<title>2036269288944</title>
<ellipse fill="white" stroke="black" cx="2672.38" cy="-337" rx="27" ry="27"/>
</g>
<!-- 2036269285920&#45;&gt;2036269288944 -->
<g id="edge6" class="edge">
<title>2036269285920&#45;&gt;2036269288944</title>
<path fill="none" stroke="black" d="M2496.07,-365.56C2545.14,-357.56 2599.25,-348.75 2634.19,-343.06"/>
<polygon fill="black" stroke="black" points="2634.46,-346.56 2643.77,-341.5 2633.34,-339.65 2634.46,-346.56"/>
</g>
<!-- 2036269235888 -->
<g id="node18" class="node">
<title>2036269235888</title>
<polygon fill="black" stroke="black" points="907.5,-215 853.5,-215 853.5,-179 907.5,-179 907.5,-215"/>
</g>
<!-- 2036269234496 -->
<g id="node66" class="node">
<title>2036269234496</title>
<ellipse fill="white" stroke="black" cx="1404.75" cy="-94" rx="27" ry="27"/>
</g>
<!-- 2036269235888&#45;&gt;2036269234496 -->
<g id="edge80" class="edge">
<title>2036269235888&#45;&gt;2036269234496</title>
<path fill="none" stroke="black" d="M907.9,-203C981.63,-218.32 1194.01,-252.41 1341.75,-175 1361.29,-164.76 1376.49,-145.31 1386.95,-128.04"/>
<polygon fill="black" stroke="black" points="1389.9,-129.94 1391.81,-119.52 1383.82,-126.47 1389.9,-129.94"/>
</g>
<!-- 2036269220144 -->
<g id="node19" class="node">
<title>2036269220144</title>
<polygon fill="black" stroke="black" points="646,-168 592,-168 592,-132 646,-132 646,-168"/>
</g>
<!-- 2036269220144&#45;&gt;2036269226480 -->
<g id="edge21" class="edge">
<title>2036269220144&#45;&gt;2036269226480</title>
<path fill="none" stroke="black" d="M646.4,-148.5C653.89,-148.07 662.18,-147.6 670.2,-147.15"/>
<polygon fill="black" stroke="black" points="670.32,-150.65 680.1,-146.58 669.92,-143.66 670.32,-150.65"/>
</g>
<!-- 2036269235120 -->
<g id="node20" class="node">
<title>2036269235120</title>
<polygon fill="black" stroke="black" points="1255.38,-609 1201.38,-609 1201.38,-573 1255.38,-573 1255.38,-609"/>
</g>
<!-- 2036269220960 -->
<g id="node48" class="node">
<title>2036269220960</title>
<ellipse fill="white" stroke="black" cx="1404.75" cy="-576" rx="27" ry="27"/>
</g>
<!-- 2036269235120&#45;&gt;2036269220960 -->
<g id="edge69" class="edge">
<title>2036269235120&#45;&gt;2036269220960</title>
<path fill="none" stroke="black" d="M1255.86,-588.72C1285.35,-586.19 1333.23,-582.07 1366.49,-579.21"/>
<polygon fill="black" stroke="black" points="1366.42,-582.72 1376.08,-578.38 1365.82,-575.75 1366.42,-582.72"/>
</g>
<!-- 2036269223600 -->
<g id="node21" class="node">
<title>2036269223600</title>
<polygon fill="white" stroke="black" points="1755.25,-418 1467.75,-418 1467.75,-382 1755.25,-382 1755.25,-418"/>
<text text-anchor="middle" x="1611.5" y="-395.73" font-family="Times New Roman,serif" font-size="12.00">Declaration FOR_APPROVAL by ADMINISTRATION</text>
</g>
<!-- 2036269230848 -->
<g id="node57" class="node">
<title>2036269230848</title>
<ellipse fill="white" stroke="black" cx="1052" cy="-400" rx="27" ry="27"/>
</g>
<!-- 2036269223600&#45;&gt;2036269230848 -->
<g id="edge3" class="edge">
<title>2036269223600&#45;&gt;2036269230848</title>
<path fill="none" stroke="black" d="M1467.36,-400C1341.26,-400 1166.2,-400 1090.43,-400"/>
<polygon fill="black" stroke="black" points="1090.66,-396.5 1080.66,-400 1090.66,-403.5 1090.66,-396.5"/>
</g>
<!-- 2036269299888 -->
<g id="node22" class="node">
<title>2036269299888</title>
<polygon fill="black" stroke="black" points="3386.12,-355 3332.12,-355 3332.12,-319 3386.12,-319 3386.12,-355"/>
</g>
<!-- 2036269299888&#45;&gt;2036269230656 -->
<g id="edge86" class="edge">
<title>2036269299888&#45;&gt;2036269230656</title>
<path fill="none" stroke="black" d="M3386.35,-338.25C3418.78,-339.8 3474.2,-342.44 3511.15,-344.21"/>
<polygon fill="black" stroke="black" points="3510.77,-347.69 3520.93,-344.67 3511.11,-340.7 3510.77,-347.69"/>
</g>
<!-- 2036269232432 -->
<g id="node23" class="node">
<title>2036269232432</title>
<polygon fill="black" stroke="black" points="4453.12,-540 4399.12,-540 4399.12,-504 4453.12,-504 4453.12,-540"/>
</g>
<!-- 2036269227248 -->
<g id="node45" class="node">
<title>2036269227248</title>
<ellipse fill="white" stroke="black" cx="4539.5" cy="-495" rx="27" ry="27"/>
</g>
<!-- 2036269232432&#45;&gt;2036269227248 -->
<g id="edge79" class="edge">
<title>2036269232432&#45;&gt;2036269227248</title>
<path fill="none" stroke="black" d="M4453.52,-515.6C4468.01,-512.09 4486.21,-507.68 4502.04,-503.84"/>
<polygon fill="black" stroke="black" points="4502.7,-507.28 4511.59,-501.52 4501.05,-500.48 4502.7,-507.28"/>
</g>
<!-- 2036269365568 -->
<g id="node24" class="node">
<title>2036269365568</title>
<polygon fill="white" stroke="black" points="2797,-163 2547.75,-163 2547.75,-127 2797,-127 2797,-163"/>
<text text-anchor="middle" x="2672.38" y="-140.72" font-family="Times New Roman,serif" font-size="12.00">Declaration REJECTED by BUDGET OWNER</text>
</g>
<!-- 2036269365568&#45;&gt;2036269286976 -->
<g id="edge9" class="edge">
<title>2036269365568&#45;&gt;2036269286976</title>
<path fill="none" stroke="black" d="M2797.35,-133.5C2886.43,-130.01 3007.58,-135.28 3105.5,-176 3119.19,-181.69 3131.99,-191.66 3142.35,-201.5"/>
<polygon fill="black" stroke="black" points="3139.85,-203.94 3149.39,-208.56 3144.81,-199 3139.85,-203.94"/>
</g>
<!-- 2036269046592 -->
<g id="node25" class="node">
<title>2036269046592</title>
<polygon fill="white" stroke="black" points="3980.5,-548 3882,-548 3882,-512 3980.5,-512 3980.5,-548"/>
<text text-anchor="middle" x="3931.25" y="-525.73" font-family="Times New Roman,serif" font-size="12.00">Request Payment</text>
</g>
<!-- 2036269232192 -->
<g id="node52" class="node">
<title>2036269232192</title>
<ellipse fill="white" stroke="black" cx="4132.75" cy="-476" rx="27" ry="27"/>
</g>
<!-- 2036269046592&#45;&gt;2036269232192 -->
<g id="edge10" class="edge">
<title>2036269046592&#45;&gt;2036269232192</title>
<path fill="none" stroke="black" d="M3980.93,-523.08C4007.52,-518.65 4040.84,-512.02 4069.75,-503 4078.99,-500.12 4088.71,-496.29 4097.65,-492.43"/>
<polygon fill="black" stroke="black" points="4098.99,-495.66 4106.69,-488.37 4096.13,-489.27 4098.99,-495.66"/>
</g>
<!-- 2036269051584 -->
<g id="node26" class="node">
<title>2036269051584</title>
<polygon fill="white" stroke="black" points="4476.5,-486 4375.75,-486 4375.75,-450 4476.5,-450 4476.5,-486"/>
<text text-anchor="middle" x="4426.12" y="-463.73" font-family="Times New Roman,serif" font-size="12.00">Payment Handled</text>
</g>
<!-- 2036269051584&#45;&gt;2036269227248 -->
<g id="edge12" class="edge">
<title>2036269051584&#45;&gt;2036269227248</title>
<path fill="none" stroke="black" d="M4476.95,-480.08C4485.28,-482.1 4493.78,-484.16 4501.71,-486.08"/>
<polygon fill="black" stroke="black" points="4500.8,-489.46 4511.34,-488.42 4502.45,-482.66 4500.8,-489.46"/>
</g>
<!-- 2036269233872 -->
<g id="node27" class="node">
<title>2036269233872</title>
<polygon fill="black" stroke="black" points="466,-550 412,-550 412,-514 466,-514 466,-550"/>
</g>
<!-- 2036269221968 -->
<g id="node47" class="node">
<title>2036269221968</title>
<ellipse fill="white" stroke="black" cx="529" cy="-568" rx="27" ry="27"/>
</g>
<!-- 2036269233872&#45;&gt;2036269221968 -->
<g id="edge90" class="edge">
<title>2036269233872&#45;&gt;2036269221968</title>
<path fill="none" stroke="black" d="M466.4,-542.8C474.75,-546.22 484.12,-550.05 492.97,-553.67"/>
<polygon fill="black" stroke="black" points="491.44,-556.83 502.02,-557.37 494.09,-550.35 491.44,-556.83"/>
</g>
<!-- 2036269222496 -->
<g id="node51" class="node">
<title>2036269222496</title>
<ellipse fill="white" stroke="black" cx="529" cy="-496" rx="27" ry="27"/>
</g>
<!-- 2036269233872&#45;&gt;2036269222496 -->
<g id="edge91" class="edge">
<title>2036269233872&#45;&gt;2036269222496</title>
<path fill="none" stroke="black" d="M466.4,-521.2C474.75,-517.78 484.12,-513.95 492.97,-510.33"/>
<polygon fill="black" stroke="black" points="494.09,-513.65 502.02,-506.63 491.44,-507.17 494.09,-513.65"/>
</g>
<!-- 2036269233056 -->
<g id="node65" class="node">
<title>2036269233056</title>
<ellipse fill="white" stroke="black" cx="529" cy="-200" rx="27" ry="27"/>
</g>
<!-- 2036269233872&#45;&gt;2036269233056 -->
<g id="edge92" class="edge">
<title>2036269233872&#45;&gt;2036269233056</title>
<path fill="none" stroke="black" d="M444.86,-513.68C458.82,-461.01 499.26,-308.44 518.11,-237.32"/>
<polygon fill="black" stroke="black" points="521.48,-238.25 520.66,-227.69 514.72,-236.46 521.48,-238.25"/>
</g>
<!-- 2036269042128 -->
<g id="node28" class="node">
<title>2036269042128</title>
<polygon fill="black" stroke="black" points="1935.25,-225 1881.25,-225 1881.25,-189 1935.25,-189 1935.25,-225"/>
</g>
<!-- 2036269042128&#45;&gt;2036269230656 -->
<g id="edge73" class="edge">
<title>2036269042128&#45;&gt;2036269230656</title>
<path fill="none" stroke="black" d="M1935.64,-197.49C1946.58,-193.69 1959.46,-189.42 1971.25,-186 2094.56,-150.26 2125.24,-138.36 2252,-118 2436.63,-88.34 2484.37,-84 2671.38,-84 2671.38,-84 2671.38,-84 3169.5,-84 3330.77,-84 3473.15,-246.35 3526.45,-315.45"/>
<polygon fill="black" stroke="black" points="3523.61,-317.51 3532.45,-323.35 3529.19,-313.28 3523.61,-317.51"/>
</g>
<!-- 2036269353808 -->
<g id="node29" class="node">
<title>2036269353808</title>
<polygon fill="black" stroke="black" points="3666.75,-463 3612.75,-463 3612.75,-427 3666.75,-427 3666.75,-463"/>
</g>
<!-- 2036269353808&#45;&gt;2036269230320 -->
<g id="edge76" class="edge">
<title>2036269353808&#45;&gt;2036269230320</title>
<path fill="none" stroke="black" d="M3612.3,-448.64C3562.87,-455.13 3453.07,-468 3360.12,-468 1051,-468 1051,-468 1051,-468 940.46,-468 810.02,-458.98 747.33,-454.08"/>
<polygon fill="black" stroke="black" points="747.83,-450.61 737.58,-453.31 747.27,-457.59 747.83,-450.61"/>
</g>
<!-- 2036269229408 -->
<g id="node30" class="node">
<title>2036269229408</title>
<polygon fill="black" stroke="black" points="1255.38,-112 1201.38,-112 1201.38,-76 1255.38,-76 1255.38,-112"/>
</g>
<!-- 2036269229408&#45;&gt;2036269234496 -->
<g id="edge82" class="edge">
<title>2036269229408&#45;&gt;2036269234496</title>
<path fill="none" stroke="black" d="M1255.86,-94C1285.26,-94 1332.95,-94 1366.2,-94"/>
<polygon fill="black" stroke="black" points="1365.79,-97.5 1375.79,-94 1365.79,-90.5 1365.79,-97.5"/>
</g>
<!-- 2036269223648 -->
<g id="node31" class="node">
<title>2036269223648</title>
<polygon fill="black" stroke="black" points="646,-625 592,-625 592,-589 646,-589 646,-625"/>
</g>
<!-- 2036269223648&#45;&gt;2036269220000 -->
<g id="edge18" class="edge">
<title>2036269223648&#45;&gt;2036269220000</title>
<path fill="none" stroke="black" d="M646.4,-609.4C653.89,-610.08 662.18,-610.83 670.2,-611.56"/>
<polygon fill="black" stroke="black" points="669.83,-615.04 680.11,-612.46 670.47,-608.07 669.83,-615.04"/>
</g>
<!-- 2036269231328 -->
<g id="node32" class="node">
<title>2036269231328</title>
<polygon fill="black" stroke="black" points="907.5,-429 853.5,-429 853.5,-393 907.5,-393 907.5,-429"/>
</g>
<!-- 2036269231328&#45;&gt;2036269230848 -->
<g id="edge20" class="edge">
<title>2036269231328&#45;&gt;2036269230848</title>
<path fill="none" stroke="black" d="M907.98,-409.28C936.34,-407.44 981.58,-404.51 1013.57,-402.43"/>
<polygon fill="black" stroke="black" points="1013.44,-405.95 1023.19,-401.8 1012.99,-398.96 1013.44,-405.95"/>
</g>
<!-- 2036269288800 -->
<g id="node33" class="node">
<title>2036269288800</title>
<polygon fill="black" stroke="black" points="2408.88,-348 2354.88,-348 2354.88,-312 2408.88,-312 2408.88,-348"/>
</g>
<!-- 2036269288800&#45;&gt;2036269288944 -->
<g id="edge74" class="edge">
<title>2036269288800&#45;&gt;2036269288944</title>
<path fill="none" stroke="black" d="M2409.24,-330.64C2460.65,-331.89 2574.4,-334.65 2633.73,-336.09"/>
<polygon fill="black" stroke="black" points="2633.58,-339.58 2643.66,-336.33 2633.75,-332.59 2633.58,-339.58"/>
</g>
<!-- 2036269046112 -->
<g id="node34" class="node">
<title>2036269046112</title>
<polygon fill="white" stroke="black" points="2508.75,-186 2255,-186 2255,-150 2508.75,-150 2508.75,-186"/>
<text text-anchor="middle" x="2381.88" y="-163.72" font-family="Times New Roman,serif" font-size="12.00">Declaration APPROVED by BUDGET OWNER</text>
</g>
<!-- 2036269046112&#45;&gt;2036269359712 -->
<g id="edge13" class="edge">
<title>2036269046112&#45;&gt;2036269359712</title>
<path fill="none" stroke="black" d="M2481.35,-186.43C2534.02,-196.29 2595.76,-207.85 2634.23,-215.05"/>
<polygon fill="black" stroke="black" points="2633.43,-218.46 2643.9,-216.86 2634.71,-211.58 2633.43,-218.46"/>
</g>
<!-- 2036269040736 -->
<g id="node35" class="node">
<title>2036269040736</title>
<polygon fill="black" stroke="black" points="3958.25,-494 3904.25,-494 3904.25,-458 3958.25,-458 3958.25,-494"/>
</g>
<!-- 2036269040736&#45;&gt;2036269232192 -->
<g id="edge78" class="edge">
<title>2036269040736&#45;&gt;2036269232192</title>
<path fill="none" stroke="black" d="M3958.74,-476C3993.49,-476 4054.68,-476 4094.2,-476"/>
<polygon fill="black" stroke="black" points="4093.95,-479.5 4103.95,-476 4093.95,-472.5 4093.95,-479.5"/>
</g>
<!-- 2036269049568 -->
<g id="node36" class="node">
<title>2036269049568</title>
<polygon fill="white" stroke="black" points="4069.75,-440 3792.75,-440 3792.75,-404 4069.75,-404 4069.75,-440"/>
<text text-anchor="middle" x="3931.25" y="-417.73" font-family="Times New Roman,serif" font-size="12.00">Declaration FOR_APPROVAL by PRE_APPROVER</text>
</g>
<!-- 2036269049568&#45;&gt;2036269232192 -->
<g id="edge11" class="edge">
<title>2036269049568&#45;&gt;2036269232192</title>
<path fill="none" stroke="black" d="M4038.31,-440.41C4049.01,-442.99 4059.65,-445.85 4069.75,-449 4078.99,-451.88 4088.71,-455.71 4097.65,-459.57"/>
<polygon fill="black" stroke="black" points="4096.13,-462.73 4106.69,-463.63 4098.99,-456.34 4096.13,-462.73"/>
</g>
<!-- 2036269048800 -->
<g id="node37" class="node">
<title>2036269048800</title>
<polygon fill="white" stroke="black" points="4060,-386 3802.5,-386 3802.5,-350 4060,-350 4060,-386"/>
<text text-anchor="middle" x="3931.25" y="-363.73" font-family="Times New Roman,serif" font-size="12.00">Declaration FOR_APPROVAL by SUPERVISOR</text>
</g>
<!-- 2036269048800&#45;&gt;2036269232192 -->
<g id="edge15" class="edge">
<title>2036269048800&#45;&gt;2036269232192</title>
<path fill="none" stroke="black" d="M4053.45,-386.44C4059.11,-388.95 4064.58,-391.79 4069.75,-395 4088.24,-406.48 4103.26,-425.6 4113.89,-442.38"/>
<polygon fill="black" stroke="black" points="4110.69,-443.86 4118.85,-450.62 4116.69,-440.25 4110.69,-443.86"/>
</g>
<!-- 2036269234544 -->
<g id="node38" class="node">
<title>2036269234544</title>
<polygon fill="black" stroke="black" points="4656.5,-513 4602.5,-513 4602.5,-477 4656.5,-477 4656.5,-513"/>
</g>
<!-- 2036269234544&#45;&gt;2036269232960 -->
<g id="edge87" class="edge">
<title>2036269234544&#45;&gt;2036269232960</title>
<path fill="none" stroke="black" d="M4656.62,-506.92C4665.26,-510.87 4675.07,-515.35 4684.42,-519.62"/>
<polygon fill="black" stroke="black" points="4682.78,-522.72 4693.33,-523.68 4685.69,-516.35 4682.78,-522.72"/>
</g>
<!-- 2036269228400 -->
<g id="node39" class="node">
<title>2036269228400</title>
<polygon fill="black" stroke="black" points="736,-570 682,-570 682,-534 736,-534 736,-570"/>
</g>
<!-- 2036269228400&#45;&gt;2036269220960 -->
<g id="edge67" class="edge">
<title>2036269228400&#45;&gt;2036269220960</title>
<path fill="none" stroke="black" d="M736.28,-550.89C823.02,-547.55 1108.02,-539.35 1341.75,-564 1349.9,-564.86 1358.58,-566.24 1366.78,-567.77"/>
<polygon fill="black" stroke="black" points="1365.98,-571.18 1376.47,-569.68 1367.34,-564.31 1365.98,-571.18"/>
</g>
<!-- 2036269051248 -->
<g id="node40" class="node">
<title>2036269051248</title>
<polygon fill="black" stroke="black" points="1638.5,-338 1584.5,-338 1584.5,-302 1638.5,-302 1638.5,-338"/>
</g>
<!-- 2036269230800 -->
<g id="node56" class="node">
<title>2036269230800</title>
<ellipse fill="white" stroke="black" cx="1818.25" cy="-307" rx="27" ry="27"/>
</g>
<!-- 2036269051248&#45;&gt;2036269230800 -->
<g id="edge72" class="edge">
<title>2036269051248&#45;&gt;2036269230800</title>
<path fill="none" stroke="black" d="M1638.85,-318.33C1674.63,-316.06 1738.8,-311.98 1779.64,-309.39"/>
<polygon fill="black" stroke="black" points="1779.73,-312.89 1789.49,-308.76 1779.29,-305.9 1779.73,-312.89"/>
</g>
<!-- 2036115597936 -->
<g id="node41" class="node">
<title>2036115597936</title>
<polygon fill="white" stroke="black" points="2216,-64 1971.25,-64 1971.25,-28 2216,-28 2216,-64"/>
<text text-anchor="middle" x="2093.62" y="-41.73" font-family="Times New Roman,serif" font-size="12.00">Declaration REJECTED by PRE_APPROVER</text>
</g>
<!-- 2036115597936&#45;&gt;2036269230656 -->
<g id="edge5" class="edge">
<title>2036115597936&#45;&gt;2036269230656</title>
<path fill="none" stroke="black" d="M2216.42,-46C2333.15,-46 2514.3,-46 2671.38,-46 2671.38,-46 2671.38,-46 3169.5,-46 3310.9,-46 3379.76,22.46 3486.75,-70 3522.32,-100.73 3539.36,-239.83 3545.69,-308.04"/>
<polygon fill="black" stroke="black" points="3542.17,-307.98 3546.55,-317.63 3549.15,-307.36 3542.17,-307.98"/>
</g>
<!-- 2036269045488 -->
<g id="node42" class="node">
<title>2036269045488</title>
<polygon fill="white" stroke="black" points="3105.5,-221 2833,-221 2833,-185 3105.5,-185 3105.5,-221"/>
<text text-anchor="middle" x="2969.25" y="-198.72" font-family="Times New Roman,serif" font-size="12.00">Declaration FINAL_APPROVED by SUPERVISOR</text>
</g>
<!-- 2036269045488&#45;&gt;2036269286976 -->
<g id="edge17" class="edge">
<title>2036269045488&#45;&gt;2036269286976</title>
<path fill="none" stroke="black" d="M3105.36,-221.49C3114.22,-222.71 3122.61,-223.86 3130.21,-224.9"/>
<polygon fill="black" stroke="black" points="3129.55,-228.34 3139.93,-226.23 3130.5,-221.4 3129.55,-228.34"/>
</g>
<!-- 2036269048944 -->
<g id="node43" class="node">
<title>2036269048944</title>
<polygon fill="black" stroke="black" points="3666.75,-371 3612.75,-371 3612.75,-335 3666.75,-335 3666.75,-371"/>
</g>
<!-- 2036269048944&#45;&gt;2036269232288 -->
<g id="edge77" class="edge">
<title>2036269048944&#45;&gt;2036269232288</title>
<path fill="none" stroke="black" d="M3657.3,-371.06C3670.28,-385.21 3688.55,-405.15 3703.37,-421.31"/>
<polygon fill="black" stroke="black" points="3700.4,-423.25 3709.74,-428.26 3705.56,-418.52 3700.4,-423.25"/>
</g>
<!-- 2036269220672 -->
<g id="node44" class="node">
<title>2036269220672</title>
<ellipse fill="white" stroke="black" cx="27" cy="-625" rx="27" ry="27"/>
<text text-anchor="start" x="16.88" y="-611.83" font-family="Times New Roman,serif" font-size="34.00">●</text>
</g>
<!-- 2036269220672&#45;&gt;2036269222016 -->
<g id="edge84" class="edge">
<title>2036269220672&#45;&gt;2036269222016</title>
<path fill="none" stroke="black" d="M53.9,-629.4C79.85,-633.8 120.05,-640.63 149.49,-645.63"/>
<polygon fill="black" stroke="black" points="148.64,-649.04 159.09,-647.26 149.82,-642.14 148.64,-649.04"/>
</g>
<!-- 2036269220672&#45;&gt;2036269227008 -->
<g id="edge83" class="edge">
<title>2036269220672&#45;&gt;2036269227008</title>
<path fill="none" stroke="black" d="M53.9,-620.6C61.16,-619.37 69.53,-617.95 78.47,-616.43"/>
<polygon fill="black" stroke="black" points="78.85,-619.91 88.13,-614.79 77.68,-613.01 78.85,-619.91"/>
</g>
<!-- 2036269227248&#45;&gt;2036269234544 -->
<g id="edge22" class="edge">
<title>2036269227248&#45;&gt;2036269234544</title>
<path fill="none" stroke="black" d="M4566.9,-495C4574.39,-495 4582.68,-495 4590.7,-495"/>
<polygon fill="black" stroke="black" points="4590.6,-498.5 4600.6,-495 4590.6,-491.5 4590.6,-498.5"/>
</g>
<!-- 2036269227344&#45;&gt;2036269232432 -->
<g id="edge24" class="edge">
<title>2036269227344&#45;&gt;2036269232432</title>
<path fill="none" stroke="black" d="M4339.3,-501.19C4353.67,-504.68 4371.86,-509.09 4387.8,-512.95"/>
<polygon fill="black" stroke="black" points="4386.9,-516.34 4397.45,-515.29 4388.55,-509.53 4386.9,-516.34"/>
</g>
<!-- 2036269227344&#45;&gt;2036269051584 -->
<g id="edge23" class="edge">
<title>2036269227344&#45;&gt;2036269051584</title>
<path fill="none" stroke="black" d="M4339.3,-488.81C4346.97,-486.95 4355.73,-484.82 4364.66,-482.66"/>
<polygon fill="black" stroke="black" points="4365.21,-486.13 4374.1,-480.37 4363.56,-479.32 4365.21,-486.13"/>
</g>
<!-- 2036269221968&#45;&gt;2036269223648 -->
<g id="edge25" class="edge">
<title>2036269221968&#45;&gt;2036269223648</title>
<path fill="none" stroke="black" d="M554.05,-578.66C562.39,-582.35 571.94,-586.59 581.07,-590.63"/>
<polygon fill="black" stroke="black" points="579.56,-593.79 590.12,-594.65 582.4,-587.39 579.56,-593.79"/>
</g>
<!-- 2036269221968&#45;&gt;2036269228400 -->
<g id="edge26" class="edge">
<title>2036269221968&#45;&gt;2036269228400</title>
<path fill="none" stroke="black" d="M556.26,-565.64C586.37,-562.93 635.96,-558.48 670.21,-555.4"/>
<polygon fill="black" stroke="black" points="670.47,-558.89 680.12,-554.51 669.85,-551.92 670.47,-558.89"/>
</g>
<!-- 2036269220960&#45;&gt;2036269232912 -->
<g id="edge27" class="edge">
<title>2036269220960&#45;&gt;2036269232912</title>
<path fill="none" stroke="black" d="M1432.23,-576C1497.59,-576 1671.87,-576 1817.25,-576 1817.25,-576 1817.25,-576 3932.25,-576 3993.94,-576 4010.17,-573 4069.75,-557 4110.5,-546.06 4154.95,-527.04 4185.2,-512.94"/>
<polygon fill="black" stroke="black" points="4186.36,-516.26 4193.9,-508.83 4183.37,-509.93 4186.36,-516.26"/>
</g>
<!-- 2036269220000&#45;&gt;2036269233152 -->
<g id="edge28" class="edge">
<title>2036269220000&#45;&gt;2036269233152</title>
<path fill="none" stroke="black" d="M736.11,-613.31C745.43,-612.7 756.59,-611.98 768.53,-611.2"/>
<polygon fill="black" stroke="black" points="768.42,-614.72 778.17,-610.58 767.96,-607.73 768.42,-614.72"/>
</g>
<!-- 2036269232240&#45;&gt;2036269235840 -->
<g id="edge29" class="edge">
<title>2036269232240&#45;&gt;2036269235840</title>
<path fill="none" stroke="black" d="M1078.25,-607.07C1089.46,-610.57 1102.85,-614.63 1115,-618 1139.8,-624.88 1167.89,-631.88 1189.78,-637.16"/>
<polygon fill="black" stroke="black" points="1188.92,-640.55 1199.46,-639.48 1190.55,-633.75 1188.92,-640.55"/>
</g>
<!-- 2036269232240&#45;&gt;2036269235120 -->
<g id="edge30" class="edge">
<title>2036269232240&#45;&gt;2036269235120</title>
<path fill="none" stroke="black" d="M1079.11,-597.8C1108.51,-596.45 1156.55,-594.25 1189.94,-592.72"/>
<polygon fill="black" stroke="black" points="1189.75,-596.23 1199.58,-592.28 1189.43,-589.24 1189.75,-596.23"/>
</g>
<!-- 2036269222496&#45;&gt;2036269232528 -->
<g id="edge32" class="edge">
<title>2036269222496&#45;&gt;2036269232528</title>
<path fill="none" stroke="black" d="M556.21,-498.4C590.91,-501.35 653.99,-506 708,-506 708,-506 708,-506 2673.38,-506 2843.88,-506 3047.43,-510.82 3129.97,-512.98"/>
<polygon fill="black" stroke="black" points="3129.65,-516.47 3139.74,-513.24 3129.84,-509.47 3129.65,-516.47"/>
</g>
<!-- 2036269222496&#45;&gt;2036269230608 -->
<g id="edge31" class="edge">
<title>2036269222496&#45;&gt;2036269230608</title>
<path fill="none" stroke="black" d="M554.05,-485.07C562.39,-481.28 571.94,-476.94 581.07,-472.78"/>
<polygon fill="black" stroke="black" points="582.47,-475.99 590.13,-468.67 579.58,-469.62 582.47,-475.99"/>
</g>
<!-- 2036269232192&#45;&gt;2036269232912 -->
<g id="edge33" class="edge">
<title>2036269232192&#45;&gt;2036269232912</title>
<path fill="none" stroke="black" d="M4159.2,-481.5C4167.02,-483.18 4175.79,-485.08 4184.24,-486.9"/>
<polygon fill="black" stroke="black" points="4183.44,-490.31 4193.96,-489 4184.92,-483.47 4183.44,-490.31"/>
</g>
<!-- 2036269232288&#45;&gt;2036269046592 -->
<g id="edge34" class="edge">
<title>2036269232288&#45;&gt;2036269046592</title>
<path fill="none" stroke="black" d="M3748.39,-468.9C3759.87,-480.62 3775.83,-494.72 3792.75,-503 3816.72,-514.73 3845.39,-521.37 3870.34,-525.12"/>
<polygon fill="black" stroke="black" points="3869.63,-528.56 3880.01,-526.44 3870.58,-521.62 3869.63,-528.56"/>
</g>
<!-- 2036269232288&#45;&gt;2036269040736 -->
<g id="edge37" class="edge">
<title>2036269232288&#45;&gt;2036269040736</title>
<path fill="none" stroke="black" d="M3756.83,-452.53C3791.46,-457.22 3852.85,-465.52 3892.53,-470.89"/>
<polygon fill="black" stroke="black" points="3891.97,-474.35 3902.34,-472.22 3892.9,-467.41 3891.97,-474.35"/>
</g>
<!-- 2036269232288&#45;&gt;2036269049568 -->
<g id="edge35" class="edge">
<title>2036269232288&#45;&gt;2036269049568</title>
<path fill="none" stroke="black" d="M3756.83,-445.47C3764.27,-444.46 3772.95,-443.29 3782.37,-442.01"/>
<polygon fill="black" stroke="black" points="3782.82,-445.48 3792.26,-440.68 3781.88,-438.55 3782.82,-445.48"/>
</g>
<!-- 2036269232288&#45;&gt;2036269048800 -->
<g id="edge36" class="edge">
<title>2036269232288&#45;&gt;2036269048800</title>
<path fill="none" stroke="black" d="M3748.39,-429.1C3759.87,-417.38 3775.83,-403.28 3792.75,-395 3796.03,-393.4 3799.39,-391.89 3802.82,-390.47"/>
<polygon fill="black" stroke="black" points="3803.79,-393.85 3811.88,-387.01 3801.29,-387.31 3803.79,-393.85"/>
</g>
<!-- 2036269230320&#45;&gt;2036269231328 -->
<g id="edge38" class="edge">
<title>2036269230320&#45;&gt;2036269231328</title>
<path fill="none" stroke="black" d="M735.74,-444.92C764.16,-438.22 810.14,-427.37 842.44,-419.75"/>
<polygon fill="black" stroke="black" points="842.83,-423.25 851.76,-417.55 841.23,-416.44 842.83,-423.25"/>
</g>
<!-- 2036269230656&#45;&gt;2036269353808 -->
<g id="edge39" class="edge">
<title>2036269230656&#45;&gt;2036269353808</title>
<path fill="none" stroke="black" d="M3568.56,-366.03C3581.99,-381.14 3600.53,-402.01 3615.19,-418.5"/>
<polygon fill="black" stroke="black" points="3612.19,-420.39 3621.45,-425.53 3617.42,-415.73 3612.19,-420.39"/>
</g>
<!-- 2036269230656&#45;&gt;2036269048944 -->
<g id="edge40" class="edge">
<title>2036269230656&#45;&gt;2036269048944</title>
<path fill="none" stroke="black" d="M3577.15,-348.1C3584.64,-348.7 3592.93,-349.36 3600.95,-349.99"/>
<polygon fill="black" stroke="black" points="3600.61,-353.48 3610.86,-350.78 3601.17,-346.5 3600.61,-353.48"/>
</g>
<!-- 2036269230800&#45;&gt;2036192366592 -->
<g id="edge41" class="edge">
<title>2036269230800&#45;&gt;2036192366592</title>
<path fill="none" stroke="black" d="M1839.78,-323.59C1883.48,-357.16 1990.1,-430 2092.62,-430 2092.62,-430 2092.62,-430 2970.25,-430 3053.24,-430 3145.97,-423.77 3219.95,-417.3"/>
<polygon fill="black" stroke="black" points="3220.03,-420.81 3229.68,-416.44 3219.41,-413.83 3220.03,-420.81"/>
</g>
<!-- 2036269230800&#45;&gt;2036117590304 -->
<g id="edge44" class="edge">
<title>2036269230800&#45;&gt;2036117590304</title>
<path fill="none" stroke="black" d="M1845.65,-307C1853.14,-307 1861.43,-307 1869.45,-307"/>
<polygon fill="black" stroke="black" points="1869.35,-310.5 1879.35,-307 1869.35,-303.5 1869.35,-310.5"/>
</g>
<!-- 2036269230800&#45;&gt;2036269042128 -->
<g id="edge43" class="edge">
<title>2036269230800&#45;&gt;2036269042128</title>
<path fill="none" stroke="black" d="M1836.64,-287.24C1850.11,-271.93 1868.93,-250.54 1883.75,-233.7"/>
<polygon fill="black" stroke="black" points="1886.11,-236.32 1890.09,-226.5 1880.85,-231.7 1886.11,-236.32"/>
</g>
<!-- 2036269230800&#45;&gt;2036115597936 -->
<g id="edge42" class="edge">
<title>2036269230800&#45;&gt;2036115597936</title>
<path fill="none" stroke="black" d="M1827.95,-281.39C1846.04,-232.51 1892.67,-126.48 1971.25,-78 1976.83,-74.55 1982.78,-71.48 1988.94,-68.73"/>
<polygon fill="black" stroke="black" points="1990.13,-72.02 1998.05,-64.98 1987.47,-65.55 1990.13,-72.02"/>
</g>
<!-- 2036269230848&#45;&gt;2036269221008 -->
<g id="edge45" class="edge">
<title>2036269230848&#45;&gt;2036269221008</title>
<path fill="none" stroke="black" d="M1078.36,-392.73C1097.87,-387.14 1125.89,-379.1 1152.37,-371.51"/>
<polygon fill="black" stroke="black" points="1153.11,-374.94 1161.75,-368.82 1151.18,-368.21 1153.11,-374.94"/>
</g>
<!-- 2036269230224&#45;&gt;2036269223600 -->
<g id="edge46" class="edge">
<title>2036269230224&#45;&gt;2036269223600</title>
<path fill="none" stroke="black" d="M1431.27,-351.85C1456.24,-358.56 1495.58,-369.13 1531.05,-378.66"/>
<polygon fill="black" stroke="black" points="1529.88,-381.97 1540.45,-381.18 1531.7,-375.21 1529.88,-381.97"/>
</g>
<!-- 2036269230224&#45;&gt;2036269051248 -->
<g id="edge47" class="edge">
<title>2036269230224&#45;&gt;2036269051248</title>
<path fill="none" stroke="black" d="M1431.68,-341.83C1467.33,-337.48 1531.72,-329.62 1572.72,-324.61"/>
<polygon fill="black" stroke="black" points="1573.13,-328.09 1582.63,-323.4 1572.28,-321.14 1573.13,-328.09"/>
</g>
<!-- 2036269291824&#45;&gt;2036269285920 -->
<g id="edge48" class="edge">
<title>2036269291824&#45;&gt;2036269285920</title>
<path fill="none" stroke="black" d="M2120.53,-334.89C2154.65,-341.32 2216.77,-353.04 2271.77,-363.42"/>
<polygon fill="black" stroke="black" points="2271.07,-366.85 2281.54,-365.26 2272.36,-359.97 2271.07,-366.85"/>
</g>
<!-- 2036269291824&#45;&gt;2036269288800 -->
<g id="edge49" class="edge">
<title>2036269291824&#45;&gt;2036269288800</title>
<path fill="none" stroke="black" d="M2121.04,-330C2172.06,-330 2284.29,-330 2343.15,-330"/>
<polygon fill="black" stroke="black" points="2343.01,-333.5 2353.01,-330 2343.01,-326.5 2343.01,-333.5"/>
</g>
<!-- 2036269288944&#45;&gt;2036269299888 -->
<g id="edge50" class="edge">
<title>2036269288944&#45;&gt;2036269299888</title>
<path fill="none" stroke="black" d="M2699.8,-337C2805.29,-337 3196.55,-337 3320.33,-337"/>
<polygon fill="black" stroke="black" points="3320.27,-340.5 3330.27,-337 3320.27,-333.5 3320.27,-340.5"/>
</g>
<!-- 2036269286064&#45;&gt;2036269361920 -->
<g id="edge54" class="edge">
<title>2036269286064&#45;&gt;2036269361920</title>
<path fill="none" stroke="black" d="M2120.53,-226.89C2171.37,-236.48 2284.35,-257.79 2343.36,-268.92"/>
<polygon fill="black" stroke="black" points="2342.44,-272.31 2352.92,-270.73 2343.74,-265.43 2342.44,-272.31"/>
</g>
<!-- 2036269286064&#45;&gt;2036269044240 -->
<g id="edge53" class="edge">
<title>2036269286064&#45;&gt;2036269044240</title>
<path fill="none" stroke="black" d="M2121.04,-222C2149.87,-222 2198.25,-222 2245.5,-222"/>
<polygon fill="black" stroke="black" points="2245.32,-225.5 2255.32,-222 2245.32,-218.5 2245.32,-225.5"/>
</g>
<!-- 2036269286064&#45;&gt;2036269365568 -->
<g id="edge51" class="edge">
<title>2036269286064&#45;&gt;2036269365568</title>
<path fill="none" stroke="black" d="M2116.22,-206.61C2145.39,-186.86 2199.74,-153.66 2252,-141 2345.03,-118.46 2453.1,-120.13 2536.23,-127.08"/>
<polygon fill="black" stroke="black" points="2535.76,-130.55 2546.03,-127.94 2536.37,-123.58 2535.76,-130.55"/>
</g>
<!-- 2036269286064&#45;&gt;2036269046112 -->
<g id="edge52" class="edge">
<title>2036269286064&#45;&gt;2036269046112</title>
<path fill="none" stroke="black" d="M2120.53,-217.11C2154.65,-210.68 2216.77,-198.96 2271.77,-188.58"/>
<polygon fill="black" stroke="black" points="2272.36,-192.03 2281.54,-186.74 2271.07,-185.15 2272.36,-192.03"/>
</g>
<!-- 2036269286976&#45;&gt;2036269299888 -->
<g id="edge55" class="edge">
<title>2036269286976&#45;&gt;2036269299888</title>
<path fill="none" stroke="black" d="M3192.63,-243.12C3224.96,-261.46 3283.97,-294.93 3322.09,-316.56"/>
<polygon fill="black" stroke="black" points="3320.03,-319.42 3330.46,-321.3 3323.49,-313.33 3320.03,-319.42"/>
</g>
<!-- 2036269233440&#45;&gt;2036269226240 -->
<g id="edge56" class="edge">
<title>2036269233440&#45;&gt;2036269226240</title>
<path fill="none" stroke="black" d="M372.31,-639.37C405.06,-659.06 468.73,-692 528,-692 528,-692 528,-692 1405.75,-692 1543.78,-692 1707.26,-676.12 1779.6,-668.28"/>
<polygon fill="black" stroke="black" points="1779.75,-671.79 1789.31,-667.21 1778.99,-664.83 1779.75,-671.79"/>
</g>
<!-- 2036269233440&#45;&gt;2036269233872 -->
<g id="edge57" class="edge">
<title>2036269233440&#45;&gt;2036269233872</title>
<path fill="none" stroke="black" d="M368.23,-605.73C381.23,-591.99 398.86,-573.36 413.15,-558.27"/>
<polygon fill="black" stroke="black" points="415.32,-561.06 419.65,-551.4 410.23,-556.25 415.32,-561.06"/>
</g>
<!-- 2036269359712&#45;&gt;2036269043088 -->
<g id="edge58" class="edge">
<title>2036269359712&#45;&gt;2036269043088</title>
<path fill="none" stroke="black" d="M2699.54,-225.11C2732.38,-229 2790.96,-235.96 2845.06,-242.38"/>
<polygon fill="black" stroke="black" points="2844.32,-245.82 2854.67,-243.52 2845.15,-238.86 2844.32,-245.82"/>
</g>
<!-- 2036269359712&#45;&gt;2036269045488 -->
<g id="edge59" class="edge">
<title>2036269359712&#45;&gt;2036269045488</title>
<path fill="none" stroke="black" d="M2699.8,-220.3C2727.94,-218.48 2774.77,-215.47 2821.51,-212.46"/>
<polygon fill="black" stroke="black" points="2821.47,-215.96 2831.23,-211.83 2821.02,-208.98 2821.47,-215.96"/>
</g>
<!-- 2036269233056&#45;&gt;2036269235888 -->
<g id="edge61" class="edge">
<title>2036269233056&#45;&gt;2036269235888</title>
<path fill="none" stroke="black" d="M556.27,-199.77C617.65,-199.25 770.65,-197.93 841.89,-197.32"/>
<polygon fill="black" stroke="black" points="841.92,-200.82 851.89,-197.24 841.86,-193.82 841.92,-200.82"/>
</g>
<!-- 2036269233056&#45;&gt;2036269220144 -->
<g id="edge60" class="edge">
<title>2036269233056&#45;&gt;2036269220144</title>
<path fill="none" stroke="black" d="M553.12,-186.86C561.89,-181.88 572.1,-176.08 581.79,-170.58"/>
<polygon fill="black" stroke="black" points="583.33,-173.72 590.3,-165.74 579.87,-167.64 583.33,-173.72"/>
</g>
<!-- 2036269234496&#45;&gt;2036269234544 -->
<g id="edge62" class="edge">
<title>2036269234496&#45;&gt;2036269234544</title>
<path fill="none" stroke="black" d="M1430.35,-84.29C1493.52,-60.28 1667.02,0 1817.25,0 1817.25,0 1817.25,0 4427.12,0 4528.3,0 4603.24,-359.27 4623.22,-465.66"/>
<polygon fill="black" stroke="black" points="4619.74,-466.11 4625,-475.31 4626.62,-464.84 4619.74,-466.11"/>
</g>
<!-- 2036269226480&#45;&gt;2036269224992 -->
<g id="edge63" class="edge">
<title>2036269226480&#45;&gt;2036269224992</title>
<path fill="none" stroke="black" d="M735.38,-138.11C752.76,-133.4 776.83,-126.86 800.33,-120.48"/>
<polygon fill="black" stroke="black" points="801.23,-123.87 809.97,-117.87 799.4,-117.11 801.23,-123.87"/>
</g>
<!-- 2036269225760&#45;&gt;2036269226000 -->
<g id="edge64" class="edge">
<title>2036269225760&#45;&gt;2036269226000</title>
<path fill="none" stroke="black" d="M1076.76,-105.51C1088.15,-110.72 1102.09,-116.67 1115,-121 1139.51,-129.21 1167.82,-136 1189.89,-140.71"/>
<polygon fill="black" stroke="black" points="1189.14,-144.13 1199.64,-142.74 1190.56,-137.28 1189.14,-144.13"/>
</g>
<!-- 2036269225760&#45;&gt;2036269229408 -->
<g id="edge65" class="edge">
<title>2036269225760&#45;&gt;2036269229408</title>
<path fill="none" stroke="black" d="M1079.48,-94C1108.89,-94 1156.58,-94 1189.82,-94"/>
<polygon fill="black" stroke="black" points="1189.41,-97.5 1199.41,-94 1189.41,-90.5 1189.41,-97.5"/>
</g>
</g>
</svg>
