<?xml version="1.0" encoding="UTF-8" standalone="no"?>
<!DOCTYPE svg PUBLIC "-//W3C//DTD SVG 1.1//EN"
 "http://www.w3.org/Graphics/SVG/1.1/DTD/svg11.dtd">
<!-- Generated by graphviz version 12.2.0 (20241103.1931)
 -->
<!-- Title: imdf_net_1744738690.1561189 Pages: 1 -->
<svg width="2086pt" height="388pt"
 viewBox="0.00 0.00 2086.00 388.20" xmlns="http://www.w3.org/2000/svg" xmlns:xlink="http://www.w3.org/1999/xlink">
<g id="graph0" class="graph" transform="scale(1 1) rotate(0) translate(4 384.2)">
<title>imdf_net_1744738690.1561189</title>
<polygon fill="white" stroke="none" points="-4,4 -4,-384.2 2082,-384.2 2082,4 -4,4"/>
<!-- 1628104656448 -->
<g id="node1" class="node">
<title>1628104656448</title>
<polygon fill="white" stroke="black" points="497.5,-380.2 296.25,-380.2 296.25,-344.2 497.5,-344.2 497.5,-380.2"/>
<text text-anchor="middle" x="396.88" y="-357.93" font-family="Times New Roman,serif" font-size="12.00">Declaration REJECTED by MISSING</text>
</g>
<!-- 1628104655680 -->
<g id="node21" class="node">
<title>1628104655680</title>
<ellipse fill="white" stroke="black" cx="586.75" cy="-308.2" rx="27" ry="27"/>
</g>
<!-- 1628104656448&#45;&gt;1628104655680 -->
<g id="edge7" class="edge">
<title>1628104656448&#45;&gt;1628104655680</title>
<path fill="none" stroke="black" d="M493.6,-343.77C503.85,-341.17 514.07,-338.31 523.75,-335.2 532.97,-332.24 542.68,-328.38 551.61,-324.52"/>
<polygon fill="black" stroke="black" points="552.95,-327.75 560.65,-320.47 550.1,-321.36 552.95,-327.75"/>
</g>
<!-- 1628104659232 -->
<g id="node2" class="node">
<title>1628104659232</title>
<polygon fill="black" stroke="black" points="423.88,-272.2 369.88,-272.2 369.88,-236.2 423.88,-236.2 423.88,-272.2"/>
</g>
<!-- 1628104658944 -->
<g id="node24" class="node">
<title>1628104658944</title>
<ellipse fill="white" stroke="black" cx="586.75" cy="-200.2" rx="27" ry="27"/>
</g>
<!-- 1628104659232&#45;&gt;1628104658944 -->
<g id="edge27" class="edge">
<title>1628104659232&#45;&gt;1628104658944</title>
<path fill="none" stroke="black" d="M424.31,-250.11C450.06,-245.76 490.13,-238.01 523.75,-227.2 532.97,-224.24 542.68,-220.38 551.61,-216.52"/>
<polygon fill="black" stroke="black" points="552.95,-219.75 560.65,-212.47 550.1,-213.36 552.95,-219.75"/>
</g>
<!-- 1628104661152 -->
<g id="node3" class="node">
<title>1628104661152</title>
<polygon fill="white" stroke="black" points="922.25,-268.2 649.75,-268.2 649.75,-232.2 922.25,-232.2 922.25,-268.2"/>
<text text-anchor="middle" x="786" y="-245.93" font-family="Times New Roman,serif" font-size="12.00">Declaration FINAL_APPROVED by SUPERVISOR</text>
</g>
<!-- 1628104660432 -->
<g id="node18" class="node">
<title>1628104660432</title>
<ellipse fill="white" stroke="black" cx="1087" cy="-233.2" rx="27" ry="27"/>
</g>
<!-- 1628104661152&#45;&gt;1628104660432 -->
<g id="edge9" class="edge">
<title>1628104661152&#45;&gt;1628104660432</title>
<path fill="none" stroke="black" d="M922.5,-242.5C968.54,-239.88 1016.36,-237.16 1048.3,-235.35"/>
<polygon fill="black" stroke="black" points="1048.43,-238.84 1058.22,-234.78 1048.03,-231.85 1048.43,-238.84"/>
</g>
<!-- 1628104662880 -->
<g id="node4" class="node">
<title>1628104662880</title>
<polygon fill="white" stroke="black" points="1350.25,-273.2 1251.75,-273.2 1251.75,-237.2 1350.25,-237.2 1350.25,-273.2"/>
<text text-anchor="middle" x="1301" y="-250.93" font-family="Times New Roman,serif" font-size="12.00">Request Payment</text>
</g>
<!-- 1628104660816 -->
<g id="node19" class="node">
<title>1628104660816</title>
<ellipse fill="white" stroke="black" cx="1524.75" cy="-228.2" rx="27" ry="27"/>
</g>
<!-- 1628104662880&#45;&gt;1628104660816 -->
<g id="edge6" class="edge">
<title>1628104662880&#45;&gt;1628104660816</title>
<path fill="none" stroke="black" d="M1350.66,-249.28C1391.5,-244.3 1448.99,-237.3 1486.31,-232.76"/>
<polygon fill="black" stroke="black" points="1486.67,-236.24 1496.17,-231.56 1485.82,-229.29 1486.67,-236.24"/>
</g>
<!-- 1628104662688 -->
<g id="node5" class="node">
<title>1628104662688</title>
<polygon fill="black" stroke="black" points="1776.62,-266.2 1722.62,-266.2 1722.62,-230.2 1776.62,-230.2 1776.62,-266.2"/>
</g>
<!-- 1628104658272 -->
<g id="node23" class="node">
<title>1628104658272</title>
<ellipse fill="white" stroke="black" cx="1863" cy="-171.2" rx="27" ry="27"/>
</g>
<!-- 1628104662688&#45;&gt;1628104658272 -->
<g id="edge30" class="edge">
<title>1628104662688&#45;&gt;1628104658272</title>
<path fill="none" stroke="black" d="M1777.02,-234.89C1784.6,-230.77 1792.77,-226.04 1800,-221.2 1811.38,-213.59 1823.23,-204.39 1833.48,-195.96"/>
<polygon fill="black" stroke="black" points="1835.44,-198.89 1840.87,-189.79 1830.95,-193.52 1835.44,-198.89"/>
</g>
<!-- 1628104662496 -->
<g id="node6" class="node">
<title>1628104662496</title>
<polygon fill="white" stroke="black" points="1800,-212.2 1699.25,-212.2 1699.25,-176.2 1800,-176.2 1800,-212.2"/>
<text text-anchor="middle" x="1749.62" y="-189.93" font-family="Times New Roman,serif" font-size="12.00">Payment Handled</text>
</g>
<!-- 1628104662496&#45;&gt;1628104658272 -->
<g id="edge4" class="edge">
<title>1628104662496&#45;&gt;1628104658272</title>
<path fill="none" stroke="black" d="M1800.45,-183.91C1808.78,-182.19 1817.28,-180.44 1825.21,-178.8"/>
<polygon fill="black" stroke="black" points="1825.75,-182.26 1834.83,-176.81 1824.33,-175.41 1825.75,-182.26"/>
</g>
<!-- 1628104663312 -->
<g id="node7" class="node">
<title>1628104663312</title>
<polygon fill="black" stroke="black" points="1328,-219.2 1274,-219.2 1274,-183.2 1328,-183.2 1328,-219.2"/>
</g>
<!-- 1628104663312&#45;&gt;1628104660816 -->
<g id="edge29" class="edge">
<title>1628104663312&#45;&gt;1628104660816</title>
<path fill="none" stroke="black" d="M1328.31,-204.4C1367.49,-209.18 1441.34,-218.17 1486.19,-223.63"/>
<polygon fill="black" stroke="black" points="1485.62,-227.09 1495.97,-224.82 1486.47,-220.14 1485.62,-227.09"/>
</g>
<!-- 1628104660720 -->
<g id="node8" class="node">
<title>1628104660720</title>
<polygon fill="black" stroke="black" points="813,-214.2 759,-214.2 759,-178.2 813,-178.2 813,-214.2"/>
</g>
<!-- 1628104660720&#45;&gt;1628104660432 -->
<g id="edge28" class="edge">
<title>1628104660720&#45;&gt;1628104660432</title>
<path fill="none" stroke="black" d="M813.27,-199.45C866.55,-206.05 987.46,-221.01 1048.81,-228.6"/>
<polygon fill="black" stroke="black" points="1048.04,-232.03 1058.39,-229.79 1048.9,-225.08 1048.04,-232.03"/>
</g>
<!-- 1628104670128 -->
<g id="node9" class="node">
<title>1628104670128</title>
<polygon fill="black" stroke="black" points="144,-245.2 90,-245.2 90,-209.2 144,-209.2 144,-245.2"/>
</g>
<!-- 1628104753216 -->
<g id="node20" class="node">
<title>1628104753216</title>
<ellipse fill="white" stroke="black" cx="207" cy="-308.2" rx="27" ry="27"/>
</g>
<!-- 1628104670128&#45;&gt;1628104753216 -->
<g id="edge33" class="edge">
<title>1628104670128&#45;&gt;1628104753216</title>
<path fill="none" stroke="black" d="M137.97,-245.58C149.87,-256.53 165.14,-270.6 178.21,-282.62"/>
<polygon fill="black" stroke="black" points="175.57,-284.95 185.3,-289.15 180.31,-279.8 175.57,-284.95"/>
</g>
<!-- 1628104655824 -->
<g id="node22" class="node">
<title>1628104655824</title>
<ellipse fill="white" stroke="black" cx="207" cy="-173.2" rx="27" ry="27"/>
</g>
<!-- 1628104670128&#45;&gt;1628104655824 -->
<g id="edge34" class="edge">
<title>1628104670128&#45;&gt;1628104655824</title>
<path fill="none" stroke="black" d="M144.4,-211C153.65,-205.33 164.13,-198.89 173.79,-192.96"/>
<polygon fill="black" stroke="black" points="175.5,-196.02 182.19,-187.81 171.84,-190.06 175.5,-196.02"/>
</g>
<!-- 1628104670992 -->
<g id="node10" class="node">
<title>1628104670992</title>
<polygon fill="black" stroke="black" points="1980,-241.2 1926,-241.2 1926,-205.2 1980,-205.2 1980,-241.2"/>
</g>
<!-- 1628104669936 -->
<g id="node25" class="node">
<title>1628104669936</title>
<ellipse fill="white" stroke="black" cx="2047" cy="-223.2" rx="27" ry="27"/>
<ellipse fill="none" stroke="black" cx="2047" cy="-223.2" rx="31" ry="31"/>
<text text-anchor="start" x="2037.25" y="-211.18" font-family="Times New Roman,serif" font-size="32.00">■</text>
</g>
<!-- 1628104670992&#45;&gt;1628104669936 -->
<g id="edge32" class="edge">
<title>1628104670992&#45;&gt;1628104669936</title>
<path fill="none" stroke="black" d="M1980.12,-223.2C1987.63,-223.2 1996.01,-223.2 2004.22,-223.2"/>
<polygon fill="black" stroke="black" points="2004.08,-226.7 2014.08,-223.2 2004.08,-219.7 2004.08,-226.7"/>
</g>
<!-- 1628104662640 -->
<g id="node11" class="node">
<title>1628104662640</title>
<polygon fill="black" stroke="black" points="423.88,-326.2 369.88,-326.2 369.88,-290.2 423.88,-290.2 423.88,-326.2"/>
</g>
<!-- 1628104662640&#45;&gt;1628104655680 -->
<g id="edge26" class="edge">
<title>1628104662640&#45;&gt;1628104655680</title>
<path fill="none" stroke="black" d="M424,-308.2C456.3,-308.2 511.5,-308.2 548.3,-308.2"/>
<polygon fill="black" stroke="black" points="548.03,-311.7 558.03,-308.2 548.03,-304.7 548.03,-311.7"/>
</g>
<!-- 1628104658608 -->
<g id="node12" class="node">
<title>1628104658608</title>
<polygon fill="white" stroke="black" points="1663.25,-118.2 1386.25,-118.2 1386.25,-82.2 1663.25,-82.2 1663.25,-118.2"/>
<text text-anchor="middle" x="1524.75" y="-95.93" font-family="Times New Roman,serif" font-size="12.00">Declaration FOR_APPROVAL by PRE_APPROVER</text>
</g>
<!-- 1628104658608&#45;&gt;1628104658272 -->
<g id="edge1" class="edge">
<title>1628104658608&#45;&gt;1628104658272</title>
<path fill="none" stroke="black" d="M1663.58,-106.07C1708.01,-110.9 1756.89,-119.4 1800,-134.2 1810.73,-137.89 1821.63,-143.59 1831.23,-149.43"/>
<polygon fill="black" stroke="black" points="1829.12,-152.24 1839.44,-154.67 1832.89,-146.34 1829.12,-152.24"/>
</g>
<!-- 1628104658224 -->
<g id="node13" class="node">
<title>1628104658224</title>
<polygon fill="white" stroke="black" points="1215.75,-72.2 958.25,-72.2 958.25,-36.2 1215.75,-36.2 1215.75,-72.2"/>
<text text-anchor="middle" x="1087" y="-49.93" font-family="Times New Roman,serif" font-size="12.00">Declaration FOR_APPROVAL by SUPERVISOR</text>
</g>
<!-- 1628104658224&#45;&gt;1628104658272 -->
<g id="edge2" class="edge">
<title>1628104658224&#45;&gt;1628104658272</title>
<path fill="none" stroke="black" d="M1216.04,-50.75C1333.05,-49.41 1510.59,-51.94 1663.25,-73.2 1725.28,-81.84 1745.73,-75.95 1800,-107.2 1814.89,-115.77 1828.52,-128.95 1839.2,-141.13"/>
<polygon fill="black" stroke="black" points="1836.34,-143.16 1845.44,-148.57 1841.7,-138.66 1836.34,-143.16"/>
</g>
<!-- 1628104658320 -->
<g id="node14" class="node">
<title>1628104658320</title>
<polygon fill="white" stroke="black" points="523.75,-218.2 270,-218.2 270,-182.2 523.75,-182.2 523.75,-218.2"/>
<text text-anchor="middle" x="396.88" y="-195.93" font-family="Times New Roman,serif" font-size="12.00">Declaration APPROVED by BUDGET OWNER</text>
</g>
<!-- 1628104658320&#45;&gt;1628104658944 -->
<g id="edge3" class="edge">
<title>1628104658320&#45;&gt;1628104658944</title>
<path fill="none" stroke="black" d="M524.23,-200.2C532.75,-200.2 540.87,-200.2 548.25,-200.2"/>
<polygon fill="black" stroke="black" points="548.03,-203.7 558.03,-200.2 548.03,-196.7 548.03,-203.7"/>
</g>
<!-- 1628104659472 -->
<g id="node15" class="node">
<title>1628104659472</title>
<polygon fill="white" stroke="black" points="521.5,-164.2 272.25,-164.2 272.25,-128.2 521.5,-128.2 521.5,-164.2"/>
<text text-anchor="middle" x="396.88" y="-141.93" font-family="Times New Roman,serif" font-size="12.00">Declaration APPROVED by PRE_APPROVER</text>
</g>
<!-- 1628104659472&#45;&gt;1628104658944 -->
<g id="edge8" class="edge">
<title>1628104659472&#45;&gt;1628104658944</title>
<path fill="none" stroke="black" d="M493.6,-164.63C503.85,-167.23 514.07,-170.09 523.75,-173.2 532.97,-176.16 542.68,-180.02 551.61,-183.89"/>
<polygon fill="black" stroke="black" points="550.1,-187.04 560.65,-187.93 552.95,-180.65 550.1,-187.04"/>
</g>
<!-- 1628104660240 -->
<g id="node16" class="node">
<title>1628104660240</title>
<polygon fill="white" stroke="black" points="1199.62,-167.2 974.38,-167.2 974.38,-131.2 1199.62,-131.2 1199.62,-167.2"/>
<text text-anchor="middle" x="1087" y="-144.93" font-family="Times New Roman,serif" font-size="12.00">Declaration REJECTED by SUPERVISOR</text>
</g>
<!-- 1628104660240&#45;&gt;1628104658272 -->
<g id="edge5" class="edge">
<title>1628104660240&#45;&gt;1628104658272</title>
<path fill="none" stroke="black" d="M1199.96,-150.68C1340.24,-152.84 1588,-157.69 1800,-167.2 1807.89,-167.56 1816.34,-168.03 1824.39,-168.54"/>
<polygon fill="black" stroke="black" points="1824.05,-172.02 1834.26,-169.18 1824.51,-165.04 1824.05,-172.02"/>
</g>
<!-- 1628067604240 -->
<g id="node17" class="node">
<title>1628067604240</title>
<ellipse fill="white" stroke="black" cx="27" cy="-227.2" rx="27" ry="27"/>
<text text-anchor="start" x="16.88" y="-214.03" font-family="Times New Roman,serif" font-size="34.00">●</text>
</g>
<!-- 1628067604240&#45;&gt;1628104670128 -->
<g id="edge31" class="edge">
<title>1628067604240&#45;&gt;1628104670128</title>
<path fill="none" stroke="black" d="M54.4,-227.2C61.89,-227.2 70.18,-227.2 78.2,-227.2"/>
<polygon fill="black" stroke="black" points="78.1,-230.7 88.1,-227.2 78.1,-223.7 78.1,-230.7"/>
</g>
<!-- 1628104660432&#45;&gt;1628104662880 -->
<g id="edge10" class="edge">
<title>1628104660432&#45;&gt;1628104662880</title>
<path fill="none" stroke="black" d="M1114,-235.9C1145.22,-239.14 1198.6,-244.68 1240.19,-248.99"/>
<polygon fill="black" stroke="black" points="1239.77,-252.47 1250.07,-250.02 1240.49,-245.51 1239.77,-252.47"/>
</g>
<!-- 1628104660432&#45;&gt;1628104663312 -->
<g id="edge11" class="edge">
<title>1628104660432&#45;&gt;1628104663312</title>
<path fill="none" stroke="black" d="M1114,-229.28C1151.19,-223.66 1219.79,-213.31 1262.49,-206.86"/>
<polygon fill="black" stroke="black" points="1262.93,-210.34 1272.3,-205.38 1261.89,-203.42 1262.93,-210.34"/>
</g>
<!-- 1628104660816&#45;&gt;1628104662688 -->
<g id="edge13" class="edge">
<title>1628104660816&#45;&gt;1628104662688</title>
<path fill="none" stroke="black" d="M1551.75,-230.54C1591.07,-234.06 1665.85,-240.77 1711.07,-244.83"/>
<polygon fill="black" stroke="black" points="1710.66,-248.31 1720.94,-245.72 1711.29,-241.34 1710.66,-248.31"/>
</g>
<!-- 1628104660816&#45;&gt;1628104662496 -->
<g id="edge12" class="edge">
<title>1628104660816&#45;&gt;1628104662496</title>
<path fill="none" stroke="black" d="M1551.75,-224.23C1584.82,-219.19 1642.96,-210.32 1687.51,-203.52"/>
<polygon fill="black" stroke="black" points="1687.96,-207 1697.31,-202.03 1686.9,-200.08 1687.96,-207"/>
</g>
<!-- 1628104753216&#45;&gt;1628104656448 -->
<g id="edge14" class="edge">
<title>1628104753216&#45;&gt;1628104656448</title>
<path fill="none" stroke="black" d="M231.71,-319.86C243.09,-325.1 257.03,-331.03 270,-335.2 276.2,-337.2 282.62,-339.08 289.13,-340.87"/>
<polygon fill="black" stroke="black" points="288.13,-344.22 298.69,-343.38 289.91,-337.45 288.13,-344.22"/>
</g>
<!-- 1628104753216&#45;&gt;1628104662640 -->
<g id="edge15" class="edge">
<title>1628104753216&#45;&gt;1628104662640</title>
<path fill="none" stroke="black" d="M234.12,-308.2C266.42,-308.2 321.62,-308.2 358.42,-308.2"/>
<polygon fill="black" stroke="black" points="358.16,-311.7 368.16,-308.2 358.16,-304.7 358.16,-311.7"/>
</g>
<!-- 1628104655680&#45;&gt;1628104670992 -->
<g id="edge16" class="edge">
<title>1628104655680&#45;&gt;1628104670992</title>
<path fill="none" stroke="black" d="M614.22,-307.66C688.56,-306.18 905.63,-302.2 1086,-302.2 1086,-302.2 1086,-302.2 1750.62,-302.2 1811.95,-302.2 1876.97,-270.06 1916.02,-246.78"/>
<polygon fill="black" stroke="black" points="1917.61,-249.92 1924.32,-241.72 1913.96,-243.94 1917.61,-249.92"/>
</g>
<!-- 1628104655824&#45;&gt;1628104659232 -->
<g id="edge21" class="edge">
<title>1628104655824&#45;&gt;1628104659232</title>
<path fill="none" stroke="black" d="M225.69,-193C237.19,-204.68 253.15,-218.77 270,-227.2 297.73,-241.08 332.38,-247.84 358.3,-251.13"/>
<polygon fill="black" stroke="black" points="357.7,-254.59 368.04,-252.24 358.5,-247.63 357.7,-254.59"/>
</g>
<!-- 1628104655824&#45;&gt;1628104658608 -->
<g id="edge17" class="edge">
<title>1628104655824&#45;&gt;1628104658608</title>
<path fill="none" stroke="black" d="M225.02,-152.76C236.38,-140.68 252.43,-126.39 270,-119.2 400.12,-65.97 445.16,-100.2 585.75,-100.2 585.75,-100.2 585.75,-100.2 1088,-100.2 1183.29,-100.2 1290.3,-100.2 1374.43,-100.2"/>
<polygon fill="black" stroke="black" points="1374.37,-103.7 1384.37,-100.2 1374.37,-96.7 1374.37,-103.7"/>
</g>
<!-- 1628104655824&#45;&gt;1628104658224 -->
<g id="edge18" class="edge">
<title>1628104655824&#45;&gt;1628104658224</title>
<path fill="none" stroke="black" d="M218.1,-148.43C227.99,-127.76 245.2,-99.6 270,-86.2 505.85,41.24 838.47,-2.12 996.24,-33.5"/>
<polygon fill="black" stroke="black" points="995.31,-36.88 1005.81,-35.43 996.7,-30.02 995.31,-36.88"/>
</g>
<!-- 1628104655824&#45;&gt;1628104658320 -->
<g id="edge19" class="edge">
<title>1628104655824&#45;&gt;1628104658320</title>
<path fill="none" stroke="black" d="M234.12,-176.96C241.29,-177.99 249.59,-179.18 258.56,-180.47"/>
<polygon fill="black" stroke="black" points="257.92,-183.91 268.31,-181.87 258.91,-176.98 257.92,-183.91"/>
</g>
<!-- 1628104655824&#45;&gt;1628104659472 -->
<g id="edge20" class="edge">
<title>1628104655824&#45;&gt;1628104659472</title>
<path fill="none" stroke="black" d="M234.12,-169.45C241.82,-168.34 250.81,-167.05 260.54,-165.65"/>
<polygon fill="black" stroke="black" points="260.91,-169.13 270.31,-164.25 259.92,-162.2 260.91,-169.13"/>
</g>
<!-- 1628104658272&#45;&gt;1628104670992 -->
<g id="edge22" class="edge">
<title>1628104658272&#45;&gt;1628104670992</title>
<path fill="none" stroke="black" d="M1886.66,-184.59C1895.6,-189.87 1906.09,-196.07 1916.01,-201.94"/>
<polygon fill="black" stroke="black" points="1913.98,-204.8 1924.37,-206.87 1917.54,-198.77 1913.98,-204.8"/>
</g>
<!-- 1628104658944&#45;&gt;1628104661152 -->
<g id="edge24" class="edge">
<title>1628104658944&#45;&gt;1628104661152</title>
<path fill="none" stroke="black" d="M612.19,-210.29C623.49,-214.68 637.16,-219.63 649.75,-223.2 657.11,-225.29 664.74,-227.27 672.45,-229.15"/>
<polygon fill="black" stroke="black" points="671.39,-232.5 681.93,-231.39 673,-225.68 671.39,-232.5"/>
</g>
<!-- 1628104658944&#45;&gt;1628104660720 -->
<g id="edge25" class="edge">
<title>1628104658944&#45;&gt;1628104660720</title>
<path fill="none" stroke="black" d="M613.94,-199.67C648.13,-198.98 708.21,-197.76 747.29,-196.97"/>
<polygon fill="black" stroke="black" points="747.26,-200.47 757.19,-196.77 747.12,-193.47 747.26,-200.47"/>
</g>
<!-- 1628104658944&#45;&gt;1628104660240 -->
<g id="edge23" class="edge">
<title>1628104658944&#45;&gt;1628104660240</title>
<path fill="none" stroke="black" d="M610.11,-186.17C621.52,-179.76 635.89,-172.81 649.75,-169.2 752.9,-142.34 874.32,-138.95 962.84,-141.35"/>
<polygon fill="black" stroke="black" points="962.67,-144.85 972.78,-141.66 962.89,-137.85 962.67,-144.85"/>
</g>
</g>
</svg>
