<?xml version="1.0" encoding="UTF-8" standalone="no"?>
<!DOCTYPE svg PUBLIC "-//W3C//DTD SVG 1.1//EN"
 "http://www.w3.org/Graphics/SVG/1.1/DTD/svg11.dtd">
<!-- Generated by graphviz version 12.2.0 (20241103.1931)
 -->
<!-- Title: imdf_net_1744796686.288058 Pages: 1 -->
<svg width="4245pt" height="662pt"
 viewBox="0.00 0.00 4244.50 661.55" xmlns="http://www.w3.org/2000/svg" xmlns:xlink="http://www.w3.org/1999/xlink">
<g id="graph0" class="graph" transform="scale(1 1) rotate(0) translate(4 657.55)">
<title>imdf_net_1744796686.288058</title>
<polygon fill="white" stroke="none" points="-4,4 -4,-657.55 4240.5,-657.55 4240.5,4 -4,4"/>
<!-- 1355431950464 -->
<g id="node1" class="node">
<title>1355431950464</title>
<polygon fill="white" stroke="black" points="253.75,-518.55 0,-518.55 0,-482.55 253.75,-482.55 253.75,-518.55"/>
<text text-anchor="middle" x="126.88" y="-496.27" font-family="Times New Roman,serif" font-size="12.00">Declaration APPROVED by BUDGET OWNER</text>
</g>
<!-- 1355432183936 -->
<g id="node38" class="node">
<title>1355432183936</title>
<ellipse fill="white" stroke="black" cx="316.75" cy="-500.55" rx="27" ry="27"/>
</g>
<!-- 1355431950464&#45;&gt;1355432183936 -->
<g id="edge6" class="edge">
<title>1355431950464&#45;&gt;1355432183936</title>
<path fill="none" stroke="black" d="M254.23,-494.17C262.84,-494.38 271.04,-494.66 278.47,-495.04"/>
<polygon fill="black" stroke="black" points="278.15,-498.52 288.34,-495.63 278.57,-491.54 278.15,-498.52"/>
</g>
<!-- 1355432185472 -->
<g id="node2" class="node">
<title>1355432185472</title>
<polygon fill="black" stroke="black" points="1526.75,-140.55 1472.75,-140.55 1472.75,-104.55 1526.75,-104.55 1526.75,-140.55"/>
</g>
<!-- 1355431939040 -->
<g id="node43" class="node">
<title>1355431939040</title>
<ellipse fill="white" stroke="black" cx="3477" cy="-131.55" rx="27" ry="27"/>
</g>
<!-- 1355432185472&#45;&gt;1355431939040 -->
<g id="edge65" class="edge">
<title>1355432185472&#45;&gt;1355431939040</title>
<path fill="none" stroke="black" d="M1527.01,-121.23C1574.51,-118.96 1677.88,-114.55 1765.12,-114.55 1765.12,-114.55 1765.12,-114.55 3298,-114.55 3346.67,-114.55 3402.49,-120.93 3438.44,-125.87"/>
<polygon fill="black" stroke="black" points="3437.95,-129.33 3448.34,-127.27 3438.93,-122.4 3437.95,-129.33"/>
</g>
<!-- 1355432185856 -->
<g id="node3" class="node">
<title>1355432185856</title>
<polygon fill="black" stroke="black" points="907.75,-190.55 853.75,-190.55 853.75,-154.55 907.75,-154.55 907.75,-190.55"/>
</g>
<!-- 1355431950992 -->
<g id="node50" class="node">
<title>1355431950992</title>
<ellipse fill="white" stroke="black" cx="1041.75" cy="-175.55" rx="27" ry="27"/>
</g>
<!-- 1355432185856&#45;&gt;1355431950992 -->
<g id="edge66" class="edge">
<title>1355432185856&#45;&gt;1355431950992</title>
<path fill="none" stroke="black" d="M908.01,-173.05C933.9,-173.53 973.74,-174.29 1003.02,-174.84"/>
<polygon fill="black" stroke="black" points="1002.88,-178.34 1012.94,-175.03 1003.01,-171.34 1002.88,-178.34"/>
</g>
<!-- 1355431950080 -->
<g id="node4" class="node">
<title>1355431950080</title>
<polygon fill="white" stroke="black" points="567.5,-653.55 469,-653.55 469,-617.55 567.5,-617.55 567.5,-653.55"/>
<text text-anchor="middle" x="518.25" y="-631.27" font-family="Times New Roman,serif" font-size="12.00">Request Payment</text>
</g>
<!-- 1355431950080&#45;&gt;1355432183936 -->
<g id="edge14" class="edge">
<title>1355431950080&#45;&gt;1355432183936</title>
<path fill="none" stroke="black" d="M468.79,-643.58C440.51,-642.65 405.46,-635.97 379.75,-617.55 353.3,-598.6 336.52,-564.6 327.18,-537.97"/>
<polygon fill="black" stroke="black" points="330.53,-536.94 324.1,-528.52 323.87,-539.11 330.53,-536.94"/>
</g>
<!-- 1355431937168 -->
<g id="node5" class="node">
<title>1355431937168</title>
<polygon fill="white" stroke="black" points="978.75,-248.55 782.75,-248.55 782.75,-212.55 978.75,-212.55 978.75,-248.55"/>
<text text-anchor="middle" x="880.75" y="-226.27" font-family="Times New Roman,serif" font-size="12.00">Declaration SAVED by EMPLOYEE</text>
</g>
<!-- 1355431937600 -->
<g id="node48" class="node">
<title>1355431937600</title>
<ellipse fill="white" stroke="black" cx="1041.75" cy="-281.55" rx="27" ry="27"/>
</g>
<!-- 1355431937168&#45;&gt;1355431937600 -->
<g id="edge5" class="edge">
<title>1355431937168&#45;&gt;1355431937600</title>
<path fill="none" stroke="black" d="M951.15,-248.98C960.47,-251.71 969.87,-254.6 978.75,-257.55 987.53,-260.46 996.89,-263.91 1005.61,-267.26"/>
<polygon fill="black" stroke="black" points="1004.21,-270.47 1014.8,-270.86 1006.77,-263.96 1004.21,-270.47"/>
</g>
<!-- 1355431939472 -->
<g id="node6" class="node">
<title>1355431939472</title>
<polygon fill="black" stroke="black" points="1338.75,-349.55 1284.75,-349.55 1284.75,-313.55 1338.75,-313.55 1338.75,-349.55"/>
</g>
<!-- 1355431939376 -->
<g id="node52" class="node">
<title>1355431939376</title>
<ellipse fill="white" stroke="black" cx="1405.75" cy="-326.55" rx="27" ry="27"/>
</g>
<!-- 1355431939472&#45;&gt;1355431939376 -->
<g id="edge30" class="edge">
<title>1355431939472&#45;&gt;1355431939376</title>
<path fill="none" stroke="black" d="M1338.87,-330.13C1347.71,-329.65 1357.76,-329.1 1367.3,-328.59"/>
<polygon fill="black" stroke="black" points="1367.26,-332.09 1377.06,-328.05 1366.88,-325.1 1367.26,-332.09"/>
</g>
<!-- 1355431940624 -->
<g id="node7" class="node">
<title>1355431940624</title>
<polygon fill="white" stroke="black" points="1879.5,-262.55 1652.75,-262.55 1652.75,-226.55 1879.5,-226.55 1879.5,-262.55"/>
<text text-anchor="middle" x="1766.12" y="-240.27" font-family="Times New Roman,serif" font-size="12.00">Declaration SUBMITTED by EMPLOYEE</text>
</g>
<!-- 1355431947296 -->
<g id="node41" class="node">
<title>1355431947296</title>
<ellipse fill="white" stroke="black" cx="1942.5" cy="-239.55" rx="27" ry="27"/>
</g>
<!-- 1355431940624&#45;&gt;1355431947296 -->
<g id="edge19" class="edge">
<title>1355431940624&#45;&gt;1355431947296</title>
<path fill="none" stroke="black" d="M1879.53,-241.33C1888.08,-241.08 1896.27,-240.85 1903.74,-240.63"/>
<polygon fill="black" stroke="black" points="1903.79,-244.13 1913.68,-240.35 1903.58,-237.14 1903.79,-244.13"/>
</g>
<!-- 1355431713552 -->
<g id="node8" class="node">
<title>1355431713552</title>
<polygon fill="black" stroke="black" points="2768.75,-311.55 2714.75,-311.55 2714.75,-275.55 2768.75,-275.55 2768.75,-311.55"/>
</g>
<!-- 1355431939568 -->
<g id="node53" class="node">
<title>1355431939568</title>
<ellipse fill="white" stroke="black" cx="3117" cy="-260.55" rx="27" ry="27"/>
</g>
<!-- 1355431713552&#45;&gt;1355431939568 -->
<g id="edge61" class="edge">
<title>1355431713552&#45;&gt;1355431939568</title>
<path fill="none" stroke="black" d="M2769.13,-293.37C2822.96,-292.69 2949.22,-289.48 3054,-274.55 3062.34,-273.36 3071.21,-271.64 3079.57,-269.8"/>
<polygon fill="black" stroke="black" points="3080.1,-273.27 3089.06,-267.61 3078.53,-266.45 3080.1,-273.27"/>
</g>
<!-- 1355432185232 -->
<g id="node9" class="node">
<title>1355432185232</title>
<polygon fill="white" stroke="black" points="3795.25,-64.55 3540,-64.55 3540,-28.55 3795.25,-28.55 3795.25,-64.55"/>
<text text-anchor="middle" x="3667.62" y="-42.27" font-family="Times New Roman,serif" font-size="12.00">Declaration REJECTED by ADMINISTRATION</text>
</g>
<!-- 1355432184416 -->
<g id="node44" class="node">
<title>1355432184416</title>
<ellipse fill="white" stroke="black" cx="719.75" cy="-120.55" rx="27" ry="27"/>
</g>
<!-- 1355432185232&#45;&gt;1355432184416 -->
<g id="edge20" class="edge">
<title>1355432185232&#45;&gt;1355432184416</title>
<path fill="none" stroke="black" d="M3539.73,-41.37C3492.15,-39.83 3437.6,-38.55 3388,-38.55 1040.75,-38.55 1040.75,-38.55 1040.75,-38.55 924.91,-38.55 890.1,-32.03 782.75,-75.55 770.89,-80.36 759.18,-87.91 749.19,-95.47"/>
<polygon fill="black" stroke="black" points="747.03,-92.72 741.37,-101.68 751.38,-98.2 747.03,-92.72"/>
</g>
<!-- 1355431950608 -->
<g id="node10" class="node">
<title>1355431950608</title>
<polygon fill="white" stroke="black" points="4146.5,-91.55 3921.25,-91.55 3921.25,-55.55 4146.5,-55.55 4146.5,-91.55"/>
<text text-anchor="middle" x="4033.88" y="-69.27" font-family="Times New Roman,serif" font-size="12.00">Declaration REJECTED by SUPERVISOR</text>
</g>
<!-- 1355432184032 -->
<g id="node45" class="node">
<title>1355432184032</title>
<ellipse fill="white" stroke="black" cx="4209.5" cy="-100.55" rx="27" ry="27"/>
</g>
<!-- 1355431950608&#45;&gt;1355432184032 -->
<g id="edge12" class="edge">
<title>1355431950608&#45;&gt;1355432184032</title>
<path fill="none" stroke="black" d="M4146.8,-90.95C4155.41,-92.29 4163.66,-93.58 4171.17,-94.74"/>
<polygon fill="black" stroke="black" points="4170.39,-98.17 4180.81,-96.24 4171.47,-91.25 4170.39,-98.17"/>
</g>
<!-- 1355431937312 -->
<g id="node11" class="node">
<title>1355431937312</title>
<polygon fill="black" stroke="black" points="907.75,-302.55 853.75,-302.55 853.75,-266.55 907.75,-266.55 907.75,-302.55"/>
</g>
<!-- 1355431937312&#45;&gt;1355431937600 -->
<g id="edge67" class="edge">
<title>1355431937312&#45;&gt;1355431937600</title>
<path fill="none" stroke="black" d="M908.01,-284.05C933.9,-283.57 973.74,-282.81 1003.02,-282.26"/>
<polygon fill="black" stroke="black" points="1003.01,-285.76 1012.94,-282.07 1002.88,-278.76 1003.01,-285.76"/>
</g>
<!-- 1355431938464 -->
<g id="node12" class="node">
<title>1355431938464</title>
<polygon fill="black" stroke="black" points="1158.75,-353.55 1104.75,-353.55 1104.75,-317.55 1158.75,-317.55 1158.75,-353.55"/>
</g>
<!-- 1355431938656 -->
<g id="node49" class="node">
<title>1355431938656</title>
<ellipse fill="white" stroke="black" cx="1221.75" cy="-334.55" rx="27" ry="27"/>
</g>
<!-- 1355431938464&#45;&gt;1355431938656 -->
<g id="edge29" class="edge">
<title>1355431938464&#45;&gt;1355431938656</title>
<path fill="none" stroke="black" d="M1159.15,-335.25C1166.64,-335.16 1174.93,-335.07 1182.95,-334.98"/>
<polygon fill="black" stroke="black" points="1182.89,-338.48 1192.85,-334.87 1182.81,-331.48 1182.89,-338.48"/>
</g>
<!-- 1355431949984 -->
<g id="node13" class="node">
<title>1355431949984</title>
<polygon fill="white" stroke="black" points="642.88,-599.55 393.62,-599.55 393.62,-563.55 642.88,-563.55 642.88,-599.55"/>
<text text-anchor="middle" x="518.25" y="-577.27" font-family="Times New Roman,serif" font-size="12.00">Declaration APPROVED by PRE_APPROVER</text>
</g>
<!-- 1355431949984&#45;&gt;1355432183936 -->
<g id="edge7" class="edge">
<title>1355431949984&#45;&gt;1355432183936</title>
<path fill="none" stroke="black" d="M393.28,-569.47C388.65,-567.66 384.12,-565.69 379.75,-563.55 364.48,-556.08 350,-543.87 338.88,-532.04"/>
<polygon fill="black" stroke="black" points="341.65,-529.9 332.41,-524.71 336.4,-534.53 341.65,-529.9"/>
</g>
<!-- 1355431951136 -->
<g id="node14" class="node">
<title>1355431951136</title>
<polygon fill="black" stroke="black" points="545.25,-399.55 491.25,-399.55 491.25,-363.55 545.25,-363.55 545.25,-399.55"/>
</g>
<!-- 1355431951136&#45;&gt;1355432184416 -->
<g id="edge17" class="edge">
<title>1355431951136&#45;&gt;1355432184416</title>
<path fill="none" stroke="black" d="M545.7,-384.05C576.43,-385.42 626.75,-382.66 656.75,-354.55 658.58,-352.83 692.2,-223.38 709.15,-157.78"/>
<polygon fill="black" stroke="black" points="712.52,-158.72 711.63,-148.17 705.75,-156.97 712.52,-158.72"/>
</g>
<!-- 1355431802912 -->
<g id="node15" class="node">
<title>1355431802912</title>
<polygon fill="black" stroke="black" points="2956.38,-232.55 2902.38,-232.55 2902.38,-196.55 2956.38,-196.55 2956.38,-232.55"/>
</g>
<!-- 1355431802912&#45;&gt;1355431939568 -->
<g id="edge62" class="edge">
<title>1355431802912&#45;&gt;1355431939568</title>
<path fill="none" stroke="black" d="M2956.58,-221.04C2988.68,-229 3043.26,-242.52 3079.47,-251.5"/>
<polygon fill="black" stroke="black" points="3078.51,-254.87 3089.06,-253.87 3080.19,-248.07 3078.51,-254.87"/>
</g>
<!-- 1355431949600 -->
<g id="node16" class="node">
<title>1355431949600</title>
<polygon fill="white" stroke="black" points="4084.25,-199.55 3983.5,-199.55 3983.5,-163.55 4084.25,-163.55 4084.25,-199.55"/>
<text text-anchor="middle" x="4033.88" y="-177.27" font-family="Times New Roman,serif" font-size="12.00">Payment Handled</text>
</g>
<!-- 1355431949600&#45;&gt;1355432184032 -->
<g id="edge13" class="edge">
<title>1355431949600&#45;&gt;1355432184032</title>
<path fill="none" stroke="black" d="M4084.48,-174.82C4104.51,-170.78 4127.37,-164.43 4146.5,-154.55 4159.58,-147.79 4172.18,-137.72 4182.57,-128.09"/>
<polygon fill="black" stroke="black" points="4184.89,-130.72 4189.65,-121.25 4180.02,-125.68 4184.89,-130.72"/>
</g>
<!-- 1355431938992 -->
<g id="node17" class="node">
<title>1355431938992</title>
<polygon fill="black" stroke="black" points="1616.75,-399.55 1562.75,-399.55 1562.75,-363.55 1616.75,-363.55 1616.75,-399.55"/>
</g>
<!-- 1355431939136 -->
<g id="node51" class="node">
<title>1355431939136</title>
<ellipse fill="white" stroke="black" cx="3297" cy="-260.55" rx="27" ry="27"/>
</g>
<!-- 1355431938992&#45;&gt;1355431939136 -->
<g id="edge71" class="edge">
<title>1355431938992&#45;&gt;1355431939136</title>
<path fill="none" stroke="black" d="M1617.15,-381.04C1675.59,-379.97 1820.31,-377.55 1941.5,-377.55 1941.5,-377.55 1941.5,-377.55 3118,-377.55 3170.93,-377.55 3190.26,-380.36 3234,-350.55 3254.11,-336.85 3269.63,-314.29 3280.11,-295.18"/>
<polygon fill="black" stroke="black" points="3283.2,-296.83 3284.72,-286.34 3276.99,-293.6 3283.2,-296.83"/>
</g>
<!-- 1355431941296 -->
<g id="node18" class="node">
<title>1355431941296</title>
<polygon fill="white" stroke="black" points="2293,-311.55 2005.5,-311.55 2005.5,-275.55 2293,-275.55 2293,-311.55"/>
<text text-anchor="middle" x="2149.25" y="-289.27" font-family="Times New Roman,serif" font-size="12.00">Declaration FOR_APPROVAL by ADMINISTRATION</text>
</g>
<!-- 1355431941728 -->
<g id="node40" class="node">
<title>1355431941728</title>
<ellipse fill="white" stroke="black" cx="1589.75" cy="-280.55" rx="27" ry="27"/>
</g>
<!-- 1355431941296&#45;&gt;1355431941728 -->
<g id="edge2" class="edge">
<title>1355431941296&#45;&gt;1355431941728</title>
<path fill="none" stroke="black" d="M2005.11,-290.21C1879.01,-287.27 1703.95,-283.19 1628.18,-281.42"/>
<polygon fill="black" stroke="black" points="1628.48,-277.93 1618.4,-281.19 1628.32,-284.93 1628.48,-277.93"/>
</g>
<!-- 1355431950512 -->
<g id="node19" class="node">
<title>1355431950512</title>
<polygon fill="white" stroke="black" points="654.5,-545.55 382,-545.55 382,-509.55 654.5,-509.55 654.5,-545.55"/>
<text text-anchor="middle" x="518.25" y="-523.27" font-family="Times New Roman,serif" font-size="12.00">Declaration FINAL_APPROVED by SUPERVISOR</text>
</g>
<!-- 1355431950512&#45;&gt;1355432183936 -->
<g id="edge8" class="edge">
<title>1355431950512&#45;&gt;1355432183936</title>
<path fill="none" stroke="black" d="M381.58,-515.53C371.71,-513.97 362.38,-512.37 354.06,-510.81"/>
<polygon fill="black" stroke="black" points="354.99,-507.43 344.5,-508.93 353.64,-514.3 354.99,-507.43"/>
</g>
<!-- 1355431791296 -->
<g id="node20" class="node">
<title>1355431791296</title>
<polygon fill="white" stroke="black" points="2678.75,-210.55 2419,-210.55 2419,-174.55 2678.75,-174.55 2678.75,-210.55"/>
<text text-anchor="middle" x="2548.88" y="-188.27" font-family="Times New Roman,serif" font-size="12.00">Declaration APPROVED by ADMINISTRATION</text>
</g>
<!-- 1355431713360 -->
<g id="node42" class="node">
<title>1355431713360</title>
<ellipse fill="white" stroke="black" cx="2741.75" cy="-192.55" rx="27" ry="27"/>
</g>
<!-- 1355431791296&#45;&gt;1355431713360 -->
<g id="edge18" class="edge">
<title>1355431791296&#45;&gt;1355431713360</title>
<path fill="none" stroke="black" d="M2679.04,-192.55C2687.61,-192.55 2695.76,-192.55 2703.16,-192.55"/>
<polygon fill="black" stroke="black" points="2702.98,-196.05 2712.98,-192.55 2702.98,-189.05 2702.98,-196.05"/>
</g>
<!-- 1355431801280 -->
<g id="node21" class="node">
<title>1355431801280</title>
<polygon fill="black" stroke="black" points="3234,-341.55 3180,-341.55 3180,-305.55 3234,-305.55 3234,-341.55"/>
</g>
<!-- 1355431801280&#45;&gt;1355431939376 -->
<g id="edge63" class="edge">
<title>1355431801280&#45;&gt;1355431939376</title>
<path fill="none" stroke="black" d="M3179.81,-326.09C3130.86,-330.6 3022.17,-339.55 2930.38,-339.55 2355,-339.55 2355,-339.55 2355,-339.55 2000.92,-339.55 1572.53,-330.38 1444.58,-327.44"/>
<polygon fill="black" stroke="black" points="1444.74,-323.94 1434.66,-327.21 1444.57,-330.94 1444.74,-323.94"/>
</g>
<!-- 1355431950272 -->
<g id="node22" class="node">
<title>1355431950272</title>
<polygon fill="white" stroke="black" points="4134.5,-145.55 3933.25,-145.55 3933.25,-109.55 4134.5,-109.55 4134.5,-145.55"/>
<text text-anchor="middle" x="4033.88" y="-123.27" font-family="Times New Roman,serif" font-size="12.00">Declaration REJECTED by MISSING</text>
</g>
<!-- 1355431950272&#45;&gt;1355432184032 -->
<g id="edge11" class="edge">
<title>1355431950272&#45;&gt;1355432184032</title>
<path fill="none" stroke="black" d="M4134.87,-112C4147.82,-109.99 4160.37,-108.03 4171.34,-106.33"/>
<polygon fill="black" stroke="black" points="4171.71,-109.81 4181.06,-104.82 4170.64,-102.9 4171.71,-109.81"/>
</g>
<!-- 1355431938128 -->
<g id="node23" class="node">
<title>1355431938128</title>
<polygon fill="black" stroke="black" points="1158.75,-299.55 1104.75,-299.55 1104.75,-263.55 1158.75,-263.55 1158.75,-299.55"/>
</g>
<!-- 1355431941440 -->
<g id="node47" class="node">
<title>1355431941440</title>
<ellipse fill="white" stroke="black" cx="1221.75" cy="-215.55" rx="27" ry="27"/>
</g>
<!-- 1355431938128&#45;&gt;1355431941440 -->
<g id="edge70" class="edge">
<title>1355431938128&#45;&gt;1355431941440</title>
<path fill="none" stroke="black" d="M1157.26,-263.17C1167.57,-255.44 1179.66,-246.37 1190.51,-238.23"/>
<polygon fill="black" stroke="black" points="1192.54,-241.08 1198.44,-232.28 1188.34,-235.48 1192.54,-241.08"/>
</g>
<!-- 1355431938512 -->
<g id="node24" class="node">
<title>1355431938512</title>
<polygon fill="black" stroke="black" points="1526.75,-302.55 1472.75,-302.55 1472.75,-266.55 1526.75,-266.55 1526.75,-302.55"/>
</g>
<!-- 1355431938512&#45;&gt;1355431941728 -->
<g id="edge31" class="edge">
<title>1355431938512&#45;&gt;1355431941728</title>
<path fill="none" stroke="black" d="M1527.15,-283.35C1534.64,-283.01 1542.93,-282.63 1550.95,-282.27"/>
<polygon fill="black" stroke="black" points="1551.02,-285.77 1560.85,-281.82 1550.71,-278.78 1551.02,-285.77"/>
</g>
<!-- 1355431950800 -->
<g id="node25" class="node">
<title>1355431950800</title>
<polygon fill="black" stroke="black" points="2176.25,-257.55 2122.25,-257.55 2122.25,-221.55 2176.25,-221.55 2176.25,-257.55"/>
</g>
<!-- 1355431939664 -->
<g id="node39" class="node">
<title>1355431939664</title>
<ellipse fill="white" stroke="black" cx="2356" cy="-243.55" rx="27" ry="27"/>
</g>
<!-- 1355431950800&#45;&gt;1355431939664 -->
<g id="edge60" class="edge">
<title>1355431950800&#45;&gt;1355431939664</title>
<path fill="none" stroke="black" d="M2176.6,-240.06C2212.38,-240.76 2276.55,-242.02 2317.39,-242.82"/>
<polygon fill="black" stroke="black" points="2317.17,-246.31 2327.24,-243.01 2317.31,-239.31 2317.17,-246.31"/>
</g>
<!-- 1355432184656 -->
<g id="node26" class="node">
<title>1355432184656</title>
<polygon fill="white" stroke="black" points="3776.12,-118.55 3559.12,-118.55 3559.12,-82.55 3776.12,-82.55 3776.12,-118.55"/>
<text text-anchor="middle" x="3667.62" y="-96.27" font-family="Times New Roman,serif" font-size="12.00">Declaration REJECTED by EMPLOYEE</text>
</g>
<!-- 1355432184656&#45;&gt;1355432184416 -->
<g id="edge3" class="edge">
<title>1355432184656&#45;&gt;1355432184416</title>
<path fill="none" stroke="black" d="M3558.64,-86.9C3507.08,-81.5 3444.44,-76.55 3388,-76.55 1040.75,-76.55 1040.75,-76.55 1040.75,-76.55 937.18,-76.55 816.5,-99.45 757.3,-112.21"/>
<polygon fill="black" stroke="black" points="756.8,-108.74 747.78,-114.29 758.3,-115.57 756.8,-108.74"/>
</g>
<!-- 1355431940192 -->
<g id="node27" class="node">
<title>1355431940192</title>
<polygon fill="black" stroke="black" points="1338.75,-233.55 1284.75,-233.55 1284.75,-197.55 1338.75,-197.55 1338.75,-233.55"/>
</g>
<!-- 1355431951040 -->
<g id="node54" class="node">
<title>1355431951040</title>
<ellipse fill="white" stroke="black" cx="1405.75" cy="-215.55" rx="27" ry="27"/>
<ellipse fill="none" stroke="black" cx="1405.75" cy="-215.55" rx="31" ry="31"/>
<text text-anchor="start" x="1396" y="-203.52" font-family="Times New Roman,serif" font-size="32.00">■</text>
</g>
<!-- 1355431940192&#45;&gt;1355431951040 -->
<g id="edge74" class="edge">
<title>1355431940192&#45;&gt;1355431951040</title>
<path fill="none" stroke="black" d="M1338.87,-215.55C1346.38,-215.55 1354.76,-215.55 1362.97,-215.55"/>
<polygon fill="black" stroke="black" points="1362.83,-219.05 1372.83,-215.55 1362.83,-212.05 1362.83,-219.05"/>
</g>
<!-- 1355432182496 -->
<g id="node28" class="node">
<title>1355432182496</title>
<polygon fill="black" stroke="black" points="3414,-228.55 3360,-228.55 3360,-192.55 3414,-192.55 3414,-228.55"/>
</g>
<!-- 1355432182496&#45;&gt;1355431939040 -->
<g id="edge28" class="edge">
<title>1355432182496&#45;&gt;1355431939040</title>
<path fill="none" stroke="black" d="M3408.41,-192.23C3420.13,-181.71 3435.01,-168.35 3447.83,-156.84"/>
<polygon fill="black" stroke="black" points="3450.08,-159.53 3455.18,-150.24 3445.4,-154.32 3450.08,-159.53"/>
</g>
<!-- 1355432186336 -->
<g id="node29" class="node">
<title>1355432186336</title>
<polygon fill="black" stroke="black" points="1158.75,-245.55 1104.75,-245.55 1104.75,-209.55 1158.75,-209.55 1158.75,-245.55"/>
</g>
<!-- 1355432186336&#45;&gt;1355431938656 -->
<g id="edge68" class="edge">
<title>1355432186336&#45;&gt;1355431938656</title>
<path fill="none" stroke="black" d="M1150.92,-245.9C1153.6,-248.75 1156.28,-251.69 1158.75,-254.55 1172.46,-270.4 1186.85,-288.84 1198.31,-304.02"/>
<polygon fill="black" stroke="black" points="1195.33,-305.89 1204.13,-311.79 1200.93,-301.69 1195.33,-305.89"/>
</g>
<!-- 1355432186720 -->
<g id="node30" class="node">
<title>1355432186720</title>
<polygon fill="black" stroke="black" points="1158.75,-191.55 1104.75,-191.55 1104.75,-155.55 1158.75,-155.55 1158.75,-191.55"/>
</g>
<!-- 1355432186720&#45;&gt;1355431941440 -->
<g id="edge69" class="edge">
<title>1355432186720&#45;&gt;1355431941440</title>
<path fill="none" stroke="black" d="M1159.15,-186.15C1167.74,-190.25 1177.4,-194.86 1186.48,-199.19"/>
<polygon fill="black" stroke="black" points="1184.87,-202.3 1195.4,-203.45 1187.88,-195.98 1184.87,-202.3"/>
</g>
<!-- 1355431950176 -->
<g id="node31" class="node">
<title>1355431950176</title>
<polygon fill="white" stroke="black" points="647,-491.55 389.5,-491.55 389.5,-455.55 647,-455.55 647,-491.55"/>
<text text-anchor="middle" x="518.25" y="-469.27" font-family="Times New Roman,serif" font-size="12.00">Declaration FOR_APPROVAL by SUPERVISOR</text>
</g>
<!-- 1355431950176&#45;&gt;1355432183936 -->
<g id="edge10" class="edge">
<title>1355431950176&#45;&gt;1355432183936</title>
<path fill="none" stroke="black" d="M430.12,-492.04C403.86,-495.8 376.42,-499.08 355.22,-500.89"/>
<polygon fill="black" stroke="black" points="355.05,-497.39 345.34,-501.64 355.58,-504.37 355.05,-497.39"/>
</g>
<!-- 1355431949792 -->
<g id="node32" class="node">
<title>1355431949792</title>
<polygon fill="black" stroke="black" points="3694.62,-172.55 3640.62,-172.55 3640.62,-136.55 3694.62,-136.55 3694.62,-172.55"/>
</g>
<!-- 1355431949792&#45;&gt;1355432183936 -->
<g id="edge15" class="edge">
<title>1355431949792&#45;&gt;1355432183936</title>
<path fill="none" stroke="black" d="M3658.87,-172.89C3631.62,-234.1 3533.94,-427.55 3388,-427.55 718.75,-427.55 718.75,-427.55 718.75,-427.55 567.85,-427.55 519.53,-389.7 379.75,-446.55 366.01,-452.14 353.21,-462.09 342.85,-471.93"/>
<polygon fill="black" stroke="black" points="340.39,-469.45 335.82,-479.01 345.35,-474.38 340.39,-469.45"/>
</g>
<!-- 1355432183456 -->
<g id="node46" class="node">
<title>1355432183456</title>
<ellipse fill="white" stroke="black" cx="3858.25" cy="-140.55" rx="27" ry="27"/>
</g>
<!-- 1355431949792&#45;&gt;1355432183456 -->
<g id="edge16" class="edge">
<title>1355431949792&#45;&gt;1355432183456</title>
<path fill="none" stroke="black" d="M3694.85,-152.6C3727.28,-150.2 3782.7,-146.08 3819.65,-143.34"/>
<polygon fill="black" stroke="black" points="3819.72,-146.85 3829.43,-142.61 3819.2,-139.86 3819.72,-146.85"/>
</g>
<!-- 1355431802480 -->
<g id="node33" class="node">
<title>1355431802480</title>
<polygon fill="white" stroke="black" points="3054,-178.55 2804.75,-178.55 2804.75,-142.55 3054,-142.55 3054,-178.55"/>
<text text-anchor="middle" x="2929.38" y="-156.27" font-family="Times New Roman,serif" font-size="12.00">Declaration REJECTED by BUDGET OWNER</text>
</g>
<!-- 1355431802480&#45;&gt;1355431939568 -->
<g id="edge4" class="edge">
<title>1355431802480&#45;&gt;1355431939568</title>
<path fill="none" stroke="black" d="M3037.03,-178.98C3042.93,-181.49 3048.63,-184.33 3054,-187.55 3070.72,-197.59 3085.14,-213.76 3095.85,-228.33"/>
<polygon fill="black" stroke="black" points="3092.87,-230.17 3101.47,-236.35 3098.6,-226.15 3092.87,-230.17"/>
</g>
<!-- 1355431950704 -->
<g id="node34" class="node">
<title>1355431950704</title>
<polygon fill="white" stroke="black" points="656.75,-345.55 379.75,-345.55 379.75,-309.55 656.75,-309.55 656.75,-345.55"/>
<text text-anchor="middle" x="518.25" y="-323.27" font-family="Times New Roman,serif" font-size="12.00">Declaration FOR_APPROVAL by PRE_APPROVER</text>
</g>
<!-- 1355431950704&#45;&gt;1355432183936 -->
<g id="edge9" class="edge">
<title>1355431950704&#45;&gt;1355432183936</title>
<path fill="none" stroke="black" d="M411.44,-346.04C399.98,-350.3 389.1,-355.96 379.75,-363.55 348.99,-388.5 333.22,-431.51 325.31,-462.8"/>
<polygon fill="black" stroke="black" points="321.97,-461.74 323.09,-472.27 328.78,-463.34 321.97,-461.74"/>
</g>
<!-- 1355431794032 -->
<g id="node35" class="node">
<title>1355431794032</title>
<polygon fill="white" stroke="black" points="2671.25,-265.55 2426.5,-265.55 2426.5,-229.55 2671.25,-229.55 2671.25,-265.55"/>
<text text-anchor="middle" x="2548.88" y="-243.27" font-family="Times New Roman,serif" font-size="12.00">Declaration REJECTED by PRE_APPROVER</text>
</g>
<!-- 1355431794032&#45;&gt;1355431939568 -->
<g id="edge1" class="edge">
<title>1355431794032&#45;&gt;1355431939568</title>
<path fill="none" stroke="black" d="M2671.67,-250.35C2800.55,-253.31 2996.35,-257.8 3078.08,-259.68"/>
<polygon fill="black" stroke="black" points="3077.93,-263.18 3088,-259.91 3078.09,-256.18 3077.93,-263.18"/>
</g>
<!-- 1355431799024 -->
<g id="node36" class="node">
<title>1355431799024</title>
<polygon fill="black" stroke="black" points="3234,-278.55 3180,-278.55 3180,-242.55 3234,-242.55 3234,-278.55"/>
</g>
<!-- 1355431799024&#45;&gt;1355431939136 -->
<g id="edge64" class="edge">
<title>1355431799024&#45;&gt;1355431939136</title>
<path fill="none" stroke="black" d="M3234.4,-260.55C3241.89,-260.55 3250.18,-260.55 3258.2,-260.55"/>
<polygon fill="black" stroke="black" points="3258.1,-264.05 3268.1,-260.55 3258.1,-257.05 3258.1,-264.05"/>
</g>
<!-- 1355368186400 -->
<g id="node37" class="node">
<title>1355368186400</title>
<ellipse fill="white" stroke="black" cx="719.75" cy="-257.55" rx="27" ry="27"/>
<text text-anchor="start" x="709.62" y="-244.37" font-family="Times New Roman,serif" font-size="34.00">●</text>
</g>
<!-- 1355368186400&#45;&gt;1355431937168 -->
<g id="edge72" class="edge">
<title>1355368186400&#45;&gt;1355431937168</title>
<path fill="none" stroke="black" d="M746.65,-253.15C753.91,-251.92 762.28,-250.5 771.22,-248.98"/>
<polygon fill="black" stroke="black" points="771.6,-252.46 780.88,-247.34 770.43,-245.56 771.6,-252.46"/>
</g>
<!-- 1355368186400&#45;&gt;1355431937312 -->
<g id="edge73" class="edge">
<title>1355368186400&#45;&gt;1355431937312</title>
<path fill="none" stroke="black" d="M746.65,-261.95C772.6,-266.35 812.8,-273.18 842.24,-278.18"/>
<polygon fill="black" stroke="black" points="841.39,-281.59 851.84,-279.81 842.57,-274.69 841.39,-281.59"/>
</g>
<!-- 1355432183936&#45;&gt;1355431950464 -->
<g id="edge21" class="edge">
<title>1355432183936&#45;&gt;1355431950464</title>
<path fill="none" stroke="black" d="M289.85,-505.38C282.7,-505.89 274.43,-506.3 265.47,-506.61"/>
<polygon fill="black" stroke="black" points="265.64,-503.1 255.75,-506.89 265.84,-510.1 265.64,-503.1"/>
</g>
<!-- 1355432183936&#45;&gt;1355431950080 -->
<g id="edge26" class="edge">
<title>1355432183936&#45;&gt;1355431950080</title>
<path fill="none" stroke="black" d="M327.85,-525.25C337.31,-548.18 353.92,-581.04 379.75,-599.55 402.14,-615.6 431.63,-622.73 457.55,-626.47"/>
<polygon fill="black" stroke="black" points="456.93,-629.92 467.29,-627.74 457.83,-622.98 456.93,-629.92"/>
</g>
<!-- 1355432183936&#45;&gt;1355431949984 -->
<g id="edge22" class="edge">
<title>1355432183936&#45;&gt;1355431949984</title>
<path fill="none" stroke="black" d="M339.19,-516.13C350.27,-526.09 364.62,-538.14 379.75,-545.55 392.46,-551.77 406.49,-556.56 420.59,-560.35"/>
<polygon fill="black" stroke="black" points="419.35,-563.65 429.9,-562.69 421.06,-556.86 419.35,-563.65"/>
</g>
<!-- 1355432183936&#45;&gt;1355431951136 -->
<g id="edge27" class="edge">
<title>1355432183936&#45;&gt;1355431951136</title>
<path fill="none" stroke="black" d="M328.95,-476.12C339.32,-456.24 356.63,-429.03 379.75,-413.55 409.55,-393.59 450.21,-385.99 479.58,-383.15"/>
<polygon fill="black" stroke="black" points="479.82,-386.64 489.51,-382.34 479.26,-379.66 479.82,-386.64"/>
</g>
<!-- 1355432183936&#45;&gt;1355431950512 -->
<g id="edge23" class="edge">
<title>1355432183936&#45;&gt;1355431950512</title>
<path fill="none" stroke="black" d="M343.83,-499.35C363.32,-500.61 391.28,-503.73 419.08,-507.51"/>
<polygon fill="black" stroke="black" points="418.24,-510.93 428.62,-508.85 419.2,-504 418.24,-510.93"/>
</g>
<!-- 1355432183936&#45;&gt;1355431950176 -->
<g id="edge25" class="edge">
<title>1355432183936&#45;&gt;1355431950176</title>
<path fill="none" stroke="black" d="M343.02,-492.46C352.85,-490.42 364.92,-488.25 378.08,-486.13"/>
<polygon fill="black" stroke="black" points="378.54,-489.6 387.87,-484.59 377.45,-482.68 378.54,-489.6"/>
</g>
<!-- 1355432183936&#45;&gt;1355431950704 -->
<g id="edge24" class="edge">
<title>1355432183936&#45;&gt;1355431950704</title>
<path fill="none" stroke="black" d="M320.5,-473.45C325.41,-440.69 338.46,-386.51 371.07,-353.45"/>
<polygon fill="black" stroke="black" points="373.16,-356.28 378.18,-346.94 368.44,-351.11 373.16,-356.28"/>
</g>
<!-- 1355431939664&#45;&gt;1355431713552 -->
<g id="edge34" class="edge">
<title>1355431939664&#45;&gt;1355431713552</title>
<path fill="none" stroke="black" d="M2379.38,-257.5C2390.8,-263.89 2405.17,-270.85 2419,-274.55 2518.84,-301.25 2642.08,-299.31 2703,-296.16"/>
<polygon fill="black" stroke="black" points="2703.03,-299.67 2712.82,-295.61 2702.63,-292.68 2703.03,-299.67"/>
</g>
<!-- 1355431939664&#45;&gt;1355431791296 -->
<g id="edge33" class="edge">
<title>1355431939664&#45;&gt;1355431791296</title>
<path fill="none" stroke="black" d="M2381.47,-233.56C2392.77,-229.19 2406.44,-224.22 2419,-220.55 2427.19,-218.15 2435.73,-215.86 2444.33,-213.7"/>
<polygon fill="black" stroke="black" points="2444.91,-217.16 2453.78,-211.38 2443.24,-210.36 2444.91,-217.16"/>
</g>
<!-- 1355431939664&#45;&gt;1355431794032 -->
<g id="edge32" class="edge">
<title>1355431939664&#45;&gt;1355431794032</title>
<path fill="none" stroke="black" d="M2383.14,-244.1C2392.29,-244.29 2403.27,-244.52 2415.18,-244.77"/>
<polygon fill="black" stroke="black" points="2414.76,-248.26 2424.83,-244.97 2414.91,-241.26 2414.76,-248.26"/>
</g>
<!-- 1355431941728&#45;&gt;1355431940624 -->
<g id="edge35" class="edge">
<title>1355431941728&#45;&gt;1355431940624</title>
<path fill="none" stroke="black" d="M1616.48,-275.24C1629.66,-272.52 1646.65,-269.01 1664.41,-265.34"/>
<polygon fill="black" stroke="black" points="1664.98,-268.8 1674.06,-263.35 1663.56,-261.94 1664.98,-268.8"/>
</g>
<!-- 1355431947296&#45;&gt;1355431941296 -->
<g id="edge36" class="edge">
<title>1355431947296&#45;&gt;1355431941296</title>
<path fill="none" stroke="black" d="M1967.17,-251.35C1978.53,-256.62 1992.48,-262.54 2005.5,-266.55 2012.22,-268.62 2019.18,-270.56 2026.23,-272.37"/>
<polygon fill="black" stroke="black" points="2025.36,-275.76 2035.9,-274.76 2027.03,-268.97 2025.36,-275.76"/>
</g>
<!-- 1355431947296&#45;&gt;1355431950800 -->
<g id="edge37" class="edge">
<title>1355431947296&#45;&gt;1355431950800</title>
<path fill="none" stroke="black" d="M1969.85,-239.55C2005.63,-239.55 2069.8,-239.55 2110.64,-239.55"/>
<polygon fill="black" stroke="black" points="2110.49,-243.05 2120.49,-239.55 2110.49,-236.05 2110.49,-243.05"/>
</g>
<!-- 1355431713360&#45;&gt;1355431802912 -->
<g id="edge39" class="edge">
<title>1355431713360&#45;&gt;1355431802912</title>
<path fill="none" stroke="black" d="M2768.95,-195.66C2800.78,-199.43 2854.71,-205.82 2890.92,-210.11"/>
<polygon fill="black" stroke="black" points="2890.16,-213.55 2900.5,-211.25 2890.99,-206.59 2890.16,-213.55"/>
</g>
<!-- 1355431713360&#45;&gt;1355431802480 -->
<g id="edge38" class="edge">
<title>1355431713360&#45;&gt;1355431802480</title>
<path fill="none" stroke="black" d="M2768.56,-188.1C2780.13,-186.11 2794.69,-183.6 2810.27,-180.91"/>
<polygon fill="black" stroke="black" points="2810.44,-184.43 2819.7,-179.28 2809.25,-177.53 2810.44,-184.43"/>
</g>
<!-- 1355431939040&#45;&gt;1355432185232 -->
<g id="edge42" class="edge">
<title>1355431939040&#45;&gt;1355432185232</title>
<path fill="none" stroke="black" d="M3494.89,-110.81C3506.32,-98.15 3522.49,-82.69 3540,-73.55 3542.9,-72.04 3545.87,-70.61 3548.91,-69.26"/>
<polygon fill="black" stroke="black" points="3550.09,-72.56 3558.03,-65.56 3547.45,-66.08 3550.09,-72.56"/>
</g>
<!-- 1355431939040&#45;&gt;1355432184656 -->
<g id="edge40" class="edge">
<title>1355431939040&#45;&gt;1355432184656</title>
<path fill="none" stroke="black" d="M3503.83,-127.3C3516,-125.3 3531.46,-122.76 3548,-120.05"/>
<polygon fill="black" stroke="black" points="3548.2,-123.56 3557.5,-118.48 3547.07,-116.65 3548.2,-123.56"/>
</g>
<!-- 1355431939040&#45;&gt;1355431949792 -->
<g id="edge41" class="edge">
<title>1355431939040&#45;&gt;1355431949792</title>
<path fill="none" stroke="black" d="M3504.23,-134.75C3536.65,-138.7 3592.07,-145.46 3629.02,-149.96"/>
<polygon fill="black" stroke="black" points="3628.46,-153.42 3638.81,-151.16 3629.31,-146.47 3628.46,-153.42"/>
</g>
<!-- 1355432184416&#45;&gt;1355432185472 -->
<g id="edge43" class="edge">
<title>1355432184416&#45;&gt;1355432185472</title>
<path fill="none" stroke="black" d="M746.88,-120.55C801.47,-120.55 931.58,-120.55 1040.75,-120.55 1040.75,-120.55 1040.75,-120.55 1312.75,-120.55 1364.04,-120.55 1423.27,-121.32 1460.86,-121.9"/>
<polygon fill="black" stroke="black" points="1460.69,-125.4 1470.75,-122.06 1460.81,-118.4 1460.69,-125.4"/>
</g>
<!-- 1355432184416&#45;&gt;1355432185856 -->
<g id="edge44" class="edge">
<title>1355432184416&#45;&gt;1355432185856</title>
<path fill="none" stroke="black" d="M745.94,-128.79C771.96,-137.3 812.82,-150.66 842.56,-160.39"/>
<polygon fill="black" stroke="black" points="841.32,-163.66 851.91,-163.45 843.49,-157.01 841.32,-163.66"/>
</g>
<!-- 1355432184032&#45;&gt;1355431951136 -->
<g id="edge45" class="edge">
<title>1355432184032&#45;&gt;1355431951136</title>
<path fill="none" stroke="black" d="M4190.96,-80.44C4179.52,-68.64 4163.57,-54.54 4146.5,-46.55 4029.39,8.25 3988.54,-0.55 3859.25,-0.55 879.75,-0.55 879.75,-0.55 879.75,-0.55 788.64,-0.55 744.05,-9.26 692.75,-84.55 624.58,-184.59 739.69,-266.36 656.75,-354.55 631.55,-381.34 588.16,-385.91 556.85,-385.15"/>
<polygon fill="black" stroke="black" points="557.17,-381.66 547.02,-384.71 556.85,-388.66 557.17,-381.66"/>
</g>
<!-- 1355432183456&#45;&gt;1355431950608 -->
<g id="edge47" class="edge">
<title>1355432183456&#45;&gt;1355431950608</title>
<path fill="none" stroke="black" d="M3880.34,-124.41C3891.89,-116.24 3906.77,-106.76 3921.25,-100.55 3925.31,-98.81 3929.5,-97.17 3933.77,-95.62"/>
<polygon fill="black" stroke="black" points="3934.75,-98.99 3943.09,-92.46 3932.5,-92.36 3934.75,-98.99"/>
</g>
<!-- 1355432183456&#45;&gt;1355431949600 -->
<g id="edge48" class="edge">
<title>1355432183456&#45;&gt;1355431949600</title>
<path fill="none" stroke="black" d="M3884.87,-146.6C3907.7,-151.99 3942.03,-160.1 3971.88,-167.15"/>
<polygon fill="black" stroke="black" points="3971.06,-170.55 3981.59,-169.44 3972.67,-163.74 3971.06,-170.55"/>
</g>
<!-- 1355432183456&#45;&gt;1355431950272 -->
<g id="edge46" class="edge">
<title>1355432183456&#45;&gt;1355431950272</title>
<path fill="none" stroke="black" d="M3885.62,-138.58C3895.85,-137.81 3908.3,-136.88 3921.58,-135.88"/>
<polygon fill="black" stroke="black" points="3921.68,-139.39 3931.39,-135.15 3921.16,-132.4 3921.68,-139.39"/>
</g>
<!-- 1355431941440&#45;&gt;1355431940192 -->
<g id="edge49" class="edge">
<title>1355431941440&#45;&gt;1355431940192</title>
<path fill="none" stroke="black" d="M1249.15,-215.55C1256.64,-215.55 1264.93,-215.55 1272.95,-215.55"/>
<polygon fill="black" stroke="black" points="1272.85,-219.05 1282.85,-215.55 1272.85,-212.05 1272.85,-219.05"/>
</g>
<!-- 1355431937600&#45;&gt;1355431938464 -->
<g id="edge50" class="edge">
<title>1355431937600&#45;&gt;1355431938464</title>
<path fill="none" stroke="black" d="M1065.41,-295.46C1074.35,-300.94 1084.84,-307.38 1094.76,-313.47"/>
<polygon fill="black" stroke="black" points="1092.78,-316.35 1103.13,-318.6 1096.44,-310.39 1092.78,-316.35"/>
</g>
<!-- 1355431937600&#45;&gt;1355431938128 -->
<g id="edge51" class="edge">
<title>1355431937600&#45;&gt;1355431938128</title>
<path fill="none" stroke="black" d="M1069.15,-281.55C1076.64,-281.55 1084.93,-281.55 1092.95,-281.55"/>
<polygon fill="black" stroke="black" points="1092.85,-285.05 1102.85,-281.55 1092.85,-278.05 1092.85,-285.05"/>
</g>
<!-- 1355431938656&#45;&gt;1355431939472 -->
<g id="edge52" class="edge">
<title>1355431938656&#45;&gt;1355431939472</title>
<path fill="none" stroke="black" d="M1249.15,-333.65C1256.64,-333.39 1264.93,-333.11 1272.95,-332.84"/>
<polygon fill="black" stroke="black" points="1272.98,-336.34 1282.85,-332.5 1272.74,-329.34 1272.98,-336.34"/>
</g>
<!-- 1355431938656&#45;&gt;1355431938992 -->
<g id="edge53" class="edge">
<title>1355431938656&#45;&gt;1355431938992</title>
<path fill="none" stroke="black" d="M1246.67,-345.71C1257.98,-350.48 1271.8,-355.62 1284.75,-358.55 1378.73,-379.81 1492.78,-382.46 1550.83,-382.22"/>
<polygon fill="black" stroke="black" points="1550.86,-385.72 1560.83,-382.14 1550.8,-378.72 1550.86,-385.72"/>
</g>
<!-- 1355431950992&#45;&gt;1355432186336 -->
<g id="edge54" class="edge">
<title>1355431950992&#45;&gt;1355432186336</title>
<path fill="none" stroke="black" d="M1065.41,-188.94C1074.35,-194.22 1084.84,-200.42 1094.76,-206.28"/>
<polygon fill="black" stroke="black" points="1092.73,-209.15 1103.12,-211.22 1096.29,-203.12 1092.73,-209.15"/>
</g>
<!-- 1355431950992&#45;&gt;1355432186720 -->
<g id="edge55" class="edge">
<title>1355431950992&#45;&gt;1355432186720</title>
<path fill="none" stroke="black" d="M1069.15,-174.95C1076.64,-174.78 1084.93,-174.59 1092.95,-174.41"/>
<polygon fill="black" stroke="black" points="1092.93,-177.91 1102.85,-174.18 1092.78,-170.91 1092.93,-177.91"/>
</g>
<!-- 1355431939136&#45;&gt;1355432182496 -->
<g id="edge56" class="edge">
<title>1355431939136&#45;&gt;1355432182496</title>
<path fill="none" stroke="black" d="M3321.12,-247.41C3329.89,-242.43 3340.1,-236.63 3349.79,-231.13"/>
<polygon fill="black" stroke="black" points="3351.33,-234.27 3358.3,-226.29 3347.87,-228.19 3351.33,-234.27"/>
</g>
<!-- 1355431939376&#45;&gt;1355431938512 -->
<g id="edge57" class="edge">
<title>1355431939376&#45;&gt;1355431938512</title>
<path fill="none" stroke="black" d="M1430.92,-315.51C1440.5,-311.14 1451.73,-306.01 1462.27,-301.21"/>
<polygon fill="black" stroke="black" points="1463.46,-304.51 1471.1,-297.17 1460.55,-298.14 1463.46,-304.51"/>
</g>
<!-- 1355431939568&#45;&gt;1355431801280 -->
<g id="edge58" class="edge">
<title>1355431939568&#45;&gt;1355431801280</title>
<path fill="none" stroke="black" d="M3139.3,-275.8C3148.82,-282.62 3160.3,-290.83 3171.02,-298.51"/>
<polygon fill="black" stroke="black" points="3168.79,-301.21 3178.96,-304.19 3172.86,-295.52 3168.79,-301.21"/>
</g>
<!-- 1355431939568&#45;&gt;1355431799024 -->
<g id="edge59" class="edge">
<title>1355431939568&#45;&gt;1355431799024</title>
<path fill="none" stroke="black" d="M3144.4,-260.55C3151.89,-260.55 3160.18,-260.55 3168.2,-260.55"/>
<polygon fill="black" stroke="black" points="3168.1,-264.05 3178.1,-260.55 3168.1,-257.05 3168.1,-264.05"/>
</g>
</g>
</svg>
