<?xml version="1.0" encoding="UTF-8" standalone="no"?>
<!DOCTYPE svg PUBLIC "-//W3C//DTD SVG 1.1//EN"
 "http://www.w3.org/Graphics/SVG/1.1/DTD/svg11.dtd">
<!-- Generated by graphviz version 12.2.0 (20241103.1931)
 -->
<!-- Title: imsfs Pages: 1 -->
<svg width="1033pt" height="460pt"
 viewBox="0.00 0.00 1032.75 460.00" xmlns="http://www.w3.org/2000/svg" xmlns:xlink="http://www.w3.org/1999/xlink">
<g id="graph0" class="graph" transform="scale(1 1) rotate(0) translate(4 456)">
<title>imsfs</title>
<polygon fill="white" stroke="none" points="-4,4 -4,-456 1028.75,-456 1028.75,4 -4,4"/>
<!-- 1355431719744 -->
<g id="node1" class="node">
<title>1355431719744</title>
<polygon fill="white" stroke="black" points="343.75,-317 90,-317 90,-281 343.75,-281 343.75,-317"/>
<text text-anchor="middle" x="216.88" y="-294.73" font-family="Times New Roman,serif" font-size="12.00">Declaration APPROVED by BUDGET OWNER</text>
</g>
<!-- 1355431718736 -->
<g id="node13" class="node">
<title>1355431718736</title>
<ellipse fill="white" stroke="black" cx="406.75" cy="-299" rx="27" ry="27"/>
</g>
<!-- 1355431719744&#45;&gt;1355431718736 -->
<g id="edge1" class="edge">
<title>1355431719744&#45;&gt;1355431718736</title>
<path fill="none" stroke="black" d="M344.23,-292.62C352.84,-292.83 361.04,-293.11 368.47,-293.49"/>
<polygon fill="black" stroke="black" points="368.15,-296.97 378.34,-294.08 368.57,-289.99 368.15,-296.97"/>
</g>
<!-- 1355431717344 -->
<g id="node2" class="node">
<title>1355431717344</title>
<polygon fill="white" stroke="black" points="744.5,-452 472,-452 472,-416 744.5,-416 744.5,-452"/>
<text text-anchor="middle" x="608.25" y="-429.73" font-family="Times New Roman,serif" font-size="12.00">Declaration FINAL_APPROVED by SUPERVISOR</text>
</g>
<!-- 1355431717344&#45;&gt;1355431718736 -->
<g id="edge3" class="edge">
<title>1355431717344&#45;&gt;1355431718736</title>
<path fill="none" stroke="black" d="M471.54,-417.26C470.94,-416.84 470.34,-416.43 469.75,-416 443.3,-397.05 426.52,-363.05 417.18,-336.42"/>
<polygon fill="black" stroke="black" points="420.53,-335.39 414.1,-326.97 413.87,-337.56 420.53,-335.39"/>
</g>
<!-- 1355431722048 -->
<g id="node3" class="node">
<title>1355431722048</title>
<polygon fill="white" stroke="black" points="746.75,-398 469.75,-398 469.75,-362 746.75,-362 746.75,-398"/>
<text text-anchor="middle" x="608.25" y="-375.73" font-family="Times New Roman,serif" font-size="12.00">Declaration FOR_APPROVAL by PRE_APPROVER</text>
</g>
<!-- 1355431722048&#45;&gt;1355431718736 -->
<g id="edge4" class="edge">
<title>1355431722048&#45;&gt;1355431718736</title>
<path fill="none" stroke="black" d="M469.31,-361.78C454.17,-354.27 439.84,-342.16 428.82,-330.43"/>
<polygon fill="black" stroke="black" points="431.65,-328.35 422.41,-323.16 426.4,-332.98 431.65,-328.35"/>
</g>
<!-- 1355431722816 -->
<g id="node4" class="node">
<title>1355431722816</title>
<polygon fill="white" stroke="black" points="720.88,-144 495.62,-144 495.62,-108 720.88,-108 720.88,-144"/>
<text text-anchor="middle" x="608.25" y="-121.72" font-family="Times New Roman,serif" font-size="12.00">Declaration REJECTED by SUPERVISOR</text>
</g>
<!-- 1355431722960 -->
<g id="node14" class="node">
<title>1355431722960</title>
<ellipse fill="white" stroke="black" cx="809.75" cy="-95" rx="27" ry="27"/>
</g>
<!-- 1355431722816&#45;&gt;1355431722960 -->
<g id="edge7" class="edge">
<title>1355431722816&#45;&gt;1355431722960</title>
<path fill="none" stroke="black" d="M721.25,-108.6C739.47,-105.77 757.14,-103.02 771.77,-100.75"/>
<polygon fill="black" stroke="black" points="771.97,-104.26 781.31,-99.26 770.89,-97.34 771.97,-104.26"/>
</g>
<!-- 1355431714560 -->
<g id="node5" class="node">
<title>1355431714560</title>
<polygon fill="white" stroke="black" points="657.5,-344 559,-344 559,-308 657.5,-308 657.5,-344"/>
<text text-anchor="middle" x="608.25" y="-321.73" font-family="Times New Roman,serif" font-size="12.00">Request Payment</text>
</g>
<!-- 1355431714560&#45;&gt;1355431718736 -->
<g id="edge9" class="edge">
<title>1355431714560&#45;&gt;1355431718736</title>
<path fill="none" stroke="black" d="M558.55,-325.3C523.22,-321.82 476.2,-315.28 444.11,-309.27"/>
<polygon fill="black" stroke="black" points="444.99,-305.88 434.5,-307.38 443.64,-312.75 444.99,-305.88"/>
</g>
<!-- 1355431721952 -->
<g id="node6" class="node">
<title>1355431721952</title>
<polygon fill="black" stroke="black" points="926.75,-140 872.75,-140 872.75,-104 926.75,-104 926.75,-140"/>
</g>
<!-- 1355368192208 -->
<g id="node16" class="node">
<title>1355368192208</title>
<ellipse fill="white" stroke="black" cx="993.75" cy="-122" rx="27" ry="27"/>
<ellipse fill="none" stroke="black" cx="993.75" cy="-122" rx="31" ry="31"/>
<text text-anchor="start" x="984" y="-109.97" font-family="Times New Roman,serif" font-size="32.00">■</text>
</g>
<!-- 1355431721952&#45;&gt;1355368192208 -->
<g id="edge12" class="edge">
<title>1355431721952&#45;&gt;1355368192208</title>
<path fill="none" stroke="black" d="M926.87,-122C934.38,-122 942.76,-122 950.97,-122"/>
<polygon fill="black" stroke="black" points="950.83,-125.5 960.83,-122 950.83,-118.5 950.83,-125.5"/>
</g>
<!-- 1355431721328 -->
<g id="node7" class="node">
<title>1355431721328</title>
<polygon fill="white" stroke="black" points="737,-290 479.5,-290 479.5,-254 737,-254 737,-290"/>
<text text-anchor="middle" x="608.25" y="-267.73" font-family="Times New Roman,serif" font-size="12.00">Declaration FOR_APPROVAL by SUPERVISOR</text>
</g>
<!-- 1355431721328&#45;&gt;1355431718736 -->
<g id="edge5" class="edge">
<title>1355431721328&#45;&gt;1355431718736</title>
<path fill="none" stroke="black" d="M520.12,-290.49C493.86,-294.25 466.42,-297.53 445.22,-299.34"/>
<polygon fill="black" stroke="black" points="445.05,-295.84 435.34,-300.09 445.58,-302.82 445.05,-295.84"/>
</g>
<!-- 1355431714224 -->
<g id="node8" class="node">
<title>1355431714224</title>
<polygon fill="white" stroke="black" points="732.88,-236 483.62,-236 483.62,-200 732.88,-200 732.88,-236"/>
<text text-anchor="middle" x="608.25" y="-213.72" font-family="Times New Roman,serif" font-size="12.00">Declaration APPROVED by PRE_APPROVER</text>
</g>
<!-- 1355431714224&#45;&gt;1355431718736 -->
<g id="edge2" class="edge">
<title>1355431714224&#45;&gt;1355431718736</title>
<path fill="none" stroke="black" d="M521.37,-236.49C503.73,-240.64 485.7,-246.19 469.75,-254 458.29,-259.61 447.27,-267.89 437.78,-275.91"/>
<polygon fill="black" stroke="black" points="435.55,-273.2 430.33,-282.42 440.16,-278.48 435.55,-273.2"/>
</g>
<!-- 1355431719600 -->
<g id="node9" class="node">
<title>1355431719600</title>
<polygon fill="white" stroke="black" points="708.88,-90 507.62,-90 507.62,-54 708.88,-54 708.88,-90"/>
<text text-anchor="middle" x="608.25" y="-67.72" font-family="Times New Roman,serif" font-size="12.00">Declaration REJECTED by MISSING</text>
</g>
<!-- 1355431719600&#45;&gt;1355431722960 -->
<g id="edge6" class="edge">
<title>1355431719600&#45;&gt;1355431722960</title>
<path fill="none" stroke="black" d="M709.29,-83.53C731.52,-86.1 753.72,-88.66 771.49,-90.7"/>
<polygon fill="black" stroke="black" points="770.92,-94.16 781.26,-91.83 771.72,-87.21 770.92,-94.16"/>
</g>
<!-- 1355431722864 -->
<g id="node10" class="node">
<title>1355431722864</title>
<polygon fill="white" stroke="black" points="658.62,-36 557.88,-36 557.88,0 658.62,0 658.62,-36"/>
<text text-anchor="middle" x="608.25" y="-13.72" font-family="Times New Roman,serif" font-size="12.00">Payment Handled</text>
</g>
<!-- 1355431722864&#45;&gt;1355431722960 -->
<g id="edge8" class="edge">
<title>1355431722864&#45;&gt;1355431722960</title>
<path fill="none" stroke="black" d="M659.09,-21.92C686.03,-25.47 719.3,-32.2 746.75,-45 759.25,-50.83 771.43,-59.71 781.63,-68.38"/>
<polygon fill="black" stroke="black" points="779.12,-70.83 788.92,-74.85 783.77,-65.59 779.12,-70.83"/>
</g>
<!-- 1355431722672 -->
<g id="node11" class="node">
<title>1355431722672</title>
<polygon fill="black" stroke="black" points="243.88,-190 189.88,-190 189.88,-154 243.88,-154 243.88,-190"/>
</g>
<!-- 1355431722672&#45;&gt;1355431718736 -->
<g id="edge10" class="edge">
<title>1355431722672&#45;&gt;1355431718736</title>
<path fill="none" stroke="black" d="M244,-189.66C278.24,-212.81 338.24,-253.36 374.74,-278.04"/>
<polygon fill="black" stroke="black" points="372.44,-280.7 382.68,-283.41 376.36,-274.91 372.44,-280.7"/>
</g>
<!-- 1355431714272 -->
<g id="node15" class="node">
<title>1355431714272</title>
<ellipse fill="white" stroke="black" cx="406.75" cy="-99" rx="27" ry="27"/>
</g>
<!-- 1355431722672&#45;&gt;1355431714272 -->
<g id="edge11" class="edge">
<title>1355431722672&#45;&gt;1355431714272</title>
<path fill="none" stroke="black" d="M244,-161.85C276.89,-149.07 333.54,-127.06 370.32,-112.77"/>
<polygon fill="black" stroke="black" points="371.58,-116.03 379.63,-109.15 369.04,-109.51 371.58,-116.03"/>
</g>
<!-- 1355449583312 -->
<g id="node12" class="node">
<title>1355449583312</title>
<ellipse fill="white" stroke="black" cx="27" cy="-172" rx="27" ry="27"/>
<text text-anchor="start" x="16.88" y="-158.82" font-family="Times New Roman,serif" font-size="34.00">●</text>
</g>
<!-- 1355449583312&#45;&gt;1355431722672 -->
<g id="edge20" class="edge">
<title>1355449583312&#45;&gt;1355431722672</title>
<path fill="none" stroke="black" d="M54.12,-172C86.42,-172 141.62,-172 178.42,-172"/>
<polygon fill="black" stroke="black" points="178.16,-175.5 188.16,-172 178.16,-168.5 178.16,-175.5"/>
</g>
<!-- 1355431718736&#45;&gt;1355431719744 -->
<g id="edge13" class="edge">
<title>1355431718736&#45;&gt;1355431719744</title>
<path fill="none" stroke="black" d="M379.85,-303.83C372.7,-304.34 364.43,-304.75 355.47,-305.06"/>
<polygon fill="black" stroke="black" points="355.64,-301.55 345.75,-305.34 355.84,-308.55 355.64,-301.55"/>
</g>
<!-- 1355431718736&#45;&gt;1355431717344 -->
<g id="edge15" class="edge">
<title>1355431718736&#45;&gt;1355431717344</title>
<path fill="none" stroke="black" d="M417.85,-323.7C427.31,-346.63 443.92,-379.49 469.75,-398 477.5,-403.55 486.09,-408.03 495.09,-411.68"/>
<polygon fill="black" stroke="black" points="493.81,-414.94 504.4,-415.07 496.2,-408.36 493.81,-414.94"/>
</g>
<!-- 1355431718736&#45;&gt;1355431722048 -->
<g id="edge16" class="edge">
<title>1355431718736&#45;&gt;1355431722048</title>
<path fill="none" stroke="black" d="M429.19,-314.58C440.27,-324.54 454.62,-336.59 469.75,-344 482.46,-350.22 496.49,-355.01 510.59,-358.8"/>
<polygon fill="black" stroke="black" points="509.35,-362.1 519.9,-361.14 511.06,-355.31 509.35,-362.1"/>
</g>
<!-- 1355431718736&#45;&gt;1355431714560 -->
<g id="edge18" class="edge">
<title>1355431718736&#45;&gt;1355431714560</title>
<path fill="none" stroke="black" d="M433.83,-297.8C462.57,-299.67 509.75,-305.55 547.65,-311.7"/>
<polygon fill="black" stroke="black" points="546.65,-315.08 557.09,-313.27 547.8,-308.17 546.65,-315.08"/>
</g>
<!-- 1355431718736&#45;&gt;1355431721952 -->
<g id="edge19" class="edge">
<title>1355431718736&#45;&gt;1355431721952</title>
<path fill="none" stroke="black" d="M415.27,-272.98C424.02,-247.69 441.06,-210.33 469.75,-191 572.8,-121.56 624.25,-173.87 746.75,-153 786.07,-146.3 830.76,-136.98 861.45,-130.31"/>
<polygon fill="black" stroke="black" points="861.99,-133.78 871.01,-128.22 860.49,-126.94 861.99,-133.78"/>
</g>
<!-- 1355431718736&#45;&gt;1355431721328 -->
<g id="edge17" class="edge">
<title>1355431718736&#45;&gt;1355431721328</title>
<path fill="none" stroke="black" d="M433.02,-290.91C442.85,-288.87 454.92,-286.7 468.08,-284.58"/>
<polygon fill="black" stroke="black" points="468.54,-288.05 477.87,-283.04 467.45,-281.13 468.54,-288.05"/>
</g>
<!-- 1355431718736&#45;&gt;1355431714224 -->
<g id="edge14" class="edge">
<title>1355431718736&#45;&gt;1355431714224</title>
<path fill="none" stroke="black" d="M421.41,-275.97C433.02,-261.89 450.78,-245.29 469.75,-236 470.84,-235.47 471.94,-234.94 473.06,-234.43"/>
<polygon fill="black" stroke="black" points="474.05,-237.81 481.89,-230.67 471.31,-231.37 474.05,-237.81"/>
</g>
<!-- 1355431722960&#45;&gt;1355431721952 -->
<g id="edge21" class="edge">
<title>1355431722960&#45;&gt;1355431721952</title>
<path fill="none" stroke="black" d="M835.73,-102.66C843.81,-105.14 852.94,-107.94 861.7,-110.63"/>
<polygon fill="black" stroke="black" points="860.44,-113.91 871.03,-113.5 862.5,-107.22 860.44,-113.91"/>
</g>
<!-- 1355431714272&#45;&gt;1355431722816 -->
<g id="edge23" class="edge">
<title>1355431714272&#45;&gt;1355431722816</title>
<path fill="none" stroke="black" d="M433.83,-102.53C447.43,-104.37 465.15,-106.77 484.07,-109.33"/>
<polygon fill="black" stroke="black" points="483.44,-112.78 493.82,-110.65 484.38,-105.84 483.44,-112.78"/>
</g>
<!-- 1355431714272&#45;&gt;1355431719600 -->
<g id="edge22" class="edge">
<title>1355431714272&#45;&gt;1355431719600</title>
<path fill="none" stroke="black" d="M433.83,-95.47C450.33,-93.24 472.92,-90.18 496.33,-87.01"/>
<polygon fill="black" stroke="black" points="496.56,-90.51 506,-85.7 495.62,-83.58 496.56,-90.51"/>
</g>
<!-- 1355431714272&#45;&gt;1355431722864 -->
<g id="edge24" class="edge">
<title>1355431714272&#45;&gt;1355431722864</title>
<path fill="none" stroke="black" d="M425.39,-79.1C436.87,-67.38 452.83,-53.28 469.75,-45 493.44,-33.41 521.72,-26.79 546.45,-23.01"/>
<polygon fill="black" stroke="black" points="546.62,-26.52 556.04,-21.68 545.65,-19.59 546.62,-26.52"/>
</g>
</g>
</svg>
