<?xml version="1.0" encoding="UTF-8" standalone="no"?>
<!DOCTYPE svg PUBLIC "-//W3C//DTD SVG 1.1//EN"
 "http://www.w3.org/Graphics/SVG/1.1/DTD/svg11.dtd">
<!-- Generated by graphviz version 12.2.0 (20241103.1931)
 -->
<!-- Title: imsfs Pages: 1 -->
<svg width="690pt" height="543pt"
 viewBox="0.00 0.00 690.00 543.00" xmlns="http://www.w3.org/2000/svg" xmlns:xlink="http://www.w3.org/1999/xlink">
<g id="graph0" class="graph" transform="scale(1 1) rotate(0) translate(4 539)">
<title>imsfs</title>
<polygon fill="white" stroke="none" points="-4,4 -4,-539 686,-539 686,4 -4,4"/>
<!-- 1463474751904 -->
<g id="node1" class="node">
<title>1463474751904</title>
<polygon fill="white" stroke="black" points="257.5,-292 90,-292 90,-256 257.5,-256 257.5,-292"/>
<text text-anchor="middle" x="173.75" y="-269.73" font-family="Times New Roman,serif" font-size="12.00">Insert Date Appeal to Prefecture</text>
</g>
<!-- 1463482833872 -->
<g id="node14" class="node">
<title>1463482833872</title>
<ellipse fill="white" stroke="black" cx="320.5" cy="-274" rx="27" ry="27"/>
</g>
<!-- 1463474751904&#45;&gt;1463482833872 -->
<g id="edge3" class="edge">
<title>1463474751904&#45;&gt;1463482833872</title>
<path fill="none" stroke="black" d="M257.69,-267.31C266.23,-267.42 274.57,-267.65 282.22,-268.01"/>
<polygon fill="black" stroke="black" points="281.9,-271.5 292.09,-268.59 282.31,-264.51 281.9,-271.5"/>
</g>
<!-- 1463474752672 -->
<g id="node2" class="node">
<title>1463474752672</title>
<polygon fill="white" stroke="black" points="530.38,-535 437.12,-535 437.12,-499 530.38,-499 530.38,-535"/>
<text text-anchor="middle" x="483.75" y="-512.73" font-family="Times New Roman,serif" font-size="12.00">Appeal to Judge</text>
</g>
<!-- 1463474752672&#45;&gt;1463482833872 -->
<g id="edge2" class="edge">
<title>1463474752672&#45;&gt;1463482833872</title>
<path fill="none" stroke="black" d="M436.63,-522.45C417.96,-519.78 397.55,-512.86 383.5,-499 333.48,-449.67 323.15,-362.87 321.43,-312.59"/>
<polygon fill="black" stroke="black" points="324.93,-312.66 321.2,-302.75 317.93,-312.83 324.93,-312.66"/>
</g>
<!-- 1463474750560 -->
<g id="node3" class="node">
<title>1463474750560</title>
<polygon fill="white" stroke="black" points="584,-481 383.5,-481 383.5,-445 584,-445 584,-481"/>
<text text-anchor="middle" x="483.75" y="-458.73" font-family="Times New Roman,serif" font-size="12.00">Receive Result Appeal from Prefecture</text>
</g>
<!-- 1463474750560&#45;&gt;1463482833872 -->
<g id="edge7" class="edge">
<title>1463474750560&#45;&gt;1463482833872</title>
<path fill="none" stroke="black" d="M383.02,-444.56C345.74,-410.44 330.89,-351.35 325.09,-312.31"/>
<polygon fill="black" stroke="black" points="328.59,-312.09 323.79,-302.64 321.65,-313.02 328.59,-312.09"/>
</g>
<!-- 1463474750416 -->
<g id="node4" class="node">
<title>1463474750416</title>
<polygon fill="white" stroke="black" points="521,-427 446.5,-427 446.5,-391 521,-391 521,-427"/>
<text text-anchor="middle" x="483.75" y="-404.73" font-family="Times New Roman,serif" font-size="12.00">Add penalty</text>
</g>
<!-- 1463474750416&#45;&gt;1463482833872 -->
<g id="edge1" class="edge">
<title>1463474750416&#45;&gt;1463482833872</title>
<path fill="none" stroke="black" d="M446.22,-413.8C426.02,-411.62 401.45,-404.86 383.5,-391 357.75,-371.11 340.85,-337.28 331.29,-310.95"/>
<polygon fill="black" stroke="black" points="334.65,-309.96 328.13,-301.61 328.02,-312.21 334.65,-309.96"/>
</g>
<!-- 1463474752816 -->
<g id="node5" class="node">
<title>1463474752816</title>
<polygon fill="white" stroke="black" points="546.5,-373 421,-373 421,-337 546.5,-337 546.5,-373"/>
<text text-anchor="middle" x="483.75" y="-350.73" font-family="Times New Roman,serif" font-size="12.00">Insert Fine Notification</text>
</g>
<!-- 1463474752816&#45;&gt;1463482833872 -->
<g id="edge4" class="edge">
<title>1463474752816&#45;&gt;1463482833872</title>
<path fill="none" stroke="black" d="M420.73,-351.55C408,-347.98 395,-343.15 383.5,-337 368.61,-329.04 354.24,-316.9 343.1,-305.27"/>
<polygon fill="black" stroke="black" points="345.9,-303.15 336.6,-298.07 340.7,-307.84 345.9,-303.15"/>
</g>
<!-- 1463474751664 -->
<g id="node6" class="node">
<title>1463474751664</title>
<polygon fill="white" stroke="black" points="570.88,-319 396.62,-319 396.62,-283 570.88,-283 570.88,-319"/>
<text text-anchor="middle" x="483.75" y="-296.73" font-family="Times New Roman,serif" font-size="12.00">Notify Result Appeal to Offender</text>
</g>
<!-- 1463474751664&#45;&gt;1463482833872 -->
<g id="edge5" class="edge">
<title>1463474751664&#45;&gt;1463482833872</title>
<path fill="none" stroke="black" d="M396.25,-293.25C382.52,-290.88 369.01,-288.28 357.34,-285.72"/>
<polygon fill="black" stroke="black" points="358.35,-282.36 347.82,-283.53 356.78,-289.19 358.35,-282.36"/>
</g>
<!-- 1463474751760 -->
<g id="node7" class="node">
<title>1463474751760</title>
<polygon fill="white" stroke="black" points="512.38,-265 455.12,-265 455.12,-229 512.38,-229 512.38,-265"/>
<text text-anchor="middle" x="483.75" y="-242.72" font-family="Times New Roman,serif" font-size="12.00">Payment</text>
</g>
<!-- 1463474751760&#45;&gt;1463482833872 -->
<g id="edge6" class="edge">
<title>1463474751760&#45;&gt;1463482833872</title>
<path fill="none" stroke="black" d="M454.87,-256.92C428.42,-263.14 388.48,-270.01 359.2,-273.5"/>
<polygon fill="black" stroke="black" points="358.84,-270.02 349.27,-274.58 359.59,-276.98 358.84,-270.02"/>
</g>
<!-- 1463474751856 -->
<g id="node8" class="node">
<title>1463474751856</title>
<polygon fill="white" stroke="black" points="553.62,-211 413.88,-211 413.88,-175 553.62,-175 553.62,-211"/>
<text text-anchor="middle" x="483.75" y="-188.72" font-family="Times New Roman,serif" font-size="12.00">Send Appeal to Prefecture</text>
</g>
<!-- 1463474751856&#45;&gt;1463482833872 -->
<g id="edge8" class="edge">
<title>1463474751856&#45;&gt;1463482833872</title>
<path fill="none" stroke="black" d="M429.3,-211.46C413.96,-215.9 397.59,-221.46 383.5,-229 372.24,-235.02 361.29,-243.42 351.79,-251.43"/>
<polygon fill="black" stroke="black" points="349.59,-248.7 344.32,-257.89 354.17,-254 349.59,-248.7"/>
</g>
<!-- 1463474750800 -->
<g id="node9" class="node">
<title>1463474750800</title>
<polygon fill="white" stroke="black" points="515.75,-157 451.75,-157 451.75,-121 515.75,-121 515.75,-157"/>
<text text-anchor="middle" x="483.75" y="-134.72" font-family="Times New Roman,serif" font-size="12.00">Send Fine</text>
</g>
<!-- 1463474750800&#45;&gt;1463482833872 -->
<g id="edge9" class="edge">
<title>1463474750800&#45;&gt;1463482833872</title>
<path fill="none" stroke="black" d="M451.36,-148.91C430.32,-153.27 403,-159.94 383.5,-175 362.13,-191.51 346.85,-217.61 336.81,-238.98"/>
<polygon fill="black" stroke="black" points="333.69,-237.4 332.79,-247.95 340.07,-240.26 333.69,-237.4"/>
</g>
<!-- 1463474751568 -->
<g id="node10" class="node">
<title>1463474751568</title>
<polygon fill="white" stroke="black" points="554,-103 413.5,-103 413.5,-67 554,-67 554,-103"/>
<text text-anchor="middle" x="483.75" y="-80.72" font-family="Times New Roman,serif" font-size="12.00">Send for Credit Collection</text>
</g>
<!-- 1463474751568&#45;&gt;1463482833872 -->
<g id="edge10" class="edge">
<title>1463474751568&#45;&gt;1463482833872</title>
<path fill="none" stroke="black" d="M414.08,-103.41C402.91,-107.55 392.17,-113.15 383.5,-121 365.47,-137.31 345.53,-197.48 333.25,-237.44"/>
<polygon fill="black" stroke="black" points="329.93,-236.34 330.36,-246.93 336.62,-238.38 329.93,-236.34"/>
</g>
<!-- 1463474750224 -->
<g id="node11" class="node">
<title>1463474750224</title>
<polygon fill="black" stroke="black" points="200.75,-193 146.75,-193 146.75,-157 200.75,-157 200.75,-193"/>
</g>
<!-- 1463474750224&#45;&gt;1463482833872 -->
<g id="edge11" class="edge">
<title>1463474750224&#45;&gt;1463482833872</title>
<path fill="none" stroke="black" d="M200.96,-192.93C225.53,-209.73 262.26,-234.85 288.32,-252.67"/>
<polygon fill="black" stroke="black" points="286.25,-255.5 296.48,-258.26 290.21,-249.72 286.25,-255.5"/>
</g>
<!-- 1463474749936 -->
<g id="node15" class="node">
<title>1463474749936</title>
<ellipse fill="white" stroke="black" cx="320.5" cy="-130" rx="27" ry="27"/>
</g>
<!-- 1463474750224&#45;&gt;1463474749936 -->
<g id="edge12" class="edge">
<title>1463474750224&#45;&gt;1463474749936</title>
<path fill="none" stroke="black" d="M200.96,-166.85C224.1,-159.66 258.04,-149.11 283.67,-141.14"/>
<polygon fill="black" stroke="black" points="284.49,-144.55 293.01,-138.24 282.42,-137.86 284.49,-144.55"/>
</g>
<!-- 1463474750128 -->
<g id="node12" class="node">
<title>1463474750128</title>
<polygon fill="black" stroke="black" points="510.75,-49 456.75,-49 456.75,-13 510.75,-13 510.75,-49"/>
</g>
<!-- 1461600860720 -->
<g id="node16" class="node">
<title>1461600860720</title>
<ellipse fill="white" stroke="black" cx="651" cy="-31" rx="27" ry="27"/>
<ellipse fill="none" stroke="black" cx="651" cy="-31" rx="31" ry="31"/>
<text text-anchor="start" x="641.25" y="-18.98" font-family="Times New Roman,serif" font-size="32.00">■</text>
</g>
<!-- 1463474750128&#45;&gt;1461600860720 -->
<g id="edge13" class="edge">
<title>1463474750128&#45;&gt;1461600860720</title>
<path fill="none" stroke="black" d="M510.93,-31C537.16,-31 577.92,-31 608.55,-31"/>
<polygon fill="black" stroke="black" points="608.22,-34.5 618.22,-31 608.22,-27.5 608.22,-34.5"/>
</g>
<!-- 1463474749696 -->
<g id="node13" class="node">
<title>1463474749696</title>
<ellipse fill="white" stroke="black" cx="27" cy="-175" rx="27" ry="27"/>
<text text-anchor="start" x="16.88" y="-161.82" font-family="Times New Roman,serif" font-size="34.00">●</text>
</g>
<!-- 1463474749696&#45;&gt;1463474750224 -->
<g id="edge25" class="edge">
<title>1463474749696&#45;&gt;1463474750224</title>
<path fill="none" stroke="black" d="M54.21,-175C76.86,-175 109.86,-175 135.29,-175"/>
<polygon fill="black" stroke="black" points="135.22,-178.5 145.22,-175 135.22,-171.5 135.22,-178.5"/>
</g>
<!-- 1463482833872&#45;&gt;1463474751904 -->
<g id="edge16" class="edge">
<title>1463482833872&#45;&gt;1463474751904</title>
<path fill="none" stroke="black" d="M293.6,-279.32C286.33,-279.85 277.96,-280.23 269.11,-280.47"/>
<polygon fill="black" stroke="black" points="269.14,-276.96 259.21,-280.66 269.27,-283.96 269.14,-276.96"/>
</g>
<!-- 1463482833872&#45;&gt;1463474752672 -->
<g id="edge15" class="edge">
<title>1463482833872&#45;&gt;1463474752672</title>
<path fill="none" stroke="black" d="M321.44,-301.27C323.22,-345.42 333.64,-431.83 383.5,-481 394.81,-492.15 410.23,-498.81 425.55,-503.13"/>
<polygon fill="black" stroke="black" points="424.61,-506.51 435.16,-505.53 426.3,-499.71 424.61,-506.51"/>
</g>
<!-- 1463482833872&#45;&gt;1463474750560 -->
<g id="edge20" class="edge">
<title>1463482833872&#45;&gt;1463474750560</title>
<path fill="none" stroke="black" d="M325.36,-301.01C331.37,-335.3 346.43,-393.46 383.5,-427 389.4,-432.33 396.24,-436.63 403.53,-440.13"/>
<polygon fill="black" stroke="black" points="402.11,-443.33 412.68,-444 404.83,-436.88 402.11,-443.33"/>
</g>
<!-- 1463482833872&#45;&gt;1463474750416 -->
<g id="edge14" class="edge">
<title>1463482833872&#45;&gt;1463474750416</title>
<path fill="none" stroke="black" d="M332.17,-298.67C341.87,-321.29 358.52,-353.71 383.5,-373 398.29,-384.43 417.58,-391.02 435.22,-395.44"/>
<polygon fill="black" stroke="black" points="434.21,-398.8 444.74,-397.66 435.79,-391.98 434.21,-398.8"/>
</g>
<!-- 1463482833872&#45;&gt;1463474752816 -->
<g id="edge17" class="edge">
<title>1463482833872&#45;&gt;1463474752816</title>
<path fill="none" stroke="black" d="M343.18,-289.11C354.31,-298.96 368.65,-311.06 383.5,-319 394.29,-324.77 406.42,-329.39 418.39,-333.22"/>
<polygon fill="black" stroke="black" points="417.26,-336.54 427.85,-336.1 419.3,-329.84 417.26,-336.54"/>
</g>
<!-- 1463482833872&#45;&gt;1463474751664 -->
<g id="edge18" class="edge">
<title>1463482833872&#45;&gt;1463474751664</title>
<path fill="none" stroke="black" d="M347.77,-273.26C362.46,-274.67 381.67,-277.35 400.97,-280.56"/>
<polygon fill="black" stroke="black" points="400.36,-284 410.81,-282.25 401.55,-277.11 400.36,-284"/>
</g>
<!-- 1463482833872&#45;&gt;1463474751760 -->
<g id="edge19" class="edge">
<title>1463482833872&#45;&gt;1463474751760</title>
<path fill="none" stroke="black" d="M346.34,-264.8C372.23,-258.52 413.18,-251.38 443.47,-247.69"/>
<polygon fill="black" stroke="black" points="443.85,-251.17 453.4,-246.58 443.07,-244.21 443.85,-251.17"/>
</g>
<!-- 1463482833872&#45;&gt;1463474751856 -->
<g id="edge21" class="edge">
<title>1463482833872&#45;&gt;1463474751856</title>
<path fill="none" stroke="black" d="M335.58,-251.05C347.3,-237.23 365,-220.9 383.5,-211 389.6,-207.74 396.12,-204.85 402.8,-202.32"/>
<polygon fill="black" stroke="black" points="403.66,-205.72 411.96,-199.14 401.37,-199.11 403.66,-205.72"/>
</g>
<!-- 1463482833872&#45;&gt;1463474750800 -->
<g id="edge22" class="edge">
<title>1463482833872&#45;&gt;1463474750800</title>
<path fill="none" stroke="black" d="M327.64,-247.82C336.2,-220.67 354.07,-179.73 383.5,-157 399.65,-144.53 421.16,-137.81 440.03,-134.99"/>
<polygon fill="black" stroke="black" points="440.31,-138.49 449.86,-133.9 439.53,-131.53 440.31,-138.49"/>
</g>
<!-- 1463482833872&#45;&gt;1463474751568 -->
<g id="edge23" class="edge">
<title>1463482833872&#45;&gt;1463474751568</title>
<path fill="none" stroke="black" d="M327.08,-247.46C337.78,-204.25 362.01,-122.45 383.5,-103 389.15,-97.89 395.67,-93.73 402.62,-90.39"/>
<polygon fill="black" stroke="black" points="403.75,-93.71 411.66,-86.65 401.08,-87.24 403.75,-93.71"/>
</g>
<!-- 1463482833872&#45;&gt;1463474750128 -->
<g id="edge24" class="edge">
<title>1463482833872&#45;&gt;1463474750128</title>
<path fill="none" stroke="black" d="M327.58,-247.44C340.33,-192.74 369.78,-71.53 383.5,-58 399.73,-41.99 424.45,-35.24 445.16,-32.48"/>
<polygon fill="black" stroke="black" points="445.4,-35.98 454.98,-31.47 444.67,-29.02 445.4,-35.98"/>
</g>
<!-- 1463474749936&#45;&gt;1463474750128 -->
<g id="edge26" class="edge">
<title>1463474749936&#45;&gt;1463474750128</title>
<path fill="none" stroke="black" d="M335.65,-107.32C346.78,-91.28 363.69,-70.5 383.5,-58 402.1,-46.27 425.77,-39.58 445.33,-35.79"/>
<polygon fill="black" stroke="black" points="445.85,-39.25 455.11,-34.09 444.65,-32.35 445.85,-39.25"/>
</g>
</g>
</svg>
