<?xml version="1.0" encoding="UTF-8" standalone="no"?>
<!DOCTYPE svg PUBLIC "-//W3C//DTD SVG 1.1//EN"
 "http://www.w3.org/Graphics/SVG/1.1/DTD/svg11.dtd">
<!-- Generated by graphviz version 12.2.0 (20241103.1931)
 -->
<!-- Title: imdf_net_1745345799.555895 Pages: 1 -->
<svg width="884pt" height="705pt"
 viewBox="0.00 0.00 883.75 705.11" xmlns="http://www.w3.org/2000/svg" xmlns:xlink="http://www.w3.org/1999/xlink">
<g id="graph0" class="graph" transform="scale(1 1) rotate(0) translate(4 701.11)">
<title>imdf_net_1745345799.555895</title>
<polygon fill="white" stroke="none" points="-4,4 -4,-701.11 879.75,-701.11 879.75,4 -4,4"/>
<!-- 1463474755840 -->
<g id="node1" class="node">
<title>1463474755840</title>
<polygon fill="white" stroke="black" points="74.5,-454.11 0,-454.11 0,-418.11 74.5,-418.11 74.5,-454.11"/>
<text text-anchor="middle" x="37.25" y="-431.83" font-family="Times New Roman,serif" font-size="12.00">Add penalty</text>
</g>
<!-- 1463474756272 -->
<g id="node17" class="node">
<title>1463474756272</title>
<ellipse fill="white" stroke="black" cx="137.5" cy="-436.11" rx="27" ry="27"/>
</g>
<!-- 1463474755840&#45;&gt;1463474756272 -->
<g id="edge1" class="edge">
<title>1463474755840&#45;&gt;1463474756272</title>
<path fill="none" stroke="black" d="M74.83,-429.56C82.9,-429.3 91.45,-429.29 99.53,-429.55"/>
<polygon fill="black" stroke="black" points="99.25,-433.04 109.41,-430.03 99.59,-426.04 99.25,-433.04"/>
</g>
<!-- 1463474756032 -->
<g id="node2" class="node">
<title>1463474756032</title>
<polygon fill="white" stroke="black" points="347.38,-697.11 254.12,-697.11 254.12,-661.11 347.38,-661.11 347.38,-697.11"/>
<text text-anchor="middle" x="300.75" y="-674.83" font-family="Times New Roman,serif" font-size="12.00">Appeal to Judge</text>
</g>
<!-- 1463474756032&#45;&gt;1463474756272 -->
<g id="edge2" class="edge">
<title>1463474756032&#45;&gt;1463474756272</title>
<path fill="none" stroke="black" d="M253.63,-684.56C234.96,-681.89 214.55,-674.96 200.5,-661.11 150.48,-611.78 140.15,-524.98 138.43,-474.7"/>
<polygon fill="black" stroke="black" points="141.93,-474.77 138.2,-464.86 134.93,-474.94 141.93,-474.77"/>
</g>
<!-- 1463474755648 -->
<g id="node3" class="node">
<title>1463474755648</title>
<polygon fill="white" stroke="black" points="387.88,-643.11 213.62,-643.11 213.62,-607.11 387.88,-607.11 387.88,-643.11"/>
<text text-anchor="middle" x="300.75" y="-620.83" font-family="Times New Roman,serif" font-size="12.00">Notify Result Appeal to Offender</text>
</g>
<!-- 1463474755648&#45;&gt;1463474756272 -->
<g id="edge5" class="edge">
<title>1463474755648&#45;&gt;1463474756272</title>
<path fill="none" stroke="black" d="M213.56,-616.52C208.88,-613.82 204.47,-610.7 200.5,-607.11 162.88,-573.07 147.92,-513.67 142.09,-474.47"/>
<polygon fill="black" stroke="black" points="145.59,-474.2 140.79,-464.75 138.65,-475.12 145.59,-474.2"/>
</g>
<!-- 1463474755456 -->
<g id="node4" class="node">
<title>1463474755456</title>
<polygon fill="white" stroke="black" points="370.62,-589.11 230.88,-589.11 230.88,-553.11 370.62,-553.11 370.62,-589.11"/>
<text text-anchor="middle" x="300.75" y="-566.83" font-family="Times New Roman,serif" font-size="12.00">Send Appeal to Prefecture</text>
</g>
<!-- 1463474755456&#45;&gt;1463474756272 -->
<g id="edge8" class="edge">
<title>1463474755456&#45;&gt;1463474756272</title>
<path fill="none" stroke="black" d="M230.5,-568.71C219.77,-565.03 209.33,-559.93 200.5,-553.11 174.75,-533.22 157.85,-499.39 148.29,-473.05"/>
<polygon fill="black" stroke="black" points="151.65,-472.07 145.13,-463.72 145.02,-474.32 151.65,-472.07"/>
</g>
<!-- 1463474755264 -->
<g id="node5" class="node">
<title>1463474755264</title>
<polygon fill="white" stroke="black" points="371,-535.11 230.5,-535.11 230.5,-499.11 371,-499.11 371,-535.11"/>
<text text-anchor="middle" x="300.75" y="-512.83" font-family="Times New Roman,serif" font-size="12.00">Send for Credit Collection</text>
</g>
<!-- 1463474755264&#45;&gt;1463474756272 -->
<g id="edge10" class="edge">
<title>1463474755264&#45;&gt;1463474756272</title>
<path fill="none" stroke="black" d="M230.13,-511.38C219.9,-508.12 209.71,-504.03 200.5,-499.11 185.61,-491.15 171.24,-479.01 160.1,-467.37"/>
<polygon fill="black" stroke="black" points="162.9,-465.26 153.6,-460.18 157.7,-469.95 162.9,-465.26"/>
</g>
<!-- 1463474755072 -->
<g id="node6" class="node">
<title>1463474755072</title>
<polygon fill="black" stroke="black" points="327.75,-155.11 273.75,-155.11 273.75,-119.11 327.75,-119.11 327.75,-155.11"/>
</g>
<!-- 1463482739408 -->
<g id="node20" class="node">
<title>1463482739408</title>
<ellipse fill="white" stroke="black" cx="464" cy="-137.11" rx="27" ry="27"/>
</g>
<!-- 1463474755072&#45;&gt;1463482739408 -->
<g id="edge13" class="edge">
<title>1463474755072&#45;&gt;1463482739408</title>
<path fill="none" stroke="black" d="M328.02,-137.11C354.49,-137.11 395.59,-137.11 425.49,-137.11"/>
<polygon fill="black" stroke="black" points="425.23,-140.61 435.23,-137.11 425.23,-133.61 425.23,-140.61"/>
</g>
<!-- 1463474756176 -->
<g id="node7" class="node">
<title>1463474756176</title>
<polygon fill="white" stroke="black" points="384.5,-481.11 217,-481.11 217,-445.11 384.5,-445.11 384.5,-481.11"/>
<text text-anchor="middle" x="300.75" y="-458.83" font-family="Times New Roman,serif" font-size="12.00">Insert Date Appeal to Prefecture</text>
</g>
<!-- 1463474756176&#45;&gt;1463474756272 -->
<g id="edge3" class="edge">
<title>1463474756176&#45;&gt;1463474756272</title>
<path fill="none" stroke="black" d="M216.8,-455.97C201.84,-453.43 187,-450.6 174.32,-447.83"/>
<polygon fill="black" stroke="black" points="175.35,-444.47 164.82,-445.64 173.78,-451.29 175.35,-444.47"/>
</g>
<!-- 1463474755936 -->
<g id="node8" class="node">
<title>1463474755936</title>
<polygon fill="white" stroke="black" points="401,-427.11 200.5,-427.11 200.5,-391.11 401,-391.11 401,-427.11"/>
<text text-anchor="middle" x="300.75" y="-404.83" font-family="Times New Roman,serif" font-size="12.00">Receive Result Appeal from Prefecture</text>
</g>
<!-- 1463474755936&#45;&gt;1463474756272 -->
<g id="edge7" class="edge">
<title>1463474755936&#45;&gt;1463474756272</title>
<path fill="none" stroke="black" d="M229.3,-427.61C210.86,-430.87 191.69,-433.78 175.75,-435.66"/>
<polygon fill="black" stroke="black" points="175.84,-432.13 166.27,-436.69 176.59,-439.09 175.84,-432.13"/>
</g>
<!-- 1463474755744 -->
<g id="node9" class="node">
<title>1463474755744</title>
<polygon fill="white" stroke="black" points="363.5,-373.11 238,-373.11 238,-337.11 363.5,-337.11 363.5,-373.11"/>
<text text-anchor="middle" x="300.75" y="-350.83" font-family="Times New Roman,serif" font-size="12.00">Insert Fine Notification</text>
</g>
<!-- 1463474755744&#45;&gt;1463474756272 -->
<g id="edge4" class="edge">
<title>1463474755744&#45;&gt;1463474756272</title>
<path fill="none" stroke="black" d="M246.3,-373.57C230.96,-378 214.59,-383.57 200.5,-391.11 189.24,-397.13 178.29,-405.53 168.79,-413.53"/>
<polygon fill="black" stroke="black" points="166.59,-410.81 161.32,-420 171.17,-416.1 166.59,-410.81"/>
</g>
<!-- 1463474755552 -->
<g id="node10" class="node">
<title>1463474755552</title>
<polygon fill="white" stroke="black" points="329.38,-319.11 272.12,-319.11 272.12,-283.11 329.38,-283.11 329.38,-319.11"/>
<text text-anchor="middle" x="300.75" y="-296.83" font-family="Times New Roman,serif" font-size="12.00">Payment</text>
</g>
<!-- 1463474755552&#45;&gt;1463474756272 -->
<g id="edge6" class="edge">
<title>1463474755552&#45;&gt;1463474756272</title>
<path fill="none" stroke="black" d="M271.95,-310.28C250.51,-314.63 221.13,-321.17 200.5,-337.11 179.13,-353.61 163.85,-379.72 153.81,-401.09"/>
<polygon fill="black" stroke="black" points="150.69,-399.5 149.79,-410.06 157.07,-402.37 150.69,-399.5"/>
</g>
<!-- 1463474755360 -->
<g id="node11" class="node">
<title>1463474755360</title>
<polygon fill="white" stroke="black" points="332.75,-265.11 268.75,-265.11 268.75,-229.11 332.75,-229.11 332.75,-265.11"/>
<text text-anchor="middle" x="300.75" y="-242.83" font-family="Times New Roman,serif" font-size="12.00">Send Fine</text>
</g>
<!-- 1463474755360&#45;&gt;1463474756272 -->
<g id="edge9" class="edge">
<title>1463474755360&#45;&gt;1463474756272</title>
<path fill="none" stroke="black" d="M268.5,-255.91C246.98,-259.83 219.04,-266.34 200.5,-283.11 167.2,-313.24 151.65,-363.25 144.48,-397.96"/>
<polygon fill="black" stroke="black" points="141.08,-397.14 142.64,-407.61 147.95,-398.45 141.08,-397.14"/>
</g>
<!-- 1463474755168 -->
<g id="node12" class="node">
<title>1463474755168</title>
<polygon fill="black" stroke="black" points="785.75,-79.11 731.75,-79.11 731.75,-43.11 785.75,-43.11 785.75,-79.11"/>
</g>
<!-- 1463474755168&#45;&gt;1463474756272 -->
<g id="edge11" class="edge">
<title>1463474755168&#45;&gt;1463474756272</title>
<path fill="none" stroke="black" d="M753.97,-79.34C747.3,-106.52 730.72,-157.15 695.75,-182.11 647.37,-216.64 622.81,-201.11 563.38,-201.11 463,-201.11 463,-201.11 463,-201.11 346.03,-201.11 291.32,-146.4 200.5,-220.11 172.93,-242.49 153.22,-342.27 144.13,-398.05"/>
<polygon fill="black" stroke="black" points="140.7,-397.32 142.59,-407.75 147.61,-398.42 140.7,-397.32"/>
</g>
<!-- 1463474756464 -->
<g id="node18" class="node">
<title>1463474756464</title>
<ellipse fill="white" stroke="black" cx="848.75" cy="-31.11" rx="27" ry="27"/>
</g>
<!-- 1463474755168&#45;&gt;1463474756464 -->
<g id="edge12" class="edge">
<title>1463474755168&#45;&gt;1463474756464</title>
<path fill="none" stroke="black" d="M786.15,-52.11C794.34,-49.32 803.5,-46.19 812.2,-43.23"/>
<polygon fill="black" stroke="black" points="813.1,-46.62 821.44,-40.08 810.85,-39.99 813.1,-46.62"/>
</g>
<!-- 1463482738736 -->
<g id="node13" class="node">
<title>1463482738736</title>
<polygon fill="white" stroke="black" points="597.75,-65.11 527,-65.11 527,-29.11 597.75,-29.11 597.75,-65.11"/>
<text text-anchor="middle" x="562.38" y="-42.83" font-family="Times New Roman,serif" font-size="12.00">Create Fine</text>
</g>
<!-- 1463482738928 -->
<g id="node19" class="node">
<title>1463482738928</title>
<ellipse fill="white" stroke="black" cx="664.75" cy="-61.11" rx="27" ry="27"/>
</g>
<!-- 1463482738736&#45;&gt;1463482738928 -->
<g id="edge14" class="edge">
<title>1463482738736&#45;&gt;1463482738928</title>
<path fill="none" stroke="black" d="M598.2,-51.97C607.28,-53.23 617.1,-54.6 626.3,-55.89"/>
<polygon fill="black" stroke="black" points="625.65,-59.33 636.04,-57.24 626.62,-52.39 625.65,-59.33"/>
</g>
<!-- 1463482739888 -->
<g id="node14" class="node">
<title>1463482739888</title>
<polygon fill="black" stroke="black" points="589.38,-119.11 535.38,-119.11 535.38,-83.11 589.38,-83.11 589.38,-119.11"/>
</g>
<!-- 1463482739888&#45;&gt;1463482738928 -->
<g id="edge30" class="edge">
<title>1463482739888&#45;&gt;1463482738928</title>
<path fill="none" stroke="black" d="M589.75,-90.6C601.73,-85.82 616.06,-80.11 628.91,-74.99"/>
<polygon fill="black" stroke="black" points="629.88,-78.37 637.87,-71.42 627.28,-71.87 629.88,-78.37"/>
</g>
<!-- 1463482740272 -->
<g id="node15" class="node">
<title>1463482740272</title>
<polygon fill="black" stroke="black" points="589.38,-173.11 535.38,-173.11 535.38,-137.11 589.38,-137.11 589.38,-173.11"/>
</g>
<!-- 1463482731920 -->
<g id="node21" class="node">
<title>1463482731920</title>
<ellipse fill="white" stroke="black" cx="664.75" cy="-142.11" rx="27" ry="27"/>
<ellipse fill="none" stroke="black" cx="664.75" cy="-142.11" rx="31" ry="31"/>
<text text-anchor="start" x="655" y="-130.08" font-family="Times New Roman,serif" font-size="32.00">■</text>
</g>
<!-- 1463482740272&#45;&gt;1463482731920 -->
<g id="edge31" class="edge">
<title>1463482740272&#45;&gt;1463482731920</title>
<path fill="none" stroke="black" d="M589.75,-151.69C599.75,-150.4 611.39,-148.89 622.44,-147.46"/>
<polygon fill="black" stroke="black" points="622.68,-150.96 632.15,-146.2 621.78,-144.01 622.68,-150.96"/>
</g>
<!-- 1463482731824 -->
<g id="node16" class="node">
<title>1463482731824</title>
<ellipse fill="white" stroke="black" cx="464" cy="-56.11" rx="27" ry="27"/>
<text text-anchor="start" x="453.88" y="-42.93" font-family="Times New Roman,serif" font-size="34.00">●</text>
</g>
<!-- 1463482731824&#45;&gt;1463482738736 -->
<g id="edge32" class="edge">
<title>1463482731824&#45;&gt;1463482738736</title>
<path fill="none" stroke="black" d="M491.33,-53.65C498.84,-52.95 507.25,-52.16 515.57,-51.39"/>
<polygon fill="black" stroke="black" points="515.61,-54.9 525.24,-50.48 514.96,-47.93 515.61,-54.9"/>
</g>
<!-- 1463474756272&#45;&gt;1463474755840 -->
<g id="edge15" class="edge">
<title>1463474756272&#45;&gt;1463474755840</title>
<path fill="none" stroke="black" d="M110.92,-442.12C103.35,-442.63 94.81,-442.88 86.31,-442.86"/>
<polygon fill="black" stroke="black" points="86.41,-439.36 76.35,-442.68 86.29,-446.36 86.41,-439.36"/>
</g>
<!-- 1463474756272&#45;&gt;1463474756032 -->
<g id="edge16" class="edge">
<title>1463474756272&#45;&gt;1463474756032</title>
<path fill="none" stroke="black" d="M138.44,-463.37C140.22,-507.52 150.64,-593.93 200.5,-643.11 211.81,-654.26 227.23,-660.92 242.55,-665.24"/>
<polygon fill="black" stroke="black" points="241.61,-668.61 252.16,-667.64 243.3,-661.82 241.61,-668.61"/>
</g>
<!-- 1463474756272&#45;&gt;1463474755648 -->
<g id="edge19" class="edge">
<title>1463474756272&#45;&gt;1463474755648</title>
<path fill="none" stroke="black" d="M142.36,-463.12C148.37,-497.41 163.43,-555.57 200.5,-589.11 206.4,-594.44 213.24,-598.74 220.53,-602.24"/>
<polygon fill="black" stroke="black" points="219.11,-605.44 229.68,-606.1 221.83,-598.99 219.11,-605.44"/>
</g>
<!-- 1463474756272&#45;&gt;1463474755456 -->
<g id="edge22" class="edge">
<title>1463474756272&#45;&gt;1463474755456</title>
<path fill="none" stroke="black" d="M149.17,-460.78C158.87,-483.4 175.52,-515.81 200.5,-535.11 207.73,-540.7 216.04,-545.13 224.71,-548.72"/>
<polygon fill="black" stroke="black" points="223.4,-551.96 233.99,-552.17 225.84,-545.4 223.4,-551.96"/>
</g>
<!-- 1463474756272&#45;&gt;1463474755264 -->
<g id="edge24" class="edge">
<title>1463474756272&#45;&gt;1463474755264</title>
<path fill="none" stroke="black" d="M160.18,-451.22C171.31,-461.07 185.65,-473.17 200.5,-481.11 211.29,-486.88 223.42,-491.49 235.39,-495.33"/>
<polygon fill="black" stroke="black" points="234.26,-498.65 244.85,-498.21 236.3,-491.95 234.26,-498.65"/>
</g>
<!-- 1463474756272&#45;&gt;1463474755072 -->
<g id="edge25" class="edge">
<title>1463474756272&#45;&gt;1463474755072</title>
<path fill="none" stroke="black" d="M138.19,-408.96C139.02,-359.47 147.39,-253.59 200.5,-187.11 216.12,-167.56 241.38,-154.98 262.51,-147.34"/>
<polygon fill="black" stroke="black" points="263.62,-150.66 271.99,-144.16 261.4,-144.02 263.62,-150.66"/>
</g>
<!-- 1463474756272&#45;&gt;1463474756176 -->
<g id="edge17" class="edge">
<title>1463474756272&#45;&gt;1463474756176</title>
<path fill="none" stroke="black" d="M164.77,-435.37C179.46,-436.77 198.67,-439.45 217.97,-442.66"/>
<polygon fill="black" stroke="black" points="217.36,-446.11 227.81,-444.35 218.55,-439.21 217.36,-446.11"/>
</g>
<!-- 1463474756272&#45;&gt;1463474755936 -->
<g id="edge21" class="edge">
<title>1463474756272&#45;&gt;1463474755936</title>
<path fill="none" stroke="black" d="M163.34,-426.91C170.83,-425.09 179.59,-423.2 188.98,-421.34"/>
<polygon fill="black" stroke="black" points="189.61,-424.79 198.77,-419.47 188.29,-417.91 189.61,-424.79"/>
</g>
<!-- 1463474756272&#45;&gt;1463474755744 -->
<g id="edge18" class="edge">
<title>1463474756272&#45;&gt;1463474755744</title>
<path fill="none" stroke="black" d="M152.58,-413.16C164.3,-399.34 182,-383 200.5,-373.11 208.76,-368.69 217.81,-364.95 226.97,-361.87"/>
<polygon fill="black" stroke="black" points="227.75,-365.29 236.28,-359 225.7,-358.6 227.75,-365.29"/>
</g>
<!-- 1463474756272&#45;&gt;1463474755552 -->
<g id="edge20" class="edge">
<title>1463474756272&#45;&gt;1463474755552</title>
<path fill="none" stroke="black" d="M144.64,-409.93C153.2,-382.78 171.07,-341.84 200.5,-319.11 217.67,-305.85 240.89,-299.09 260.56,-296.62"/>
<polygon fill="black" stroke="black" points="260.79,-300.11 270.44,-295.75 260.18,-293.14 260.79,-300.11"/>
</g>
<!-- 1463474756272&#45;&gt;1463474755360 -->
<g id="edge23" class="edge">
<title>1463474756272&#45;&gt;1463474755360</title>
<path fill="none" stroke="black" d="M140.59,-408.97C145.13,-370.81 159.08,-302.59 200.5,-265.11 215.92,-251.15 237.86,-244.31 257.19,-241.84"/>
<polygon fill="black" stroke="black" points="257.33,-245.34 266.99,-240.99 256.73,-238.37 257.33,-245.34"/>
</g>
<!-- 1463474756464&#45;&gt;1463474755072 -->
<g id="edge26" class="edge">
<title>1463474756464&#45;&gt;1463474755072</title>
<path fill="none" stroke="black" d="M822.35,-24.23C787.37,-15.37 722.27,-1.11 665.75,-1.11 561.38,-1.11 561.38,-1.11 561.38,-1.11 505.46,-1.11 487.77,3.32 437,-20.11 390.96,-41.36 348.61,-83.11 323.99,-110.56"/>
<polygon fill="black" stroke="black" points="321.61,-107.97 317.63,-117.79 326.87,-112.59 321.61,-107.97"/>
</g>
<!-- 1463482738928&#45;&gt;1463474755168 -->
<g id="edge27" class="edge">
<title>1463482738928&#45;&gt;1463474755168</title>
<path fill="none" stroke="black" d="M691.87,-61.11C700.71,-61.11 710.76,-61.11 720.3,-61.11"/>
<polygon fill="black" stroke="black" points="720.05,-64.61 730.05,-61.11 720.05,-57.61 720.05,-64.61"/>
</g>
<!-- 1463482739408&#45;&gt;1463482739888 -->
<g id="edge28" class="edge">
<title>1463482739408&#45;&gt;1463482739888</title>
<path fill="none" stroke="black" d="M489.82,-127.84C500.3,-123.92 512.73,-119.28 524.26,-114.97"/>
<polygon fill="black" stroke="black" points="525.39,-118.29 533.53,-111.51 522.94,-111.73 525.39,-118.29"/>
</g>
<!-- 1463482739408&#45;&gt;1463482740272 -->
<g id="edge29" class="edge">
<title>1463482739408&#45;&gt;1463482740272</title>
<path fill="none" stroke="black" d="M490.83,-141.93C501.01,-143.83 512.9,-146.05 523.98,-148.12"/>
<polygon fill="black" stroke="black" points="523.18,-151.53 533.65,-149.93 524.47,-144.65 523.18,-151.53"/>
</g>
</g>
</svg>
