<?xml version="1.0" encoding="UTF-8" standalone="no"?>
<!DOCTYPE svg PUBLIC "-//W3C//DTD SVG 1.1//EN"
 "http://www.w3.org/Graphics/SVG/1.1/DTD/svg11.dtd">
<!-- Generated by graphviz version 12.2.0 (20241103.1931)
 -->
<!-- Title: imsfs Pages: 1 -->
<svg width="1951pt" height="1091pt"
 viewBox="0.00 0.00 1951.25 1090.65" xmlns="http://www.w3.org/2000/svg" xmlns:xlink="http://www.w3.org/1999/xlink">
<g id="graph0" class="graph" transform="scale(1 1) rotate(0) translate(4 1086.65)">
<title>imsfs</title>
<polygon fill="white" stroke="none" points="-4,4 -4,-1086.65 1947.25,-1086.65 1947.25,4 -4,4"/>
<!-- 2111353375616 -->
<g id="node1" class="node">
<title>2111353375616</title>
<polygon fill="white" stroke="black" points="608.5,-500.4 336,-500.4 336,-464.4 608.5,-464.4 608.5,-500.4"/>
<text text-anchor="middle" x="472.25" y="-478.12" font-family="Times New Roman,serif" font-size="12.00">Declaration FINAL_APPROVED by SUPERVISOR</text>
</g>
<!-- 2111353380848 -->
<g id="node13" class="node">
<title>2111353380848</title>
<ellipse fill="white" stroke="black" cx="677.5" cy="-357.4" rx="27" ry="27"/>
</g>
<!-- 2111353375616&#45;&gt;2111353380848 -->
<g id="edge1" class="edge">
<title>2111353375616&#45;&gt;2111353380848</title>
<path fill="none" stroke="black" d="M503.24,-463.96C540.95,-440.76 605.43,-401.11 644.2,-377.27"/>
<polygon fill="black" stroke="black" points="645.96,-380.29 652.65,-372.07 642.29,-374.33 645.96,-380.29"/>
<text text-anchor="middle" x="629.5" y="-390.46" font-family="Times New Roman,serif" font-size="12.00">1</text>
</g>
<!-- 2111353382096 -->
<g id="node14" class="node">
<title>2111353382096</title>
<ellipse fill="white" stroke="black" cx="749.5" cy="-539.4" rx="27" ry="27"/>
</g>
<!-- 2111353375616&#45;&gt;2111353382096 -->
<g id="edge2" class="edge">
<title>2111353375616&#45;&gt;2111353382096</title>
<path fill="none" stroke="black" d="M562.24,-500.83C612.91,-511.32 673.68,-523.91 711.7,-531.78"/>
<polygon fill="black" stroke="black" points="710.75,-535.16 721.25,-533.76 712.17,-528.3 710.75,-535.16"/>
<text text-anchor="middle" x="629.5" y="-517.41" font-family="Times New Roman,serif" font-size="12.00">1</text>
</g>
<!-- 2111353382912 -->
<g id="node15" class="node">
<title>2111353382912</title>
<ellipse fill="white" stroke="black" cx="677.5" cy="-690.4" rx="27" ry="27"/>
</g>
<!-- 2111353375616&#45;&gt;2111353382912 -->
<g id="edge3" class="edge">
<title>2111353375616&#45;&gt;2111353382912</title>
<path fill="none" stroke="black" d="M547.46,-500.88C577.45,-511.69 610.17,-528.27 632.5,-553.15 657.07,-580.52 667.93,-621.71 672.72,-651.82"/>
<polygon fill="black" stroke="black" points="669.25,-652.26 674.12,-661.67 676.18,-651.28 669.25,-652.26"/>
<text text-anchor="middle" x="629.5" y="-556" font-family="Times New Roman,serif" font-size="12.00">1</text>
</g>
<!-- 2111353382480 -->
<g id="node17" class="node">
<title>2111353382480</title>
<ellipse fill="white" stroke="black" cx="962" cy="-629.4" rx="27" ry="27"/>
</g>
<!-- 2111353375616&#45;&gt;2111353382480 -->
<g id="edge4" class="edge">
<title>2111353375616&#45;&gt;2111353382480</title>
<path fill="none" stroke="black" d="M608.75,-470.47C722.36,-463.63 872.9,-462.99 917,-502.4 946.12,-528.42 920.31,-552.22 935,-588.4 936.32,-591.65 937.9,-594.93 939.62,-598.15"/>
<polygon fill="black" stroke="black" points="936.59,-599.9 944.67,-606.75 942.63,-596.36 936.59,-599.9"/>
<text text-anchor="middle" x="749.5" y="-471.12" font-family="Times New Roman,serif" font-size="12.00">1</text>
</g>
<!-- 2111353388768 -->
<g id="node18" class="node">
<title>2111353388768</title>
<ellipse fill="white" stroke="black" cx="1377" cy="-471.4" rx="27" ry="27"/>
</g>
<!-- 2111353375616&#45;&gt;2111353388768 -->
<g id="edge5" class="edge">
<title>2111353375616&#45;&gt;2111353388768</title>
<path fill="none" stroke="black" d="M571.65,-463.92C657.27,-446.99 784.32,-419.85 893,-388.4 912.04,-382.89 915.47,-376.78 935,-373.4 958.65,-369.3 965.07,-371.57 989,-373.4 1132.02,-384.32 1172.04,-376.68 1308,-422.4 1322.58,-427.3 1336.72,-436.52 1348.29,-445.64"/>
<polygon fill="black" stroke="black" points="1345.89,-448.19 1355.82,-451.89 1350.36,-442.81 1345.89,-448.19"/>
<text text-anchor="middle" x="914" y="-384.25" font-family="Times New Roman,serif" font-size="12.00">1</text>
</g>
<!-- 2111353374320 -->
<g id="node21" class="node">
<title>2111353374320</title>
<ellipse fill="white" stroke="black" cx="1377" cy="-347.4" rx="27" ry="27"/>
</g>
<!-- 2111353375616&#45;&gt;2111353374320 -->
<g id="edge6" class="edge">
<title>2111353375616&#45;&gt;2111353374320</title>
<path fill="none" stroke="black" d="M521.05,-463.94C632.86,-421.14 909.37,-317.5 1007,-301.4 1009.63,-300.97 1010.34,-301.23 1013,-301.4 1132.67,-308.95 1273.21,-330.37 1338.79,-341.11"/>
<polygon fill="black" stroke="black" points="1338.21,-344.56 1348.64,-342.74 1339.35,-337.65 1338.21,-344.56"/>
<text text-anchor="middle" x="914" y="-328.19" font-family="Times New Roman,serif" font-size="12.00">1</text>
</g>
<!-- 2111353373552 -->
<g id="node22" class="node">
<title>2111353373552</title>
<ellipse fill="white" stroke="black" cx="1377" cy="-640.4" rx="27" ry="27"/>
</g>
<!-- 2111353375616&#45;&gt;2111353373552 -->
<g id="edge7" class="edge">
<title>2111353375616&#45;&gt;2111353373552</title>
<path fill="none" stroke="black" d="M517.82,-500.8C555.43,-518.9 607.07,-550.39 632.5,-595.4 658.81,-641.97 618.72,-792.38 650.5,-835.4 687.44,-885.4 849.91,-925.87 911,-937.4 1094.13,-971.98 1181.41,-939.17 1308,-802.4 1329.53,-779.14 1314.41,-762.9 1326,-733.4 1334.23,-712.43 1346.08,-690.17 1356.18,-672.68"/>
<polygon fill="black" stroke="black" points="1359.06,-674.68 1361.12,-664.29 1353.03,-671.13 1359.06,-674.68"/>
<text text-anchor="middle" x="914" y="-941.22" font-family="Times New Roman,serif" font-size="12.00">1</text>
</g>
<!-- 2111353372928 -->
<g id="node23" class="node">
<title>2111353372928</title>
<ellipse fill="white" stroke="black" cx="962" cy="-1013.4" rx="27" ry="27"/>
</g>
<!-- 2111353375616&#45;&gt;2111353372928 -->
<g id="edge8" class="edge">
<title>2111353375616&#45;&gt;2111353372928</title>
<path fill="none" stroke="black" d="M477.28,-500.87C491.39,-561.88 543.56,-760.03 650.5,-883.4 723.08,-967.13 858.49,-998.15 923.83,-1008.6"/>
<polygon fill="black" stroke="black" points="922.91,-1012 933.32,-1010.04 923.96,-1005.08 922.91,-1012"/>
<text text-anchor="middle" x="749.5" y="-969.75" font-family="Times New Roman,serif" font-size="12.00">1</text>
</g>
<!-- 2111353375808 -->
<g id="node2" class="node">
<title>2111353375808</title>
<polygon fill="white" stroke="black" points="1647.25,-272.4 1446,-272.4 1446,-236.4 1647.25,-236.4 1647.25,-272.4"/>
<text text-anchor="middle" x="1546.62" y="-250.12" font-family="Times New Roman,serif" font-size="12.00">Declaration REJECTED by MISSING</text>
</g>
<!-- 2111353374992 -->
<g id="node19" class="node">
<title>2111353374992</title>
<ellipse fill="white" stroke="black" cx="1716.25" cy="-254.4" rx="27" ry="27"/>
</g>
<!-- 2111353375808&#45;&gt;2111353374992 -->
<g id="edge15" class="edge">
<title>2111353375808&#45;&gt;2111353374992</title>
<path fill="none" stroke="black" d="M1647.55,-254.4C1658.18,-254.4 1668.45,-254.4 1677.64,-254.4"/>
<polygon fill="black" stroke="black" points="1677.53,-257.9 1687.53,-254.4 1677.53,-250.9 1677.53,-257.9"/>
<text text-anchor="middle" x="1668.25" y="-257.25" font-family="Times New Roman,serif" font-size="12.00">1</text>
</g>
<!-- 2111353375712 -->
<g id="node3" class="node">
<title>2111353375712</title>
<polygon fill="white" stroke="black" points="1282.12,-47.4 1056.88,-47.4 1056.88,-11.4 1282.12,-11.4 1282.12,-47.4"/>
<text text-anchor="middle" x="1169.5" y="-25.12" font-family="Times New Roman,serif" font-size="12.00">Declaration REJECTED by SUPERVISOR</text>
</g>
<!-- 2111353375712&#45;&gt;2111353374992 -->
<g id="edge16" class="edge">
<title>2111353375712&#45;&gt;2111353374992</title>
<path fill="none" stroke="black" d="M1277.49,-47.86C1287.85,-50.18 1298.16,-52.7 1308,-55.4 1457.04,-96.37 1617.12,-191.62 1683.56,-233.74"/>
<polygon fill="black" stroke="black" points="1681.45,-236.54 1691.76,-238.97 1685.21,-230.64 1681.45,-236.54"/>
<text text-anchor="middle" x="1425" y="-99.45" font-family="Times New Roman,serif" font-size="12.00">1</text>
</g>
<!-- 2111353375136 -->
<g id="node4" class="node">
<title>2111353375136</title>
<polygon fill="white" stroke="black" points="1597,-658.4 1496.25,-658.4 1496.25,-622.4 1597,-622.4 1597,-658.4"/>
<text text-anchor="middle" x="1546.62" y="-636.12" font-family="Times New Roman,serif" font-size="12.00">Payment Handled</text>
</g>
<!-- 2111353375136&#45;&gt;2111353374992 -->
<g id="edge17" class="edge">
<title>2111353375136&#45;&gt;2111353374992</title>
<path fill="none" stroke="black" d="M1555.6,-622.04C1581.76,-561.8 1665.29,-369.44 1699.95,-289.62"/>
<polygon fill="black" stroke="black" points="1703.13,-291.09 1703.91,-280.52 1696.71,-288.3 1703.13,-291.09"/>
<text text-anchor="middle" x="1668.25" y="-371.31" font-family="Times New Roman,serif" font-size="12.00">1</text>
</g>
<!-- 2111353375328 -->
<g id="node5" class="node">
<title>2111353375328</title>
<polygon fill="white" stroke="black" points="893,-863.4 794.5,-863.4 794.5,-827.4 893,-827.4 893,-863.4"/>
<text text-anchor="middle" x="843.75" y="-841.12" font-family="Times New Roman,serif" font-size="12.00">Request Payment</text>
</g>
<!-- 2111353383872 -->
<g id="node16" class="node">
<title>2111353383872</title>
<ellipse fill="white" stroke="black" cx="962" cy="-853.4" rx="27" ry="27"/>
</g>
<!-- 2111353375328&#45;&gt;2111353383872 -->
<g id="edge18" class="edge">
<title>2111353375328&#45;&gt;2111353383872</title>
<path fill="none" stroke="black" d="M893.45,-834.98C901.35,-834.49 909.42,-834.72 917,-836.15 920.17,-836.75 923.41,-837.57 926.62,-838.54"/>
<polygon fill="black" stroke="black" points="925.25,-841.77 935.84,-841.74 927.55,-835.15 925.25,-841.77"/>
<text text-anchor="middle" x="914" y="-839" font-family="Times New Roman,serif" font-size="12.00">1</text>
</g>
<!-- 2111353375328&#45;&gt;2111353373552 -->
<g id="edge19" class="edge">
<title>2111353375328&#45;&gt;2111353373552</title>
<path fill="none" stroke="black" d="M872.62,-863.83C901.64,-880.69 948.43,-901.32 989,-889.4 1140.6,-844.84 1288.94,-720.52 1348.57,-666.27"/>
<polygon fill="black" stroke="black" points="1350.6,-669.16 1355.6,-659.82 1345.87,-664 1350.6,-669.16"/>
<text text-anchor="middle" x="1010" y="-886.56" font-family="Times New Roman,serif" font-size="12.00">1</text>
</g>
<!-- 2111353375328&#45;&gt;2111353372928 -->
<g id="edge20" class="edge">
<title>2111353375328&#45;&gt;2111353372928</title>
<path fill="none" stroke="black" d="M864.88,-863.84C880.42,-878.8 901.78,-900.96 917,-923.15 928.68,-940.17 938.96,-960.76 946.65,-977.97"/>
<polygon fill="black" stroke="black" points="943.29,-979.02 950.49,-986.8 949.71,-976.23 943.29,-979.02"/>
<text text-anchor="middle" x="914" y="-926" font-family="Times New Roman,serif" font-size="12.00">1</text>
</g>
<!-- 2111353375232 -->
<g id="node6" class="node">
<title>2111353375232</title>
<polygon fill="black" stroke="black" points="150,-504.4 96,-504.4 96,-468.4 150,-468.4 150,-504.4"/>
</g>
<!-- 2111353380416 -->
<g id="node11" class="node">
<title>2111353380416</title>
<ellipse fill="white" stroke="black" cx="962" cy="-409.4" rx="27" ry="27"/>
</g>
<!-- 2111353375232&#45;&gt;2111353380416 -->
<g id="edge21" class="edge">
<title>2111353375232&#45;&gt;2111353380416</title>
<path fill="none" stroke="black" d="M124.88,-468.29C128.27,-407.55 142.87,-213.08 192,-181.4 258.03,-138.82 830.98,-226.16 893,-274.4 924.27,-298.72 942.31,-341.3 951.84,-372.15"/>
<polygon fill="black" stroke="black" points="948.4,-372.85 954.56,-381.48 955.12,-370.9 948.4,-372.85"/>
<text text-anchor="middle" x="629.5" y="-209.92" font-family="Times New Roman,serif" font-size="12.00">1</text>
</g>
<!-- 2111353380896 -->
<g id="node12" class="node">
<title>2111353380896</title>
<ellipse fill="white" stroke="black" cx="291" cy="-108.4" rx="27" ry="27"/>
</g>
<!-- 2111353375232&#45;&gt;2111353380896 -->
<g id="edge22" class="edge">
<title>2111353375232&#45;&gt;2111353380896</title>
<path fill="none" stroke="black" d="M124.89,-468.28C128.51,-398.1 143.13,-146.82 168,-122.15 189.85,-100.48 225.85,-98.88 253.1,-101.6"/>
<polygon fill="black" stroke="black" points="252.32,-105.03 262.68,-102.8 253.19,-98.08 252.32,-105.03"/>
<text text-anchor="middle" x="171" y="-125" font-family="Times New Roman,serif" font-size="12.00">1</text>
</g>
<!-- 2111353375232&#45;&gt;2111353380848 -->
<g id="edge23" class="edge">
<title>2111353375232&#45;&gt;2111353380848</title>
<path fill="none" stroke="black" d="M150.28,-480.26C240.1,-459.29 535.14,-390.41 639.51,-366.04"/>
<polygon fill="black" stroke="black" points="640.29,-369.45 649.23,-363.77 638.7,-362.63 640.29,-369.45"/>
<text text-anchor="middle" x="291" y="-456.25" font-family="Times New Roman,serif" font-size="12.00">1</text>
</g>
<!-- 2111353375232&#45;&gt;2111353382096 -->
<g id="edge24" class="edge">
<title>2111353375232&#45;&gt;2111353382096</title>
<path fill="none" stroke="black" d="M150.49,-492.5C224.96,-509.29 442.67,-555.96 626.5,-571.4 656.78,-573.94 690.07,-564.33 714.22,-554.99"/>
<polygon fill="black" stroke="black" points="715.28,-558.34 723.22,-551.33 712.64,-551.85 715.28,-558.34"/>
<text text-anchor="middle" x="291" y="-529.21" font-family="Times New Roman,serif" font-size="12.00">1</text>
</g>
<!-- 2111353375232&#45;&gt;2111353382912 -->
<g id="edge25" class="edge">
<title>2111353375232&#45;&gt;2111353382912</title>
<path fill="none" stroke="black" d="M126.16,-504.72C131.19,-544 145.05,-634.34 168,-653.4 307.29,-769.05 548.6,-723.52 640,-700.54"/>
<polygon fill="black" stroke="black" points="640.86,-703.93 649.67,-698.04 639.11,-697.15 640.86,-703.93"/>
<text text-anchor="middle" x="291" y="-721.61" font-family="Times New Roman,serif" font-size="12.00">1</text>
</g>
<!-- 2111353375232&#45;&gt;2111353383872 -->
<g id="edge26" class="edge">
<title>2111353375232&#45;&gt;2111353383872</title>
<path fill="none" stroke="black" d="M123.98,-504.81C124.38,-587.61 131.37,-921.4 218,-921.4 218,-921.4 218,-921.4 750.5,-921.4 824.61,-921.4 851.68,-947.41 917,-912.4 927.64,-906.7 936.42,-897.16 943.27,-887.41"/>
<polygon fill="black" stroke="black" points="946.21,-889.29 948.65,-878.98 940.31,-885.53 946.21,-889.29"/>
<text text-anchor="middle" x="629.5" y="-924.25" font-family="Times New Roman,serif" font-size="12.00">1</text>
</g>
<!-- 2111353375232&#45;&gt;2111353382480 -->
<g id="edge27" class="edge">
<title>2111353375232&#45;&gt;2111353382480</title>
<path fill="none" stroke="black" d="M150.24,-502C156.02,-505.24 162.16,-508.54 168,-511.4 238.3,-545.86 259.01,-550.15 336,-564.4 529.38,-600.19 581.01,-584.9 776.5,-606.4 827.46,-612 886.19,-619.51 923.45,-624.4"/>
<polygon fill="black" stroke="black" points="922.88,-627.85 933.25,-625.69 923.79,-620.91 922.88,-627.85"/>
<text text-anchor="middle" x="629.5" y="-597.46" font-family="Times New Roman,serif" font-size="12.00">1</text>
</g>
<!-- 2111353375232&#45;&gt;2111353388768 -->
<g id="edge28" class="edge">
<title>2111353375232&#45;&gt;2111353388768</title>
<path fill="none" stroke="black" d="M124.98,-504.78C130.49,-603.71 159.47,-1068.4 218,-1068.4 218,-1068.4 218,-1068.4 915,-1068.4 1167.11,-1068.4 1323.22,-672.46 1332,-655.4 1345,-630.16 1360.5,-555.12 1369.2,-509.04"/>
<polygon fill="black" stroke="black" points="1372.59,-509.95 1370.99,-499.48 1365.71,-508.67 1372.59,-509.95"/>
<text text-anchor="middle" x="749.5" y="-1071.25" font-family="Times New Roman,serif" font-size="12.00">1</text>
</g>
<!-- 2111353374224 -->
<g id="node20" class="node">
<title>2111353374224</title>
<ellipse fill="white" stroke="black" cx="219" cy="-217.4" rx="27" ry="27"/>
</g>
<!-- 2111353375232&#45;&gt;2111353374224 -->
<g id="edge29" class="edge">
<title>2111353375232&#45;&gt;2111353374224</title>
<path fill="none" stroke="black" d="M125.27,-468.19C129.08,-418.21 141.76,-280.17 168,-244.15 171.94,-238.75 177.3,-234.33 183.06,-230.75"/>
<polygon fill="black" stroke="black" points="184.42,-233.99 191.61,-226.21 181.14,-227.81 184.42,-233.99"/>
<text text-anchor="middle" x="171" y="-247" font-family="Times New Roman,serif" font-size="12.00">1</text>
</g>
<!-- 2111353384976 -->
<g id="node24" class="node">
<title>2111353384976</title>
<ellipse fill="white" stroke="black" cx="962" cy="-519.4" rx="27" ry="27"/>
</g>
<!-- 2111353375232&#45;&gt;2111353384976 -->
<g id="edge30" class="edge">
<title>2111353375232&#45;&gt;2111353384976</title>
<path fill="none" stroke="black" d="M131.32,-468.16C148.07,-429.13 193.31,-337.91 264,-299.4 408.16,-220.86 469.03,-259.14 632.5,-274.15 749.75,-284.92 800.04,-250.14 893,-322.4 938.61,-357.85 918.31,-390.1 935,-445.4 938.8,-457.98 943.42,-471.58 947.71,-483.66"/>
<polygon fill="black" stroke="black" points="944.33,-484.6 951.02,-492.82 950.92,-482.22 944.33,-484.6"/>
<text text-anchor="middle" x="629.5" y="-277" font-family="Times New Roman,serif" font-size="12.00">1</text>
</g>
<!-- 2111353385360 -->
<g id="node25" class="node">
<title>2111353385360</title>
<ellipse fill="white" stroke="black" cx="962" cy="-66.4" rx="27" ry="27"/>
</g>
<!-- 2111353375232&#45;&gt;2111353385360 -->
<g id="edge31" class="edge">
<title>2111353375232&#45;&gt;2111353385360</title>
<path fill="none" stroke="black" d="M124.52,-467.93C126.64,-401.69 136.08,-176.72 168,-113.4 181.73,-86.17 187.5,-66.4 218,-66.4 218,-66.4 218,-66.4 844.75,-66.4 871.05,-66.4 900.69,-66.4 923.46,-66.4"/>
<polygon fill="black" stroke="black" points="923.17,-69.9 933.17,-66.4 923.17,-62.9 923.17,-69.9"/>
<text text-anchor="middle" x="629.5" y="-69.25" font-family="Times New Roman,serif" font-size="12.00">1</text>
</g>
<!-- 2111353385936 -->
<g id="node26" class="node">
<title>2111353385936</title>
<ellipse fill="white" stroke="black" cx="677.5" cy="-799.4" rx="27" ry="27"/>
</g>
<!-- 2111353375232&#45;&gt;2111353385936 -->
<g id="edge32" class="edge">
<title>2111353375232&#45;&gt;2111353385936</title>
<path fill="none" stroke="black" d="M123.74,-504.79C124.24,-546.73 131.87,-649.68 192,-699.4 325.85,-810.06 550.53,-808.3 639.04,-802.67"/>
<polygon fill="black" stroke="black" points="639.12,-806.17 648.85,-801.98 638.63,-799.19 639.12,-806.17"/>
<text text-anchor="middle" x="291" y="-769.9" font-family="Times New Roman,serif" font-size="12.00">1</text>
</g>
<!-- 2111353376144 -->
<g id="node7" class="node">
<title>2111353376144</title>
<polygon fill="white" stroke="black" points="1298.25,-659.4 1040.75,-659.4 1040.75,-623.4 1298.25,-623.4 1298.25,-659.4"/>
<text text-anchor="middle" x="1169.5" y="-637.12" font-family="Times New Roman,serif" font-size="12.00">Declaration FOR_APPROVAL by SUPERVISOR</text>
</g>
<!-- 2111353376144&#45;&gt;2111353388768 -->
<g id="edge12" class="edge">
<title>2111353376144&#45;&gt;2111353388768</title>
<path fill="none" stroke="black" d="M1238.3,-623C1269.99,-611.57 1306.31,-594.06 1332,-568.4 1348.37,-552.05 1359.25,-528.51 1366.1,-508.71"/>
<polygon fill="black" stroke="black" points="1369.39,-509.9 1369.12,-499.31 1362.73,-507.76 1369.39,-509.9"/>
<text text-anchor="middle" x="1329" y="-574.54" font-family="Times New Roman,serif" font-size="12.00">1</text>
</g>
<!-- 2111353376144&#45;&gt;2111353374320 -->
<g id="edge13" class="edge">
<title>2111353376144&#45;&gt;2111353374320</title>
<path fill="none" stroke="black" d="M1197.79,-623.12C1233.68,-597.69 1296.36,-548.32 1332,-491.4 1333.48,-489.04 1352.48,-426.04 1365.02,-384.16"/>
<polygon fill="black" stroke="black" points="1368.34,-385.27 1367.86,-374.68 1361.64,-383.26 1368.34,-385.27"/>
<text text-anchor="middle" x="1329" y="-499.21" font-family="Times New Roman,serif" font-size="12.00">1</text>
</g>
<!-- 2111353376144&#45;&gt;2111353373552 -->
<g id="edge14" class="edge">
<title>2111353376144&#45;&gt;2111353373552</title>
<path fill="none" stroke="black" d="M1298.6,-640.78C1312.86,-640.71 1326.42,-640.64 1338.09,-640.58"/>
<polygon fill="black" stroke="black" points="1338.02,-644.08 1348,-640.54 1337.99,-637.09 1338.02,-644.08"/>
<text text-anchor="middle" x="1329" y="-643.49" font-family="Times New Roman,serif" font-size="12.00">1</text>
</g>
<!-- 2111353376048 -->
<g id="node8" class="node">
<title>2111353376048</title>
<polygon fill="white" stroke="black" points="1308,-467.4 1031,-467.4 1031,-431.4 1308,-431.4 1308,-467.4"/>
<text text-anchor="middle" x="1169.5" y="-445.12" font-family="Times New Roman,serif" font-size="12.00">Declaration FOR_APPROVAL by PRE_APPROVER</text>
</g>
<!-- 2111353376048&#45;&gt;2111353388768 -->
<g id="edge9" class="edge">
<title>2111353376048&#45;&gt;2111353388768</title>
<path fill="none" stroke="black" d="M1308.37,-434.71C1316.45,-435.94 1324.37,-437.72 1332,-440.15 1337.19,-441.81 1342.3,-444.32 1347.09,-447.23"/>
<polygon fill="black" stroke="black" points="1344.92,-449.98 1355.15,-452.72 1348.86,-444.2 1344.92,-449.98"/>
<text text-anchor="middle" x="1329" y="-443" font-family="Times New Roman,serif" font-size="12.00">1</text>
</g>
<!-- 2111353376048&#45;&gt;2111353374320 -->
<g id="edge10" class="edge">
<title>2111353376048&#45;&gt;2111353374320</title>
<path fill="none" stroke="black" d="M1207.71,-430.93C1245.93,-411.96 1304.9,-382.69 1341.92,-364.31"/>
<polygon fill="black" stroke="black" points="1343.45,-367.46 1350.85,-359.88 1340.34,-361.19 1343.45,-367.46"/>
<text text-anchor="middle" x="1329" y="-374.9" font-family="Times New Roman,serif" font-size="12.00">1</text>
</g>
<!-- 2111353376048&#45;&gt;2111353373552 -->
<g id="edge11" class="edge">
<title>2111353376048&#45;&gt;2111353373552</title>
<path fill="none" stroke="black" d="M1308.46,-461.3C1316.99,-465.52 1324.95,-470.73 1332,-477.15 1350.34,-493.85 1363.64,-559.65 1370.56,-602.44"/>
<polygon fill="black" stroke="black" points="1367.07,-602.74 1372.07,-612.08 1373.98,-601.66 1367.07,-602.74"/>
<text text-anchor="middle" x="1329" y="-480" font-family="Times New Roman,serif" font-size="12.00">1</text>
</g>
<!-- 2111353374800 -->
<g id="node9" class="node">
<title>2111353374800</title>
<polygon fill="black" stroke="black" points="1839.25,-272.4 1785.25,-272.4 1785.25,-236.4 1839.25,-236.4 1839.25,-272.4"/>
</g>
<!-- 2111353374752 -->
<g id="node27" class="node">
<title>2111353374752</title>
<ellipse fill="white" stroke="black" cx="1912.25" cy="-254.4" rx="27" ry="27"/>
<ellipse fill="none" stroke="black" cx="1912.25" cy="-254.4" rx="31" ry="31"/>
<text text-anchor="start" x="1902.5" y="-242.37" font-family="Times New Roman,serif" font-size="32.00">■</text>
</g>
<!-- 2111353374800&#45;&gt;2111353374752 -->
<g id="edge33" class="edge">
<title>2111353374800&#45;&gt;2111353374752</title>
<path fill="none" stroke="black" d="M1839.51,-254.4C1848.82,-254.4 1859.54,-254.4 1869.8,-254.4"/>
<polygon fill="black" stroke="black" points="1869.59,-257.9 1879.59,-254.4 1869.59,-250.9 1869.59,-257.9"/>
<text text-anchor="middle" x="1860.25" y="-257.25" font-family="Times New Roman,serif" font-size="12.00">1</text>
</g>
<!-- 2111282508320 -->
<g id="node10" class="node">
<title>2111282508320</title>
<ellipse fill="white" stroke="black" cx="27" cy="-486.4" rx="27" ry="27"/>
<text text-anchor="start" x="16.88" y="-473.22" font-family="Times New Roman,serif" font-size="34.00">●</text>
</g>
<!-- 2111282508320&#45;&gt;2111353375232 -->
<g id="edge34" class="edge">
<title>2111282508320&#45;&gt;2111353375232</title>
<path fill="none" stroke="black" d="M54.43,-486.4C63.72,-486.4 74.35,-486.4 84.38,-486.4"/>
<polygon fill="black" stroke="black" points="84.25,-489.9 94.25,-486.4 84.25,-482.9 84.25,-489.9"/>
<text text-anchor="middle" x="75" y="-489.25" font-family="Times New Roman,serif" font-size="12.00">1</text>
</g>
<!-- 2111353380416&#45;&gt;2111353375712 -->
<g id="edge37" class="edge">
<title>2111353380416&#45;&gt;2111353375712</title>
<path fill="none" stroke="black" d="M972.76,-384.15C978.32,-368.82 984.96,-348.73 989,-330.4 1003.93,-262.56 975.17,-236.89 1007,-175.15 1034.36,-122.08 1089.53,-78.97 1127.71,-53.76"/>
<polygon fill="black" stroke="black" points="1129.26,-56.93 1135.76,-48.56 1125.46,-51.05 1129.26,-56.93"/>
<text text-anchor="middle" x="1010" y="-178" font-family="Times New Roman,serif" font-size="12.00">1</text>
</g>
<!-- 2111353380416&#45;&gt;2111353375136 -->
<g id="edge38" class="edge">
<title>2111353380416&#45;&gt;2111353375136</title>
<path fill="none" stroke="black" d="M971.98,-434.75C982.74,-464.45 1000.16,-510.28 1007,-515.4 1123.35,-602.38 1191.36,-513.77 1332,-550.15 1392.55,-565.81 1458.27,-595.7 1500.59,-616.78"/>
<polygon fill="black" stroke="black" points="1498.98,-619.88 1509.48,-621.25 1502.12,-613.63 1498.98,-619.88"/>
<text text-anchor="middle" x="1329" y="-553" font-family="Times New Roman,serif" font-size="12.00">1</text>
</g>
<!-- 2111353380416&#45;&gt;2111353376144 -->
<g id="edge36" class="edge">
<title>2111353380416&#45;&gt;2111353376144</title>
<path fill="none" stroke="black" d="M972.61,-434.52C977.85,-448.74 984.22,-466.92 989,-483.4 998.91,-517.57 984.94,-533.49 1007,-561.4 1028,-587.97 1060.11,-606.37 1090.19,-618.77"/>
<polygon fill="black" stroke="black" points="1088.72,-621.95 1099.31,-622.35 1091.28,-615.44 1088.72,-621.95"/>
<text text-anchor="middle" x="1010" y="-567.97" font-family="Times New Roman,serif" font-size="12.00">1</text>
</g>
<!-- 2111353380416&#45;&gt;2111353376048 -->
<g id="edge35" class="edge">
<title>2111353380416&#45;&gt;2111353376048</title>
<path fill="none" stroke="black" d="M987.81,-399.99C995.81,-397.99 1004.74,-396.82 1013,-398.15 1047.74,-403.73 1085.25,-415.9 1114.72,-426.98"/>
<polygon fill="black" stroke="black" points="1113.19,-430.14 1123.78,-430.45 1115.7,-423.6 1113.19,-430.14"/>
<text text-anchor="middle" x="1010" y="-401" font-family="Times New Roman,serif" font-size="12.00">1</text>
</g>
<!-- 2111353380896&#45;&gt;2111353375808 -->
<g id="edge39" class="edge">
<title>2111353380896&#45;&gt;2111353375808</title>
<path fill="none" stroke="black" d="M318.42,-109.36C435.24,-113.85 916.84,-134.93 1308,-190.4 1351.06,-196.51 1361.87,-198.58 1404,-209.4 1429.68,-216 1457.56,-224.55 1481.74,-232.42"/>
<polygon fill="black" stroke="black" points="1480.54,-235.71 1491.13,-235.51 1482.73,-229.06 1480.54,-235.71"/>
<text text-anchor="middle" x="914" y="-149.69" font-family="Times New Roman,serif" font-size="12.00">1</text>
</g>
<!-- 2111353380848&#45;&gt;2111353375808 -->
<g id="edge40" class="edge">
<title>2111353380848&#45;&gt;2111353375808</title>
<path fill="none" stroke="black" d="M694.17,-335.88C701.92,-326.3 711.87,-315.4 722.5,-307.4 796.53,-251.69 821.3,-241.6 911,-218.4 1102.93,-168.76 1338,-206.52 1461.15,-233.45"/>
<polygon fill="black" stroke="black" points="1460.35,-236.86 1470.87,-235.61 1461.87,-230.03 1460.35,-236.86"/>
<text text-anchor="middle" x="1010" y="-203.53" font-family="Times New Roman,serif" font-size="12.00">1</text>
</g>
<!-- 2111353380848&#45;&gt;2111353375328 -->
<g id="edge41" class="edge">
<title>2111353380848&#45;&gt;2111353375328</title>
<path fill="none" stroke="black" d="M682,-384.39C687.83,-426.07 701.07,-508.27 722.5,-575.4 751.67,-666.74 802.33,-768.6 827.56,-816.95"/>
<polygon fill="black" stroke="black" points="824.37,-818.41 832.12,-825.63 830.57,-815.15 824.37,-818.41"/>
<text text-anchor="middle" x="749.5" y="-713.39" font-family="Times New Roman,serif" font-size="12.00">1</text>
</g>
<!-- 2111353382096&#45;&gt;2111353375808 -->
<g id="edge42" class="edge">
<title>2111353382096&#45;&gt;2111353375808</title>
<path fill="none" stroke="black" d="M769.2,-520.96C797.14,-493.12 850.97,-438.3 893,-388.4 901.59,-378.2 900.41,-372.5 911,-364.4 1063.55,-247.65 1297.16,-238.06 1434.33,-244.38"/>
<polygon fill="black" stroke="black" points="1433.99,-247.87 1444.15,-244.87 1434.34,-240.88 1433.99,-247.87"/>
<text text-anchor="middle" x="1010" y="-310.25" font-family="Times New Roman,serif" font-size="12.00">1</text>
</g>
<!-- 2111353382096&#45;&gt;2111353375136 -->
<g id="edge43" class="edge">
<title>2111353382096&#45;&gt;2111353375136</title>
<path fill="none" stroke="black" d="M768.08,-559.5C805.8,-602.37 892.55,-699.51 911,-707.4 1112.54,-793.59 1188.53,-733.65 1404,-693.4 1436.01,-687.42 1470.25,-674.79 1497.04,-663.36"/>
<polygon fill="black" stroke="black" points="1498.14,-666.7 1505.91,-659.5 1495.34,-660.29 1498.14,-666.7"/>
<text text-anchor="middle" x="1010" y="-744.04" font-family="Times New Roman,serif" font-size="12.00">1</text>
</g>
<!-- 2111353382912&#45;&gt;2111353375328 -->
<g id="edge46" class="edge">
<title>2111353382912&#45;&gt;2111353375328</title>
<path fill="none" stroke="black" d="M697.66,-708.48C726.68,-735.87 781.92,-787.99 815.23,-819.43"/>
<polygon fill="black" stroke="black" points="812.42,-821.59 822.1,-825.91 817.23,-816.5 812.42,-821.59"/>
<text text-anchor="middle" x="749.5" y="-784.63" font-family="Times New Roman,serif" font-size="12.00">1</text>
</g>
<!-- 2111353382912&#45;&gt;2111353376144 -->
<g id="edge45" class="edge">
<title>2111353382912&#45;&gt;2111353376144</title>
<path fill="none" stroke="black" d="M704.68,-691.37C761.25,-693.06 899.02,-695.03 1013,-679.4 1040.1,-675.68 1069.35,-669.21 1095.09,-662.64"/>
<polygon fill="black" stroke="black" points="1095.63,-666.12 1104.43,-660.21 1093.87,-659.34 1095.63,-666.12"/>
<text text-anchor="middle" x="914" y="-691.6" font-family="Times New Roman,serif" font-size="12.00">1</text>
</g>
<!-- 2111353382912&#45;&gt;2111353376048 -->
<g id="edge44" class="edge">
<title>2111353382912&#45;&gt;2111353376048</title>
<path fill="none" stroke="black" d="M694.3,-668.95C702.22,-658.86 712.29,-646.96 722.5,-637.4 832.25,-534.64 859.86,-485.29 1007,-454.4 1011.08,-453.54 1015.24,-452.77 1019.44,-452.07"/>
<polygon fill="black" stroke="black" points="1019.8,-455.56 1029.17,-450.62 1018.76,-448.63 1019.8,-455.56"/>
<text text-anchor="middle" x="914" y="-485.9" font-family="Times New Roman,serif" font-size="12.00">1</text>
</g>
<!-- 2111353383872&#45;&gt;2111353375136 -->
<g id="edge49" class="edge">
<title>2111353383872&#45;&gt;2111353375136</title>
<path fill="none" stroke="black" d="M975.04,-877.28C983.71,-890.73 996.72,-904.46 1013,-902.4 1201.96,-878.43 1269.41,-900.9 1428,-795.4 1476.56,-763.1 1513.12,-703.87 1531.78,-668.73"/>
<polygon fill="black" stroke="black" points="1534.81,-670.48 1536.29,-659.99 1528.59,-667.27 1534.81,-670.48"/>
<text text-anchor="middle" x="1329" y="-854.26" font-family="Times New Roman,serif" font-size="12.00">1</text>
</g>
<!-- 2111353383872&#45;&gt;2111353376144 -->
<g id="edge48" class="edge">
<title>2111353383872&#45;&gt;2111353376144</title>
<path fill="none" stroke="black" d="M989.36,-854.25C997.54,-853.38 1006.18,-851.18 1013,-846.4 1027,-836.58 1021.6,-826.68 1031,-812.4 1066.61,-758.3 1115.56,-700.64 1144.44,-668"/>
<polygon fill="black" stroke="black" points="1146.98,-670.41 1151.01,-660.62 1141.75,-665.76 1146.98,-670.41"/>
<text text-anchor="middle" x="1010" y="-852.58" font-family="Times New Roman,serif" font-size="12.00">1</text>
</g>
<!-- 2111353383872&#45;&gt;2111353376048 -->
<g id="edge47" class="edge">
<title>2111353383872&#45;&gt;2111353376048</title>
<path fill="none" stroke="black" d="M981.67,-834.65C992.76,-822.3 1005.98,-805.18 1013,-787.4 1041.39,-715.5 1000.95,-685.63 1031,-614.4 1055.01,-557.47 1105.54,-505.12 1138.21,-475.26"/>
<polygon fill="black" stroke="black" points="1140.28,-478.11 1145.38,-468.82 1135.6,-472.9 1140.28,-478.11"/>
<text text-anchor="middle" x="1010" y="-802.42" font-family="Times New Roman,serif" font-size="12.00">1</text>
</g>
<!-- 2111353382480&#45;&gt;2111353375136 -->
<g id="edge52" class="edge">
<title>2111353382480&#45;&gt;2111353375136</title>
<path fill="none" stroke="black" d="M976.73,-652.42C984.25,-662.72 994.57,-673.78 1007,-679.4 1009.43,-680.5 1010.33,-679.41 1013,-679.4 1186.78,-678.73 1231.65,-698.63 1404,-676.4 1430.95,-672.92 1460.13,-666.06 1484.97,-659.24"/>
<polygon fill="black" stroke="black" points="1485.92,-662.61 1494.6,-656.54 1484.02,-655.87 1485.92,-662.61"/>
<text text-anchor="middle" x="1329" y="-687.22" font-family="Times New Roman,serif" font-size="12.00">1</text>
</g>
<!-- 2111353382480&#45;&gt;2111353376144 -->
<g id="edge51" class="edge">
<title>2111353382480&#45;&gt;2111353376144</title>
<path fill="none" stroke="black" d="M982.62,-647.09C989.78,-652.44 998.27,-657.63 1007,-660.4 1036.34,-669.7 1069.98,-667.63 1098.94,-662.19"/>
<polygon fill="black" stroke="black" points="1099.64,-665.62 1108.72,-660.17 1098.22,-658.77 1099.64,-665.62"/>
<text text-anchor="middle" x="1010" y="-664.49" font-family="Times New Roman,serif" font-size="12.00">1</text>
</g>
<!-- 2111353382480&#45;&gt;2111353376048 -->
<g id="edge50" class="edge">
<title>2111353382480&#45;&gt;2111353376048</title>
<path fill="none" stroke="black" d="M972.14,-604.14C977.24,-589.87 983.62,-571.69 989,-555.4 997.49,-529.67 987.72,-516.19 1007,-497.15 1017.44,-486.83 1030,-478.73 1043.44,-472.36"/>
<polygon fill="black" stroke="black" points="1044.71,-475.63 1052.48,-468.43 1041.92,-469.21 1044.71,-475.63"/>
<text text-anchor="middle" x="1010" y="-500" font-family="Times New Roman,serif" font-size="12.00">1</text>
</g>
<!-- 2111353388768&#45;&gt;2111353375808 -->
<g id="edge53" class="edge">
<title>2111353388768&#45;&gt;2111353375808</title>
<path fill="none" stroke="black" d="M1393.75,-449.91C1402.08,-438.62 1412.52,-424.58 1422,-412.15 1457.19,-366.02 1498.99,-313.06 1523.86,-281.73"/>
<polygon fill="black" stroke="black" points="1526.58,-283.93 1530.06,-273.92 1521.1,-279.57 1526.58,-283.93"/>
<text text-anchor="middle" x="1425" y="-415" font-family="Times New Roman,serif" font-size="12.00">2</text>
</g>
<!-- 2111353388768&#45;&gt;2111353375136 -->
<g id="edge54" class="edge">
<title>2111353388768&#45;&gt;2111353375136</title>
<path fill="none" stroke="black" d="M1396.58,-490.13C1426.57,-520.37 1485.71,-579.99 1519.79,-614.35"/>
<polygon fill="black" stroke="black" points="1516.88,-616.39 1526.41,-621.02 1521.85,-611.46 1516.88,-616.39"/>
<text text-anchor="middle" x="1425" y="-524.19" font-family="Times New Roman,serif" font-size="12.00">1</text>
</g>
<!-- 2111353374992&#45;&gt;2111353374800 -->
<g id="edge55" class="edge">
<title>2111353374992&#45;&gt;2111353374800</title>
<path fill="none" stroke="black" d="M1743.68,-254.4C1752.97,-254.4 1763.6,-254.4 1773.63,-254.4"/>
<polygon fill="black" stroke="black" points="1773.5,-257.9 1783.5,-254.4 1773.5,-250.9 1773.5,-257.9"/>
<text text-anchor="middle" x="1764.25" y="-257.25" font-family="Times New Roman,serif" font-size="12.00">1</text>
</g>
<!-- 2111353374224&#45;&gt;2111353375616 -->
<g id="edge56" class="edge">
<title>2111353374224&#45;&gt;2111353375616</title>
<path fill="none" stroke="black" d="M227.88,-243.34C234.75,-262.16 246.42,-287.08 264,-303.4 283.09,-321.12 296.46,-311.51 318,-326.15 372.15,-362.95 422.83,-420.99 450.18,-455.02"/>
<polygon fill="black" stroke="black" points="447.36,-457.09 456.32,-462.75 452.85,-452.74 447.36,-457.09"/>
<text text-anchor="middle" x="291" y="-329" font-family="Times New Roman,serif" font-size="12.00">1</text>
</g>
<!-- 2111353374224&#45;&gt;2111353375712 -->
<g id="edge59" class="edge">
<title>2111353374224&#45;&gt;2111353375712</title>
<path fill="none" stroke="black" d="M246.05,-213.79C251.95,-212.99 258.19,-212.16 264,-211.4 266.27,-211.1 915.34,-131.97 917,-130.4 949.79,-99.35 900.42,-59.44 935,-30.4 979.9,7.31 1048.6,2.72 1099.88,-8.4"/>
<polygon fill="black" stroke="black" points="1098.86,-11.75 1109.39,-10.6 1100.43,-4.93 1098.86,-11.75"/>
<text text-anchor="middle" x="749.5" y="-157.49" font-family="Times New Roman,serif" font-size="12.00">1</text>
</g>
<!-- 2111353374224&#45;&gt;2111353376144 -->
<g id="edge58" class="edge">
<title>2111353374224&#45;&gt;2111353376144</title>
<path fill="none" stroke="black" d="M244.49,-226.38C250.8,-228.51 257.61,-230.67 264,-232.4 456.82,-284.51 516.47,-254.03 704.5,-321.4 805.2,-357.48 855.3,-347.02 917,-434.4 948.36,-478.81 906.46,-509.12 935,-555.4 950.41,-580.38 968.33,-572.57 989,-593.4 998.9,-603.38 995.02,-612.05 1007,-619.4 1014.05,-623.72 1021.59,-627.35 1029.42,-630.37"/>
<polygon fill="black" stroke="black" points="1028.24,-633.67 1038.83,-633.64 1030.54,-627.06 1028.24,-633.67"/>
<text text-anchor="middle" x="749.5" y="-345.92" font-family="Times New Roman,serif" font-size="12.00">1</text>
</g>
<!-- 2111353374224&#45;&gt;2111353376048 -->
<g id="edge57" class="edge">
<title>2111353374224&#45;&gt;2111353376048</title>
<path fill="none" stroke="black" d="M246.44,-217.55C368.36,-218.61 876.09,-227.5 1013,-301.4 1069.66,-331.98 1120.66,-388.69 1147.84,-422.33"/>
<polygon fill="black" stroke="black" points="1144.96,-424.33 1153.92,-429.98 1150.44,-419.98 1144.96,-424.33"/>
<text text-anchor="middle" x="749.5" y="-248.99" font-family="Times New Roman,serif" font-size="12.00">1</text>
</g>
<!-- 2111353374320&#45;&gt;2111353375808 -->
<g id="edge60" class="edge">
<title>2111353374320&#45;&gt;2111353375808</title>
<path fill="none" stroke="black" d="M1400.96,-334.66C1427.12,-320.15 1470.46,-296.1 1502.89,-278.11"/>
<polygon fill="black" stroke="black" points="1504.2,-281.38 1511.25,-273.47 1500.81,-275.26 1504.2,-281.38"/>
<text text-anchor="middle" x="1425" y="-325.31" font-family="Times New Roman,serif" font-size="12.00">1</text>
</g>
<!-- 2111353373552&#45;&gt;2111353375808 -->
<g id="edge61" class="edge">
<title>2111353373552&#45;&gt;2111353375808</title>
<path fill="none" stroke="black" d="M1384.66,-614.24C1392.34,-585.35 1405.99,-537.69 1422,-498.15 1454.64,-417.53 1503.92,-327.39 1529.28,-282.7"/>
<polygon fill="black" stroke="black" points="1532.23,-284.59 1534.14,-274.17 1526.15,-281.12 1532.23,-284.59"/>
<text text-anchor="middle" x="1425" y="-501" font-family="Times New Roman,serif" font-size="12.00">1</text>
</g>
<!-- 2111353373552&#45;&gt;2111353375136 -->
<g id="edge62" class="edge">
<title>2111353373552&#45;&gt;2111353375136</title>
<path fill="none" stroke="black" d="M1404.19,-640.4C1425.72,-640.4 1457.08,-640.4 1484.8,-640.4"/>
<polygon fill="black" stroke="black" points="1484.5,-643.9 1494.5,-640.4 1484.5,-636.9 1484.5,-643.9"/>
<text text-anchor="middle" x="1425" y="-643.25" font-family="Times New Roman,serif" font-size="12.00">1</text>
</g>
<!-- 2111353372928&#45;&gt;2111353375136 -->
<g id="edge63" class="edge">
<title>2111353372928&#45;&gt;2111353375136</title>
<path fill="none" stroke="black" d="M988.54,-1018.61C1048.84,-1029.48 1202.85,-1048.89 1308,-988.4 1436.85,-914.28 1510.86,-738.59 1535.91,-669.26"/>
<polygon fill="black" stroke="black" points="1539.1,-670.72 1539.14,-660.13 1532.5,-668.39 1539.1,-670.72"/>
<text text-anchor="middle" x="1329" y="-979.78" font-family="Times New Roman,serif" font-size="12.00">1</text>
</g>
<!-- 2111353384976&#45;&gt;2111353376144 -->
<g id="edge65" class="edge">
<title>2111353384976&#45;&gt;2111353376144</title>
<path fill="none" stroke="black" d="M977.81,-541.66C981.61,-547.65 985.58,-554.2 989,-560.4 998.02,-576.77 992.64,-586.44 1007,-598.4 1016.83,-606.58 1028.06,-613.23 1039.93,-618.61"/>
<polygon fill="black" stroke="black" points="1038.52,-621.82 1049.1,-622.45 1041.22,-615.36 1038.52,-621.82"/>
<text text-anchor="middle" x="1010" y="-604.04" font-family="Times New Roman,serif" font-size="12.00">1</text>
</g>
<!-- 2111353384976&#45;&gt;2111353376048 -->
<g id="edge64" class="edge">
<title>2111353384976&#45;&gt;2111353376048</title>
<path fill="none" stroke="black" d="M977.07,-496.57C986.7,-481.76 999.13,-464.44 1007,-460.15 1011.23,-457.84 1015.62,-455.79 1020.13,-453.98"/>
<polygon fill="black" stroke="black" points="1021.17,-457.33 1029.42,-450.68 1018.83,-450.73 1021.17,-457.33"/>
<text text-anchor="middle" x="1010" y="-463" font-family="Times New Roman,serif" font-size="12.00">1</text>
</g>
<!-- 2111353385360&#45;&gt;2111353375808 -->
<g id="edge66" class="edge">
<title>2111353385360&#45;&gt;2111353375808</title>
<path fill="none" stroke="black" d="M989.33,-63.64C1063.39,-57.12 1277.87,-46.81 1428,-126.4 1472.32,-149.9 1508.67,-196.84 1528.72,-226.88"/>
<polygon fill="black" stroke="black" points="1525.67,-228.61 1534.06,-235.09 1531.54,-224.8 1525.67,-228.61"/>
<text text-anchor="middle" x="1329" y="-90.48" font-family="Times New Roman,serif" font-size="12.00">1</text>
</g>
<!-- 2111353385360&#45;&gt;2111353375712 -->
<g id="edge67" class="edge">
<title>2111353385360&#45;&gt;2111353375712</title>
<path fill="none" stroke="black" d="M983.8,-49.93C990.79,-45.28 998.88,-40.77 1007,-38.15 1019.32,-34.17 1032.43,-31.34 1045.66,-29.38"/>
<polygon fill="black" stroke="black" points="1045.82,-32.89 1055.29,-28.12 1044.92,-25.94 1045.82,-32.89"/>
<text text-anchor="middle" x="1010" y="-41" font-family="Times New Roman,serif" font-size="12.00">1</text>
</g>
<!-- 2111353385360&#45;&gt;2111353375136 -->
<g id="edge68" class="edge">
<title>2111353385360&#45;&gt;2111353375136</title>
<path fill="none" stroke="black" d="M968.48,-92.93C974.37,-115.01 985.89,-145.76 1007,-164.4 1148.04,-288.93 1283.04,-167.28 1404,-311.4 1482.71,-405.17 1524.12,-549.3 1539.05,-610.86"/>
<polygon fill="black" stroke="black" points="1535.63,-611.64 1541.33,-620.57 1542.45,-610.03 1535.63,-611.64"/>
<text text-anchor="middle" x="1329" y="-255.58" font-family="Times New Roman,serif" font-size="12.00">1</text>
</g>
<!-- 2111353385936&#45;&gt;2111353375712 -->
<g id="edge71" class="edge">
<title>2111353385936&#45;&gt;2111353375712</title>
<path fill="none" stroke="black" d="M689.85,-775C697.56,-760.26 708.83,-741.8 722.5,-728.4 742.42,-708.87 757.47,-716.8 776.5,-696.4 855.2,-612.02 845.64,-569.61 893,-464.4 904.79,-438.21 906.68,-431.2 917,-404.4 958.39,-296.92 940.07,-255.12 1007,-161.4 1039.55,-115.82 1091.73,-77.13 1127.93,-53.64"/>
<polygon fill="black" stroke="black" points="1129.4,-56.86 1135.95,-48.53 1125.63,-50.96 1129.4,-56.86"/>
<text text-anchor="middle" x="914" y="-422.66" font-family="Times New Roman,serif" font-size="12.00">1</text>
</g>
<!-- 2111353385936&#45;&gt;2111353375328 -->
<g id="edge72" class="edge">
<title>2111353385936&#45;&gt;2111353375328</title>
<path fill="none" stroke="black" d="M703.57,-807.6C709.74,-809.56 716.34,-811.6 722.5,-813.4 742.09,-819.12 763.59,-824.97 782.93,-830.09"/>
<polygon fill="black" stroke="black" points="782.02,-833.46 792.58,-832.62 783.79,-826.69 782.02,-833.46"/>
<text text-anchor="middle" x="749.5" y="-830.86" font-family="Times New Roman,serif" font-size="12.00">1</text>
</g>
<!-- 2111353385936&#45;&gt;2111353376144 -->
<g id="edge70" class="edge">
<title>2111353385936&#45;&gt;2111353376144</title>
<path fill="none" stroke="black" d="M704.54,-804.04C762.59,-813.17 905.92,-828.94 1013,-784.4 1071.81,-759.94 1122.39,-702.85 1148.84,-668.67"/>
<polygon fill="black" stroke="black" points="1151.49,-670.97 1154.74,-660.88 1145.91,-666.74 1151.49,-670.97"/>
<text text-anchor="middle" x="914" y="-812.69" font-family="Times New Roman,serif" font-size="12.00">1</text>
</g>
<!-- 2111353385936&#45;&gt;2111353376048 -->
<g id="edge69" class="edge">
<title>2111353385936&#45;&gt;2111353376048</title>
<path fill="none" stroke="black" d="M703.42,-791.26C747.43,-776.57 841.4,-743.74 917,-707.4 950.39,-691.35 967.96,-695.89 989,-665.4 1016.63,-625.35 980.61,-598.28 1007,-557.4 1031.98,-518.71 1076.24,-490.57 1112.12,-472.73"/>
<polygon fill="black" stroke="black" points="1113.62,-475.9 1121.11,-468.41 1110.58,-469.59 1113.62,-475.9"/>
<text text-anchor="middle" x="914" y="-712.52" font-family="Times New Roman,serif" font-size="12.00">1</text>
</g>
</g>
</svg>
