<?xml version="1.0" encoding="UTF-8" standalone="no"?>
<!DOCTYPE svg PUBLIC "-//W3C//DTD SVG 1.1//EN"
 "http://www.w3.org/Graphics/SVG/1.1/DTD/svg11.dtd">
<!-- Generated by graphviz version 12.2.0 (20241103.1931)
 -->
<!-- Title: imsfs Pages: 1 -->
<svg width="1803pt" height="350pt"
 viewBox="0.00 0.00 1802.50 350.00" xmlns="http://www.w3.org/2000/svg" xmlns:xlink="http://www.w3.org/1999/xlink">
<g id="graph0" class="graph" transform="scale(1 1) rotate(0) translate(4 346)">
<title>imsfs</title>
<polygon fill="white" stroke="none" points="-4,4 -4,-346 1798.5,-346 1798.5,4 -4,4"/>
<!-- 2053365260800 -->
<g id="node1" class="node">
<title>2053365260800</title>
<polygon fill="white" stroke="black" points="343.75,-261 90,-261 90,-225 343.75,-225 343.75,-261"/>
<text text-anchor="middle" x="216.88" y="-238.72" font-family="Times New Roman,serif" font-size="12.00">Declaration APPROVED by BUDGET OWNER</text>
</g>
<!-- 2053365257296 -->
<g id="node13" class="node">
<title>2053365257296</title>
<ellipse fill="white" stroke="black" cx="406.75" cy="-243" rx="27" ry="27"/>
</g>
<!-- 2053365260800&#45;&gt;2053365257296 -->
<g id="edge1" class="edge">
<title>2053365260800&#45;&gt;2053365257296</title>
<path fill="none" stroke="black" d="M344.23,-236.62C352.84,-236.83 361.04,-237.11 368.47,-237.49"/>
<polygon fill="black" stroke="black" points="368.15,-240.97 378.34,-238.08 368.57,-233.99 368.15,-240.97"/>
</g>
<!-- 2053365258784 -->
<g id="node2" class="node">
<title>2053365258784</title>
<polygon fill="white" stroke="black" points="746.75,-342 469.75,-342 469.75,-306 746.75,-306 746.75,-342"/>
<text text-anchor="middle" x="608.25" y="-319.73" font-family="Times New Roman,serif" font-size="12.00">Declaration FOR_APPROVAL by PRE_APPROVER</text>
</g>
<!-- 2053365258784&#45;&gt;2053365257296 -->
<g id="edge4" class="edge">
<title>2053365258784&#45;&gt;2053365257296</title>
<path fill="none" stroke="black" d="M469.31,-305.78C454.17,-298.27 439.84,-286.16 428.82,-274.43"/>
<polygon fill="black" stroke="black" points="431.65,-272.35 422.41,-267.16 426.4,-276.98 431.65,-272.35"/>
</g>
<!-- 2053365259792 -->
<g id="node3" class="node">
<title>2053365259792</title>
<polygon fill="white" stroke="black" points="744.5,-122 472,-122 472,-86 744.5,-86 744.5,-122"/>
<text text-anchor="middle" x="608.25" y="-99.72" font-family="Times New Roman,serif" font-size="12.00">Declaration FINAL_APPROVED by SUPERVISOR</text>
</g>
<!-- 2053280192960 -->
<g id="node15" class="node">
<title>2053280192960</title>
<ellipse fill="white" stroke="black" cx="895.38" cy="-104" rx="27" ry="27"/>
</g>
<!-- 2053365259792&#45;&gt;2053280192960 -->
<g id="edge3" class="edge">
<title>2053365259792&#45;&gt;2053280192960</title>
<path fill="none" stroke="black" d="M744.71,-104C785.88,-104 827.84,-104 856.82,-104"/>
<polygon fill="black" stroke="black" points="856.5,-107.5 866.5,-104 856.5,-100.5 856.5,-107.5"/>
</g>
<!-- 2053365253360 -->
<g id="node4" class="node">
<title>2053365253360</title>
<polygon fill="white" stroke="black" points="737,-288 479.5,-288 479.5,-252 737,-252 737,-288"/>
<text text-anchor="middle" x="608.25" y="-265.73" font-family="Times New Roman,serif" font-size="12.00">Declaration FOR_APPROVAL by SUPERVISOR</text>
</g>
<!-- 2053365253360&#45;&gt;2053365257296 -->
<g id="edge5" class="edge">
<title>2053365253360&#45;&gt;2053365257296</title>
<path fill="none" stroke="black" d="M479.37,-259.2C466.64,-257.25 454.58,-255.23 444.11,-253.27"/>
<polygon fill="black" stroke="black" points="444.99,-249.88 434.5,-251.38 443.64,-256.75 444.99,-249.88"/>
</g>
<!-- 2053365260272 -->
<g id="node5" class="node">
<title>2053365260272</title>
<polygon fill="white" stroke="black" points="732.88,-234 483.62,-234 483.62,-198 732.88,-198 732.88,-234"/>
<text text-anchor="middle" x="608.25" y="-211.72" font-family="Times New Roman,serif" font-size="12.00">Declaration APPROVED by PRE_APPROVER</text>
</g>
<!-- 2053365260272&#45;&gt;2053365257296 -->
<g id="edge2" class="edge">
<title>2053365260272&#45;&gt;2053365257296</title>
<path fill="none" stroke="black" d="M520.12,-234.49C493.86,-238.25 466.42,-241.53 445.22,-243.34"/>
<polygon fill="black" stroke="black" points="445.05,-239.84 435.34,-244.09 445.58,-246.82 445.05,-239.84"/>
</g>
<!-- 2053365263152 -->
<g id="node6" class="node">
<title>2053365263152</title>
<polygon fill="white" stroke="black" points="1379.75,-142 1178.5,-142 1178.5,-106 1379.75,-106 1379.75,-142"/>
<text text-anchor="middle" x="1279.12" y="-119.72" font-family="Times New Roman,serif" font-size="12.00">Declaration REJECTED by MISSING</text>
</g>
<!-- 2053361838032 -->
<g id="node16" class="node">
<title>2053361838032</title>
<ellipse fill="white" stroke="black" cx="1579.5" cy="-97" rx="27" ry="27"/>
</g>
<!-- 2053365263152&#45;&gt;2053361838032 -->
<g id="edge6" class="edge">
<title>2053365263152&#45;&gt;2053361838032</title>
<path fill="none" stroke="black" d="M1379.89,-114.97C1435.13,-109.97 1500.56,-104.05 1540.79,-100.41"/>
<polygon fill="black" stroke="black" points="1541.04,-103.9 1550.68,-99.52 1540.41,-96.93 1541.04,-103.9"/>
</g>
<!-- 2053365258832 -->
<g id="node7" class="node">
<title>2053365258832</title>
<polygon fill="white" stroke="black" points="1008,-36 782.75,-36 782.75,0 1008,0 1008,-36"/>
<text text-anchor="middle" x="895.38" y="-13.72" font-family="Times New Roman,serif" font-size="12.00">Declaration REJECTED by SUPERVISOR</text>
</g>
<!-- 2053365258832&#45;&gt;2053361838032 -->
<g id="edge7" class="edge">
<title>2053365258832&#45;&gt;2053361838032</title>
<path fill="none" stroke="black" d="M1008.31,-16.85C1106.35,-16.5 1252.61,-17.59 1379.75,-25 1440.74,-28.56 1460.89,-13.7 1516.5,-39 1530.93,-45.57 1544.18,-56.86 1554.7,-67.74"/>
<polygon fill="black" stroke="black" points="1551.82,-69.78 1561.16,-74.78 1556.98,-65.05 1551.82,-69.78"/>
</g>
<!-- 2053365259312 -->
<g id="node8" class="node">
<title>2053365259312</title>
<polygon fill="white" stroke="black" points="1516.5,-84 1415.75,-84 1415.75,-48 1516.5,-48 1516.5,-84"/>
<text text-anchor="middle" x="1466.12" y="-61.73" font-family="Times New Roman,serif" font-size="12.00">Payment Handled</text>
</g>
<!-- 2053365259312&#45;&gt;2053361838032 -->
<g id="edge8" class="edge">
<title>2053365259312&#45;&gt;2053361838032</title>
<path fill="none" stroke="black" d="M1516.95,-79.87C1525.45,-82.23 1534.14,-84.65 1542.21,-86.9"/>
<polygon fill="black" stroke="black" points="1541.08,-90.22 1551.66,-89.53 1542.96,-83.47 1541.08,-90.22"/>
</g>
<!-- 2053365260080 -->
<g id="node9" class="node">
<title>2053365260080</title>
<polygon fill="white" stroke="black" points="1142.5,-86 1044,-86 1044,-50 1142.5,-50 1142.5,-86"/>
<text text-anchor="middle" x="1093.25" y="-63.73" font-family="Times New Roman,serif" font-size="12.00">Request Payment</text>
</g>
<!-- 2053280193728 -->
<g id="node14" class="node">
<title>2053280193728</title>
<ellipse fill="white" stroke="black" cx="1279.12" cy="-61" rx="27" ry="27"/>
</g>
<!-- 2053365260080&#45;&gt;2053280193728 -->
<g id="edge9" class="edge">
<title>2053365260080&#45;&gt;2053280193728</title>
<path fill="none" stroke="black" d="M1142.56,-66.16C1173.1,-65 1212,-63.52 1240.29,-62.44"/>
<polygon fill="black" stroke="black" points="1240.33,-65.94 1250.19,-62.06 1240.07,-58.95 1240.33,-65.94"/>
</g>
<!-- 2053365266416 -->
<g id="node10" class="node">
<title>2053365266416</title>
<polygon fill="black" stroke="black" points="243.88,-165 189.88,-165 189.88,-129 243.88,-129 243.88,-165"/>
</g>
<!-- 2053365266416&#45;&gt;2053365257296 -->
<g id="edge10" class="edge">
<title>2053365266416&#45;&gt;2053365257296</title>
<path fill="none" stroke="black" d="M244,-160.35C277.4,-177.42 335.3,-207 372.01,-225.76"/>
<polygon fill="black" stroke="black" points="370.37,-228.85 380.87,-230.29 373.56,-222.62 370.37,-228.85"/>
</g>
<!-- 2053353754048 -->
<g id="node17" class="node">
<title>2053353754048</title>
<ellipse fill="white" stroke="black" cx="406.75" cy="-104" rx="27" ry="27"/>
</g>
<!-- 2053365266416&#45;&gt;2053353754048 -->
<g id="edge11" class="edge">
<title>2053365266416&#45;&gt;2053353754048</title>
<path fill="none" stroke="black" d="M244,-141.02C276.62,-133.56 332.6,-120.74 369.39,-112.32"/>
<polygon fill="black" stroke="black" points="369.71,-115.84 378.67,-110.2 368.15,-109.02 369.71,-115.84"/>
</g>
<!-- 2053365266320 -->
<g id="node11" class="node">
<title>2053365266320</title>
<polygon fill="black" stroke="black" points="1696.5,-142 1642.5,-142 1642.5,-106 1696.5,-106 1696.5,-142"/>
</g>
<!-- 2053365262672 -->
<g id="node18" class="node">
<title>2053365262672</title>
<ellipse fill="white" stroke="black" cx="1763.5" cy="-124" rx="27" ry="27"/>
<ellipse fill="none" stroke="black" cx="1763.5" cy="-124" rx="31" ry="31"/>
<text text-anchor="start" x="1753.75" y="-111.97" font-family="Times New Roman,serif" font-size="32.00">■</text>
</g>
<!-- 2053365266320&#45;&gt;2053365262672 -->
<g id="edge12" class="edge">
<title>2053365266320&#45;&gt;2053365262672</title>
<path fill="none" stroke="black" d="M1696.62,-124C1704.13,-124 1712.51,-124 1720.72,-124"/>
<polygon fill="black" stroke="black" points="1720.58,-127.5 1730.58,-124 1720.58,-120.5 1720.58,-127.5"/>
</g>
<!-- 2053361838752 -->
<g id="node12" class="node">
<title>2053361838752</title>
<ellipse fill="white" stroke="black" cx="27" cy="-147" rx="27" ry="27"/>
<text text-anchor="start" x="16.88" y="-133.82" font-family="Times New Roman,serif" font-size="34.00">●</text>
</g>
<!-- 2053361838752&#45;&gt;2053365266416 -->
<g id="edge21" class="edge">
<title>2053361838752&#45;&gt;2053365266416</title>
<path fill="none" stroke="black" d="M54.12,-147C86.42,-147 141.62,-147 178.42,-147"/>
<polygon fill="black" stroke="black" points="178.16,-150.5 188.16,-147 178.16,-143.5 178.16,-150.5"/>
</g>
<!-- 2053365257296&#45;&gt;2053365260800 -->
<g id="edge13" class="edge">
<title>2053365257296&#45;&gt;2053365260800</title>
<path fill="none" stroke="black" d="M379.85,-247.83C372.7,-248.34 364.43,-248.75 355.47,-249.06"/>
<polygon fill="black" stroke="black" points="355.64,-245.55 345.75,-249.34 355.84,-252.55 355.64,-245.55"/>
</g>
<!-- 2053365257296&#45;&gt;2053365258784 -->
<g id="edge15" class="edge">
<title>2053365257296&#45;&gt;2053365258784</title>
<path fill="none" stroke="black" d="M429.19,-258.58C440.27,-268.54 454.62,-280.59 469.75,-288 482.46,-294.22 496.49,-299.01 510.59,-302.8"/>
<polygon fill="black" stroke="black" points="509.35,-306.1 519.9,-305.14 511.06,-299.31 509.35,-306.1"/>
</g>
<!-- 2053365257296&#45;&gt;2053365253360 -->
<g id="edge16" class="edge">
<title>2053365257296&#45;&gt;2053365253360</title>
<path fill="none" stroke="black" d="M433.83,-241.8C453.32,-243.06 481.28,-246.18 509.08,-249.96"/>
<polygon fill="black" stroke="black" points="508.24,-253.38 518.62,-251.3 509.2,-246.45 508.24,-253.38"/>
</g>
<!-- 2053365257296&#45;&gt;2053365260272 -->
<g id="edge14" class="edge">
<title>2053365257296&#45;&gt;2053365260272</title>
<path fill="none" stroke="black" d="M433.02,-234.91C443.9,-232.65 457.53,-230.24 472.35,-227.89"/>
<polygon fill="black" stroke="black" points="472.48,-231.42 481.83,-226.43 471.42,-224.5 472.48,-231.42"/>
</g>
<!-- 2053365257296&#45;&gt;2053365266320 -->
<g id="edge17" class="edge">
<title>2053365257296&#45;&gt;2053365266320</title>
<path fill="none" stroke="black" d="M424.73,-222.47C436.08,-210.35 452.12,-196.05 469.75,-189 645.14,-118.82 705.46,-170 894.38,-170 894.38,-170 894.38,-170 1467.12,-170 1525.68,-170 1591.45,-151.29 1631.42,-137.73"/>
<polygon fill="black" stroke="black" points="1632.5,-141.07 1640.8,-134.48 1630.2,-134.45 1632.5,-141.07"/>
</g>
<!-- 2053280193728&#45;&gt;2053365259312 -->
<g id="edge18" class="edge">
<title>2053280193728&#45;&gt;2053365259312</title>
<path fill="none" stroke="black" d="M1306.24,-61.71C1331.54,-62.39 1370.85,-63.45 1404.04,-64.35"/>
<polygon fill="black" stroke="black" points="1403.89,-67.85 1413.98,-64.62 1404.08,-60.85 1403.89,-67.85"/>
</g>
<!-- 2053280192960&#45;&gt;2053365263152 -->
<g id="edge19" class="edge">
<title>2053280192960&#45;&gt;2053365263152</title>
<path fill="none" stroke="black" d="M922.61,-105.37C972.14,-107.97 1082,-113.72 1166.58,-118.16"/>
<polygon fill="black" stroke="black" points="1166.4,-121.65 1176.56,-118.68 1166.76,-114.66 1166.4,-121.65"/>
</g>
<!-- 2053280192960&#45;&gt;2053365260080 -->
<g id="edge20" class="edge">
<title>2053280192960&#45;&gt;2053365260080</title>
<path fill="none" stroke="black" d="M922.39,-99.22C950.3,-94.09 995.59,-85.76 1032.39,-79"/>
<polygon fill="black" stroke="black" points="1032.82,-82.48 1042.02,-77.23 1031.55,-75.6 1032.82,-82.48"/>
</g>
<!-- 2053361838032&#45;&gt;2053365266320 -->
<g id="edge22" class="edge">
<title>2053361838032&#45;&gt;2053365266320</title>
<path fill="none" stroke="black" d="M1605.48,-104.66C1613.56,-107.14 1622.69,-109.94 1631.45,-112.63"/>
<polygon fill="black" stroke="black" points="1630.19,-115.91 1640.78,-115.5 1632.25,-109.22 1630.19,-115.91"/>
</g>
<!-- 2053353754048&#45;&gt;2053365259792 -->
<g id="edge23" class="edge">
<title>2053353754048&#45;&gt;2053365259792</title>
<path fill="none" stroke="black" d="M434.24,-104C441.87,-104 450.76,-104 460.42,-104"/>
<polygon fill="black" stroke="black" points="460.12,-107.5 470.12,-104 460.12,-100.5 460.12,-107.5"/>
</g>
<!-- 2053353754048&#45;&gt;2053365258832 -->
<g id="edge24" class="edge">
<title>2053353754048&#45;&gt;2053365258832</title>
<path fill="none" stroke="black" d="M431.33,-91.92C442.68,-86.58 456.64,-80.69 469.75,-77 569,-49.06 685.17,-34.08 770.9,-26.22"/>
<polygon fill="black" stroke="black" points="771.1,-29.72 780.75,-25.34 770.47,-22.74 771.1,-29.72"/>
</g>
</g>
</svg>
