<?xml version="1.0" encoding="UTF-8" standalone="no"?>
<!DOCTYPE svg PUBLIC "-//W3C//DTD SVG 1.1//EN"
 "http://www.w3.org/Graphics/SVG/1.1/DTD/svg11.dtd">
<!-- Generated by graphviz version 12.2.0 (20241103.1931)
 -->
<!-- Title: imdf_net_1744798316.4834535 Pages: 1 -->
<svg width="4625pt" height="658pt"
 viewBox="0.00 0.00 4625.00 658.00" xmlns="http://www.w3.org/2000/svg" xmlns:xlink="http://www.w3.org/1999/xlink">
<g id="graph0" class="graph" transform="scale(1 1) rotate(0) translate(4 654)">
<title>imdf_net_1744798316.4834535</title>
<polygon fill="white" stroke="none" points="-4,4 -4,-654 4621,-654 4621,4 -4,4"/>
<!-- 2053364153216 -->
<g id="node1" class="node">
<title>2053364153216</title>
<polygon fill="black" stroke="black" points="54,-60 0,-60 0,-24 54,-24 54,-60"/>
</g>
<!-- 2053364151296 -->
<g id="node55" class="node">
<title>2053364151296</title>
<ellipse fill="white" stroke="black" cx="117" cy="-123" rx="27" ry="27"/>
</g>
<!-- 2053364153216&#45;&gt;2053364151296 -->
<g id="edge61" class="edge">
<title>2053364153216&#45;&gt;2053364151296</title>
<path fill="none" stroke="black" d="M47.97,-60.38C59.87,-71.33 75.14,-85.39 88.21,-97.42"/>
<polygon fill="black" stroke="black" points="85.57,-99.75 95.3,-103.95 90.31,-94.6 85.57,-99.75"/>
</g>
<!-- 2053364153984 -->
<g id="node2" class="node">
<title>2053364153984</title>
<polygon fill="black" stroke="black" points="4519.38,-184 4465.38,-184 4465.38,-148 4519.38,-148 4519.38,-184"/>
</g>
<!-- 2053364153984&#45;&gt;2053364151296 -->
<g id="edge62" class="edge">
<title>2053364153984&#45;&gt;2053364151296</title>
<path fill="none" stroke="black" d="M4486.93,-184.38C4464.36,-272.79 4353.95,-650 4112.88,-650 296,-650 296,-650 296,-650 216.89,-650 212.68,-587.04 180,-515 125.27,-394.34 117.78,-233.77 117.44,-161.33"/>
<polygon fill="black" stroke="black" points="120.94,-161.58 117.44,-151.58 113.94,-161.58 120.94,-161.58"/>
</g>
<!-- 2053364144384 -->
<g id="node3" class="node">
<title>2053364144384</title>
<polygon fill="white" stroke="black" points="1250,-542 1033,-542 1033,-506 1250,-506 1250,-542"/>
<text text-anchor="middle" x="1141.5" y="-519.73" font-family="Times New Roman,serif" font-size="12.00">Declaration REJECTED by EMPLOYEE</text>
</g>
<!-- 2053364254368 -->
<g id="node45" class="node">
<title>2053364254368</title>
<ellipse fill="white" stroke="black" cx="2282.75" cy="-338" rx="27" ry="27"/>
</g>
<!-- 2053364144384&#45;&gt;2053364254368 -->
<g id="edge2" class="edge">
<title>2053364144384&#45;&gt;2053364254368</title>
<path fill="none" stroke="black" d="M1195.07,-505.54C1286.37,-475.17 1480.7,-418 1649.88,-418 1649.88,-418 1649.88,-418 2103.75,-418 2159.72,-418 2217.57,-384.69 2251.58,-361.06"/>
<polygon fill="black" stroke="black" points="2253.59,-363.92 2259.69,-355.26 2249.52,-358.22 2253.59,-363.92"/>
</g>
<!-- 2053353755392 -->
<g id="node4" class="node">
<title>2053353755392</title>
<polygon fill="white" stroke="black" points="985.38,-508 731.62,-508 731.62,-472 985.38,-472 985.38,-508"/>
<text text-anchor="middle" x="858.5" y="-485.73" font-family="Times New Roman,serif" font-size="12.00">Declaration APPROVED by BUDGET OWNER</text>
</g>
<!-- 2053365795520 -->
<g id="node38" class="node">
<title>2053365795520</title>
<ellipse fill="white" stroke="black" cx="657" cy="-382" rx="27" ry="27"/>
</g>
<!-- 2053353755392&#45;&gt;2053365795520 -->
<g id="edge7" class="edge">
<title>2053353755392&#45;&gt;2053365795520</title>
<path fill="none" stroke="black" d="M731.26,-478.21C727.38,-476.31 723.62,-474.25 720,-472 699.34,-459.17 683.01,-436.8 672.3,-417.42"/>
<polygon fill="black" stroke="black" points="675.48,-415.96 667.78,-408.68 669.27,-419.17 675.48,-415.96"/>
</g>
<!-- 2053364149136 -->
<g id="node5" class="node">
<title>2053364149136</title>
<polygon fill="white" stroke="black" points="2541.75,-182 2345.75,-182 2345.75,-146 2541.75,-146 2541.75,-182"/>
<text text-anchor="middle" x="2443.75" y="-159.72" font-family="Times New Roman,serif" font-size="12.00">Declaration SAVED by EMPLOYEE</text>
</g>
<!-- 2053364148512 -->
<g id="node49" class="node">
<title>2053364148512</title>
<ellipse fill="white" stroke="black" cx="2604.75" cy="-197" rx="27" ry="27"/>
</g>
<!-- 2053364149136&#45;&gt;2053364148512 -->
<g id="edge20" class="edge">
<title>2053364149136&#45;&gt;2053364148512</title>
<path fill="none" stroke="black" d="M2533.55,-182.43C2545.2,-184.85 2556.59,-187.21 2566.69,-189.31"/>
<polygon fill="black" stroke="black" points="2565.9,-192.72 2576.4,-191.32 2567.32,-185.86 2565.9,-192.72"/>
</g>
<!-- 2053364150288 -->
<g id="node6" class="node">
<title>2053364150288</title>
<polygon fill="black" stroke="black" points="2901.75,-194 2847.75,-194 2847.75,-158 2901.75,-158 2901.75,-194"/>
</g>
<!-- 2053364150336 -->
<g id="node54" class="node">
<title>2053364150336</title>
<ellipse fill="white" stroke="black" cx="2968.75" cy="-153" rx="27" ry="27"/>
</g>
<!-- 2053364150288&#45;&gt;2053364150336 -->
<g id="edge28" class="edge">
<title>2053364150288&#45;&gt;2053364150336</title>
<path fill="none" stroke="black" d="M2901.87,-169.47C2910.95,-167.2 2921.32,-164.61 2931.1,-162.16"/>
<polygon fill="black" stroke="black" points="2931.88,-165.57 2940.73,-159.75 2930.18,-158.78 2931.88,-165.57"/>
</g>
<!-- 2053364151824 -->
<g id="node7" class="node">
<title>2053364151824</title>
<polygon fill="black" stroke="black" points="3739.25,-148 3685.25,-148 3685.25,-112 3739.25,-112 3739.25,-148"/>
</g>
<!-- 2053364150912 -->
<g id="node40" class="node">
<title>2053364150912</title>
<ellipse fill="white" stroke="black" cx="3919" cy="-130" rx="27" ry="27"/>
</g>
<!-- 2053364151824&#45;&gt;2053364150912 -->
<g id="edge60" class="edge">
<title>2053364151824&#45;&gt;2053364150912</title>
<path fill="none" stroke="black" d="M3739.6,-130C3775.38,-130 3839.55,-130 3880.39,-130"/>
<polygon fill="black" stroke="black" points="3880.24,-133.5 3890.24,-130 3880.24,-126.5 3880.24,-133.5"/>
</g>
<!-- 2053364151056 -->
<g id="node8" class="node">
<title>2053364151056</title>
<polygon fill="black" stroke="black" points="234,-161 180,-161 180,-125 234,-125 234,-161"/>
</g>
<!-- 2053364149760 -->
<g id="node53" class="node">
<title>2053364149760</title>
<ellipse fill="white" stroke="black" cx="297" cy="-147" rx="27" ry="27"/>
</g>
<!-- 2053364151056&#45;&gt;2053364149760 -->
<g id="edge64" class="edge">
<title>2053364151056&#45;&gt;2053364149760</title>
<path fill="none" stroke="black" d="M234.4,-144.2C241.89,-144.54 250.18,-144.92 258.2,-145.28"/>
<polygon fill="black" stroke="black" points="257.96,-148.77 268.1,-145.73 258.27,-141.78 257.96,-148.77"/>
</g>
<!-- 2053364149904 -->
<g id="node9" class="node">
<title>2053364149904</title>
<polygon fill="black" stroke="black" points="2721.75,-356 2667.75,-356 2667.75,-320 2721.75,-320 2721.75,-356"/>
</g>
<!-- 2053365265936 -->
<g id="node47" class="node">
<title>2053365265936</title>
<ellipse fill="white" stroke="black" cx="2784.75" cy="-293" rx="27" ry="27"/>
</g>
<!-- 2053364149904&#45;&gt;2053365265936 -->
<g id="edge69" class="edge">
<title>2053364149904&#45;&gt;2053365265936</title>
<path fill="none" stroke="black" d="M2722.15,-324.5C2730.98,-319.98 2740.94,-314.89 2750.24,-310.14"/>
<polygon fill="black" stroke="black" points="2751.7,-313.32 2759.01,-305.65 2748.51,-307.09 2751.7,-313.32"/>
</g>
<!-- 2053364150048 -->
<g id="node10" class="node">
<title>2053364150048</title>
<polygon fill="black" stroke="black" points="2901.75,-140 2847.75,-140 2847.75,-104 2901.75,-104 2901.75,-140"/>
</g>
<!-- 2053364150048&#45;&gt;2053364149760 -->
<g id="edge71" class="edge">
<title>2053364150048&#45;&gt;2053364149760</title>
<path fill="none" stroke="black" d="M2847.53,-120.08C2812.82,-117.72 2749.73,-114 2695.75,-114 476,-114 476,-114 476,-114 426.23,-114 369.92,-126.63 334.21,-136.26"/>
<polygon fill="black" stroke="black" points="333.53,-132.82 324.83,-138.86 335.4,-139.56 333.53,-132.82"/>
</g>
<!-- 2053364153888 -->
<g id="node11" class="node">
<title>2053364153888</title>
<polygon fill="white" stroke="black" points="4241.75,-148 3982,-148 3982,-112 4241.75,-112 4241.75,-148"/>
<text text-anchor="middle" x="4111.88" y="-125.72" font-family="Times New Roman,serif" font-size="12.00">Declaration APPROVED by ADMINISTRATION</text>
</g>
<!-- 2053364152448 -->
<g id="node43" class="node">
<title>2053364152448</title>
<ellipse fill="white" stroke="black" cx="4304.75" cy="-130" rx="27" ry="27"/>
</g>
<!-- 2053364153888&#45;&gt;2053364152448 -->
<g id="edge3" class="edge">
<title>2053364153888&#45;&gt;2053364152448</title>
<path fill="none" stroke="black" d="M4242.04,-130C4250.61,-130 4258.76,-130 4266.16,-130"/>
<polygon fill="black" stroke="black" points="4265.98,-133.5 4275.98,-130 4265.98,-126.5 4265.98,-133.5"/>
</g>
<!-- 2053365800224 -->
<g id="node12" class="node">
<title>2053365800224</title>
<polygon fill="white" stroke="black" points="1977.5,-272 1876.75,-272 1876.75,-236 1977.5,-236 1977.5,-272"/>
<text text-anchor="middle" x="1927.12" y="-249.72" font-family="Times New Roman,serif" font-size="12.00">Payment Handled</text>
</g>
<!-- 2053365796096 -->
<g id="node48" class="node">
<title>2053365796096</title>
<ellipse fill="white" stroke="black" cx="2102.75" cy="-269" rx="27" ry="27"/>
</g>
<!-- 2053365800224&#45;&gt;2053365796096 -->
<g id="edge14" class="edge">
<title>2053365800224&#45;&gt;2053365796096</title>
<path fill="none" stroke="black" d="M1977.88,-258.3C2005.39,-260.67 2039.01,-263.58 2064.28,-265.76"/>
<polygon fill="black" stroke="black" points="2063.83,-269.24 2074.09,-266.61 2064.43,-262.26 2063.83,-269.24"/>
</g>
<!-- 2053365797920 -->
<g id="node13" class="node">
<title>2053365797920</title>
<polygon fill="black" stroke="black" points="594,-327 540,-327 540,-291 594,-291 594,-327"/>
</g>
<!-- 2053365797920&#45;&gt;2053365795520 -->
<g id="edge16" class="edge">
<title>2053365797920&#45;&gt;2053365795520</title>
<path fill="none" stroke="black" d="M590.21,-327.42C601.32,-336.64 614.92,-347.93 626.87,-357.83"/>
<polygon fill="black" stroke="black" points="624.51,-360.43 634.45,-364.12 628.98,-355.04 624.51,-360.43"/>
</g>
<!-- 2053353754336 -->
<g id="node50" class="node">
<title>2053353754336</title>
<ellipse fill="white" stroke="black" cx="657" cy="-236" rx="27" ry="27"/>
</g>
<!-- 2053365797920&#45;&gt;2053353754336 -->
<g id="edge17" class="edge">
<title>2053365797920&#45;&gt;2053353754336</title>
<path fill="none" stroke="black" d="M590.21,-290.58C601.32,-281.36 614.92,-270.07 626.87,-260.17"/>
<polygon fill="black" stroke="black" points="628.98,-262.96 634.45,-253.88 624.51,-257.57 628.98,-262.96"/>
</g>
<!-- 2053364148272 -->
<g id="node14" class="node">
<title>2053364148272</title>
<polygon fill="black" stroke="black" points="2721.75,-194 2667.75,-194 2667.75,-158 2721.75,-158 2721.75,-194"/>
</g>
<!-- 2053364148944 -->
<g id="node51" class="node">
<title>2053364148944</title>
<ellipse fill="white" stroke="black" cx="2784.75" cy="-176" rx="27" ry="27"/>
</g>
<!-- 2053364148272&#45;&gt;2053364148944 -->
<g id="edge27" class="edge">
<title>2053364148272&#45;&gt;2053364148944</title>
<path fill="none" stroke="black" d="M2722.15,-176C2729.64,-176 2737.93,-176 2745.95,-176"/>
<polygon fill="black" stroke="black" points="2745.85,-179.5 2755.85,-176 2745.85,-172.5 2745.85,-179.5"/>
</g>
<!-- 2053364153264 -->
<g id="node15" class="node">
<title>2053364153264</title>
<polygon fill="black" stroke="black" points="324,-102 270,-102 270,-66 324,-66 324,-102"/>
</g>
<!-- 2053364153264&#45;&gt;2053364150336 -->
<g id="edge63" class="edge">
<title>2053364153264&#45;&gt;2053364150336</title>
<path fill="none" stroke="black" d="M324.22,-82.08C358.93,-79.72 422.02,-76 476,-76 476,-76 476,-76 2785.75,-76 2837.99,-76 2854.52,-72.67 2901.75,-95 2916.81,-102.12 2931.02,-113.71 2942.38,-124.67"/>
<polygon fill="black" stroke="black" points="2939.88,-127.13 2949.41,-131.77 2944.86,-122.2 2939.88,-127.13"/>
</g>
<!-- 2053364143664 -->
<g id="node16" class="node">
<title>2053364143664</title>
<polygon fill="black" stroke="black" points="2470.75,-356 2416.75,-356 2416.75,-320 2470.75,-320 2470.75,-356"/>
</g>
<!-- 2053364150144 -->
<g id="node52" class="node">
<title>2053364150144</title>
<ellipse fill="white" stroke="black" cx="2604.75" cy="-338" rx="27" ry="27"/>
</g>
<!-- 2053364143664&#45;&gt;2053364150144 -->
<g id="edge66" class="edge">
<title>2053364143664&#45;&gt;2053364150144</title>
<path fill="none" stroke="black" d="M2471.01,-338C2496.9,-338 2536.74,-338 2566.02,-338"/>
<polygon fill="black" stroke="black" points="2565.94,-341.5 2575.94,-338 2565.94,-334.5 2565.94,-341.5"/>
</g>
<!-- 2053365800368 -->
<g id="node17" class="node">
<title>2053365800368</title>
<polygon fill="white" stroke="black" points="2039.75,-218 1814.5,-218 1814.5,-182 2039.75,-182 2039.75,-218"/>
<text text-anchor="middle" x="1927.12" y="-195.72" font-family="Times New Roman,serif" font-size="12.00">Declaration REJECTED by SUPERVISOR</text>
</g>
<!-- 2053365800368&#45;&gt;2053365796096 -->
<g id="edge13" class="edge">
<title>2053365800368&#45;&gt;2053365796096</title>
<path fill="none" stroke="black" d="M2017.14,-218.44C2024.91,-220.97 2032.55,-223.81 2039.75,-227 2050.81,-231.89 2062.01,-238.77 2071.8,-245.55"/>
<polygon fill="black" stroke="black" points="2069.67,-248.33 2079.83,-251.33 2073.76,-242.65 2069.67,-248.33"/>
</g>
<!-- 2053365796528 -->
<g id="node18" class="node">
<title>2053365796528</title>
<polygon fill="black" stroke="black" points="2219.75,-356 2165.75,-356 2165.75,-320 2219.75,-320 2219.75,-356"/>
</g>
<!-- 2053365796528&#45;&gt;2053364254368 -->
<g id="edge18" class="edge">
<title>2053365796528&#45;&gt;2053364254368</title>
<path fill="none" stroke="black" d="M2220.15,-338C2227.64,-338 2235.93,-338 2243.95,-338"/>
<polygon fill="black" stroke="black" points="2243.85,-341.5 2253.85,-338 2243.85,-334.5 2243.85,-341.5"/>
</g>
<!-- 2053364151488 -->
<g id="node19" class="node">
<title>2053364151488</title>
<polygon fill="black" stroke="black" points="3089.75,-171 3035.75,-171 3035.75,-135 3089.75,-135 3089.75,-171"/>
</g>
<!-- 2053364151200 -->
<g id="node41" class="node">
<title>2053364151200</title>
<ellipse fill="white" stroke="black" cx="3152.75" cy="-153" rx="27" ry="27"/>
</g>
<!-- 2053364151488&#45;&gt;2053364151200 -->
<g id="edge29" class="edge">
<title>2053364151488&#45;&gt;2053364151200</title>
<path fill="none" stroke="black" d="M3090.15,-153C3097.64,-153 3105.93,-153 3113.95,-153"/>
<polygon fill="black" stroke="black" points="3113.85,-156.5 3123.85,-153 3113.85,-149.5 3113.85,-156.5"/>
</g>
<!-- 2053364152256 -->
<g id="node20" class="node">
<title>2053364152256</title>
<polygon fill="white" stroke="black" points="3442.5,-153 3215.75,-153 3215.75,-117 3442.5,-117 3442.5,-153"/>
<text text-anchor="middle" x="3329.12" y="-130.72" font-family="Times New Roman,serif" font-size="12.00">Declaration SUBMITTED by EMPLOYEE</text>
</g>
<!-- 2053364152064 -->
<g id="node42" class="node">
<title>2053364152064</title>
<ellipse fill="white" stroke="black" cx="3505.5" cy="-130" rx="27" ry="27"/>
</g>
<!-- 2053364152256&#45;&gt;2053364152064 -->
<g id="edge19" class="edge">
<title>2053364152256&#45;&gt;2053364152064</title>
<path fill="none" stroke="black" d="M3442.53,-131.78C3451.08,-131.53 3459.27,-131.3 3466.74,-131.08"/>
<polygon fill="black" stroke="black" points="3466.79,-134.58 3476.68,-130.8 3466.58,-127.59 3466.79,-134.58"/>
</g>
<!-- 2053364152640 -->
<g id="node21" class="node">
<title>2053364152640</title>
<polygon fill="white" stroke="black" points="3856,-203 3568.5,-203 3568.5,-167 3856,-167 3856,-203"/>
<text text-anchor="middle" x="3712.25" y="-180.72" font-family="Times New Roman,serif" font-size="12.00">Declaration FOR_APPROVAL by ADMINISTRATION</text>
</g>
<!-- 2053364152640&#45;&gt;2053364151200 -->
<g id="edge5" class="edge">
<title>2053364152640&#45;&gt;2053364151200</title>
<path fill="none" stroke="black" d="M3568.15,-182.06C3469.04,-179.12 3334.16,-173.32 3215.75,-162 3207.65,-161.23 3199,-160.14 3190.8,-158.98"/>
<polygon fill="black" stroke="black" points="3191.53,-155.55 3181.12,-157.55 3190.5,-162.48 3191.53,-155.55"/>
</g>
<!-- 2053365795904 -->
<g id="node22" class="node">
<title>2053365795904</title>
<polygon fill="white" stroke="black" points="987.25,-454 729.75,-454 729.75,-418 987.25,-418 987.25,-454"/>
<text text-anchor="middle" x="858.5" y="-431.73" font-family="Times New Roman,serif" font-size="12.00">Declaration FOR_APPROVAL by SUPERVISOR</text>
</g>
<!-- 2053365795904&#45;&gt;2053365795520 -->
<g id="edge11" class="edge">
<title>2053365795904&#45;&gt;2053365795520</title>
<path fill="none" stroke="black" d="M729.55,-420.85C726.32,-419.93 723.14,-418.98 720,-418 709.19,-414.63 697.72,-409.96 687.62,-404.98"/>
<polygon fill="black" stroke="black" points="689.5,-402.01 679.02,-400.41 686.21,-408.19 689.5,-402.01"/>
</g>
<!-- 2053365797056 -->
<g id="node23" class="node">
<title>2053365797056</title>
<polygon fill="white" stroke="black" points="994.75,-254 722.25,-254 722.25,-218 994.75,-218 994.75,-254"/>
<text text-anchor="middle" x="858.5" y="-231.72" font-family="Times New Roman,serif" font-size="12.00">Declaration FINAL_APPROVED by SUPERVISOR</text>
</g>
<!-- 2053353754240 -->
<g id="node46" class="node">
<title>2053353754240</title>
<ellipse fill="white" stroke="black" cx="1141.5" cy="-245" rx="27" ry="27"/>
</g>
<!-- 2053365797056&#45;&gt;2053353754240 -->
<g id="edge9" class="edge">
<title>2053365797056&#45;&gt;2053353754240</title>
<path fill="none" stroke="black" d="M995.06,-240.34C1034.73,-241.61 1074.92,-242.9 1102.97,-243.8"/>
<polygon fill="black" stroke="black" points="1102.59,-247.29 1112.7,-244.11 1102.81,-240.29 1102.59,-247.29"/>
</g>
<!-- 2053365796288 -->
<g id="node24" class="node">
<title>2053365796288</title>
<polygon fill="white" stroke="black" points="1435.88,-256 1337.38,-256 1337.38,-220 1435.88,-220 1435.88,-256"/>
<text text-anchor="middle" x="1386.62" y="-233.72" font-family="Times New Roman,serif" font-size="12.00">Request Payment</text>
</g>
<!-- 2053353755584 -->
<g id="node39" class="node">
<title>2053353755584</title>
<ellipse fill="white" stroke="black" cx="1650.88" cy="-245" rx="27" ry="27"/>
</g>
<!-- 2053365796288&#45;&gt;2053353755584 -->
<g id="edge15" class="edge">
<title>2053365796288&#45;&gt;2053353755584</title>
<path fill="none" stroke="black" d="M1436.34,-239.3C1487.16,-240.66 1565.77,-242.76 1612.1,-243.99"/>
<polygon fill="black" stroke="black" points="1611.82,-247.49 1621.91,-244.25 1612.01,-240.49 1611.82,-247.49"/>
</g>
<!-- 2053365796432 -->
<g id="node25" class="node">
<title>2053365796432</title>
<polygon fill="white" stroke="black" points="983.12,-400 733.88,-400 733.88,-364 983.12,-364 983.12,-400"/>
<text text-anchor="middle" x="858.5" y="-377.73" font-family="Times New Roman,serif" font-size="12.00">Declaration APPROVED by PRE_APPROVER</text>
</g>
<!-- 2053365796432&#45;&gt;2053365795520 -->
<g id="edge8" class="edge">
<title>2053365796432&#45;&gt;2053365795520</title>
<path fill="none" stroke="black" d="M733.55,-388.57C719.87,-388.36 706.84,-387.98 695.57,-387.41"/>
<polygon fill="black" stroke="black" points="695.78,-383.92 685.59,-386.82 695.37,-390.91 695.78,-383.92"/>
</g>
<!-- 2053364148320 -->
<g id="node26" class="node">
<title>2053364148320</title>
<polygon fill="black" stroke="black" points="2901.75,-311 2847.75,-311 2847.75,-275 2901.75,-275 2901.75,-311"/>
</g>
<!-- 2053364139584 -->
<g id="node56" class="node">
<title>2053364139584</title>
<ellipse fill="white" stroke="black" cx="2968.75" cy="-293" rx="27" ry="27"/>
<ellipse fill="none" stroke="black" cx="2968.75" cy="-293" rx="31" ry="31"/>
<text text-anchor="start" x="2959" y="-280.98" font-family="Times New Roman,serif" font-size="32.00">■</text>
</g>
<!-- 2053364148320&#45;&gt;2053364139584 -->
<g id="edge74" class="edge">
<title>2053364148320&#45;&gt;2053364139584</title>
<path fill="none" stroke="black" d="M2901.87,-293C2909.38,-293 2917.76,-293 2925.97,-293"/>
<polygon fill="black" stroke="black" points="2925.83,-296.5 2935.83,-293 2925.83,-289.5 2925.83,-296.5"/>
</g>
<!-- 2053364148704 -->
<g id="node27" class="node">
<title>2053364148704</title>
<polygon fill="black" stroke="black" points="2470.75,-236 2416.75,-236 2416.75,-200 2470.75,-200 2470.75,-236"/>
</g>
<!-- 2053364148704&#45;&gt;2053364148512 -->
<g id="edge67" class="edge">
<title>2053364148704&#45;&gt;2053364148512</title>
<path fill="none" stroke="black" d="M2471.01,-214.53C2497.09,-211.09 2537.33,-205.77 2566.67,-201.9"/>
<polygon fill="black" stroke="black" points="2566.76,-205.42 2576.22,-200.64 2565.85,-198.48 2566.76,-205.42"/>
</g>
<!-- 2053364153696 -->
<g id="node28" class="node">
<title>2053364153696</title>
<polygon fill="white" stroke="black" points="4617,-111 4367.75,-111 4367.75,-75 4617,-75 4617,-111"/>
<text text-anchor="middle" x="4492.38" y="-88.72" font-family="Times New Roman,serif" font-size="12.00">Declaration REJECTED by BUDGET OWNER</text>
</g>
<!-- 2053364153696&#45;&gt;2053364151296 -->
<g id="edge1" class="edge">
<title>2053364153696&#45;&gt;2053364151296</title>
<path fill="none" stroke="black" d="M4411.38,-74.53C4335.11,-58.55 4216.79,-38 4112.88,-38 296,-38 296,-38 296,-38 239.03,-38 180.93,-73.89 147.23,-99.03"/>
<polygon fill="black" stroke="black" points="145.41,-96.02 139.6,-104.88 149.67,-101.58 145.41,-96.02"/>
</g>
<!-- 2053364153312 -->
<g id="node29" class="node">
<title>2053364153312</title>
<polygon fill="white" stroke="black" points="4234.25,-412 3989.5,-412 3989.5,-376 4234.25,-376 4234.25,-412"/>
<text text-anchor="middle" x="4111.88" y="-389.73" font-family="Times New Roman,serif" font-size="12.00">Declaration REJECTED by PRE_APPROVER</text>
</g>
<!-- 2053364153312&#45;&gt;2053364151296 -->
<g id="edge4" class="edge">
<title>2053364153312&#45;&gt;2053364151296</title>
<path fill="none" stroke="black" d="M4093.36,-412.21C4041,-464.61 3878.97,-612 3713.25,-612 296,-612 296,-612 296,-612 200.14,-612 140.89,-275.98 123.43,-161.03"/>
<polygon fill="black" stroke="black" points="126.94,-160.86 122,-151.48 120.02,-161.89 126.94,-160.86"/>
</g>
<!-- 2053364142944 -->
<g id="node30" class="node">
<title>2053364142944</title>
<polygon fill="black" stroke="black" points="2470.75,-296 2416.75,-296 2416.75,-260 2470.75,-260 2470.75,-296"/>
</g>
<!-- 2053364150672 -->
<g id="node44" class="node">
<title>2053364150672</title>
<ellipse fill="white" stroke="black" cx="477" cy="-309" rx="27" ry="27"/>
</g>
<!-- 2053364142944&#45;&gt;2053364150672 -->
<g id="edge65" class="edge">
<title>2053364142944&#45;&gt;2053364150672</title>
<path fill="none" stroke="black" d="M2416.29,-268.9C2352.47,-247.45 2184.65,-193.94 2039.75,-173 1752.75,-131.52 1677.61,-152 1387.62,-152 656,-152 656,-152 656,-152 582.06,-152 524.33,-229.13 496.4,-275.27"/>
<polygon fill="black" stroke="black" points="493.41,-273.46 491.35,-283.85 499.44,-277.01 493.41,-273.46"/>
</g>
<!-- 2053364149232 -->
<g id="node31" class="node">
<title>2053364149232</title>
<polygon fill="black" stroke="black" points="2721.75,-248 2667.75,-248 2667.75,-212 2721.75,-212 2721.75,-248"/>
</g>
<!-- 2053364149232&#45;&gt;2053365265936 -->
<g id="edge70" class="edge">
<title>2053364149232&#45;&gt;2053365265936</title>
<path fill="none" stroke="black" d="M2721.2,-248.22C2731.15,-255.34 2742.65,-263.58 2753.05,-271.02"/>
<polygon fill="black" stroke="black" points="2750.82,-273.73 2760.99,-276.71 2754.9,-268.04 2750.82,-273.73"/>
</g>
<!-- 2053365795952 -->
<g id="node32" class="node">
<title>2053365795952</title>
<polygon fill="white" stroke="black" points="1487.25,-310 1286,-310 1286,-274 1487.25,-274 1487.25,-310"/>
<text text-anchor="middle" x="1386.62" y="-287.73" font-family="Times New Roman,serif" font-size="12.00">Declaration REJECTED by MISSING</text>
</g>
<!-- 2053365795952&#45;&gt;2053365796096 -->
<g id="edge12" class="edge">
<title>2053365795952&#45;&gt;2053365796096</title>
<path fill="none" stroke="black" d="M1487.66,-295.7C1615.93,-299.22 1845.06,-301.33 2039.75,-281 2047.9,-280.15 2056.58,-278.77 2064.78,-277.25"/>
<polygon fill="black" stroke="black" points="2065.34,-280.7 2074.47,-275.33 2063.98,-273.84 2065.34,-280.7"/>
</g>
<!-- 2053365797104 -->
<g id="node33" class="node">
<title>2053365797104</title>
<polygon fill="white" stroke="black" points="997,-346 720,-346 720,-310 997,-310 997,-346"/>
<text text-anchor="middle" x="858.5" y="-323.73" font-family="Times New Roman,serif" font-size="12.00">Declaration FOR_APPROVAL by PRE_APPROVER</text>
</g>
<!-- 2053365797104&#45;&gt;2053365795520 -->
<g id="edge10" class="edge">
<title>2053365797104&#45;&gt;2053365795520</title>
<path fill="none" stroke="black" d="M791.38,-346.47C768.5,-351.22 742.88,-356.87 720,-364 711.58,-366.62 702.77,-370.03 694.52,-373.31"/>
<polygon fill="black" stroke="black" points="693.47,-369.96 685.48,-376.91 696.06,-376.46 693.47,-369.96"/>
</g>
<!-- 2053364253936 -->
<g id="node34" class="node">
<title>2053364253936</title>
<polygon fill="black" stroke="black" points="414,-289 360,-289 360,-253 414,-253 414,-289"/>
</g>
<!-- 2053364253936&#45;&gt;2053364150672 -->
<g id="edge26" class="edge">
<title>2053364253936&#45;&gt;2053364150672</title>
<path fill="none" stroke="black" d="M414.4,-282.4C422.83,-286.04 432.28,-290.12 441.2,-293.97"/>
<polygon fill="black" stroke="black" points="439.76,-297.16 450.33,-297.91 442.54,-290.74 439.76,-297.16"/>
</g>
<!-- 2053364145392 -->
<g id="node35" class="node">
<title>2053364145392</title>
<polygon fill="white" stroke="black" points="1778.5,-550 1523.25,-550 1523.25,-514 1778.5,-514 1778.5,-550"/>
<text text-anchor="middle" x="1650.88" y="-527.73" font-family="Times New Roman,serif" font-size="12.00">Declaration REJECTED by ADMINISTRATION</text>
</g>
<!-- 2053364145392&#45;&gt;2053364254368 -->
<g id="edge6" class="edge">
<title>2053364145392&#45;&gt;2053364254368</title>
<path fill="none" stroke="black" d="M1778.82,-537.43C1901.33,-536.64 2087.22,-519.02 2219.75,-432 2241.18,-417.93 2256.92,-393.61 2267.18,-373.23"/>
<polygon fill="black" stroke="black" points="2270.26,-374.91 2271.4,-364.37 2263.94,-371.9 2270.26,-374.91"/>
</g>
<!-- 2053364145776 -->
<g id="node36" class="node">
<title>2053364145776</title>
<polygon fill="black" stroke="black" points="2721.75,-302 2667.75,-302 2667.75,-266 2721.75,-266 2721.75,-302"/>
</g>
<!-- 2053364145776&#45;&gt;2053364148944 -->
<g id="edge68" class="edge">
<title>2053364145776&#45;&gt;2053364148944</title>
<path fill="none" stroke="black" d="M2713.94,-265.67C2716.61,-262.81 2719.29,-259.86 2721.75,-257 2735.51,-240.98 2749.91,-222.31 2761.36,-206.94"/>
<polygon fill="black" stroke="black" points="2764.05,-209.18 2767.18,-199.06 2758.42,-205.02 2764.05,-209.18"/>
</g>
<!-- 2053365256768 -->
<g id="node37" class="node">
<title>2053365256768</title>
<ellipse fill="white" stroke="black" cx="2282.75" cy="-169" rx="27" ry="27"/>
<text text-anchor="start" x="2272.62" y="-155.82" font-family="Times New Roman,serif" font-size="34.00">●</text>
</g>
<!-- 2053365256768&#45;&gt;2053364149136 -->
<g id="edge72" class="edge">
<title>2053365256768&#45;&gt;2053364149136</title>
<path fill="none" stroke="black" d="M2310.01,-168.17C2317.14,-167.95 2325.33,-167.69 2334.06,-167.42"/>
<polygon fill="black" stroke="black" points="2333.99,-170.92 2343.87,-167.11 2333.77,-163.93 2333.99,-170.92"/>
</g>
<!-- 2053365256768&#45;&gt;2053364148704 -->
<g id="edge73" class="edge">
<title>2053365256768&#45;&gt;2053364148704</title>
<path fill="none" stroke="black" d="M2308.36,-178.17C2319.68,-182.28 2333.34,-187.07 2345.75,-191 2365.26,-197.17 2387.2,-203.34 2405.28,-208.22"/>
<polygon fill="black" stroke="black" points="2404.23,-211.56 2414.79,-210.77 2406.04,-204.8 2404.23,-211.56"/>
</g>
<!-- 2053365795520&#45;&gt;2053353755392 -->
<g id="edge21" class="edge">
<title>2053365795520&#45;&gt;2053353755392</title>
<path fill="none" stroke="black" d="M673.33,-403.79C684.04,-420.2 699.99,-441.57 720,-454 729.38,-459.82 739.75,-464.43 750.47,-468.12"/>
<polygon fill="black" stroke="black" points="749.25,-471.41 759.84,-471.06 751.35,-464.73 749.25,-471.41"/>
</g>
<!-- 2053365795520&#45;&gt;2053365796528 -->
<g id="edge25" class="edge">
<title>2053365795520&#45;&gt;2053365796528</title>
<path fill="none" stroke="black" d="M669.04,-357.5C679.22,-338.21 696.34,-312.68 720,-301 830.38,-246.48 873.95,-297.17 997,-301 1287.49,-310.04 1359.24,-338 1649.88,-338 1649.88,-338 1649.88,-338 1928.12,-338 2008.63,-338 2102.97,-338 2154.12,-338"/>
<polygon fill="black" stroke="black" points="2154.04,-341.5 2164.04,-338 2154.04,-334.5 2154.04,-341.5"/>
</g>
<!-- 2053365795520&#45;&gt;2053365795904 -->
<g id="edge24" class="edge">
<title>2053365795520&#45;&gt;2053365795904</title>
<path fill="none" stroke="black" d="M684.07,-386.53C694.97,-390.83 707.9,-396.23 720,-400 739.21,-405.99 760.37,-410.93 780.2,-415.17"/>
<polygon fill="black" stroke="black" points="779.39,-418.58 789.9,-417.22 780.84,-411.73 779.39,-418.58"/>
</g>
<!-- 2053365795520&#45;&gt;2053365796432 -->
<g id="edge22" class="edge">
<title>2053365795520&#45;&gt;2053365796432</title>
<path fill="none" stroke="black" d="M684.08,-377.27C694.77,-376.52 708.01,-375.97 722.37,-375.64"/>
<polygon fill="black" stroke="black" points="722.11,-379.15 732.04,-375.46 721.97,-372.15 722.11,-379.15"/>
</g>
<!-- 2053365795520&#45;&gt;2053365797104 -->
<g id="edge23" class="edge">
<title>2053365795520&#45;&gt;2053365797104</title>
<path fill="none" stroke="black" d="M677.68,-364.3C686.7,-359.14 697.84,-353.96 709.01,-349.78"/>
<polygon fill="black" stroke="black" points="709.92,-353.17 718.23,-346.6 707.63,-346.55 709.92,-353.17"/>
</g>
<!-- 2053353755584&#45;&gt;2053365800224 -->
<g id="edge30" class="edge">
<title>2053353755584&#45;&gt;2053365800224</title>
<path fill="none" stroke="black" d="M1678.17,-245.86C1720.91,-247.27 1806.53,-250.08 1865.08,-252"/>
<polygon fill="black" stroke="black" points="1864.79,-255.49 1874.9,-252.32 1865.02,-248.49 1864.79,-255.49"/>
</g>
<!-- 2053364150912&#45;&gt;2053364153216 -->
<g id="edge33" class="edge">
<title>2053364150912&#45;&gt;2053364153216</title>
<path fill="none" stroke="black" d="M3895.15,-117.3C3834.08,-84.59 3661.21,0 3506.5,0 206,0 206,0 206,0 156.29,0 100.81,-15.71 65.21,-27.91"/>
<polygon fill="black" stroke="black" points="64.08,-24.6 55.81,-31.22 66.4,-31.2 64.08,-24.6"/>
</g>
<!-- 2053364150912&#45;&gt;2053364153888 -->
<g id="edge31" class="edge">
<title>2053364150912&#45;&gt;2053364153888</title>
<path fill="none" stroke="black" d="M3946.14,-130C3953.18,-130 3961.3,-130 3970.1,-130"/>
<polygon fill="black" stroke="black" points="3970.05,-133.5 3980.05,-130 3970.05,-126.5 3970.05,-133.5"/>
</g>
<!-- 2053364150912&#45;&gt;2053364153312 -->
<g id="edge32" class="edge">
<title>2053364150912&#45;&gt;2053364153312</title>
<path fill="none" stroke="black" d="M3935.62,-151.6C3970.15,-199.37 4052.94,-313.87 4091.05,-366.58"/>
<polygon fill="black" stroke="black" points="4088.05,-368.4 4096.74,-374.45 4093.72,-364.3 4088.05,-368.4"/>
</g>
<!-- 2053364151200&#45;&gt;2053364152256 -->
<g id="edge34" class="edge">
<title>2053364151200&#45;&gt;2053364152256</title>
<path fill="none" stroke="black" d="M3179.86,-150.31C3186.94,-149.57 3195.1,-148.73 3203.88,-147.83"/>
<polygon fill="black" stroke="black" points="3204.19,-151.31 3213.78,-146.8 3203.48,-144.35 3204.19,-151.31"/>
</g>
<!-- 2053364152064&#45;&gt;2053364151824 -->
<g id="edge36" class="edge">
<title>2053364152064&#45;&gt;2053364151824</title>
<path fill="none" stroke="black" d="M3532.85,-130C3568.63,-130 3632.8,-130 3673.64,-130"/>
<polygon fill="black" stroke="black" points="3673.49,-133.5 3683.49,-130 3673.49,-126.5 3673.49,-133.5"/>
</g>
<!-- 2053364152064&#45;&gt;2053364152640 -->
<g id="edge35" class="edge">
<title>2053364152064&#45;&gt;2053364152640</title>
<path fill="none" stroke="black" d="M3530.18,-141.76C3541.55,-147.02 3555.5,-152.95 3568.5,-157 3576.38,-159.46 3584.57,-161.74 3592.87,-163.86"/>
<polygon fill="black" stroke="black" points="3591.81,-167.2 3602.36,-166.19 3593.48,-160.41 3591.81,-167.2"/>
</g>
<!-- 2053364152448&#45;&gt;2053364153984 -->
<g id="edge38" class="edge">
<title>2053364152448&#45;&gt;2053364153984</title>
<path fill="none" stroke="black" d="M4331.56,-135.01C4363.29,-141.16 4417.4,-151.65 4453.75,-158.7"/>
<polygon fill="black" stroke="black" points="4452.91,-162.11 4463.4,-160.57 4454.25,-155.23 4452.91,-162.11"/>
</g>
<!-- 2053364152448&#45;&gt;2053364153696 -->
<g id="edge37" class="edge">
<title>2053364152448&#45;&gt;2053364153696</title>
<path fill="none" stroke="black" d="M4331.56,-124.86C4346.59,-121.86 4366.64,-117.86 4387.45,-113.72"/>
<polygon fill="black" stroke="black" points="4388.11,-117.15 4397.23,-111.77 4386.74,-110.29 4388.11,-117.15"/>
</g>
<!-- 2053364150672&#45;&gt;2053364144384 -->
<g id="edge39" class="edge">
<title>2053364150672&#45;&gt;2053364144384</title>
<path fill="none" stroke="black" d="M493.85,-330.19C528.77,-374.91 617.47,-478.02 720,-517 816.6,-553.73 934.93,-551.98 1021.43,-543.08"/>
<polygon fill="black" stroke="black" points="1021.54,-546.59 1031.11,-542.03 1020.79,-539.63 1021.54,-546.59"/>
</g>
<!-- 2053364150672&#45;&gt;2053365797920 -->
<g id="edge41" class="edge">
<title>2053364150672&#45;&gt;2053365797920</title>
<path fill="none" stroke="black" d="M504.4,-309C511.89,-309 520.18,-309 528.2,-309"/>
<polygon fill="black" stroke="black" points="528.1,-312.5 538.1,-309 528.1,-305.5 528.1,-312.5"/>
</g>
<!-- 2053364150672&#45;&gt;2053364145392 -->
<g id="edge40" class="edge">
<title>2053364150672&#45;&gt;2053364145392</title>
<path fill="none" stroke="black" d="M482.75,-335.87C496.37,-403.24 542.11,-574 656,-574 656,-574 656,-574 1142.5,-574 1267.73,-574 1409.77,-561.13 1511.64,-549.64"/>
<polygon fill="black" stroke="black" points="1511.88,-553.14 1521.42,-548.53 1511.09,-546.18 1511.88,-553.14"/>
</g>
<!-- 2053364254368&#45;&gt;2053364143664 -->
<g id="edge43" class="edge">
<title>2053364254368&#45;&gt;2053364143664</title>
<path fill="none" stroke="black" d="M2310.01,-338C2335.9,-338 2375.74,-338 2405.02,-338"/>
<polygon fill="black" stroke="black" points="2404.94,-341.5 2414.94,-338 2404.94,-334.5 2404.94,-341.5"/>
</g>
<!-- 2053364254368&#45;&gt;2053364142944 -->
<g id="edge42" class="edge">
<title>2053364254368&#45;&gt;2053364142944</title>
<path fill="none" stroke="black" d="M2307.7,-327.02C2319.13,-321.92 2333.05,-315.92 2345.75,-311 2365.39,-303.4 2387.62,-295.77 2405.84,-289.76"/>
<polygon fill="black" stroke="black" points="2406.74,-293.15 2415.16,-286.72 2404.57,-286.49 2406.74,-293.15"/>
</g>
<!-- 2053353754240&#45;&gt;2053365796288 -->
<g id="edge45" class="edge">
<title>2053353754240&#45;&gt;2053365796288</title>
<path fill="none" stroke="black" d="M1168.98,-244.24C1206.32,-243.16 1275.47,-241.17 1325.62,-239.73"/>
<polygon fill="black" stroke="black" points="1325.57,-243.23 1335.46,-239.44 1325.36,-236.23 1325.57,-243.23"/>
</g>
<!-- 2053353754240&#45;&gt;2053365795952 -->
<g id="edge44" class="edge">
<title>2053353754240&#45;&gt;2053365795952</title>
<path fill="none" stroke="black" d="M1168.52,-250.03C1195.11,-255.17 1238.19,-263.5 1278.99,-271.38"/>
<polygon fill="black" stroke="black" points="1278.17,-274.79 1288.65,-273.25 1279.5,-267.92 1278.17,-274.79"/>
</g>
<!-- 2053365265936&#45;&gt;2053364148320 -->
<g id="edge46" class="edge">
<title>2053365265936&#45;&gt;2053364148320</title>
<path fill="none" stroke="black" d="M2812.15,-293C2819.64,-293 2827.93,-293 2835.95,-293"/>
<polygon fill="black" stroke="black" points="2835.85,-296.5 2845.85,-293 2835.85,-289.5 2835.85,-296.5"/>
</g>
<!-- 2053365796096&#45;&gt;2053365796528 -->
<g id="edge47" class="edge">
<title>2053365796096&#45;&gt;2053365796528</title>
<path fill="none" stroke="black" d="M2124.6,-285.35C2134.95,-293.47 2147.69,-303.45 2159.27,-312.54"/>
<polygon fill="black" stroke="black" points="2157.03,-315.23 2167.06,-318.64 2161.35,-309.72 2157.03,-315.23"/>
</g>
<!-- 2053364148512&#45;&gt;2053364148272 -->
<g id="edge48" class="edge">
<title>2053364148512&#45;&gt;2053364148272</title>
<path fill="none" stroke="black" d="M2631.2,-190.93C2639.02,-189.06 2647.79,-186.97 2656.24,-184.95"/>
<polygon fill="black" stroke="black" points="2657.05,-188.36 2665.96,-182.63 2655.42,-181.55 2657.05,-188.36"/>
</g>
<!-- 2053364148512&#45;&gt;2053364149232 -->
<g id="edge49" class="edge">
<title>2053364148512&#45;&gt;2053364149232</title>
<path fill="none" stroke="black" d="M2630.26,-206.19C2638.51,-209.28 2647.89,-212.8 2656.87,-216.17"/>
<polygon fill="black" stroke="black" points="2655.51,-219.4 2666.1,-219.63 2657.97,-212.84 2655.51,-219.4"/>
</g>
<!-- 2053353754336&#45;&gt;2053365800368 -->
<g id="edge51" class="edge">
<title>2053353754336&#45;&gt;2053365800368</title>
<path fill="none" stroke="black" d="M681.15,-223.51C692.52,-218.01 706.62,-212.1 720,-209 902.24,-166.73 953.42,-190 1140.5,-190 1140.5,-190 1140.5,-190 1387.62,-190 1530.09,-190 1693.72,-193.54 1802.86,-196.41"/>
<polygon fill="black" stroke="black" points="1802.63,-199.91 1812.72,-196.67 1802.82,-192.91 1802.63,-199.91"/>
</g>
<!-- 2053353754336&#45;&gt;2053365797056 -->
<g id="edge50" class="edge">
<title>2053353754336&#45;&gt;2053365797056</title>
<path fill="none" stroke="black" d="M684.49,-236C692.12,-236 701.01,-236 710.67,-236"/>
<polygon fill="black" stroke="black" points="710.37,-239.5 720.37,-236 710.37,-232.5 710.37,-239.5"/>
</g>
<!-- 2053364148944&#45;&gt;2053364150288 -->
<g id="edge52" class="edge">
<title>2053364148944&#45;&gt;2053364150288</title>
<path fill="none" stroke="black" d="M2812.15,-176C2819.64,-176 2827.93,-176 2835.95,-176"/>
<polygon fill="black" stroke="black" points="2835.85,-179.5 2845.85,-176 2835.85,-172.5 2835.85,-179.5"/>
</g>
<!-- 2053364148944&#45;&gt;2053364150048 -->
<g id="edge53" class="edge">
<title>2053364148944&#45;&gt;2053364150048</title>
<path fill="none" stroke="black" d="M2808.41,-162.09C2817.35,-156.61 2827.84,-150.17 2837.76,-144.08"/>
<polygon fill="black" stroke="black" points="2839.44,-147.16 2846.13,-138.95 2835.78,-141.2 2839.44,-147.16"/>
</g>
<!-- 2053364150144&#45;&gt;2053364149904 -->
<g id="edge55" class="edge">
<title>2053364150144&#45;&gt;2053364149904</title>
<path fill="none" stroke="black" d="M2632.15,-338C2639.64,-338 2647.93,-338 2655.95,-338"/>
<polygon fill="black" stroke="black" points="2655.85,-341.5 2665.85,-338 2655.85,-334.5 2655.85,-341.5"/>
</g>
<!-- 2053364150144&#45;&gt;2053364145776 -->
<g id="edge54" class="edge">
<title>2053364150144&#45;&gt;2053364145776</title>
<path fill="none" stroke="black" d="M2628.41,-324.09C2637.35,-318.61 2647.84,-312.17 2657.76,-306.08"/>
<polygon fill="black" stroke="black" points="2659.44,-309.16 2666.13,-300.95 2655.78,-303.2 2659.44,-309.16"/>
</g>
<!-- 2053364149760&#45;&gt;2053364253936 -->
<g id="edge56" class="edge">
<title>2053364149760&#45;&gt;2053364253936</title>
<path fill="none" stroke="black" d="M313.53,-168.88C328.23,-189.6 350.36,-220.78 366.29,-243.23"/>
<polygon fill="black" stroke="black" points="363.4,-245.2 372.04,-251.33 369.11,-241.15 363.4,-245.2"/>
</g>
<!-- 2053364150336&#45;&gt;2053364151488 -->
<g id="edge57" class="edge">
<title>2053364150336&#45;&gt;2053364151488</title>
<path fill="none" stroke="black" d="M2995.87,-153C3004.71,-153 3014.76,-153 3024.3,-153"/>
<polygon fill="black" stroke="black" points="3024.05,-156.5 3034.05,-153 3024.05,-149.5 3024.05,-156.5"/>
</g>
<!-- 2053364151296&#45;&gt;2053364151056 -->
<g id="edge59" class="edge">
<title>2053364151296&#45;&gt;2053364151056</title>
<path fill="none" stroke="black" d="M143.45,-128.78C151.27,-130.56 160.04,-132.56 168.49,-134.48"/>
<polygon fill="black" stroke="black" points="167.68,-137.88 178.21,-136.68 169.23,-131.05 167.68,-137.88"/>
</g>
<!-- 2053364151296&#45;&gt;2053364153264 -->
<g id="edge58" class="edge">
<title>2053364151296&#45;&gt;2053364153264</title>
<path fill="none" stroke="black" d="M143.88,-117.33C174.03,-110.72 224.08,-99.76 258.49,-92.22"/>
<polygon fill="black" stroke="black" points="259.01,-95.69 268.03,-90.13 257.51,-88.85 259.01,-95.69"/>
</g>
</g>
</svg>
